<svg width="328" height="19" viewBox="0 0 328 19" fill="none" xmlns="http://www.w3.org/2000/svg">
<path d="M5.32247 14.4667C4.69551 14.4667 4.0819 14.4133 3.48162 14.3066C2.88135 14.1999 2.32109 14.0465 1.80085 13.8464C1.29395 13.6463 0.833736 13.3929 0.420213 13.086C0.260139 12.966 0.146754 12.8326 0.0800564 12.6859C0.0266985 12.5258 0.0133591 12.3724 0.040038 12.2257C0.0800564 12.0656 0.146754 11.9322 0.24013 11.8255C0.346846 11.7188 0.473571 11.6587 0.620305 11.6454C0.767039 11.632 0.927113 11.6787 1.10053 11.7855C1.7008 12.2123 2.3411 12.5258 3.02141 12.7259C3.70172 12.9126 4.46874 13.006 5.32247 13.006C6.52302 13.006 7.4101 12.7859 7.98369 12.3457C8.57063 11.8922 8.8641 11.2986 8.8641 10.5649C8.8641 9.96461 8.65067 9.49773 8.2238 9.16424C7.81028 8.81742 7.10996 8.54396 6.12284 8.34387L4.04188 7.92367C2.78797 7.65688 1.84754 7.22335 1.22058 6.62308C0.606965 6.00946 0.300158 5.19575 0.300158 4.18195C0.300158 3.555 0.426883 2.98807 0.680333 2.48117C0.933783 1.96093 1.28728 1.52073 1.74082 1.16056C2.19436 0.787058 2.73461 0.500259 3.36157 0.300166C3.98852 0.100074 4.68217 2.83849e-05 5.44252 2.83849e-05C6.28291 2.83849e-05 7.06327 0.120084 7.7836 0.360194C8.51727 0.586965 9.17757 0.933792 9.76451 1.40067C9.91125 1.52073 10.0113 1.66079 10.0647 1.82087C10.118 1.9676 10.1247 2.11433 10.0847 2.26107C10.0446 2.39446 9.97127 2.50785 9.86456 2.60122C9.77118 2.6946 9.64446 2.74796 9.48438 2.7613C9.33765 2.77464 9.17091 2.72128 8.98415 2.60122C8.45057 2.20104 7.89699 1.91424 7.32339 1.74083C6.74979 1.55408 6.11617 1.4607 5.42251 1.4607C4.71552 1.4607 4.10191 1.56742 3.58167 1.78085C3.07477 1.99428 2.67458 2.30776 2.38112 2.72128C2.10099 3.12146 1.96092 3.58835 1.96092 4.12193C1.96092 4.76222 2.15434 5.26912 2.54119 5.64262C2.94137 6.01613 3.58834 6.28959 4.48208 6.463L6.56304 6.9032C7.91033 7.18333 8.90412 7.6102 9.54441 8.18379C10.198 8.74405 10.5249 9.51107 10.5249 10.4849C10.5249 11.0718 10.4048 11.612 10.1647 12.1056C9.92459 12.5992 9.57776 13.026 9.12422 13.3862C8.67067 13.733 8.12376 13.9998 7.48346 14.1866C6.84317 14.3733 6.12284 14.4667 5.32247 14.4667ZM13.651 14.4267C13.3842 14.4267 13.1841 14.3533 13.0507 14.2066C12.9173 14.0598 12.8506 13.8531 12.8506 13.5863V0.860425C12.8506 0.593635 12.9173 0.393543 13.0507 0.260148C13.1841 0.113414 13.3842 0.0400475 13.651 0.0400475C13.9044 0.0400475 14.1045 0.113414 14.2513 0.260148C14.398 0.393543 14.4714 0.593635 14.4714 0.860425V6.72312H14.2112C14.4914 5.94943 14.9449 5.36917 15.5719 4.98232C16.2122 4.58214 16.9458 4.38204 17.7729 4.38204C18.5466 4.38204 19.1869 4.52211 19.6938 4.80224C20.214 5.08237 20.6009 5.50923 20.8543 6.08283C21.1078 6.64308 21.2345 7.35675 21.2345 8.22381V13.5863C21.2345 13.8531 21.1611 14.0598 21.0144 14.2066C20.881 14.3533 20.6876 14.4267 20.4341 14.4267C20.1673 14.4267 19.9606 14.3533 19.8138 14.2066C19.6804 14.0598 19.6137 13.8531 19.6137 13.5863V8.32386C19.6137 7.41677 19.4336 6.75647 19.0735 6.34295C18.7267 5.91608 18.1664 5.70265 17.3927 5.70265C16.499 5.70265 15.7853 5.98278 15.2517 6.54304C14.7315 7.08996 14.4714 7.82363 14.4714 8.74405V13.5863C14.4714 14.1465 14.1979 14.4267 13.651 14.4267ZM27.2844 14.4667C26.6175 14.4667 26.0172 14.34 25.4836 14.0865C24.9634 13.8197 24.5499 13.4596 24.243 13.006C23.9362 12.5525 23.7828 12.0456 23.7828 11.4853C23.7828 10.765 23.9629 10.1981 24.3231 9.78453C24.6966 9.37101 25.3035 9.07754 26.1439 8.90412C26.9976 8.73071 28.1582 8.64401 29.6255 8.64401H30.5259V9.70449H29.6455C28.565 9.70449 27.7113 9.75785 27.0844 9.86457C26.4707 9.95794 26.0372 10.1247 25.7838 10.3648C25.5436 10.6049 25.4236 10.9451 25.4236 11.3853C25.4236 11.9322 25.6103 12.3791 25.9838 12.7259C26.3707 13.0727 26.8909 13.2461 27.5446 13.2461C28.0781 13.2461 28.545 13.1194 28.9452 12.8659C29.3587 12.6125 29.6789 12.2657 29.9057 11.8255C30.1458 11.3853 30.2658 10.8784 30.2658 10.3048V8.02372C30.2658 7.19667 30.0991 6.60307 29.7656 6.2429C29.4321 5.8694 28.8852 5.68264 28.1248 5.68264C27.658 5.68264 27.1911 5.74267 26.7242 5.86273C26.2573 5.98278 25.7637 6.1762 25.2435 6.44299C25.0568 6.53637 24.8967 6.56972 24.7633 6.54304C24.6299 6.50302 24.5232 6.42965 24.4431 6.32294C24.3631 6.21622 24.3164 6.09617 24.3031 5.96277C24.2897 5.81604 24.3164 5.67597 24.3831 5.54258C24.4631 5.40918 24.5832 5.30247 24.7433 5.22243C25.3302 4.92896 25.9105 4.71553 26.4841 4.58214C27.0577 4.44874 27.6046 4.38204 28.1248 4.38204C28.9652 4.38204 29.6589 4.52211 30.2058 4.80224C30.7527 5.06903 31.1596 5.48255 31.4264 6.04281C31.6931 6.58973 31.8265 7.29672 31.8265 8.16378V13.5863C31.8265 13.8531 31.7598 14.0598 31.6264 14.2066C31.5064 14.3533 31.3263 14.4267 31.0862 14.4267C30.8327 14.4267 30.6393 14.3533 30.5059 14.2066C30.3725 14.0598 30.3058 13.8531 30.3058 13.5863V12.0256H30.4859C30.3792 12.5325 30.1724 12.966 29.8656 13.3262C29.5722 13.6863 29.2053 13.9665 28.7651 14.1665C28.3249 14.3666 27.8314 14.4667 27.2844 14.4667ZM35.6538 14.4267C35.387 14.4267 35.1802 14.3533 35.0335 14.2066C34.9001 14.0598 34.8334 13.8531 34.8334 13.5863V5.24244C34.8334 4.97565 34.9001 4.77556 35.0335 4.64216C35.1669 4.49543 35.3603 4.42206 35.6137 4.42206C35.8672 4.42206 36.0606 4.49543 36.194 4.64216C36.3407 4.77556 36.4141 4.97565 36.4141 5.24244V6.86319H36.214C36.4275 6.07616 36.8343 5.46921 37.4346 5.04235C38.0349 4.61549 38.7752 4.38871 39.6556 4.36204C39.8557 4.3487 40.0158 4.39538 40.1358 4.5021C40.2559 4.59548 40.3226 4.76222 40.3359 5.00233C40.3493 5.2291 40.2959 5.40918 40.1758 5.54258C40.0558 5.67597 39.869 5.75601 39.6156 5.78269L39.2954 5.82271C38.3884 5.90274 37.688 6.19621 37.1945 6.70311C36.7143 7.19667 36.4741 7.87699 36.4741 8.74405V13.5863C36.4741 13.8531 36.4008 14.0598 36.254 14.2066C36.1206 14.3533 35.9206 14.4267 35.6538 14.4267ZM46.2694 14.4667C45.2423 14.4667 44.3552 14.2666 43.6082 13.8664C42.8745 13.4529 42.3009 12.8726 41.8874 12.1256C41.4872 11.3786 41.2871 10.4849 41.2871 9.44437C41.2871 8.43057 41.4872 7.55017 41.8874 6.80316C42.2876 6.04281 42.8345 5.4492 43.5282 5.02234C44.2352 4.59548 45.0489 4.38204 45.9693 4.38204C46.6229 4.38204 47.2099 4.49543 47.7301 4.7222C48.2503 4.93563 48.6905 5.24911 49.0507 5.66263C49.4242 6.07616 49.7043 6.57639 49.8911 7.16332C50.0912 7.75026 50.1912 8.41056 50.1912 9.14424C50.1912 9.35767 50.1312 9.51774 50.0111 9.62446C49.8911 9.71783 49.7177 9.76452 49.4909 9.76452H42.5277V8.70403H49.1107L48.7906 8.96415C48.7906 8.24382 48.6839 7.63688 48.4704 7.14331C48.257 6.63642 47.9435 6.24957 47.53 5.98278C47.1298 5.71599 46.6229 5.5826 46.0093 5.5826C45.329 5.5826 44.7487 5.74267 44.2685 6.06282C43.8016 6.36963 43.4481 6.80316 43.208 7.36342C42.9679 7.91033 42.8479 8.55063 42.8479 9.2843V9.40435C42.8479 10.6316 43.1413 11.5653 43.7283 12.2056C44.3285 12.8459 45.1756 13.1661 46.2694 13.1661C46.723 13.1661 47.1698 13.1061 47.61 12.986C48.0636 12.8659 48.5038 12.6659 48.9307 12.3857C49.1174 12.2657 49.2841 12.2123 49.4309 12.2257C49.591 12.2257 49.7177 12.2723 49.8111 12.3657C49.9044 12.4458 49.9645 12.5525 49.9911 12.6859C50.0312 12.8059 50.0178 12.9393 49.9511 13.086C49.8978 13.2328 49.7844 13.3595 49.611 13.4662C49.1708 13.7864 48.6505 14.0332 48.0502 14.2066C47.45 14.38 46.8564 14.4667 46.2694 14.4667ZM61.5973 14.4667C60.8369 14.4667 60.1966 14.3333 59.6764 14.0665C59.1695 13.7864 58.7893 13.3862 58.5359 12.8659C58.2824 12.3324 58.1557 11.6854 58.1557 10.9251V5.82271H56.8151C56.5883 5.82271 56.4149 5.76935 56.2948 5.66263C56.1748 5.54258 56.1147 5.3825 56.1147 5.18241C56.1147 4.98232 56.1748 4.82892 56.2948 4.7222C56.4149 4.61549 56.5883 4.56213 56.8151 4.56213H58.1557V2.26107C58.1557 1.99428 58.229 1.79419 58.3758 1.66079C58.5225 1.51406 58.7226 1.44069 58.9761 1.44069C59.2295 1.44069 59.4229 1.51406 59.5563 1.66079C59.7031 1.79419 59.7764 1.99428 59.7764 2.26107V4.56213H62.2976C62.5244 4.56213 62.6978 4.61549 62.8178 4.7222C62.9379 4.82892 62.9979 4.98232 62.9979 5.18241C62.9979 5.3825 62.9379 5.54258 62.8178 5.66263C62.6978 5.76935 62.5244 5.82271 62.2976 5.82271H59.7764V10.765C59.7764 11.5253 59.9365 12.1056 60.2566 12.5058C60.5768 12.8926 61.097 13.086 61.8174 13.086C62.0708 13.086 62.2842 13.0594 62.4577 13.006C62.6444 12.9527 62.7978 12.926 62.9179 12.926C63.0379 12.9126 63.138 12.9527 63.218 13.046C63.298 13.1394 63.3381 13.2995 63.3381 13.5263C63.3381 13.6863 63.3047 13.8331 63.238 13.9665C63.1847 14.0998 63.0846 14.1932 62.9379 14.2466C62.7778 14.2999 62.5644 14.3466 62.2976 14.3866C62.0441 14.44 61.8107 14.4667 61.5973 14.4667ZM65.6085 14.4267C65.3417 14.4267 65.1416 14.3533 65.0082 14.2066C64.8748 14.0598 64.8081 13.8531 64.8081 13.5863V0.860425C64.8081 0.593635 64.8748 0.393543 65.0082 0.260148C65.1416 0.113414 65.3417 0.0400475 65.6085 0.0400475C65.8619 0.0400475 66.062 0.113414 66.2088 0.260148C66.3555 0.393543 66.4289 0.593635 66.4289 0.860425V6.72312H66.1687C66.4489 5.94943 66.9024 5.36917 67.5294 4.98232C68.1697 4.58214 68.9033 4.38204 69.7304 4.38204C70.5041 4.38204 71.1444 4.52211 71.6513 4.80224C72.1715 5.08237 72.5583 5.50923 72.8118 6.08283C73.0652 6.64308 73.192 7.35675 73.192 8.22381V13.5863C73.192 13.8531 73.1186 14.0598 72.9719 14.2066C72.8385 14.3533 72.6451 14.4267 72.3916 14.4267C72.1248 14.4267 71.9181 14.3533 71.7713 14.2066C71.6379 14.0598 71.5712 13.8531 71.5712 13.5863V8.32386C71.5712 7.41677 71.3911 6.75647 71.031 6.34295C70.6841 5.91608 70.1239 5.70265 69.3502 5.70265C68.4565 5.70265 67.7428 5.98278 67.2092 6.54304C66.689 7.08996 66.4289 7.82363 66.4289 8.74405V13.5863C66.4289 14.1465 66.1554 14.4267 65.6085 14.4267ZM76.9809 14.3866C76.7141 14.3866 76.514 14.3133 76.3806 14.1665C76.2472 14.0065 76.1805 13.7864 76.1805 13.5062V5.32248C76.1805 5.04235 76.2472 4.82892 76.3806 4.68218C76.514 4.53545 76.7141 4.46208 76.9809 4.46208C77.2343 4.46208 77.4344 4.53545 77.5812 4.68218C77.7279 4.82892 77.8013 5.04235 77.8013 5.32248V13.5062C77.8013 13.7864 77.7279 14.0065 77.5812 14.1665C77.4478 14.3133 77.2477 14.3866 76.9809 14.3866ZM76.9809 2.22105C76.6474 2.22105 76.3873 2.13434 76.2005 1.96093C76.0138 1.77418 75.9204 1.5274 75.9204 1.22059C75.9204 0.900443 76.0138 0.660332 76.2005 0.500259C76.3873 0.326846 76.6474 0.240139 76.9809 0.240139C77.3277 0.240139 77.5878 0.326846 77.7613 0.500259C77.948 0.660332 78.0414 0.900443 78.0414 1.22059C78.0414 1.5274 77.948 1.77418 77.7613 1.96093C77.5878 2.13434 77.3277 2.22105 76.9809 2.22105ZM84.1126 14.4667C83.5123 14.4667 82.9054 14.3933 82.2918 14.2466C81.6915 14.0998 81.1312 13.8464 80.611 13.4862C80.4776 13.3929 80.3842 13.2861 80.3309 13.1661C80.2775 13.0327 80.2575 12.906 80.2709 12.7859C80.2975 12.6525 80.3509 12.5391 80.4309 12.4458C80.5243 12.3524 80.631 12.299 80.7511 12.2857C80.8845 12.259 81.0312 12.2857 81.1913 12.3657C81.7115 12.6859 82.2117 12.9126 82.692 13.046C83.1855 13.1661 83.6724 13.2261 84.1526 13.2261C84.913 13.2261 85.4866 13.086 85.8734 12.8059C86.2603 12.5258 86.4537 12.1456 86.4537 11.6654C86.4537 11.2919 86.327 10.9984 86.0735 10.785C85.8201 10.5582 85.4199 10.3848 84.873 10.2648L83.0521 9.86457C82.2117 9.69115 81.5848 9.39102 81.1713 8.96415C80.7711 8.53729 80.571 7.9837 80.571 7.30339C80.571 6.70311 80.7244 6.18954 81.0312 5.76268C81.3513 5.32248 81.7982 4.98232 82.3718 4.74221C82.9454 4.5021 83.6124 4.38204 84.3727 4.38204C84.9597 4.38204 85.5133 4.46208 86.0335 4.62216C86.5671 4.76889 87.0473 5.009 87.4742 5.34249C87.6076 5.43586 87.6943 5.54925 87.7343 5.68264C87.7876 5.8027 87.7943 5.92942 87.7543 6.06282C87.7276 6.18287 87.6676 6.28959 87.5742 6.38297C87.4808 6.463 87.3674 6.50969 87.2341 6.52303C87.1007 6.53637 86.9606 6.49635 86.8139 6.40297C86.4137 6.13618 86.0068 5.94276 85.5933 5.82271C85.1798 5.68931 84.7729 5.62262 84.3727 5.62262C83.6257 5.62262 83.0588 5.76935 82.672 6.06282C82.2851 6.35629 82.0917 6.74313 82.0917 7.22335C82.0917 7.59686 82.2117 7.90366 82.4519 8.14378C82.692 8.38389 83.0655 8.5573 83.5724 8.66401L85.3932 9.04419C86.2603 9.23094 86.9072 9.53108 87.3341 9.9446C87.7743 10.3448 87.9944 10.8917 87.9944 11.5854C87.9944 12.4658 87.6409 13.1661 86.9339 13.6863C86.2269 14.2066 85.2865 14.4667 84.1126 14.4667ZM98.5844 14.4667C97.624 14.4667 96.8903 14.1732 96.3834 13.5863C95.8765 12.9993 95.6231 12.159 95.6231 11.0651V0.860425C95.6231 0.593635 95.6898 0.393543 95.8232 0.260148C95.9566 0.113414 96.1566 0.0400475 96.4234 0.0400475C96.6769 0.0400475 96.877 0.113414 97.0237 0.260148C97.1704 0.393543 97.2438 0.593635 97.2438 0.860425V10.9451C97.2438 11.6654 97.3839 12.2056 97.664 12.5658C97.9575 12.9126 98.3843 13.086 98.9446 13.086C99.0647 13.086 99.1714 13.0794 99.2647 13.066C99.3581 13.0527 99.4515 13.046 99.5449 13.046C99.6916 13.0327 99.7917 13.066 99.845 13.1461C99.9117 13.2261 99.9451 13.3862 99.9451 13.6263C99.9451 13.8664 99.8917 14.0465 99.785 14.1665C99.6783 14.2866 99.5049 14.3666 99.2647 14.4067C99.158 14.42 99.0446 14.4333 98.9246 14.4467C98.8045 14.46 98.6911 14.4667 98.5844 14.4667ZM102.344 14.3866C102.077 14.3866 101.877 14.3133 101.744 14.1665C101.61 14.0065 101.544 13.7864 101.544 13.5062V5.32248C101.544 5.04235 101.61 4.82892 101.744 4.68218C101.877 4.53545 102.077 4.46208 102.344 4.46208C102.598 4.46208 102.798 4.53545 102.944 4.68218C103.091 4.82892 103.165 5.04235 103.165 5.32248V13.5062C103.165 13.7864 103.091 14.0065 102.944 14.1665C102.811 14.3133 102.611 14.3866 102.344 14.3866ZM102.344 2.22105C102.011 2.22105 101.751 2.13434 101.564 1.96093C101.377 1.77418 101.284 1.5274 101.284 1.22059C101.284 0.900443 101.377 0.660332 101.564 0.500259C101.751 0.326846 102.011 0.240139 102.344 0.240139C102.691 0.240139 102.951 0.326846 103.124 0.500259C103.311 0.660332 103.405 0.900443 103.405 1.22059C103.405 1.5274 103.311 1.77418 103.124 1.96093C102.951 2.13434 102.691 2.22105 102.344 2.22105ZM106.995 14.4267C106.728 14.4267 106.528 14.3533 106.394 14.2066C106.261 14.0598 106.194 13.8531 106.194 13.5863V5.24244C106.194 4.97565 106.261 4.77556 106.394 4.64216C106.528 4.49543 106.721 4.42206 106.975 4.42206C107.228 4.42206 107.422 4.49543 107.555 4.64216C107.702 4.77556 107.775 4.97565 107.775 5.24244V6.96323L107.555 6.72312C107.835 5.94943 108.289 5.36917 108.916 4.98232C109.556 4.58214 110.29 4.38204 111.117 4.38204C111.89 4.38204 112.531 4.52211 113.037 4.80224C113.558 5.08237 113.945 5.50923 114.198 6.08283C114.451 6.64308 114.578 7.35675 114.578 8.22381V13.5863C114.578 13.8531 114.505 14.0598 114.358 14.2066C114.225 14.3533 114.031 14.4267 113.778 14.4267C113.511 14.4267 113.304 14.3533 113.158 14.2066C113.024 14.0598 112.957 13.8531 112.957 13.5863V8.32386C112.957 7.41677 112.777 6.75647 112.417 6.34295C112.07 5.91608 111.51 5.70265 110.736 5.70265C109.843 5.70265 109.129 5.98278 108.595 6.54304C108.075 7.08996 107.815 7.82363 107.815 8.74405V13.5863C107.815 14.1465 107.542 14.4267 106.995 14.4267ZM118.367 14.4267C118.1 14.4267 117.9 14.3533 117.767 14.2066C117.633 14.0598 117.567 13.8531 117.567 13.5863V0.860425C117.567 0.593635 117.633 0.393543 117.767 0.260148C117.9 0.113414 118.1 0.0400475 118.367 0.0400475C118.621 0.0400475 118.821 0.113414 118.967 0.260148C119.114 0.393543 119.188 0.593635 119.188 0.860425V8.88412H119.228L123.329 4.96231C123.516 4.7889 123.676 4.6555 123.81 4.56213C123.956 4.46875 124.15 4.42206 124.39 4.42206C124.603 4.42206 124.77 4.48209 124.89 4.60215C125.01 4.70886 125.064 4.84893 125.05 5.02234C125.05 5.18241 124.97 5.35583 124.81 5.54258L120.448 9.68448V8.80408L125.19 13.2661C125.377 13.4529 125.47 13.633 125.47 13.8064C125.47 13.9798 125.404 14.1265 125.27 14.2466C125.15 14.3666 124.99 14.4267 124.79 14.4267C124.55 14.4267 124.357 14.38 124.21 14.2866C124.063 14.1799 123.883 14.0265 123.67 13.8264L119.228 9.7245H119.188V13.5863C119.188 14.1465 118.914 14.4267 118.367 14.4267ZM136.092 14.4267C135.865 14.4267 135.665 14.3666 135.491 14.2466C135.318 14.1265 135.178 13.9331 135.071 13.6663L132.09 5.56259C132.01 5.33582 131.983 5.13572 132.01 4.96231C132.05 4.7889 132.136 4.6555 132.27 4.56213C132.403 4.46875 132.57 4.42206 132.77 4.42206C132.97 4.42206 133.13 4.46875 133.25 4.56213C133.384 4.6555 133.49 4.82892 133.57 5.08237L136.372 13.086H135.891L138.773 5.08237C138.866 4.84226 138.98 4.67551 139.113 4.58214C139.26 4.47542 139.446 4.42206 139.673 4.42206C139.887 4.42206 140.067 4.47542 140.213 4.58214C140.36 4.68885 140.474 4.8556 140.554 5.08237L143.375 13.086H142.915L145.756 5.04235C145.849 4.80224 145.963 4.64216 146.096 4.56213C146.23 4.46875 146.39 4.42206 146.576 4.42206C146.79 4.42206 146.95 4.47542 147.057 4.58214C147.177 4.68885 147.243 4.82892 147.257 5.00233C147.27 5.17574 147.237 5.3625 147.157 5.56259L144.175 13.6663C144.082 13.9198 143.942 14.1132 143.755 14.2466C143.582 14.3666 143.382 14.4267 143.155 14.4267C142.928 14.4267 142.728 14.3666 142.555 14.2466C142.381 14.1132 142.248 13.9198 142.154 13.6663L139.193 5.54258H140.053L137.112 13.6663C137.019 13.9198 136.885 14.1132 136.712 14.2466C136.538 14.3666 136.332 14.4267 136.092 14.4267ZM150.354 14.3866C150.088 14.3866 149.888 14.3133 149.754 14.1665C149.621 14.0065 149.554 13.7864 149.554 13.5062V5.32248C149.554 5.04235 149.621 4.82892 149.754 4.68218C149.888 4.53545 150.088 4.46208 150.354 4.46208C150.608 4.46208 150.808 4.53545 150.955 4.68218C151.102 4.82892 151.175 5.04235 151.175 5.32248V13.5062C151.175 13.7864 151.102 14.0065 150.955 14.1665C150.821 14.3133 150.621 14.3866 150.354 14.3866ZM150.354 2.22105C150.021 2.22105 149.761 2.13434 149.574 1.96093C149.387 1.77418 149.294 1.5274 149.294 1.22059C149.294 0.900443 149.387 0.660332 149.574 0.500259C149.761 0.326846 150.021 0.240139 150.354 0.240139C150.701 0.240139 150.961 0.326846 151.135 0.500259C151.322 0.660332 151.415 0.900443 151.415 1.22059C151.415 1.5274 151.322 1.77418 151.135 1.96093C150.961 2.13434 150.701 2.22105 150.354 2.22105ZM158.106 14.4667C157.346 14.4667 156.706 14.3333 156.186 14.0665C155.679 13.7864 155.299 13.3862 155.045 12.8659C154.792 12.3324 154.665 11.6854 154.665 10.9251V5.82271H153.324C153.098 5.82271 152.924 5.76935 152.804 5.66263C152.684 5.54258 152.624 5.3825 152.624 5.18241C152.624 4.98232 152.684 4.82892 152.804 4.7222C152.924 4.61549 153.098 4.56213 153.324 4.56213H154.665V2.26107C154.665 1.99428 154.738 1.79419 154.885 1.66079C155.032 1.51406 155.232 1.44069 155.485 1.44069C155.739 1.44069 155.932 1.51406 156.066 1.66079C156.212 1.79419 156.286 1.99428 156.286 2.26107V4.56213H158.807C159.034 4.56213 159.207 4.61549 159.327 4.7222C159.447 4.82892 159.507 4.98232 159.507 5.18241C159.507 5.3825 159.447 5.54258 159.327 5.66263C159.207 5.76935 159.034 5.82271 158.807 5.82271H156.286V10.765C156.286 11.5253 156.446 12.1056 156.766 12.5058C157.086 12.8926 157.606 13.086 158.327 13.086C158.58 13.086 158.793 13.0594 158.967 13.006C159.154 12.9527 159.307 12.926 159.427 12.926C159.547 12.9126 159.647 12.9527 159.727 13.046C159.807 13.1394 159.847 13.2995 159.847 13.5263C159.847 13.6863 159.814 13.8331 159.747 13.9665C159.694 14.0998 159.594 14.1932 159.447 14.2466C159.287 14.2999 159.074 14.3466 158.807 14.3866C158.553 14.44 158.32 14.4667 158.106 14.4667ZM162.118 14.4267C161.851 14.4267 161.651 14.3533 161.517 14.2066C161.384 14.0598 161.317 13.8531 161.317 13.5863V0.860425C161.317 0.593635 161.384 0.393543 161.517 0.260148C161.651 0.113414 161.851 0.0400475 162.118 0.0400475C162.371 0.0400475 162.571 0.113414 162.718 0.260148C162.865 0.393543 162.938 0.593635 162.938 0.860425V6.72312H162.678C162.958 5.94943 163.412 5.36917 164.039 4.98232C164.679 4.58214 165.413 4.38204 166.24 4.38204C167.013 4.38204 167.654 4.52211 168.16 4.80224C168.681 5.08237 169.068 5.50923 169.321 6.08283C169.574 6.64308 169.701 7.35675 169.701 8.22381V13.5863C169.701 13.8531 169.628 14.0598 169.481 14.2066C169.348 14.3533 169.154 14.4267 168.901 14.4267C168.634 14.4267 168.427 14.3533 168.281 14.2066C168.147 14.0598 168.08 13.8531 168.08 13.5863V8.32386C168.08 7.41677 167.9 6.75647 167.54 6.34295C167.193 5.91608 166.633 5.70265 165.859 5.70265C164.966 5.70265 164.252 5.98278 163.718 6.54304C163.198 7.08996 162.938 7.82363 162.938 8.74405V13.5863C162.938 14.1465 162.665 14.4267 162.118 14.4267ZM181.75 14.4667C180.99 14.4667 180.35 14.3333 179.829 14.0665C179.322 13.7864 178.942 13.3862 178.689 12.8659C178.435 12.3324 178.309 11.6854 178.309 10.9251V5.82271H176.968C176.741 5.82271 176.568 5.76935 176.448 5.66263C176.328 5.54258 176.268 5.3825 176.268 5.18241C176.268 4.98232 176.328 4.82892 176.448 4.7222C176.568 4.61549 176.741 4.56213 176.968 4.56213H178.309V2.26107C178.309 1.99428 178.382 1.79419 178.529 1.66079C178.675 1.51406 178.876 1.44069 179.129 1.44069C179.382 1.44069 179.576 1.51406 179.709 1.66079C179.856 1.79419 179.929 1.99428 179.929 2.26107V4.56213H182.451C182.677 4.56213 182.851 4.61549 182.971 4.7222C183.091 4.82892 183.151 4.98232 183.151 5.18241C183.151 5.3825 183.091 5.54258 182.971 5.66263C182.851 5.76935 182.677 5.82271 182.451 5.82271H179.929V10.765C179.929 11.5253 180.089 12.1056 180.41 12.5058C180.73 12.8926 181.25 13.086 181.97 13.086C182.224 13.086 182.437 13.0594 182.611 13.006C182.797 12.9527 182.951 12.926 183.071 12.926C183.191 12.9126 183.291 12.9527 183.371 13.046C183.451 13.1394 183.491 13.2995 183.491 13.5263C183.491 13.6863 183.458 13.8331 183.391 13.9665C183.338 14.0998 183.238 14.1932 183.091 14.2466C182.931 14.2999 182.717 14.3466 182.451 14.3866C182.197 14.44 181.964 14.4667 181.75 14.4667ZM185.761 14.4267C185.495 14.4267 185.295 14.3533 185.161 14.2066C185.028 14.0598 184.961 13.8531 184.961 13.5863V0.860425C184.961 0.593635 185.028 0.393543 185.161 0.260148C185.295 0.113414 185.495 0.0400475 185.761 0.0400475C186.015 0.0400475 186.215 0.113414 186.362 0.260148C186.508 0.393543 186.582 0.593635 186.582 0.860425V6.72312H186.322C186.602 5.94943 187.055 5.36917 187.682 4.98232C188.323 4.58214 189.056 4.38204 189.883 4.38204C190.657 4.38204 191.297 4.52211 191.804 4.80224C192.324 5.08237 192.711 5.50923 192.965 6.08283C193.218 6.64308 193.345 7.35675 193.345 8.22381V13.5863C193.345 13.8531 193.272 14.0598 193.125 14.2066C192.991 14.3533 192.798 14.4267 192.545 14.4267C192.278 14.4267 192.071 14.3533 191.924 14.2066C191.791 14.0598 191.724 13.8531 191.724 13.5863V8.32386C191.724 7.41677 191.544 6.75647 191.184 6.34295C190.837 5.91608 190.277 5.70265 189.503 5.70265C188.609 5.70265 187.896 5.98278 187.362 6.54304C186.842 7.08996 186.582 7.82363 186.582 8.74405V13.5863C186.582 14.1465 186.308 14.4267 185.761 14.4267ZM200.715 14.4667C199.688 14.4667 198.801 14.2666 198.054 13.8664C197.321 13.4529 196.747 12.8726 196.333 12.1256C195.933 11.3786 195.733 10.4849 195.733 9.44437C195.733 8.43057 195.933 7.55017 196.333 6.80316C196.734 6.04281 197.281 5.4492 197.974 5.02234C198.681 4.59548 199.495 4.38204 200.415 4.38204C201.069 4.38204 201.656 4.49543 202.176 4.7222C202.696 4.93563 203.137 5.24911 203.497 5.66263C203.87 6.07616 204.15 6.57639 204.337 7.16332C204.537 7.75026 204.637 8.41056 204.637 9.14424C204.637 9.35767 204.577 9.51774 204.457 9.62446C204.337 9.71783 204.164 9.76452 203.937 9.76452H196.974V8.70403H203.557L203.237 8.96415C203.237 8.24382 203.13 7.63688 202.916 7.14331C202.703 6.63642 202.39 6.24957 201.976 5.98278C201.576 5.71599 201.069 5.5826 200.455 5.5826C199.775 5.5826 199.195 5.74267 198.715 6.06282C198.248 6.36963 197.894 6.80316 197.654 7.36342C197.414 7.91033 197.294 8.55063 197.294 9.2843V9.40435C197.294 10.6316 197.587 11.5653 198.174 12.2056C198.775 12.8459 199.622 13.1661 200.715 13.1661C201.169 13.1661 201.616 13.1061 202.056 12.986C202.51 12.8659 202.95 12.6659 203.377 12.3857C203.563 12.2657 203.73 12.2123 203.877 12.2257C204.037 12.2257 204.164 12.2723 204.257 12.3657C204.35 12.4458 204.411 12.5525 204.437 12.6859C204.477 12.8059 204.464 12.9393 204.397 13.086C204.344 13.2328 204.23 13.3595 204.057 13.4662C203.617 13.7864 203.097 14.0332 202.496 14.2066C201.896 14.38 201.302 14.4667 200.715 14.4667ZM216.183 14.4667C215.236 14.4667 214.416 14.2599 213.722 13.8464C213.029 13.4329 212.488 12.8526 212.101 12.1056C211.728 11.3452 211.541 10.4515 211.541 9.42436C211.541 8.65067 211.648 7.95702 211.861 7.34341C212.075 6.71645 212.388 6.18287 212.802 5.74267C213.215 5.30247 213.702 4.96898 214.262 4.74221C214.836 4.5021 215.476 4.38204 216.183 4.38204C217.13 4.38204 217.951 4.58881 218.645 5.00233C219.338 5.41585 219.872 6.00279 220.245 6.76314C220.632 7.51015 220.826 8.39722 220.826 9.42436C220.826 10.1981 220.719 10.8917 220.505 11.5053C220.292 12.1189 219.978 12.6525 219.565 13.1061C219.151 13.5463 218.658 13.8864 218.084 14.1265C217.524 14.3533 216.89 14.4667 216.183 14.4667ZM216.183 13.1661C216.784 13.1661 217.311 13.0194 217.764 12.7259C218.218 12.4324 218.564 12.0056 218.805 11.4453C219.058 10.885 219.185 10.2114 219.185 9.42436C219.185 8.21047 218.911 7.28338 218.364 6.64308C217.831 6.00279 217.104 5.68264 216.183 5.68264C215.57 5.68264 215.036 5.82938 214.583 6.12285C214.142 6.40297 213.796 6.82317 213.542 7.38343C213.302 7.93034 213.182 8.61066 213.182 9.42436C213.182 10.6249 213.455 11.552 214.002 12.2056C214.549 12.8459 215.276 13.1661 216.183 13.1661ZM227.064 14.4667C226.304 14.4667 225.663 14.3333 225.143 14.0665C224.636 13.7864 224.256 13.3862 224.003 12.8659C223.749 12.3324 223.622 11.6854 223.622 10.9251V5.82271H222.282C222.055 5.82271 221.882 5.76935 221.762 5.66263C221.642 5.54258 221.581 5.3825 221.581 5.18241C221.581 4.98232 221.642 4.82892 221.762 4.7222C221.882 4.61549 222.055 4.56213 222.282 4.56213H223.622V2.26107C223.622 1.99428 223.696 1.79419 223.843 1.66079C223.989 1.51406 224.189 1.44069 224.443 1.44069C224.696 1.44069 224.89 1.51406 225.023 1.66079C225.17 1.79419 225.243 1.99428 225.243 2.26107V4.56213H227.764C227.991 4.56213 228.165 4.61549 228.285 4.7222C228.405 4.82892 228.465 4.98232 228.465 5.18241C228.465 5.3825 228.405 5.54258 228.285 5.66263C228.165 5.76935 227.991 5.82271 227.764 5.82271H225.243V10.765C225.243 11.5253 225.403 12.1056 225.723 12.5058C226.044 12.8926 226.564 13.086 227.284 13.086C227.538 13.086 227.751 13.0594 227.924 13.006C228.111 12.9527 228.265 12.926 228.385 12.926C228.505 12.9126 228.605 12.9527 228.685 13.046C228.765 13.1394 228.805 13.2995 228.805 13.5263C228.805 13.6863 228.771 13.8331 228.705 13.9665C228.651 14.0998 228.551 14.1932 228.405 14.2466C228.245 14.2999 228.031 14.3466 227.764 14.3866C227.511 14.44 227.277 14.4667 227.064 14.4667ZM231.075 14.4267C230.808 14.4267 230.608 14.3533 230.475 14.2066C230.342 14.0598 230.275 13.8531 230.275 13.5863V0.860425C230.275 0.593635 230.342 0.393543 230.475 0.260148C230.608 0.113414 230.808 0.0400475 231.075 0.0400475C231.329 0.0400475 231.529 0.113414 231.675 0.260148C231.822 0.393543 231.896 0.593635 231.896 0.860425V6.72312H231.635C231.916 5.94943 232.369 5.36917 232.996 4.98232C233.636 4.58214 234.37 4.38204 235.197 4.38204C235.971 4.38204 236.611 4.52211 237.118 4.80224C237.638 5.08237 238.025 5.50923 238.279 6.08283C238.532 6.64308 238.659 7.35675 238.659 8.22381V13.5863C238.659 13.8531 238.585 14.0598 238.439 14.2066C238.305 14.3533 238.112 14.4267 237.858 14.4267C237.592 14.4267 237.385 14.3533 237.238 14.2066C237.105 14.0598 237.038 13.8531 237.038 13.5863V8.32386C237.038 7.41677 236.858 6.75647 236.498 6.34295C236.151 5.91608 235.591 5.70265 234.817 5.70265C233.923 5.70265 233.21 5.98278 232.676 6.54304C232.156 7.08996 231.896 7.82363 231.896 8.74405V13.5863C231.896 14.1465 231.622 14.4267 231.075 14.4267ZM246.029 14.4667C245.002 14.4667 244.115 14.2666 243.368 13.8664C242.634 13.4529 242.061 12.8726 241.647 12.1256C241.247 11.3786 241.047 10.4849 241.047 9.44437C241.047 8.43057 241.247 7.55017 241.647 6.80316C242.047 6.04281 242.594 5.4492 243.288 5.02234C243.995 4.59548 244.809 4.38204 245.729 4.38204C246.383 4.38204 246.97 4.49543 247.49 4.7222C248.01 4.93563 248.45 5.24911 248.811 5.66263C249.184 6.07616 249.464 6.57639 249.651 7.16332C249.851 7.75026 249.951 8.41056 249.951 9.14424C249.951 9.35767 249.891 9.51774 249.771 9.62446C249.651 9.71783 249.478 9.76452 249.251 9.76452H242.288V8.70403H248.871L248.55 8.96415C248.55 8.24382 248.444 7.63688 248.23 7.14331C248.017 6.63642 247.703 6.24957 247.29 5.98278C246.89 5.71599 246.383 5.5826 245.769 5.5826C245.089 5.5826 244.509 5.74267 244.028 6.06282C243.561 6.36963 243.208 6.80316 242.968 7.36342C242.728 7.91033 242.608 8.55063 242.608 9.2843V9.40435C242.608 10.6316 242.901 11.5653 243.488 12.2056C244.088 12.8459 244.935 13.1661 246.029 13.1661C246.483 13.1661 246.93 13.1061 247.37 12.986C247.823 12.8659 248.264 12.6659 248.691 12.3857C248.877 12.2657 249.044 12.2123 249.191 12.2257C249.351 12.2257 249.478 12.2723 249.571 12.3657C249.664 12.4458 249.724 12.5525 249.751 12.6859C249.791 12.8059 249.778 12.9393 249.711 13.086C249.658 13.2328 249.544 13.3595 249.371 13.4662C248.931 13.7864 248.41 14.0332 247.81 14.2066C247.21 14.38 246.616 14.4667 246.029 14.4667ZM253.117 14.4267C252.85 14.4267 252.644 14.3533 252.497 14.2066C252.363 14.0598 252.297 13.8531 252.297 13.5863V5.24244C252.297 4.97565 252.363 4.77556 252.497 4.64216C252.63 4.49543 252.824 4.42206 253.077 4.42206C253.331 4.42206 253.524 4.49543 253.657 4.64216C253.804 4.77556 253.877 4.97565 253.877 5.24244V6.86319H253.677C253.891 6.07616 254.298 5.46921 254.898 5.04235C255.498 4.61549 256.239 4.38871 257.119 4.36204C257.319 4.3487 257.479 4.39538 257.599 4.5021C257.719 4.59548 257.786 4.76222 257.799 5.00233C257.813 5.2291 257.759 5.40918 257.639 5.54258C257.519 5.67597 257.332 5.75601 257.079 5.78269L256.759 5.82271C255.852 5.90274 255.151 6.19621 254.658 6.70311C254.178 7.19667 253.937 7.87699 253.937 8.74405V13.5863C253.937 13.8531 253.864 14.0598 253.717 14.2066C253.584 14.3533 253.384 14.4267 253.117 14.4267ZM265.427 18.0283C265.16 18.0283 264.96 17.955 264.827 17.8082C264.693 17.6748 264.627 17.4747 264.627 17.2079V5.24244C264.627 4.97565 264.693 4.77556 264.827 4.64216C264.96 4.49543 265.153 4.42206 265.407 4.42206C265.674 4.42206 265.874 4.49543 266.007 4.64216C266.154 4.77556 266.227 4.97565 266.227 5.24244V7.14331L266.007 6.86319C266.221 6.10284 266.641 5.50256 267.268 5.06236C267.908 4.60882 268.668 4.38204 269.549 4.38204C270.416 4.38204 271.17 4.58881 271.81 5.00233C272.464 5.40251 272.964 5.98278 273.311 6.74313C273.671 7.49014 273.851 8.38389 273.851 9.42436C273.851 10.4515 273.671 11.3452 273.311 12.1056C272.964 12.8526 272.47 13.4329 271.83 13.8464C271.19 14.2599 270.429 14.4667 269.549 14.4667C268.668 14.4667 267.915 14.2466 267.288 13.8064C266.661 13.3528 266.234 12.7526 266.007 12.0056H266.247V17.2079C266.247 17.4747 266.174 17.6748 266.027 17.8082C265.881 17.955 265.68 18.0283 265.427 18.0283ZM269.209 13.1661C269.822 13.1661 270.349 13.0194 270.789 12.7259C271.243 12.4324 271.59 12.0056 271.83 11.4453C272.083 10.885 272.21 10.2114 272.21 9.42436C272.21 8.21047 271.937 7.28338 271.39 6.64308C270.856 6.00279 270.129 5.68264 269.209 5.68264C268.608 5.68264 268.082 5.82938 267.628 6.12285C267.174 6.40297 266.821 6.82317 266.567 7.38343C266.327 7.93034 266.207 8.61066 266.207 9.42436C266.207 10.6249 266.481 11.552 267.028 12.2056C267.575 12.8459 268.302 13.1661 269.209 13.1661ZM280.674 14.4667C279.647 14.4667 278.76 14.2666 278.013 13.8664C277.279 13.4529 276.706 12.8726 276.292 12.1256C275.892 11.3786 275.692 10.4849 275.692 9.44437C275.692 8.43057 275.892 7.55017 276.292 6.80316C276.692 6.04281 277.239 5.4492 277.933 5.02234C278.64 4.59548 279.454 4.38204 280.374 4.38204C281.028 4.38204 281.615 4.49543 282.135 4.7222C282.655 4.93563 283.095 5.24911 283.455 5.66263C283.829 6.07616 284.109 6.57639 284.296 7.16332C284.496 7.75026 284.596 8.41056 284.596 9.14424C284.596 9.35767 284.536 9.51774 284.416 9.62446C284.296 9.71783 284.122 9.76452 283.896 9.76452H276.932V8.70403H283.515L283.195 8.96415C283.195 8.24382 283.089 7.63688 282.875 7.14331C282.662 6.63642 282.348 6.24957 281.935 5.98278C281.535 5.71599 281.028 5.5826 280.414 5.5826C279.734 5.5826 279.153 5.74267 278.673 6.06282C278.206 6.36963 277.853 6.80316 277.613 7.36342C277.373 7.91033 277.253 8.55063 277.253 9.2843V9.40435C277.253 10.6316 277.546 11.5653 278.133 12.2056C278.733 12.8459 279.58 13.1661 280.674 13.1661C281.128 13.1661 281.575 13.1061 282.015 12.986C282.468 12.8659 282.908 12.6659 283.335 12.3857C283.522 12.2657 283.689 12.2123 283.836 12.2257C283.996 12.2257 284.122 12.2723 284.216 12.3657C284.309 12.4458 284.369 12.5525 284.396 12.6859C284.436 12.8059 284.423 12.9393 284.356 13.086C284.302 13.2328 284.189 13.3595 284.016 13.4662C283.575 13.7864 283.055 14.0332 282.455 14.2066C281.855 14.38 281.261 14.4667 280.674 14.4667ZM287.762 14.4267C287.495 14.4267 287.288 14.3533 287.142 14.2066C287.008 14.0598 286.942 13.8531 286.942 13.5863V5.24244C286.942 4.97565 287.008 4.77556 287.142 4.64216C287.275 4.49543 287.468 4.42206 287.722 4.42206C287.975 4.42206 288.169 4.49543 288.302 4.64216C288.449 4.77556 288.522 4.97565 288.522 5.24244V6.86319H288.322C288.536 6.07616 288.942 5.46921 289.543 5.04235C290.143 4.61549 290.883 4.38871 291.764 4.36204C291.964 4.3487 292.124 4.39538 292.244 4.5021C292.364 4.59548 292.431 4.76222 292.444 5.00233C292.457 5.2291 292.404 5.40918 292.284 5.54258C292.164 5.67597 291.977 5.75601 291.724 5.78269L291.404 5.82271C290.497 5.90274 289.796 6.19621 289.303 6.70311C288.822 7.19667 288.582 7.87699 288.582 8.74405V13.5863C288.582 13.8531 288.509 14.0598 288.362 14.2066C288.229 14.3533 288.029 14.4267 287.762 14.4267ZM297.297 14.4667C296.696 14.4667 296.089 14.3933 295.476 14.2466C294.876 14.0998 294.315 13.8464 293.795 13.4862C293.662 13.3929 293.568 13.2861 293.515 13.1661C293.462 13.0327 293.442 12.906 293.455 12.7859C293.482 12.6525 293.535 12.5391 293.615 12.4458C293.708 12.3524 293.815 12.299 293.935 12.2857C294.068 12.259 294.215 12.2857 294.375 12.3657C294.896 12.6859 295.396 12.9126 295.876 13.046C296.37 13.1661 296.856 13.2261 297.337 13.2261C298.097 13.2261 298.671 13.086 299.057 12.8059C299.444 12.5258 299.638 12.1456 299.638 11.6654C299.638 11.2919 299.511 10.9984 299.258 10.785C299.004 10.5582 298.604 10.3848 298.057 10.2648L296.236 9.86457C295.396 9.69115 294.769 9.39102 294.355 8.96415C293.955 8.53729 293.755 7.9837 293.755 7.30339C293.755 6.70311 293.908 6.18954 294.215 5.76268C294.535 5.32248 294.982 4.98232 295.556 4.74221C296.129 4.5021 296.796 4.38204 297.557 4.38204C298.144 4.38204 298.697 4.46208 299.218 4.62216C299.751 4.76889 300.231 5.009 300.658 5.34249C300.792 5.43586 300.878 5.54925 300.918 5.68264C300.972 5.8027 300.978 5.92942 300.938 6.06282C300.912 6.18287 300.852 6.28959 300.758 6.38297C300.665 6.463 300.551 6.50969 300.418 6.52303C300.285 6.53637 300.145 6.49635 299.998 6.40297C299.598 6.13618 299.191 5.94276 298.777 5.82271C298.364 5.68931 297.957 5.62262 297.557 5.62262C296.81 5.62262 296.243 5.76935 295.856 6.06282C295.469 6.35629 295.276 6.74313 295.276 7.22335C295.276 7.59686 295.396 7.90366 295.636 8.14378C295.876 8.38389 296.249 8.5573 296.756 8.66401L298.577 9.04419C299.444 9.23094 300.091 9.53108 300.518 9.9446C300.958 10.3448 301.178 10.8917 301.178 11.5854C301.178 12.4658 300.825 13.1661 300.118 13.6863C299.411 14.2066 298.47 14.4667 297.297 14.4667ZM307.69 14.4667C306.743 14.4667 305.923 14.2599 305.229 13.8464C304.536 13.4329 303.995 12.8526 303.608 12.1056C303.235 11.3452 303.048 10.4515 303.048 9.42436C303.048 8.65067 303.155 7.95702 303.368 7.34341C303.582 6.71645 303.895 6.18287 304.309 5.74267C304.722 5.30247 305.209 4.96898 305.769 4.74221C306.343 4.5021 306.983 4.38204 307.69 4.38204C308.637 4.38204 309.458 4.58881 310.151 5.00233C310.845 5.41585 311.379 6.00279 311.752 6.76314C312.139 7.51015 312.332 8.39722 312.332 9.42436C312.332 10.1981 312.226 10.8917 312.012 11.5053C311.799 12.1189 311.485 12.6525 311.072 13.1061C310.658 13.5463 310.165 13.8864 309.591 14.1265C309.031 14.3533 308.397 14.4667 307.69 14.4667ZM307.69 13.1661C308.291 13.1661 308.817 13.0194 309.271 12.7259C309.725 12.4324 310.071 12.0056 310.312 11.4453C310.565 10.885 310.692 10.2114 310.692 9.42436C310.692 8.21047 310.418 7.28338 309.871 6.64308C309.338 6.00279 308.611 5.68264 307.69 5.68264C307.077 5.68264 306.543 5.82938 306.09 6.12285C305.649 6.40297 305.303 6.82317 305.049 7.38343C304.809 7.93034 304.689 8.61066 304.689 9.42436C304.689 10.6249 304.962 11.552 305.509 12.2056C306.056 12.8459 306.783 13.1661 307.69 13.1661ZM315.567 14.4267C315.3 14.4267 315.1 14.3533 314.967 14.2066C314.834 14.0598 314.767 13.8531 314.767 13.5863V5.24244C314.767 4.97565 314.834 4.77556 314.967 4.64216C315.1 4.49543 315.294 4.42206 315.547 4.42206C315.801 4.42206 315.994 4.49543 316.127 4.64216C316.274 4.77556 316.348 4.97565 316.348 5.24244V6.96323L316.127 6.72312C316.408 5.94943 316.861 5.36917 317.488 4.98232C318.128 4.58214 318.862 4.38204 319.689 4.38204C320.463 4.38204 321.103 4.52211 321.61 4.80224C322.13 5.08237 322.517 5.50923 322.771 6.08283C323.024 6.64308 323.151 7.35675 323.151 8.22381V13.5863C323.151 13.8531 323.077 14.0598 322.931 14.2066C322.797 14.3533 322.604 14.4267 322.35 14.4267C322.084 14.4267 321.877 14.3533 321.73 14.2066C321.597 14.0598 321.53 13.8531 321.53 13.5863V8.32386C321.53 7.41677 321.35 6.75647 320.99 6.34295C320.643 5.91608 320.083 5.70265 319.309 5.70265C318.415 5.70265 317.702 5.98278 317.168 6.54304C316.648 7.08996 316.388 7.82363 316.388 8.74405V13.5863C316.388 14.1465 316.114 14.4267 315.567 14.4267ZM326.92 14.3666C326.586 14.3666 326.319 14.2666 326.119 14.0665C325.919 13.8531 325.819 13.5863 325.819 13.2661C325.819 12.946 325.919 12.6859 326.119 12.4858C326.319 12.2723 326.586 12.1656 326.92 12.1656C327.253 12.1656 327.513 12.2723 327.7 12.4858C327.9 12.6859 328 12.946 328 13.2661C328 13.5863 327.9 13.8531 327.7 14.0665C327.513 14.2666 327.253 14.3666 326.92 14.3666Z" fill="#A1A1A1"/>
</svg>
