<svg xmlns="http://www.w3.org/2000/svg" viewBox="0 0 240 240">
  <defs>
    <linearGradient id="telegram-gradient" x1="50%" y1="0%" x2="50%" y2="100%">
      <stop offset="0%" stop-color="#2AABEE"/>
      <stop offset="100%" stop-color="#229ED9"/>
    </linearGradient>
  </defs>
  <circle cx="120" cy="120" r="120" fill="url(#telegram-gradient)"/>
  <path fill="#FFFFFF" d="M81.229 128.772l14.237 39.406s1.78 3.687 3.686 3.687 30.255-29.492 30.255-29.492l31.525-60.89L81.737 118.6s-4.16 1.902-4.508 4.159c-.348 2.257-.006 5.013-.006 5.013z"/>
  <path fill="#D2E5F1" d="M100.106 138.878l-2.733 29.046s-1.144 8.9 7.754 0 17.415-15.763 17.415-15.763"/>
  <path fill="#B5CFE4" d="M81.486 130.178l-17.8-5.467s-2.135-.868-1.41-2.812c.147-.394.357-.715.922-1.165 2.953-2.323 54.974-21.005 54.974-21.005s1.925-.768 3.153-.564c.509.085.901.276 1.176.936.112.27.186.627.195 1.09.017.911-.023 2.05-.023 2.05s-.682 28.935-2.89 44.202c-.162 1.123-.962 1.733-1.916 2.106-.654.255-1.39.328-2.385-.145-2.51-1.19-31.32-20.007-36.548-23.39-.283-.184-.45-.39-.511-.59-.07-.23.006-.472.263-.747z"/>
</svg>
