<svg width="222" height="19" viewBox="0 0 222 19" fill="none" xmlns="http://www.w3.org/2000/svg">
<path d="M6.64814 14.5215C5.25558 14.5215 4.06386 14.2269 3.073 13.6377C2.08214 13.0486 1.31891 12.2117 0.783314 11.1271C0.261104 10.0425 -1.1373e-06 8.7504 -1.1373e-06 7.25072C-1.1373e-06 6.12596 0.147289 5.12171 0.441869 4.23796C0.749839 3.34083 1.18501 2.5843 1.74739 1.96836C2.32316 1.33903 3.02614 0.856989 3.85632 0.522239C4.6865 0.174099 5.61711 2.84924e-05 6.64814 2.84924e-05C7.47832 2.84924e-05 8.26833 0.120539 9.01817 0.361559C9.76801 0.589189 10.4174 0.930634 10.9664 1.38589C11.1405 1.51979 11.2543 1.67378 11.3079 1.84785C11.3748 2.00853 11.3815 2.16921 11.3279 2.32989C11.2878 2.47718 11.2074 2.60438 11.0869 2.7115C10.9798 2.80523 10.8459 2.8521 10.6852 2.8521C10.5245 2.8521 10.3438 2.78515 10.1429 2.65125C9.66089 2.26294 9.13198 1.97505 8.55621 1.78759C7.98044 1.60013 7.35781 1.5064 6.68831 1.5064C5.6305 1.5064 4.73337 1.73403 3.99691 2.18929C3.26046 2.63116 2.70478 3.28058 2.32986 4.13754C1.95494 4.9945 1.76748 6.03222 1.76748 7.25072C1.76748 8.46921 1.95494 9.51363 2.32986 10.384C2.70478 11.2409 3.26046 11.897 3.99691 12.3523C4.73337 12.7942 5.6305 13.0151 6.68831 13.0151C7.34442 13.0151 7.96705 12.9214 8.55621 12.7339C9.14537 12.5331 9.68767 12.2385 10.1831 11.8502C10.3839 11.7163 10.5647 11.656 10.7254 11.6694C10.8861 11.6694 11.02 11.7163 11.1271 11.81C11.2342 11.9037 11.3079 12.0243 11.348 12.1715C11.4016 12.3188 11.4016 12.4728 11.348 12.6335C11.3079 12.7942 11.2074 12.9348 11.0468 13.0553C10.4844 13.5373 9.82157 13.9055 9.05834 14.16C8.3085 14.401 7.5051 14.5215 6.64814 14.5215ZM14.6189 14.4813C14.3511 14.4813 14.1502 14.4077 14.0163 14.2604C13.8824 14.1131 13.8155 13.9055 13.8155 13.6377V0.863684C13.8155 0.595884 13.8824 0.395034 14.0163 0.261134C14.1502 0.113844 14.3511 0.0401992 14.6189 0.0401992C14.8733 0.0401992 15.0742 0.113844 15.2215 0.261134C15.3687 0.395034 15.4424 0.595884 15.4424 0.863684V6.74859H15.1813C15.4625 5.97197 15.9177 5.3895 16.5471 5.00119C17.1898 4.59949 17.9262 4.39864 18.7564 4.39864C19.533 4.39864 20.1758 4.53924 20.6846 4.82043C21.2068 5.10162 21.5951 5.5301 21.8495 6.10587C22.1039 6.66825 22.2311 7.38462 22.2311 8.25497V13.6377C22.2311 13.9055 22.1575 14.1131 22.0102 14.2604C21.8763 14.4077 21.6821 14.4813 21.4277 14.4813C21.1599 14.4813 20.9524 14.4077 20.8051 14.2604C20.6712 14.1131 20.6042 13.9055 20.6042 13.6377V8.35539C20.6042 7.44487 20.4235 6.78207 20.0619 6.36698C19.7138 5.9385 19.1514 5.72425 18.3748 5.72425C17.4777 5.72425 16.7613 6.00545 16.2257 6.56783C15.7035 7.11682 15.4424 7.85327 15.4424 8.77718V13.6377C15.4424 14.2001 15.1679 14.4813 14.6189 14.4813ZM29.2882 14.5215C28.3375 14.5215 27.514 14.3139 26.8177 13.8989C26.1214 13.4838 25.5791 12.9013 25.1908 12.1515C24.8159 11.3882 24.6284 10.4911 24.6284 9.46007C24.6284 8.68345 24.7356 7.98717 24.9498 7.37123C25.164 6.7419 25.4787 6.2063 25.8938 5.76443C26.3089 5.32256 26.7976 4.9878 27.36 4.76017C27.9358 4.51915 28.5785 4.39864 29.2882 4.39864C30.2389 4.39864 31.0623 4.60619 31.7586 5.02128C32.4549 5.43637 32.9905 6.02553 33.3654 6.78876C33.7537 7.5386 33.9479 8.42904 33.9479 9.46007C33.9479 10.2367 33.8408 10.933 33.6265 11.5489C33.4123 12.1648 33.0976 12.7004 32.6825 13.1557C32.2674 13.5976 31.772 13.939 31.1962 14.18C30.6339 14.4077 29.9978 14.5215 29.2882 14.5215ZM29.2882 13.216C29.8907 13.216 30.4196 13.0687 30.8749 12.7741C31.3301 12.4795 31.6783 12.051 31.9193 11.4887C32.1737 10.9263 32.3009 10.2501 32.3009 9.46007C32.3009 8.24158 32.0264 7.31097 31.4774 6.66825C30.9418 6.02553 30.2121 5.70417 29.2882 5.70417C28.6722 5.70417 28.1366 5.85146 27.6814 6.14604C27.2395 6.42723 26.8914 6.84902 26.637 7.4114C26.3959 7.96039 26.2754 8.64328 26.2754 9.46007C26.2754 10.6652 26.5499 11.5958 27.0989 12.2519C27.6479 12.8946 28.3777 13.216 29.2882 13.216ZM40.4487 14.5215C39.498 14.5215 38.6745 14.3139 37.9782 13.8989C37.2819 13.4838 36.7397 12.9013 36.3513 12.1515C35.9764 11.3882 35.789 10.4911 35.789 9.46007C35.789 8.68345 35.8961 7.98717 36.1103 7.37123C36.3246 6.7419 36.6392 6.2063 37.0543 5.76443C37.4694 5.32256 37.9581 4.9878 38.5205 4.76017C39.0963 4.51915 39.739 4.39864 40.4487 4.39864C41.3994 4.39864 42.2229 4.60619 42.9191 5.02128C43.6154 5.43637 44.151 6.02553 44.5259 6.78876C44.9143 7.5386 45.1084 8.42904 45.1084 9.46007C45.1084 10.2367 45.0013 10.933 44.787 11.5489C44.5728 12.1648 44.2581 12.7004 43.8431 13.1557C43.428 13.5976 42.9325 13.939 42.3568 14.18C41.7944 14.4077 41.1584 14.5215 40.4487 14.5215ZM40.4487 13.216C41.0512 13.216 41.5801 13.0687 42.0354 12.7741C42.4907 12.4795 42.8388 12.051 43.0798 11.4887C43.3342 10.9263 43.4614 10.2501 43.4614 9.46007C43.4614 8.24158 43.1869 7.31097 42.638 6.66825C42.1024 6.02553 41.3726 5.70417 40.4487 5.70417C39.8327 5.70417 39.2971 5.85146 38.8419 6.14604C38.4 6.42723 38.0519 6.84902 37.7975 7.4114C37.5564 7.96039 37.4359 8.64328 37.4359 9.46007C37.4359 10.6652 37.7104 11.5958 38.2594 12.2519C38.8084 12.8946 39.5382 13.216 40.4487 13.216ZM50.846 14.5215C50.2434 14.5215 49.6342 14.4478 49.0182 14.3006C48.4157 14.1533 47.8533 13.8989 47.3311 13.5373C47.1972 13.4436 47.1035 13.3365 47.0499 13.216C46.9963 13.0821 46.9763 12.9549 46.9896 12.8343C47.0164 12.7004 47.07 12.5866 47.1503 12.4929C47.2441 12.3992 47.3512 12.3456 47.4717 12.3322C47.6056 12.3054 47.7529 12.3322 47.9136 12.4126C48.4358 12.7339 48.9379 12.9616 49.4199 13.0955C49.9154 13.216 50.4041 13.2762 50.8861 13.2762C51.6494 13.2762 52.2251 13.1356 52.6134 12.8544C53.0018 12.5732 53.1959 12.1916 53.1959 11.7096C53.1959 11.3347 53.0687 11.0401 52.8143 10.8258C52.5599 10.5982 52.1582 10.4241 51.6092 10.3036L49.7815 9.90194C48.9379 9.72787 48.3086 9.42659 47.8935 8.99811C47.4918 8.56963 47.2909 8.01395 47.2909 7.33106C47.2909 6.72851 47.4449 6.21299 47.7529 5.78451C48.0742 5.34264 48.5228 5.00119 49.0986 4.76017C49.6743 4.51915 50.3438 4.39864 51.1071 4.39864C51.6962 4.39864 52.2519 4.47898 52.7741 4.63967C53.3097 4.78695 53.7918 5.02797 54.2203 5.36272C54.3542 5.45645 54.4412 5.57027 54.4814 5.70417C54.5349 5.82468 54.5416 5.95188 54.5014 6.08579C54.4747 6.2063 54.4144 6.31342 54.3207 6.40715C54.2269 6.48749 54.1131 6.53435 53.9792 6.54774C53.8453 6.56113 53.7047 6.52096 53.5574 6.42723C53.1557 6.15943 52.7474 5.96527 52.3323 5.84477C51.9172 5.71086 51.5088 5.64391 51.1071 5.64391C50.3572 5.64391 49.7882 5.7912 49.3998 6.08579C49.0115 6.38037 48.8174 6.76868 48.8174 7.25072C48.8174 7.62564 48.9379 7.93361 49.1789 8.17463C49.4199 8.41565 49.7949 8.58972 50.3037 8.69684L52.1314 9.07845C53.0018 9.26591 53.6512 9.56719 54.0797 9.98228C54.5215 10.384 54.7425 10.933 54.7425 11.6292C54.7425 12.513 54.3876 13.216 53.678 13.7382C52.9683 14.2604 52.0243 14.5215 50.846 14.5215ZM61.6205 14.5215C60.5894 14.5215 59.699 14.3206 58.9492 13.9189C58.2127 13.5038 57.6369 12.9214 57.2219 12.1715C56.8202 11.4217 56.6193 10.5246 56.6193 9.48015C56.6193 8.46251 56.8202 7.57877 57.2219 6.82893C57.6236 6.0657 58.1725 5.46984 58.8688 5.04136C59.5785 4.61288 60.3953 4.39864 61.3192 4.39864C61.9753 4.39864 62.5645 4.51246 63.0867 4.74009C63.6089 4.95433 64.0508 5.26899 64.4123 5.68408C64.7872 6.09918 65.0684 6.6013 65.2559 7.19046C65.4567 7.77962 65.5571 8.44243 65.5571 9.17888C65.5571 9.39312 65.4969 9.5538 65.3764 9.66092C65.2559 9.75465 65.0818 9.80151 64.8542 9.80151H57.8646V8.73701H64.4725L64.1512 8.99811C64.1512 8.27505 64.0441 7.66581 63.8298 7.17038C63.6156 6.66156 63.3009 6.27325 62.8858 6.00545C62.4841 5.73764 61.9753 5.60374 61.3594 5.60374C60.6765 5.60374 60.094 5.76442 59.612 6.08579C59.1433 6.39376 58.7885 6.82893 58.5475 7.39131C58.3064 7.9403 58.1859 8.58302 58.1859 9.31947V9.43998C58.1859 10.6719 58.4805 11.6092 59.0697 12.2519C59.6722 12.8946 60.5225 13.216 61.6205 13.216C62.0757 13.216 62.5243 13.1557 62.9662 13.0352C63.4214 12.9147 63.8633 12.7138 64.2918 12.4326C64.4792 12.3121 64.6466 12.2586 64.7939 12.272C64.9546 12.272 65.0818 12.3188 65.1755 12.4126C65.2693 12.4929 65.3295 12.6 65.3563 12.7339C65.3965 12.8544 65.3831 12.9883 65.3161 13.1356C65.2626 13.2829 65.1487 13.4101 64.9747 13.5172C64.5328 13.8386 64.0106 14.0863 63.408 14.2604C62.8055 14.4345 62.2096 14.5215 61.6205 14.5215ZM76.1628 14.5215C75.4933 14.5215 74.8908 14.3943 74.3552 14.1399C73.8329 13.8721 73.4179 13.5105 73.1099 13.0553C72.8019 12.6 72.6479 12.0912 72.6479 11.5288C72.6479 10.8058 72.8287 10.2367 73.1902 9.8216C73.5651 9.40651 74.1744 9.11193 75.018 8.93786C75.8749 8.76379 77.0398 8.67675 78.5127 8.67675H79.4166V9.74126H78.5328C77.4482 9.74126 76.5913 9.79482 75.962 9.90194C75.346 9.99567 74.9108 10.163 74.6564 10.4041C74.4154 10.6451 74.2949 10.9865 74.2949 11.4284C74.2949 11.9774 74.4824 12.426 74.8573 12.7741C75.2456 13.1222 75.7678 13.2963 76.4239 13.2963C76.9595 13.2963 77.4282 13.1691 77.8299 12.9147C78.2449 12.6603 78.5663 12.3121 78.7939 11.8703C79.035 11.4284 79.1555 10.9196 79.1555 10.3438V8.05412C79.1555 7.22394 78.9881 6.62808 78.6533 6.26655C78.3186 5.89163 77.7696 5.70417 77.0064 5.70417C76.5377 5.70417 76.0691 5.76443 75.6004 5.88493C75.1318 6.00544 74.6363 6.1996 74.1141 6.4674C73.9267 6.56113 73.766 6.59461 73.6321 6.56783C73.4982 6.52766 73.3911 6.45401 73.3107 6.34689C73.2304 6.23977 73.1835 6.11926 73.1701 5.98536C73.1567 5.83807 73.1835 5.69748 73.2505 5.56358C73.3308 5.42967 73.4513 5.32255 73.612 5.24222C74.2012 4.94763 74.7836 4.73339 75.3594 4.59949C75.9352 4.46559 76.4842 4.39864 77.0064 4.39864C77.8499 4.39864 78.5462 4.53924 79.0952 4.82043C79.6442 5.08823 80.0526 5.50332 80.3204 6.0657C80.5882 6.61469 80.7221 7.32436 80.7221 8.19471V13.6377C80.7221 13.9055 80.6551 14.1131 80.5212 14.2604C80.4007 14.4077 80.22 14.4813 79.979 14.4813C79.7245 14.4813 79.5304 14.4077 79.3965 14.2604C79.2626 14.1131 79.1956 13.9055 79.1956 13.6377V12.0711H79.3764C79.2693 12.5799 79.0617 13.0151 78.7538 13.3766C78.4592 13.7382 78.091 14.0194 77.6491 14.2202C77.2072 14.4211 76.7118 14.5215 76.1628 14.5215ZM93.4376 14.4813C93.1832 14.4813 92.9824 14.4077 92.8351 14.2604C92.6878 14.0997 92.6141 13.8855 92.6141 13.6177V1.60683H88.095C87.854 1.60683 87.6665 1.53988 87.5326 1.40598C87.3987 1.27208 87.3318 1.09801 87.3318 0.883769C87.3318 0.656139 87.3987 0.482069 87.5326 0.361559C87.6665 0.241049 87.854 0.180794 88.095 0.180794H98.8003C99.0413 0.180794 99.2288 0.241049 99.3627 0.361559C99.4966 0.482069 99.5636 0.656139 99.5636 0.883769C99.5636 1.1114 99.4966 1.29216 99.3627 1.42606C99.2288 1.54657 99.0413 1.60683 98.8003 1.60683H94.2812V13.6177C94.2812 13.8855 94.2076 14.0997 94.0603 14.2604C93.9264 14.4077 93.7188 14.4813 93.4376 14.4813ZM103.528 14.5215C102.577 14.5215 101.754 14.3139 101.058 13.8989C100.361 13.4838 99.8191 12.9013 99.4308 12.1515C99.0559 11.3882 98.8684 10.4911 98.8684 9.46007C98.8684 8.68345 98.9755 7.98717 99.1898 7.37123C99.404 6.7419 99.7187 6.2063 100.134 5.76443C100.549 5.32256 101.038 4.9878 101.6 4.76017C102.176 4.51915 102.818 4.39864 103.528 4.39864C104.479 4.39864 105.302 4.60619 105.999 5.02128C106.695 5.43637 107.23 6.02553 107.605 6.78876C107.994 7.5386 108.188 8.42904 108.188 9.46007C108.188 10.2367 108.081 10.933 107.867 11.5489C107.652 12.1648 107.338 12.7004 106.923 13.1557C106.507 13.5976 106.012 13.939 105.436 14.18C104.874 14.4077 104.238 14.5215 103.528 14.5215ZM103.528 13.216C104.131 13.216 104.66 13.0687 105.115 12.7741C105.57 12.4795 105.918 12.051 106.159 11.4887C106.414 10.9263 106.541 10.2501 106.541 9.46007C106.541 8.24158 106.266 7.31097 105.717 6.66825C105.182 6.02553 104.452 5.70417 103.528 5.70417C102.912 5.70417 102.377 5.85146 101.921 6.14604C101.479 6.42723 101.131 6.84902 100.877 7.4114C100.636 7.96039 100.515 8.64328 100.515 9.46007C100.515 10.6652 100.79 11.5958 101.339 12.2519C101.888 12.8946 102.618 13.216 103.528 13.216ZM111.435 18.0966C111.167 18.0966 110.966 18.023 110.832 17.8757C110.698 17.7418 110.631 17.5409 110.631 17.2731V5.2623C110.631 4.9945 110.698 4.79365 110.832 4.65975C110.966 4.51246 111.16 4.43881 111.415 4.43881C111.683 4.43881 111.883 4.51246 112.017 4.65975C112.165 4.79365 112.238 4.9945 112.238 5.2623V7.17038L112.017 6.88919C112.232 6.12595 112.653 5.5234 113.283 5.08153C113.925 4.62627 114.689 4.39864 115.572 4.39864C116.443 4.39864 117.199 4.60619 117.842 5.02128C118.498 5.42298 119 6.00545 119.348 6.76868C119.71 7.51852 119.891 8.41565 119.891 9.46007C119.891 10.4911 119.71 11.3882 119.348 12.1515C119 12.9013 118.505 13.4838 117.862 13.8989C117.219 14.3139 116.456 14.5215 115.572 14.5215C114.689 14.5215 113.932 14.3006 113.303 13.8587C112.673 13.4034 112.245 12.8009 112.017 12.051H112.258V17.2731C112.258 17.5409 112.185 17.7418 112.037 17.8757C111.89 18.023 111.689 18.0966 111.435 18.0966ZM115.231 13.216C115.847 13.216 116.376 13.0687 116.818 12.7741C117.273 12.4795 117.621 12.051 117.862 11.4887C118.117 10.9263 118.244 10.2501 118.244 9.46007C118.244 8.24158 117.969 7.31097 117.42 6.66825C116.885 6.02553 116.155 5.70417 115.231 5.70417C114.628 5.70417 114.1 5.85146 113.644 6.14604C113.189 6.42723 112.834 6.84902 112.58 7.4114C112.339 7.96039 112.218 8.64328 112.218 9.46007C112.218 10.6652 112.493 11.5958 113.042 12.2519C113.591 12.8946 114.32 13.216 115.231 13.216ZM123.145 14.4411C122.877 14.4411 122.676 14.3675 122.542 14.2202C122.408 14.0595 122.341 13.8386 122.341 13.5574V5.34264C122.341 5.06145 122.408 4.84721 122.542 4.69992C122.676 4.55263 122.877 4.47898 123.145 4.47898C123.399 4.47898 123.6 4.55263 123.747 4.69992C123.894 4.84721 123.968 5.06145 123.968 5.34264V13.5574C123.968 13.8386 123.894 14.0595 123.747 14.2202C123.613 14.3675 123.412 14.4411 123.145 14.4411ZM123.145 2.22946C122.81 2.22946 122.549 2.14243 122.361 1.96836C122.174 1.7809 122.08 1.53318 122.08 1.22521C122.08 0.903854 122.174 0.662834 122.361 0.502154C122.549 0.328084 122.81 0.241049 123.145 0.241049C123.493 0.241049 123.754 0.328084 123.928 0.502154C124.115 0.662834 124.209 0.903854 124.209 1.22521C124.209 1.53318 124.115 1.7809 123.928 1.96836C123.754 2.14243 123.493 2.22946 123.145 2.22946ZM131.147 14.5215C130.169 14.5215 129.326 14.3072 128.616 13.8788C127.907 13.4503 127.358 12.8544 126.969 12.0912C126.594 11.3146 126.407 10.4175 126.407 9.39981C126.407 8.62319 126.514 7.92691 126.728 7.31097C126.942 6.69503 127.257 6.17282 127.672 5.74434C128.087 5.30247 128.583 4.96772 129.158 4.74009C129.748 4.51246 130.41 4.39864 131.147 4.39864C131.629 4.39864 132.131 4.47229 132.653 4.61958C133.175 4.76687 133.651 5.02128 134.079 5.38281C134.213 5.47654 134.3 5.59036 134.34 5.72425C134.381 5.85815 134.381 5.99205 134.34 6.12596C134.3 6.24647 134.233 6.35359 134.14 6.44732C134.046 6.52766 133.925 6.57452 133.778 6.58791C133.644 6.6013 133.504 6.55444 133.356 6.44732C133.008 6.17952 132.653 5.99205 132.292 5.88493C131.93 5.77781 131.582 5.72425 131.247 5.72425C130.725 5.72425 130.27 5.81129 129.882 5.98536C129.493 6.14604 129.165 6.38037 128.897 6.68834C128.63 6.99631 128.422 7.37792 128.275 7.83318C128.141 8.28844 128.074 8.81735 128.074 9.4199C128.074 10.5848 128.348 11.5087 128.897 12.1916C129.446 12.8611 130.23 13.1959 131.247 13.1959C131.582 13.1959 131.924 13.1423 132.272 13.0352C132.633 12.9281 132.995 12.7406 133.356 12.4728C133.504 12.3657 133.644 12.3188 133.778 12.3322C133.912 12.3456 134.026 12.3992 134.119 12.4929C134.213 12.5732 134.273 12.6804 134.3 12.8143C134.34 12.9482 134.34 13.0821 134.3 13.216C134.26 13.3365 134.173 13.4436 134.039 13.5373C133.611 13.8855 133.142 14.1399 132.633 14.3006C132.124 14.4478 131.629 14.5215 131.147 14.5215ZM147.832 14.5215C146.439 14.5215 145.247 14.2269 144.256 13.6377C143.266 13.0486 142.502 12.2117 141.967 11.1271C141.445 10.0425 141.183 8.7504 141.183 7.25072C141.183 6.12596 141.331 5.12171 141.625 4.23796C141.933 3.34083 142.368 2.5843 142.931 1.96836C143.507 1.33903 144.21 0.856989 145.04 0.522239C145.87 0.174099 146.801 2.84924e-05 147.832 2.84924e-05C148.662 2.84924e-05 149.452 0.120539 150.202 0.361559C150.951 0.589189 151.601 0.930634 152.15 1.38589C152.324 1.51979 152.438 1.67378 152.491 1.84785C152.558 2.00853 152.565 2.16921 152.511 2.32989C152.471 2.47718 152.391 2.60438 152.27 2.7115C152.163 2.80523 152.029 2.8521 151.869 2.8521C151.708 2.8521 151.527 2.78515 151.326 2.65125C150.844 2.26294 150.315 1.97505 149.74 1.78759C149.164 1.60013 148.541 1.5064 147.872 1.5064C146.814 1.5064 145.917 1.73403 145.18 2.18929C144.444 2.63116 143.888 3.28058 143.513 4.13754C143.138 4.9945 142.951 6.03222 142.951 7.25072C142.951 8.46921 143.138 9.51363 143.513 10.384C143.888 11.2409 144.444 11.897 145.18 12.3523C145.917 12.7942 146.814 13.0151 147.872 13.0151C148.528 13.0151 149.151 12.9214 149.74 12.7339C150.329 12.5331 150.871 12.2385 151.367 11.8502C151.567 11.7163 151.748 11.656 151.909 11.6694C152.07 11.6694 152.203 11.7163 152.311 11.81C152.418 11.9037 152.491 12.0243 152.531 12.1715C152.585 12.3188 152.585 12.4728 152.531 12.6335C152.491 12.7942 152.391 12.9348 152.23 13.0553C151.668 13.5373 151.005 13.9055 150.242 14.16C149.492 14.401 148.689 14.5215 147.832 14.5215ZM157.758 14.5215C157.089 14.5215 156.486 14.3943 155.95 14.1399C155.428 13.8721 155.013 13.5105 154.705 13.0553C154.397 12.6 154.243 12.0912 154.243 11.5288C154.243 10.8058 154.424 10.2367 154.786 9.8216C155.16 9.40651 155.77 9.11193 156.613 8.93786C157.47 8.76379 158.635 8.67675 160.108 8.67675H161.012V9.74126H160.128C159.044 9.74126 158.187 9.79482 157.557 9.90194C156.941 9.99567 156.506 10.163 156.252 10.4041C156.011 10.6451 155.89 10.9865 155.89 11.4284C155.89 11.9774 156.078 12.426 156.453 12.7741C156.841 13.1222 157.363 13.2963 158.019 13.2963C158.555 13.2963 159.023 13.1691 159.425 12.9147C159.84 12.6603 160.162 12.3121 160.389 11.8703C160.63 11.4284 160.751 10.9196 160.751 10.3438V8.05412C160.751 7.22394 160.583 6.62808 160.249 6.26655C159.914 5.89163 159.365 5.70417 158.602 5.70417C158.133 5.70417 157.664 5.76443 157.196 5.88493C156.727 6.00544 156.232 6.1996 155.709 6.4674C155.522 6.56113 155.361 6.59461 155.227 6.56783C155.094 6.52766 154.986 6.45401 154.906 6.34689C154.826 6.23977 154.779 6.11926 154.765 5.98536C154.752 5.83807 154.779 5.69748 154.846 5.56358C154.926 5.42967 155.047 5.32255 155.207 5.24222C155.796 4.94763 156.379 4.73339 156.955 4.59949C157.53 4.46559 158.079 4.39864 158.602 4.39864C159.445 4.39864 160.142 4.53924 160.691 4.82043C161.24 5.08823 161.648 5.50332 161.916 6.0657C162.184 6.61469 162.317 7.32436 162.317 8.19471V13.6377C162.317 13.9055 162.25 14.1131 162.117 14.2604C161.996 14.4077 161.815 14.4813 161.574 14.4813C161.32 14.4813 161.126 14.4077 160.992 14.2604C160.858 14.1131 160.791 13.9055 160.791 13.6377V12.0711H160.972C160.865 12.5799 160.657 13.0151 160.349 13.3766C160.055 13.7382 159.686 14.0194 159.244 14.2202C158.803 14.4211 158.307 14.5215 157.758 14.5215ZM169.252 14.5215C168.489 14.5215 167.846 14.3876 167.324 14.1198C166.815 13.8386 166.434 13.4369 166.179 12.9147C165.925 12.3791 165.798 11.7297 165.798 10.9664V5.84477H164.452C164.224 5.84477 164.05 5.79121 163.93 5.68408C163.809 5.56357 163.749 5.40289 163.749 5.20205C163.749 5.00119 163.809 4.84721 163.93 4.74009C164.05 4.63297 164.224 4.57941 164.452 4.57941H165.798V2.26963C165.798 2.00183 165.871 1.80098 166.019 1.66708C166.166 1.51979 166.367 1.44615 166.621 1.44615C166.876 1.44615 167.07 1.51979 167.204 1.66708C167.351 1.80098 167.425 2.00183 167.425 2.26963V4.57941H169.955C170.183 4.57941 170.357 4.63297 170.477 4.74009C170.598 4.84721 170.658 5.00119 170.658 5.20205C170.658 5.40289 170.598 5.56357 170.477 5.68408C170.357 5.79121 170.183 5.84477 169.955 5.84477H167.425V10.8058C167.425 11.569 167.585 12.1515 167.907 12.5532C168.228 12.9415 168.75 13.1356 169.473 13.1356C169.728 13.1356 169.942 13.1088 170.116 13.0553C170.303 13.0017 170.457 12.9749 170.578 12.9749C170.698 12.9616 170.799 13.0017 170.879 13.0955C170.959 13.1892 171 13.3499 171 13.5775C171 13.7382 170.966 13.8855 170.899 14.0194C170.846 14.1533 170.745 14.247 170.598 14.3006C170.437 14.3541 170.223 14.401 169.955 14.4411C169.701 14.4947 169.466 14.5215 169.252 14.5215ZM176.658 14.5215C175.627 14.5215 174.737 14.3206 173.987 13.9189C173.25 13.5038 172.675 12.9214 172.26 12.1715C171.858 11.4217 171.657 10.5246 171.657 9.48015C171.657 8.46251 171.858 7.57877 172.26 6.82893C172.661 6.0657 173.21 5.46984 173.906 5.04136C174.616 4.61288 175.433 4.39864 176.357 4.39864C177.013 4.39864 177.602 4.51246 178.124 4.74009C178.647 4.95433 179.088 5.26899 179.45 5.68408C179.825 6.09918 180.106 6.6013 180.294 7.19046C180.494 7.77962 180.595 8.44243 180.595 9.17888C180.595 9.39312 180.535 9.5538 180.414 9.66092C180.294 9.75465 180.119 9.80151 179.892 9.80151H172.902V8.73701H179.51L179.189 8.99811C179.189 8.27505 179.082 7.66581 178.867 7.17038C178.653 6.66156 178.339 6.27325 177.923 6.00545C177.522 5.73764 177.013 5.60374 176.397 5.60374C175.714 5.60374 175.132 5.76442 174.65 6.08579C174.181 6.39376 173.826 6.82893 173.585 7.39131C173.344 7.9403 173.224 8.58302 173.224 9.31947V9.43998C173.224 10.6719 173.518 11.6092 174.107 12.2519C174.71 12.8946 175.56 13.216 176.658 13.216C177.113 13.216 177.562 13.1557 178.004 13.0352C178.459 12.9147 178.901 12.7138 179.329 12.4326C179.517 12.3121 179.684 12.2586 179.832 12.272C179.992 12.272 180.119 12.3188 180.213 12.4126C180.307 12.4929 180.367 12.6 180.394 12.7339C180.434 12.8544 180.421 12.9883 180.354 13.1356C180.3 13.2829 180.186 13.4101 180.012 13.5172C179.57 13.8386 179.048 14.0863 178.446 14.2604C177.843 14.4345 177.247 14.5215 176.658 14.5215ZM187.268 18.1368C186.558 18.1368 185.862 18.0498 185.179 17.8757C184.509 17.715 183.9 17.4539 183.351 17.0924C183.19 16.9986 183.083 16.8848 183.03 16.7509C182.989 16.617 182.983 16.4831 183.01 16.3492C183.036 16.2287 183.097 16.1149 183.19 16.0078C183.284 15.914 183.391 15.8538 183.512 15.827C183.646 15.8002 183.779 15.8203 183.913 15.8873C184.503 16.2488 185.065 16.4965 185.6 16.6304C186.136 16.7643 186.665 16.8313 187.187 16.8313C188.138 16.8313 188.854 16.5769 189.336 16.068C189.832 15.5592 190.079 14.8228 190.079 13.8587V11.5891H190.28C190.079 12.3657 189.651 12.9816 188.995 13.4369C188.352 13.8922 187.596 14.1198 186.725 14.1198C185.828 14.1198 185.052 13.9189 184.395 13.5172C183.739 13.1021 183.23 12.5264 182.869 11.7899C182.521 11.0535 182.347 10.2032 182.347 9.23913C182.347 8.51607 182.447 7.85996 182.648 7.2708C182.849 6.66825 183.137 6.15943 183.512 5.74434C183.9 5.31586 184.362 4.9878 184.898 4.76017C185.447 4.51915 186.056 4.39864 186.725 4.39864C187.609 4.39864 188.372 4.62627 189.015 5.08153C189.658 5.5234 190.073 6.12595 190.26 6.88919L190.059 7.13021V5.2623C190.059 4.9945 190.126 4.79365 190.26 4.65975C190.408 4.51246 190.608 4.43881 190.863 4.43881C191.131 4.43881 191.331 4.51246 191.465 4.65975C191.599 4.79365 191.666 4.9945 191.666 5.2623V13.6377C191.666 15.124 191.291 16.2421 190.541 16.9919C189.805 17.7552 188.714 18.1368 187.268 18.1368ZM187.027 12.7942C187.656 12.7942 188.198 12.6536 188.653 12.3724C189.109 12.0778 189.457 11.6627 189.698 11.1271C189.952 10.5915 190.079 9.96219 190.079 9.23913C190.079 8.15454 189.805 7.29758 189.256 6.66825C188.707 6.02553 187.964 5.70417 187.027 5.70417C186.411 5.70417 185.875 5.85146 185.42 6.14604C184.964 6.42723 184.61 6.83563 184.355 7.37123C184.114 7.89344 183.994 8.51607 183.994 9.23913C183.994 10.3237 184.268 11.1874 184.817 11.8301C185.366 12.4728 186.103 12.7942 187.027 12.7942ZM198.775 14.5215C197.824 14.5215 197.001 14.3139 196.305 13.8989C195.608 13.4838 195.066 12.9013 194.678 12.1515C194.303 11.3882 194.115 10.4911 194.115 9.46007C194.115 8.68345 194.222 7.98717 194.437 7.37123C194.651 6.7419 194.966 6.2063 195.381 5.76443C195.796 5.32256 196.284 4.9878 196.847 4.76017C197.423 4.51915 198.065 4.39864 198.775 4.39864C199.726 4.39864 200.549 4.60619 201.245 5.02128C201.942 5.43637 202.477 6.02553 202.852 6.78876C203.241 7.5386 203.435 8.42904 203.435 9.46007C203.435 10.2367 203.328 10.933 203.113 11.5489C202.899 12.1648 202.584 12.7004 202.169 13.1557C201.754 13.5976 201.259 13.939 200.683 14.18C200.121 14.4077 199.485 14.5215 198.775 14.5215ZM198.775 13.216C199.378 13.216 199.906 13.0687 200.362 12.7741C200.817 12.4795 201.165 12.051 201.406 11.4887C201.661 10.9263 201.788 10.2501 201.788 9.46007C201.788 8.24158 201.513 7.31097 200.964 6.66825C200.429 6.02553 199.699 5.70417 198.775 5.70417C198.159 5.70417 197.623 5.85146 197.168 6.14604C196.726 6.42723 196.378 6.84902 196.124 7.4114C195.883 7.96039 195.762 8.64328 195.762 9.46007C195.762 10.6652 196.037 11.5958 196.586 12.2519C197.135 12.8946 197.864 13.216 198.775 13.216ZM206.702 14.4813C206.434 14.4813 206.226 14.4077 206.079 14.2604C205.945 14.1131 205.878 13.9055 205.878 13.6377V5.2623C205.878 4.9945 205.945 4.79365 206.079 4.65975C206.213 4.51246 206.407 4.43881 206.662 4.43881C206.916 4.43881 207.11 4.51246 207.244 4.65975C207.391 4.79365 207.465 4.9945 207.465 5.2623V6.88919H207.264C207.478 6.09918 207.887 5.48993 208.489 5.06145C209.092 4.63297 209.835 4.40534 210.719 4.37856C210.92 4.36517 211.08 4.41203 211.201 4.51915C211.321 4.61288 211.388 4.78026 211.402 5.02128C211.415 5.24891 211.362 5.42967 211.241 5.56358C211.121 5.69748 210.933 5.77782 210.679 5.8046L210.357 5.84477C209.447 5.92511 208.744 6.21969 208.248 6.72851C207.766 7.22394 207.525 7.90683 207.525 8.77718V13.6377C207.525 13.9055 207.452 14.1131 207.304 14.2604C207.17 14.4077 206.97 14.4813 206.702 14.4813ZM215.854 18.0966C215.653 18.0966 215.492 18.0431 215.372 17.9359C215.251 17.8288 215.178 17.6815 215.151 17.4941C215.138 17.32 215.171 17.1392 215.251 16.9518L216.637 13.8386V14.5416L212.781 5.58366C212.701 5.38281 212.674 5.19535 212.701 5.02128C212.727 4.84721 212.808 4.70661 212.942 4.59949C213.076 4.49237 213.263 4.43881 213.504 4.43881C213.718 4.43881 213.886 4.48568 214.006 4.57941C214.127 4.67314 214.234 4.84051 214.328 5.08153L217.621 13.1557H217.079L220.413 5.08153C220.52 4.84051 220.634 4.67314 220.755 4.57941C220.875 4.48568 221.049 4.43881 221.277 4.43881C221.491 4.43881 221.652 4.49237 221.759 4.59949C221.88 4.70661 221.946 4.84721 221.96 5.02128C221.987 5.18196 221.96 5.36272 221.88 5.56358L216.738 17.4539C216.631 17.6949 216.51 17.8623 216.376 17.956C216.256 18.0498 216.082 18.0966 215.854 18.0966Z" fill="#A1A1A1"/>
</svg>
