<svg width="248" height="46" viewBox="0 0 248 46" fill="none" xmlns="http://www.w3.org/2000/svg">
<path d="M64.3655 14.6461C62.8963 14.6461 61.634 14.3522 60.5788 13.7645C59.5369 13.1635 58.7355 12.322 58.1745 11.24C57.6135 10.1448 57.333 8.85579 57.333 7.37315C57.333 6.26451 57.4933 5.2694 57.8139 4.38783C58.1344 3.4929 58.5953 2.73155 59.1963 2.10376C59.7974 1.46262 60.532 0.975083 61.4003 0.641155C62.2818 0.29387 63.2703 0.120227 64.3655 0.120227C65.1002 0.120227 65.8215 0.213727 66.5294 0.400727C67.2373 0.587726 67.8584 0.854869 68.3927 1.20215C68.6732 1.3758 68.8602 1.58951 68.9537 1.8433C69.0472 2.08373 69.0672 2.32415 69.0138 2.56458C68.9604 2.79165 68.8469 2.98533 68.6732 3.14562C68.5129 3.3059 68.3059 3.3994 68.0521 3.42612C67.8117 3.43947 67.5445 3.35265 67.2507 3.16565C66.8366 2.89851 66.3891 2.70483 65.9083 2.58462C65.4274 2.4644 64.9399 2.4043 64.4457 2.4043C63.4973 2.4043 62.6959 2.59797 62.0414 2.98533C61.3869 3.37269 60.8927 3.93369 60.5588 4.66833C60.2248 5.40297 60.0579 6.30458 60.0579 7.37315C60.0579 8.42836 60.2248 9.32997 60.5588 10.078C60.8927 10.826 61.3869 11.3936 62.0414 11.781C62.6959 12.1684 63.4973 12.362 64.4457 12.362C64.9532 12.362 65.4541 12.3019 65.9484 12.1817C66.4426 12.0481 66.9101 11.8478 67.3509 11.5806C67.6447 11.407 67.9052 11.3335 68.1322 11.3602C68.3727 11.3736 68.573 11.4537 68.7333 11.6007C68.8936 11.7476 69.0005 11.9346 69.0539 12.1617C69.1073 12.3754 69.094 12.6025 69.0138 12.8429C68.9337 13.07 68.7734 13.2703 68.533 13.444C67.9987 13.8313 67.3575 14.1319 66.6095 14.3456C65.8749 14.5459 65.1269 14.6461 64.3655 14.6461ZM72.4136 14.606C72.0129 14.606 71.7057 14.4992 71.492 14.2855C71.2783 14.0584 71.1714 13.7378 71.1714 13.3237V1.42255C71.1714 1.00848 71.2783 0.694583 71.492 0.480869C71.7057 0.267155 72.0129 0.160298 72.4136 0.160298C72.8143 0.160298 73.1216 0.267155 73.3353 0.480869C73.5623 0.694583 73.6759 1.00848 73.6759 1.42255V6.61179H73.3954C73.6892 5.90386 74.1434 5.36958 74.7578 5.00894C75.3856 4.63494 76.0935 4.44794 76.8816 4.44794C77.6697 4.44794 78.3175 4.59486 78.825 4.88872C79.3326 5.18258 79.7133 5.63004 79.9671 6.23111C80.2209 6.81883 80.3478 7.56683 80.3478 8.47511V13.3237C80.3478 13.7378 80.2409 14.0584 80.0272 14.2855C79.8135 14.4992 79.5063 14.606 79.1055 14.606C78.7048 14.606 78.3909 14.4992 78.1639 14.2855C77.9502 14.0584 77.8433 13.7378 77.8433 13.3237V8.59532C77.8433 7.83397 77.6964 7.27965 77.4025 6.93236C77.122 6.58508 76.6812 6.41143 76.0802 6.41143C75.3455 6.41143 74.7578 6.64518 74.317 7.11268C73.8896 7.56683 73.6759 8.17457 73.6759 8.93593V13.3237C73.6759 14.1786 73.2551 14.606 72.4136 14.606ZM87.3595 14.6461C86.3443 14.6461 85.4628 14.4391 84.7148 14.025C83.9668 13.6109 83.3857 13.0232 82.9716 12.2619C82.5576 11.4871 82.3505 10.5789 82.3505 9.537C82.3505 8.74893 82.4641 8.04768 82.6911 7.43325C82.9316 6.80547 83.2722 6.27118 83.713 5.8304C84.1538 5.37626 84.6814 5.03565 85.2958 4.80858C85.9102 4.56815 86.5981 4.44794 87.3595 4.44794C88.3746 4.44794 89.2562 4.65497 90.0042 5.06904C90.7522 5.48311 91.3332 6.07083 91.7473 6.83218C92.1614 7.59354 92.3684 8.49515 92.3684 9.537C92.3684 10.3251 92.2482 11.033 92.0077 11.6608C91.7807 12.2886 91.4467 12.8295 91.006 13.2837C90.5652 13.7245 90.0376 14.0651 89.4231 14.3055C88.8087 14.5326 88.1208 14.6461 87.3595 14.6461ZM87.3595 12.7427C87.8537 12.7427 88.2878 12.6225 88.6618 12.3821C89.0358 12.1416 89.323 11.7877 89.5233 11.3202C89.737 10.8393 89.8439 10.2449 89.8439 9.537C89.8439 8.46843 89.6168 7.67368 89.1627 7.15275C88.7085 6.61847 88.1075 6.35133 87.3595 6.35133C86.8653 6.35133 86.4311 6.47154 86.0571 6.71197C85.6831 6.93904 85.3893 7.293 85.1756 7.77386C84.9752 8.24136 84.875 8.82907 84.875 9.537C84.875 10.5922 85.1021 11.3936 85.5563 11.9413C86.0104 12.4756 86.6115 12.7427 87.3595 12.7427ZM98.9035 14.6461C97.8883 14.6461 97.0068 14.4391 96.2588 14.025C95.5108 13.6109 94.9297 13.0232 94.5156 12.2619C94.1016 11.4871 93.8945 10.5789 93.8945 9.537C93.8945 8.74893 94.0081 8.04768 94.2352 7.43325C94.4756 6.80547 94.8162 6.27118 95.257 5.8304C95.6978 5.37626 96.2254 5.03565 96.8398 4.80858C97.4542 4.56815 98.1421 4.44794 98.9035 4.44794C99.9186 4.44794 100.8 4.65497 101.548 5.06904C102.296 5.48311 102.877 6.07083 103.291 6.83218C103.705 7.59354 103.912 8.49515 103.912 9.537C103.912 10.3251 103.792 11.033 103.552 11.6608C103.325 12.2886 102.991 12.8295 102.55 13.2837C102.109 13.7245 101.582 14.0651 100.967 14.3055C100.353 14.5326 99.6648 14.6461 98.9035 14.6461ZM98.9035 12.7427C99.3977 12.7427 99.8318 12.6225 100.206 12.3821C100.58 12.1416 100.867 11.7877 101.067 11.3202C101.281 10.8393 101.388 10.2449 101.388 9.537C101.388 8.46843 101.161 7.67368 100.707 7.15275C100.253 6.61847 99.6515 6.35133 98.9035 6.35133C98.4093 6.35133 97.9751 6.47154 97.6011 6.71197C97.2271 6.93904 96.9333 7.293 96.7196 7.77386C96.5192 8.24136 96.419 8.82907 96.419 9.537C96.419 10.5922 96.6461 11.3936 97.1003 11.9413C97.5544 12.4756 98.1555 12.7427 98.9035 12.7427ZM109.566 14.6461C108.992 14.6461 108.384 14.586 107.743 14.4658C107.102 14.3456 106.527 14.1385 106.02 13.8447C105.806 13.7111 105.652 13.5575 105.559 13.3839C105.479 13.1969 105.445 13.0165 105.459 12.8429C105.485 12.6559 105.552 12.4956 105.659 12.362C105.779 12.2285 105.926 12.1416 106.1 12.1016C106.287 12.0615 106.487 12.0949 106.701 12.2017C107.235 12.4555 107.736 12.6359 108.203 12.7427C108.671 12.8362 109.132 12.883 109.586 12.883C110.227 12.883 110.701 12.7761 111.008 12.5624C111.329 12.3353 111.489 12.0415 111.489 11.6808C111.489 11.3736 111.382 11.1399 111.169 10.9796C110.968 10.8059 110.661 10.679 110.247 10.5989L108.244 10.2182C107.415 10.0579 106.781 9.75739 106.34 9.31661C105.913 8.86247 105.699 8.28143 105.699 7.5735C105.699 6.93236 105.873 6.37804 106.22 5.91054C106.581 5.44304 107.075 5.0824 107.703 4.82861C108.33 4.57483 109.052 4.44794 109.866 4.44794C110.454 4.44794 111.002 4.51472 111.509 4.64829C112.03 4.76851 112.531 4.96219 113.012 5.22933C113.212 5.33619 113.346 5.47644 113.413 5.65008C113.493 5.82372 113.513 6.00404 113.473 6.19104C113.433 6.36468 113.353 6.52497 113.232 6.6719C113.112 6.80547 112.959 6.89229 112.772 6.93236C112.598 6.95908 112.398 6.919 112.171 6.81215C111.756 6.59843 111.356 6.44483 110.968 6.35133C110.594 6.25783 110.234 6.21108 109.886 6.21108C109.232 6.21108 108.744 6.32461 108.424 6.55168C108.117 6.77876 107.963 7.07929 107.963 7.45329C107.963 7.73379 108.057 7.96754 108.244 8.15454C108.431 8.34154 108.718 8.46843 109.105 8.53522L111.109 8.9159C111.977 9.07618 112.631 9.37004 113.072 9.79747C113.526 10.2249 113.753 10.7993 113.753 11.5205C113.753 12.4956 113.373 13.2636 112.611 13.8246C111.85 14.3723 110.835 14.6461 109.566 14.6461ZM120.591 14.6461C119.483 14.6461 118.527 14.4391 117.726 14.025C116.925 13.6109 116.304 13.0232 115.863 12.2619C115.435 11.5005 115.222 10.5989 115.222 9.55704C115.222 8.5419 115.429 7.65365 115.843 6.89229C116.27 6.13093 116.851 5.53654 117.586 5.10911C118.334 4.66833 119.182 4.44794 120.13 4.44794C120.825 4.44794 121.446 4.56147 121.994 4.78854C122.555 5.01561 123.029 5.34286 123.416 5.77029C123.817 6.19772 124.117 6.71865 124.318 7.33308C124.532 7.93415 124.638 8.61536 124.638 9.37672C124.638 9.61714 124.552 9.80414 124.378 9.93772C124.218 10.0579 123.984 10.118 123.677 10.118H117.245V8.67547H122.875L122.555 8.976C122.555 8.36157 122.461 7.84733 122.274 7.43325C122.101 7.01918 121.84 6.70529 121.493 6.49158C121.159 6.26451 120.738 6.15097 120.231 6.15097C119.67 6.15097 119.189 6.28454 118.788 6.55168C118.401 6.80547 118.1 7.17279 117.886 7.65365C117.686 8.12115 117.586 8.68215 117.586 9.33664V9.47689C117.586 10.5722 117.84 11.3936 118.347 11.9413C118.868 12.4756 119.629 12.7427 120.631 12.7427C120.979 12.7427 121.366 12.7026 121.793 12.6225C122.234 12.529 122.648 12.3754 123.036 12.1617C123.316 12.0014 123.563 11.9346 123.777 11.9613C123.991 11.9747 124.158 12.0481 124.278 12.1817C124.411 12.3153 124.491 12.4822 124.518 12.6826C124.545 12.8696 124.505 13.0633 124.398 13.2636C124.304 13.464 124.137 13.6376 123.897 13.7846C123.43 14.0784 122.889 14.2988 122.274 14.4457C121.673 14.5793 121.112 14.6461 120.591 14.6461ZM135.287 14.6461C134.579 14.6461 133.944 14.5125 133.383 14.2454C132.836 13.9649 132.402 13.5909 132.081 13.1234C131.774 12.6559 131.62 12.1283 131.62 11.5406C131.62 10.8193 131.807 10.2516 132.181 9.83754C132.555 9.41011 133.163 9.10289 134.005 8.9159C134.846 8.7289 135.975 8.6354 137.391 8.6354H138.392V10.078H137.411C136.583 10.078 135.921 10.118 135.427 10.1982C134.933 10.2783 134.579 10.4186 134.365 10.6189C134.165 10.8059 134.065 11.0731 134.065 11.4204C134.065 11.8611 134.218 12.2218 134.526 12.5023C134.833 12.7828 135.26 12.923 135.808 12.923C136.249 12.923 136.636 12.8229 136.97 12.6225C137.317 12.4088 137.591 12.1216 137.791 11.761C137.992 11.4003 138.092 10.9863 138.092 10.5188V8.21465C138.092 7.54679 137.945 7.06593 137.651 6.77208C137.357 6.47822 136.863 6.33129 136.168 6.33129C135.781 6.33129 135.36 6.37804 134.906 6.47154C134.465 6.56504 133.998 6.72533 133.504 6.9524C133.25 7.07261 133.023 7.106 132.822 7.05258C132.635 6.99915 132.489 6.89229 132.382 6.73201C132.275 6.55836 132.221 6.37136 132.221 6.17101C132.221 5.97065 132.275 5.77697 132.382 5.58997C132.489 5.38961 132.669 5.24269 132.923 5.14919C133.537 4.8954 134.125 4.71508 134.686 4.60822C135.26 4.50136 135.781 4.44794 136.249 4.44794C137.21 4.44794 137.998 4.59486 138.613 4.88872C139.241 5.18258 139.708 5.63004 140.015 6.23111C140.323 6.81883 140.476 7.58018 140.476 8.51518V13.3237C140.476 13.7378 140.376 14.0584 140.176 14.2855C139.975 14.4992 139.688 14.606 139.314 14.606C138.94 14.606 138.646 14.4992 138.432 14.2855C138.232 14.0584 138.132 13.7378 138.132 13.3237V12.362H138.292C138.199 12.8295 138.012 13.2369 137.731 13.5842C137.464 13.9181 137.123 14.1786 136.709 14.3656C136.295 14.5526 135.821 14.6461 135.287 14.6461ZM152.946 14.6461C152.077 14.6461 151.349 14.4992 150.762 14.2053C150.187 13.9115 149.76 13.484 149.479 12.923C149.199 12.3487 149.059 11.6407 149.059 10.7993V6.53165H148.017C147.696 6.53165 147.449 6.45151 147.275 6.29122C147.102 6.11758 147.015 5.88383 147.015 5.58997C147.015 5.28276 147.102 5.04901 147.275 4.88872C147.449 4.72844 147.696 4.64829 148.017 4.64829H149.059V2.82504C149.059 2.41097 149.165 2.09708 149.379 1.88337C149.606 1.66965 149.92 1.5628 150.321 1.5628C150.722 1.5628 151.029 1.66965 151.242 1.88337C151.456 2.09708 151.563 2.41097 151.563 2.82504V4.64829H153.687C154.007 4.64829 154.255 4.72844 154.428 4.88872C154.602 5.04901 154.689 5.28276 154.689 5.58997C154.689 5.88383 154.602 6.11758 154.428 6.29122C154.255 6.45151 154.007 6.53165 153.687 6.53165H151.563V10.659C151.563 11.3001 151.703 11.781 151.984 12.1016C152.264 12.4221 152.718 12.5824 153.346 12.5824C153.573 12.5824 153.774 12.5624 153.947 12.5223C154.121 12.4822 154.275 12.4555 154.408 12.4422C154.568 12.4288 154.702 12.4822 154.809 12.6025C154.916 12.7093 154.969 12.9364 154.969 13.2837C154.969 13.5508 154.922 13.7912 154.829 14.005C154.749 14.2053 154.595 14.3456 154.368 14.4257C154.194 14.4791 153.967 14.5259 153.687 14.566C153.406 14.6194 153.159 14.6461 152.946 14.6461ZM160.517 14.6461C159.502 14.6461 158.62 14.4391 157.872 14.025C157.124 13.6109 156.543 13.0232 156.129 12.2619C155.715 11.4871 155.508 10.5789 155.508 9.537C155.508 8.74893 155.622 8.04768 155.849 7.43325C156.089 6.80547 156.43 6.27118 156.871 5.8304C157.311 5.37626 157.839 5.03565 158.453 4.80858C159.068 4.56815 159.756 4.44794 160.517 4.44794C161.532 4.44794 162.414 4.65497 163.162 5.06904C163.91 5.48311 164.491 6.07083 164.905 6.83218C165.319 7.59354 165.526 8.49515 165.526 9.537C165.526 10.3251 165.406 11.033 165.165 11.6608C164.938 12.2886 164.604 12.8295 164.164 13.2837C163.723 13.7245 163.195 14.0651 162.581 14.3055C161.966 14.5326 161.278 14.6461 160.517 14.6461ZM160.517 12.7427C161.011 12.7427 161.445 12.6225 161.819 12.3821C162.193 12.1416 162.481 11.7877 162.681 11.3202C162.895 10.8393 163.002 10.2449 163.002 9.537C163.002 8.46843 162.774 7.67368 162.32 7.15275C161.866 6.61847 161.265 6.35133 160.517 6.35133C160.023 6.35133 159.589 6.47154 159.215 6.71197C158.841 6.93904 158.547 7.293 158.333 7.77386C158.133 8.24136 158.033 8.82907 158.033 9.537C158.033 10.5922 158.26 11.3936 158.714 11.9413C159.168 12.4756 159.769 12.7427 160.517 12.7427ZM168.835 18.2125C168.435 18.2125 168.127 18.1056 167.914 17.8919C167.7 17.6782 167.593 17.3643 167.593 16.9502V5.75026C167.593 5.33619 167.7 5.02229 167.914 4.80858C168.127 4.59486 168.428 4.48801 168.815 4.48801C169.216 4.48801 169.523 4.59486 169.737 4.80858C169.951 5.02229 170.058 5.33619 170.058 5.75026V7.31304L169.837 6.71197C170.038 6.03076 170.445 5.48311 171.059 5.06904C171.687 4.65497 172.415 4.44794 173.243 4.44794C174.098 4.44794 174.846 4.65497 175.487 5.06904C176.142 5.48311 176.649 6.07083 177.01 6.83218C177.371 7.58018 177.551 8.48179 177.551 9.537C177.551 10.5789 177.371 11.4871 177.01 12.2619C176.649 13.0232 176.148 13.6109 175.507 14.025C174.866 14.4391 174.111 14.6461 173.243 14.6461C172.428 14.6461 171.714 14.4457 171.099 14.045C170.485 13.631 170.071 13.0967 169.857 12.4422H170.098V16.9502C170.098 17.3643 169.984 17.6782 169.757 17.8919C169.543 18.1056 169.236 18.2125 168.835 18.2125ZM172.542 12.7427C173.036 12.7427 173.47 12.6225 173.844 12.3821C174.218 12.1416 174.505 11.7877 174.706 11.3202C174.92 10.8393 175.026 10.2449 175.026 9.537C175.026 8.46843 174.799 7.67368 174.345 7.15275C173.891 6.61847 173.29 6.35133 172.542 6.35133C172.048 6.35133 171.614 6.47154 171.24 6.71197C170.866 6.93904 170.572 7.293 170.358 7.77386C170.158 8.24136 170.058 8.82907 170.058 9.537C170.058 10.5922 170.285 11.3936 170.739 11.9413C171.193 12.4756 171.794 12.7427 172.542 12.7427ZM180.849 14.586C180.448 14.586 180.141 14.4658 179.927 14.2254C179.714 13.9849 179.607 13.651 179.607 13.2236V5.87047C179.607 5.42968 179.714 5.09576 179.927 4.86869C180.141 4.62826 180.448 4.50804 180.849 4.50804C181.25 4.50804 181.557 4.62826 181.771 4.86869C181.998 5.09576 182.111 5.42968 182.111 5.87047V13.2236C182.111 13.651 182.004 13.9849 181.791 14.2254C181.577 14.4658 181.263 14.586 180.849 14.586ZM180.849 2.64472C180.381 2.64472 180.014 2.53119 179.747 2.30412C179.493 2.06369 179.366 1.73644 179.366 1.32237C179.366 0.89494 179.493 0.56769 179.747 0.340619C180.014 0.113548 180.381 1.31364e-05 180.849 1.31364e-05C181.33 1.31364e-05 181.697 0.113548 181.951 0.340619C182.205 0.56769 182.332 0.89494 182.332 1.32237C182.332 1.73644 182.205 2.06369 181.951 2.30412C181.697 2.53119 181.33 2.64472 180.849 2.64472ZM189.242 14.6461C188.213 14.6461 187.318 14.4391 186.557 14.025C185.795 13.5976 185.208 12.9965 184.794 12.2218C184.38 11.4471 184.173 10.5388 184.173 9.49693C184.173 8.70886 184.286 8.00761 184.513 7.39318C184.754 6.7654 185.094 6.23779 185.535 5.81036C185.976 5.36958 186.51 5.03565 187.138 4.80858C187.766 4.56815 188.467 4.44794 189.242 4.44794C189.682 4.44794 190.157 4.50804 190.664 4.62826C191.185 4.74847 191.673 4.94883 192.127 5.22933C192.34 5.3629 192.481 5.52319 192.547 5.71018C192.614 5.89718 192.628 6.09086 192.588 6.29122C192.547 6.47822 192.461 6.64518 192.327 6.79211C192.207 6.92568 192.053 7.0125 191.866 7.05258C191.679 7.07929 191.472 7.03254 191.245 6.91233C190.951 6.73868 190.651 6.61179 190.344 6.53165C190.036 6.43815 189.742 6.3914 189.462 6.3914C189.021 6.3914 188.634 6.46486 188.3 6.61179C187.966 6.74536 187.679 6.94572 187.438 7.21286C187.211 7.46665 187.038 7.78722 186.917 8.17457C186.797 8.56193 186.737 9.0094 186.737 9.51697C186.737 10.5054 186.971 11.2868 187.438 11.8611C187.919 12.4221 188.594 12.7026 189.462 12.7026C189.742 12.7026 190.03 12.6626 190.324 12.5824C190.631 12.5023 190.938 12.3754 191.245 12.2017C191.472 12.0815 191.673 12.0415 191.846 12.0815C192.033 12.1216 192.187 12.2151 192.307 12.362C192.427 12.4956 192.501 12.6626 192.527 12.8629C192.554 13.0499 192.527 13.2369 192.447 13.4239C192.381 13.6109 192.247 13.7645 192.047 13.8847C191.606 14.1519 191.138 14.3456 190.644 14.4658C190.15 14.586 189.682 14.6461 189.242 14.6461ZM2.7849 41.6342C2.53112 41.6342 2.33076 41.5607 2.18383 41.4138C2.05026 41.2669 1.98347 41.0598 1.98347 40.7927V33.0188H0.701191C0.487476 33.0188 0.313834 32.9654 0.180263 32.8585C0.0600484 32.7383 -5.86978e-05 32.578 -5.86978e-05 32.3777C-5.86978e-05 32.1773 0.0600484 32.0237 0.180263 31.9169C0.313834 31.81 0.487476 31.7566 0.701191 31.7566H2.42426L1.98347 32.1773V31.416C1.98347 30.147 2.29069 29.1787 2.90512 28.5108C3.5329 27.8429 4.44786 27.4556 5.65001 27.3487L6.23104 27.2886C6.41804 27.2753 6.56497 27.3087 6.67183 27.3888C6.79204 27.4689 6.8655 27.5691 6.89222 27.6893C6.93229 27.8096 6.93897 27.9364 6.91225 28.07C6.88554 28.1902 6.82543 28.2971 6.73193 28.3906C6.63843 28.4841 6.5249 28.5375 6.39133 28.5509L5.93051 28.5909C5.11572 28.6577 4.52133 28.9048 4.14733 29.3323C3.78669 29.7597 3.60637 30.3875 3.60637 31.2156V32.0571L3.36594 31.7566H5.77022C5.99729 31.7566 6.17093 31.81 6.29115 31.9169C6.41136 32.0237 6.47147 32.1773 6.47147 32.3777C6.47147 32.578 6.41136 32.7383 6.29115 32.8585C6.17093 32.9654 5.99729 33.0188 5.77022 33.0188H3.60637V40.7927C3.60637 41.3537 3.33254 41.6342 2.7849 41.6342ZM11.1022 41.6742C10.4344 41.6742 9.83329 41.5474 9.29901 41.2936C8.77808 41.0264 8.36401 40.6658 8.05679 40.2116C7.74958 39.7575 7.59597 39.2499 7.59597 38.6889C7.59597 37.9676 7.77629 37.4 8.13694 36.9859C8.51094 36.5718 9.11868 36.278 9.96018 36.1043C10.815 35.9307 11.9771 35.8439 13.4464 35.8439H14.348V36.9058H13.4664C12.3845 36.9058 11.5296 36.9592 10.9019 37.066C10.2874 37.1595 9.85333 37.3265 9.59954 37.5669C9.35911 37.8074 9.2389 38.148 9.2389 38.5888C9.2389 39.1364 9.4259 39.5839 9.7999 39.9311C10.1873 40.2784 10.7082 40.4521 11.3627 40.4521C11.897 40.4521 12.3645 40.3252 12.7652 40.0714C13.1793 39.8176 13.4998 39.4703 13.7269 39.0295C13.9673 38.5888 14.0875 38.0812 14.0875 37.5068V35.2228C14.0875 34.3946 13.9206 33.8002 13.5866 33.4396C13.2527 33.0656 12.7051 32.8786 11.9437 32.8786C11.4762 32.8786 11.0087 32.9387 10.5412 33.0589C10.0737 33.1791 9.57951 33.3728 9.05858 33.6399C8.87158 33.7334 8.71129 33.7668 8.57772 33.7401C8.44415 33.7 8.33729 33.6266 8.25715 33.5197C8.17701 33.4129 8.13026 33.2927 8.1169 33.1591C8.10354 33.0122 8.13026 32.8719 8.19704 32.7383C8.27719 32.6048 8.3974 32.4979 8.55769 32.4178C9.1454 32.1239 9.72643 31.9102 10.3008 31.7766C10.8751 31.643 11.4228 31.5763 11.9437 31.5763C12.7852 31.5763 13.4798 31.7165 14.0274 31.997C14.5751 32.2642 14.9825 32.6782 15.2496 33.2392C15.5167 33.7869 15.6503 34.4948 15.6503 35.363V40.7927C15.6503 41.0598 15.5835 41.2669 15.45 41.4138C15.3297 41.5607 15.1494 41.6342 14.909 41.6342C14.6552 41.6342 14.4615 41.5607 14.328 41.4138C14.1944 41.2669 14.1276 41.0598 14.1276 40.7927V39.2299H14.3079C14.2011 39.7375 13.994 40.1716 13.6868 40.5322C13.393 40.8929 13.0256 41.1734 12.5849 41.3737C12.1441 41.5741 11.6499 41.6742 11.1022 41.6742ZM19.5027 41.6342C19.2355 41.6342 19.0352 41.5607 18.9016 41.4138C18.768 41.2669 18.7012 41.0598 18.7012 40.7927V32.4378C18.7012 32.1707 18.768 31.9703 18.9016 31.8367C19.0352 31.6898 19.2288 31.6163 19.4826 31.6163C19.7364 31.6163 19.9301 31.6898 20.0637 31.8367C20.2106 31.9703 20.284 32.1707 20.284 32.4378V34.2009L20.0637 33.9204C20.3174 33.1724 20.7248 32.5981 21.2858 32.1974C21.8602 31.7833 22.5414 31.5763 23.3295 31.5763C24.1576 31.5763 24.8255 31.7766 25.333 32.1773C25.854 32.5647 26.2013 33.1724 26.3749 34.0006H26.0744C26.3148 33.2526 26.7422 32.6649 27.3566 32.2374C27.9844 31.7967 28.7124 31.5763 29.5405 31.5763C30.2752 31.5763 30.8762 31.7165 31.3437 31.997C31.8246 32.2775 32.1852 32.7049 32.4257 33.2793C32.6661 33.8403 32.7863 34.5549 32.7863 35.4231V40.7927C32.7863 41.0598 32.7129 41.2669 32.5659 41.4138C32.4324 41.5607 32.232 41.6342 31.9649 41.6342C31.7111 41.6342 31.5107 41.5607 31.3638 41.4138C31.2302 41.2669 31.1634 41.0598 31.1634 40.7927V35.5033C31.1634 34.6083 31.0098 33.9538 30.7026 33.5398C30.3954 33.1123 29.8745 32.8986 29.1398 32.8986C28.3384 32.8986 27.7039 33.1791 27.2364 33.7401C26.7823 34.2878 26.5552 35.0358 26.5552 35.9841V40.7927C26.5552 41.0598 26.4818 41.2669 26.3348 41.4138C26.2013 41.5607 26.0009 41.6342 25.7338 41.6342C25.48 41.6342 25.2796 41.5607 25.1327 41.4138C24.9991 41.2669 24.9323 41.0598 24.9323 40.7927V35.5033C24.9323 34.6083 24.772 33.9538 24.4515 33.5398C24.1443 33.1123 23.63 32.8986 22.9087 32.8986C22.1073 32.8986 21.4728 33.1791 21.0053 33.7401C20.5512 34.2878 20.3241 35.0358 20.3241 35.9841V40.7927C20.3241 41.3537 20.0503 41.6342 19.5027 41.6342ZM36.6221 41.5941C36.3549 41.5941 36.1546 41.5206 36.021 41.3737C35.8874 41.2134 35.8206 40.993 35.8206 40.7125V32.5179C35.8206 32.2374 35.8874 32.0237 36.021 31.8768C36.1546 31.7299 36.3549 31.6564 36.6221 31.6564C36.8758 31.6564 37.0762 31.7299 37.2231 31.8768C37.3701 32.0237 37.4435 32.2374 37.4435 32.5179V40.7125C37.4435 40.993 37.3701 41.2134 37.2231 41.3737C37.0896 41.5206 36.8892 41.5941 36.6221 41.5941ZM36.6221 29.4124C36.2881 29.4124 36.0277 29.3256 35.8407 29.1519C35.6537 28.9649 35.5602 28.7178 35.5602 28.4106C35.5602 28.0901 35.6537 27.8496 35.8407 27.6893C36.0277 27.5157 36.2881 27.4289 36.6221 27.4289C36.9693 27.4289 37.2298 27.5157 37.4034 27.6893C37.5904 27.8496 37.6839 28.0901 37.6839 28.4106C37.6839 28.7178 37.5904 28.9649 37.4034 29.1519C37.2298 29.3256 36.9693 29.4124 36.6221 29.4124ZM43.4426 41.6742C42.4809 41.6742 41.7463 41.3804 41.2387 40.7927C40.7311 40.205 40.4774 39.3635 40.4774 38.2682V28.05C40.4774 27.7828 40.5441 27.5825 40.6777 27.4489C40.8113 27.302 41.0116 27.2285 41.2788 27.2285C41.5326 27.2285 41.7329 27.302 41.8799 27.4489C42.0268 27.5825 42.1002 27.7828 42.1002 28.05V38.148C42.1002 38.8693 42.2405 39.4102 42.521 39.7709C42.8149 40.1181 43.2423 40.2918 43.8033 40.2918C43.9235 40.2918 44.0304 40.2851 44.1239 40.2718C44.2174 40.2584 44.3109 40.2517 44.4044 40.2517C44.5513 40.2384 44.6515 40.2718 44.7049 40.3519C44.7717 40.432 44.8051 40.5923 44.8051 40.8328C44.8051 41.0732 44.7516 41.2535 44.6448 41.3737C44.5379 41.4939 44.3643 41.5741 44.1239 41.6141C44.017 41.6275 43.9035 41.6409 43.7832 41.6542C43.663 41.6676 43.5495 41.6742 43.4426 41.6742ZM48.3545 45.2406C48.1542 45.2406 47.9939 45.1872 47.8737 45.0803C47.7534 44.9735 47.68 44.8265 47.6533 44.6395C47.6399 44.4659 47.6733 44.2856 47.7534 44.0986L49.1359 40.993V41.6943L45.2891 32.7584C45.2089 32.558 45.1822 32.371 45.2089 32.1974C45.2356 32.0237 45.3158 31.8835 45.4493 31.7766C45.5829 31.6698 45.7699 31.6163 46.0103 31.6163C46.2241 31.6163 46.391 31.6631 46.5112 31.7566C46.6314 31.8501 46.7383 32.017 46.8318 32.2575L50.1177 40.3118H49.5767L52.9026 32.2575C53.0095 32.017 53.123 31.8501 53.2432 31.7566C53.3634 31.6631 53.5371 31.6163 53.7642 31.6163C53.9779 31.6163 54.1382 31.6698 54.245 31.7766C54.3652 31.8835 54.432 32.0237 54.4454 32.1974C54.4721 32.3577 54.4454 32.538 54.3652 32.7383L49.2361 44.5995C49.1292 44.8399 49.009 45.0069 48.8754 45.1004C48.7552 45.1939 48.5816 45.2406 48.3545 45.2406ZM56.4658 43.3973C56.3323 43.571 56.192 43.6711 56.0451 43.6979C55.8982 43.7246 55.7713 43.6979 55.6644 43.6177C55.5576 43.5376 55.4974 43.424 55.4841 43.2771C55.4841 43.1302 55.5509 42.9699 55.6844 42.7962C55.8982 42.5157 56.0451 42.2286 56.1252 41.9347C56.2054 41.6542 56.2454 41.3937 56.2454 41.1533L56.3256 41.5741C55.9783 41.5741 55.6978 41.4739 55.4841 41.2735C55.2837 41.0598 55.1836 40.7927 55.1836 40.4721C55.1836 40.1515 55.2771 39.8911 55.4641 39.6907C55.6644 39.477 55.9249 39.3701 56.2454 39.3701C56.5927 39.3701 56.8666 39.4904 57.0669 39.7308C57.2673 39.9579 57.3674 40.2918 57.3674 40.7326C57.3674 41.0131 57.3407 41.3002 57.2873 41.5941C57.2339 41.9013 57.1404 42.2085 57.0068 42.5157C56.8732 42.823 56.6929 43.1168 56.4658 43.3973ZM68.5945 41.6342C68.3674 41.6342 68.167 41.5741 67.9934 41.4539C67.8198 41.3336 67.6795 41.14 67.5727 40.8728L64.5873 32.7584C64.5072 32.5313 64.4805 32.3309 64.5072 32.1573C64.5473 31.9837 64.6341 31.8501 64.7677 31.7566C64.9012 31.6631 65.0682 31.6163 65.2686 31.6163C65.4689 31.6163 65.6292 31.6631 65.7494 31.7566C65.883 31.8501 65.9898 32.0237 66.07 32.2775L68.875 40.2918H68.3941L71.2793 32.2775C71.3728 32.0371 71.4863 31.8701 71.6199 31.7766C71.7668 31.6698 71.9538 31.6163 72.1809 31.6163C72.3946 31.6163 72.5749 31.6698 72.7218 31.7766C72.8688 31.8835 72.9823 32.0504 73.0624 32.2775L75.8875 40.2918H75.4266L78.2717 32.2374C78.3652 31.997 78.4787 31.8367 78.6123 31.7566C78.7459 31.6631 78.9062 31.6163 79.0932 31.6163C79.3069 31.6163 79.4672 31.6698 79.574 31.7766C79.6942 31.8835 79.761 32.0237 79.7744 32.1974C79.7877 32.371 79.7544 32.558 79.6742 32.7584L76.6889 40.8728C76.5954 41.1266 76.4551 41.3203 76.2681 41.4539C76.0945 41.5741 75.8941 41.6342 75.6671 41.6342C75.44 41.6342 75.2396 41.5741 75.066 41.4539C74.8924 41.3203 74.7588 41.1266 74.6653 40.8728L71.7 32.7383H72.5615L69.6163 40.8728C69.5228 41.1266 69.3892 41.3203 69.2156 41.4539C69.0419 41.5741 68.8349 41.6342 68.5945 41.6342ZM85.9851 41.6742C85.0368 41.6742 84.2153 41.4672 83.5208 41.0531C82.8262 40.6391 82.2852 40.058 81.8979 39.31C81.5239 38.5487 81.3369 37.6538 81.3369 36.6253C81.3369 35.8505 81.4437 35.156 81.6574 34.5415C81.8711 33.9138 82.185 33.3795 82.5991 32.9387C83.0132 32.4979 83.5007 32.164 84.0617 31.9369C84.6361 31.6965 85.2772 31.5763 85.9851 31.5763C86.9335 31.5763 87.755 31.7833 88.4495 32.1974C89.1441 32.6114 89.6784 33.1992 90.0524 33.9605C90.4397 34.7085 90.6334 35.5968 90.6334 36.6253C90.6334 37.4 90.5266 38.0945 90.3129 38.709C90.0991 39.3234 89.7852 39.8577 89.3712 40.3118C88.9571 40.7526 88.4629 41.0932 87.8885 41.3336C87.3275 41.5607 86.6931 41.6742 85.9851 41.6742ZM85.9851 40.3719C86.5862 40.3719 87.1138 40.225 87.568 39.9311C88.0221 39.6373 88.3694 39.2099 88.6098 38.6489C88.8636 38.0879 88.9905 37.4133 88.9905 36.6253C88.9905 35.4098 88.7167 34.4814 88.169 33.8403C87.6347 33.1992 86.9068 32.8786 85.9851 32.8786C85.3707 32.8786 84.8364 33.0255 84.3823 33.3194C83.9415 33.5999 83.5942 34.0206 83.3404 34.5816C83.1 35.1293 82.9798 35.8105 82.9798 36.6253C82.9798 37.8274 83.2536 38.7557 83.8013 39.4102C84.3489 40.0514 85.0769 40.3719 85.9851 40.3719ZM93.8925 41.6342C93.6254 41.6342 93.4183 41.5607 93.2714 41.4138C93.1378 41.2669 93.071 41.0598 93.071 40.7927V32.4378C93.071 32.1707 93.1378 31.9703 93.2714 31.8367C93.405 31.6898 93.5987 31.6163 93.8524 31.6163C94.1062 31.6163 94.2999 31.6898 94.4335 31.8367C94.5804 31.9703 94.6539 32.1707 94.6539 32.4378V34.0607H94.4535C94.6672 33.2726 95.0746 32.6649 95.6757 32.2374C96.2768 31.81 97.0181 31.5829 97.8996 31.5562C98.1 31.5429 98.2603 31.5896 98.3805 31.6965C98.5007 31.79 98.5675 31.9569 98.5809 32.1974C98.5942 32.4244 98.5408 32.6048 98.4206 32.7383C98.3004 32.8719 98.1134 32.952 97.8596 32.9788L97.539 33.0188C96.6307 33.099 95.9295 33.3928 95.4353 33.9004C94.9544 34.3946 94.714 35.0758 94.714 35.944V40.7927C94.714 41.0598 94.6405 41.2669 94.4936 41.4138C94.36 41.5607 94.1597 41.6342 93.8925 41.6342ZM101.053 41.6342C100.786 41.6342 100.586 41.5607 100.452 41.4138C100.319 41.2669 100.252 41.0598 100.252 40.7927V28.05C100.252 27.7828 100.319 27.5825 100.452 27.4489C100.586 27.302 100.786 27.2285 101.053 27.2285C101.307 27.2285 101.507 27.302 101.654 27.4489C101.801 27.5825 101.875 27.7828 101.875 28.05V36.0843H101.915L106.022 32.1573C106.209 31.9837 106.369 31.8501 106.503 31.7566C106.65 31.6631 106.844 31.6163 107.084 31.6163C107.298 31.6163 107.465 31.6764 107.585 31.7967C107.705 31.9035 107.759 32.0438 107.745 32.2174C107.745 32.3777 107.665 32.5513 107.505 32.7383L103.137 36.8857V36.0041L107.885 40.4721C108.072 40.6591 108.166 40.8394 108.166 41.0131C108.166 41.1867 108.099 41.3336 107.966 41.4539C107.845 41.5741 107.685 41.6342 107.485 41.6342C107.244 41.6342 107.051 41.5874 106.904 41.4939C106.757 41.3871 106.576 41.2335 106.363 41.0331L101.915 36.9258H101.875V40.7927C101.875 41.3537 101.601 41.6342 101.053 41.6342ZM111.447 43.3973C111.313 43.571 111.173 43.6711 111.026 43.6979C110.879 43.7246 110.752 43.6979 110.645 43.6177C110.538 43.5376 110.478 43.424 110.465 43.2771C110.465 43.1302 110.532 42.9699 110.665 42.7962C110.879 42.5157 111.026 42.2286 111.106 41.9347C111.186 41.6542 111.226 41.3937 111.226 41.1533L111.306 41.5741C110.959 41.5741 110.679 41.4739 110.465 41.2735C110.264 41.0598 110.164 40.7927 110.164 40.4721C110.164 40.1515 110.258 39.8911 110.445 39.6907C110.645 39.477 110.906 39.3701 111.226 39.3701C111.573 39.3701 111.847 39.4904 112.048 39.7308C112.248 39.9579 112.348 40.2918 112.348 40.7326C112.348 41.0131 112.321 41.3002 112.268 41.5941C112.215 41.9013 112.121 42.2085 111.988 42.5157C111.854 42.823 111.674 43.1168 111.447 43.3973ZM121.532 41.6342C121.278 41.6342 121.077 41.5607 120.931 41.4138C120.797 41.2669 120.73 41.0598 120.73 40.7927V33.0188H119.448C119.234 33.0188 119.061 32.9654 118.927 32.8585C118.807 32.7383 118.747 32.578 118.747 32.3777C118.747 32.1773 118.807 32.0237 118.927 31.9169C119.061 31.81 119.234 31.7566 119.448 31.7566H121.171L120.73 32.1773V31.416C120.73 30.147 121.037 29.1787 121.652 28.5108C122.28 27.8429 123.195 27.4556 124.397 27.3487L124.978 27.2886C125.165 27.2753 125.312 27.3087 125.419 27.3888C125.539 27.4689 125.612 27.5691 125.639 27.6893C125.679 27.8096 125.686 27.9364 125.659 28.07C125.632 28.1902 125.572 28.2971 125.479 28.3906C125.385 28.4841 125.272 28.5375 125.138 28.5509L124.677 28.5909C123.862 28.6577 123.268 28.9048 122.894 29.3323C122.533 29.7597 122.353 30.3875 122.353 31.2156V32.0571L122.113 31.7566H124.517C124.744 31.7566 124.918 31.81 125.038 31.9169C125.158 32.0237 125.218 32.1773 125.218 32.3777C125.218 32.578 125.158 32.7383 125.038 32.8585C124.918 32.9654 124.744 33.0188 124.517 33.0188H122.353V40.7927C122.353 41.3537 122.079 41.6342 121.532 41.6342ZM127.703 41.6342C127.436 41.6342 127.229 41.5607 127.082 41.4138C126.948 41.2669 126.881 41.0598 126.881 40.7927V32.4378C126.881 32.1707 126.948 31.9703 127.082 31.8367C127.215 31.6898 127.409 31.6163 127.663 31.6163C127.916 31.6163 128.11 31.6898 128.244 31.8367C128.391 31.9703 128.464 32.1707 128.464 32.4378V34.0607H128.264C128.477 33.2726 128.885 32.6649 129.486 32.2374C130.087 31.81 130.828 31.5829 131.71 31.5562C131.91 31.5429 132.071 31.5896 132.191 31.6965C132.311 31.79 132.378 31.9569 132.391 32.1974C132.404 32.4244 132.351 32.6048 132.231 32.7383C132.111 32.8719 131.924 32.952 131.67 32.9788L131.349 33.0188C130.441 33.099 129.74 33.3928 129.245 33.9004C128.765 34.3946 128.524 35.0758 128.524 35.944V40.7927C128.524 41.0598 128.451 41.2669 128.304 41.4138C128.17 41.5607 127.97 41.6342 127.703 41.6342ZM134.863 41.5941C134.596 41.5941 134.396 41.5206 134.262 41.3737C134.129 41.2134 134.062 40.993 134.062 40.7125V32.5179C134.062 32.2374 134.129 32.0237 134.262 31.8768C134.396 31.7299 134.596 31.6564 134.863 31.6564C135.117 31.6564 135.318 31.7299 135.465 31.8768C135.611 32.0237 135.685 32.2374 135.685 32.5179V40.7125C135.685 40.993 135.611 41.2134 135.465 41.3737C135.331 41.5206 135.131 41.5941 134.863 41.5941ZM134.863 29.4124C134.53 29.4124 134.269 29.3256 134.082 29.1519C133.895 28.9649 133.802 28.7178 133.802 28.4106C133.802 28.0901 133.895 27.8496 134.082 27.6893C134.269 27.5157 134.53 27.4289 134.863 27.4289C135.211 27.4289 135.471 27.5157 135.645 27.6893C135.832 27.8496 135.925 28.0901 135.925 28.4106C135.925 28.7178 135.832 28.9649 135.645 29.1519C135.471 29.3256 135.211 29.4124 134.863 29.4124ZM143.107 41.6742C142.078 41.6742 141.19 41.4739 140.442 41.0732C139.707 40.6591 139.133 40.0781 138.719 39.3301C138.318 38.5821 138.118 37.6871 138.118 36.6453C138.118 35.6301 138.318 34.7486 138.719 34.0006C139.119 33.2392 139.667 32.6448 140.362 32.2174C141.07 31.79 141.884 31.5763 142.806 31.5763C143.461 31.5763 144.048 31.6898 144.569 31.9169C145.09 32.1306 145.531 32.4445 145.892 32.8585C146.266 33.2726 146.546 33.7735 146.733 34.3612C146.933 34.9489 147.034 35.6101 147.034 36.3448C147.034 36.5585 146.973 36.7188 146.853 36.8256C146.733 36.9191 146.559 36.9659 146.332 36.9659H139.36V35.904H145.952L145.631 36.1644C145.631 35.4431 145.524 34.8354 145.311 34.3412C145.097 33.8336 144.783 33.4463 144.369 33.1791C143.968 32.912 143.461 32.7784 142.846 32.7784C142.165 32.7784 141.584 32.9387 141.103 33.2593C140.636 33.5665 140.282 34.0006 140.041 34.5616C139.801 35.1092 139.68 35.7504 139.68 36.485V36.6052C139.68 37.8341 139.974 38.7691 140.562 39.4102C141.163 40.0514 142.011 40.3719 143.107 40.3719C143.561 40.3719 144.008 40.3118 144.449 40.1916C144.903 40.0714 145.344 39.871 145.771 39.5905C145.958 39.4703 146.125 39.4169 146.272 39.4303C146.433 39.4303 146.559 39.477 146.653 39.5705C146.746 39.6506 146.807 39.7575 146.833 39.8911C146.873 40.0113 146.86 40.1449 146.793 40.2918C146.74 40.4387 146.626 40.5656 146.453 40.6725C146.012 40.993 145.491 41.2401 144.89 41.4138C144.289 41.5874 143.694 41.6742 143.107 41.6742ZM150.184 41.6342C149.917 41.6342 149.716 41.5607 149.583 41.4138C149.449 41.2669 149.382 41.0598 149.382 40.7927V32.4378C149.382 32.1707 149.449 31.9703 149.583 31.8367C149.716 31.6898 149.91 31.6163 150.164 31.6163C150.417 31.6163 150.611 31.6898 150.745 31.8367C150.892 31.9703 150.965 32.1707 150.965 32.4378V34.1609L150.745 33.9204C151.025 33.1457 151.479 32.5647 152.107 32.1773C152.748 31.7766 153.483 31.5763 154.311 31.5763C155.086 31.5763 155.727 31.7165 156.234 31.997C156.755 32.2775 157.143 32.7049 157.397 33.2793C157.65 33.8403 157.777 34.5549 157.777 35.4231V40.7927C157.777 41.0598 157.704 41.2669 157.557 41.4138C157.423 41.5607 157.23 41.6342 156.976 41.6342C156.709 41.6342 156.502 41.5607 156.355 41.4138C156.221 41.2669 156.154 41.0598 156.154 40.7927V35.5233C156.154 34.615 155.974 33.9538 155.613 33.5398C155.266 33.1123 154.705 32.8986 153.93 32.8986C153.035 32.8986 152.321 33.1791 151.787 33.7401C151.266 34.2878 151.005 35.0224 151.005 35.944V40.7927C151.005 41.3537 150.731 41.6342 150.184 41.6342ZM164.476 41.6742C163.608 41.6742 162.847 41.4672 162.192 41.0531C161.551 40.6391 161.05 40.058 160.69 39.31C160.342 38.5487 160.169 37.6538 160.169 36.6253C160.169 35.5834 160.342 34.6885 160.69 33.9405C161.05 33.1791 161.551 32.5981 162.192 32.1974C162.847 31.7833 163.608 31.5763 164.476 31.5763C165.358 31.5763 166.113 31.7967 166.74 32.2374C167.368 32.6782 167.789 33.2726 168.003 34.0206H167.782V28.05C167.782 27.7828 167.849 27.5825 167.983 27.4489C168.13 27.302 168.337 27.2285 168.604 27.2285C168.858 27.2285 169.051 27.302 169.185 27.4489C169.332 27.5825 169.405 27.7828 169.405 28.05V40.7927C169.405 41.0598 169.338 41.2669 169.205 41.4138C169.071 41.5607 168.871 41.6342 168.604 41.6342C168.35 41.6342 168.15 41.5607 168.003 41.4138C167.869 41.2669 167.802 41.0598 167.802 40.7927V38.8893L168.023 39.1698C167.809 39.9311 167.382 40.5389 166.74 40.993C166.113 41.4472 165.358 41.6742 164.476 41.6742ZM164.817 40.3719C165.418 40.3719 165.946 40.225 166.4 39.9311C166.854 39.6373 167.201 39.2099 167.442 38.6489C167.695 38.0879 167.822 37.4133 167.822 36.6253C167.822 35.4098 167.549 34.4814 167.001 33.8403C166.467 33.1992 165.739 32.8786 164.817 32.8786C164.203 32.8786 163.668 33.0255 163.214 33.3194C162.773 33.5999 162.426 34.0206 162.172 34.5816C161.932 35.1293 161.812 35.8105 161.812 36.6253C161.812 37.8274 162.085 38.7557 162.633 39.4102C163.181 40.0514 163.909 40.3719 164.817 40.3719ZM175.737 41.6742C175.136 41.6742 174.528 41.6008 173.913 41.4539C173.312 41.3069 172.751 41.0531 172.23 40.6925C172.097 40.599 172.003 40.4921 171.95 40.3719C171.896 40.2384 171.876 40.1115 171.89 39.9913C171.916 39.8577 171.97 39.7441 172.05 39.6506C172.144 39.5571 172.25 39.5037 172.371 39.4904C172.504 39.4636 172.651 39.4904 172.811 39.5705C173.332 39.8911 173.833 40.1181 174.314 40.2517C174.808 40.3719 175.296 40.432 175.777 40.432C176.538 40.432 177.112 40.2918 177.5 40.0113C177.887 39.7308 178.081 39.3501 178.081 38.8693C178.081 38.4953 177.954 38.2014 177.7 37.9877C177.446 37.7606 177.046 37.587 176.498 37.4668L174.675 37.066C173.833 36.8924 173.205 36.5919 172.791 36.1644C172.391 35.737 172.19 35.1827 172.19 34.5015C172.19 33.9004 172.344 33.3862 172.651 32.9587C172.972 32.5179 173.419 32.1773 173.993 31.9369C174.568 31.6965 175.236 31.5763 175.997 31.5763C176.585 31.5763 177.139 31.6564 177.66 31.8167C178.194 31.9636 178.675 32.204 179.103 32.538C179.236 32.6315 179.323 32.745 179.363 32.8786C179.416 32.9988 179.423 33.1257 179.383 33.2593C179.356 33.3795 179.296 33.4863 179.203 33.5798C179.109 33.66 178.996 33.7067 178.862 33.7201C178.729 33.7334 178.588 33.6934 178.441 33.5999C178.041 33.3327 177.633 33.139 177.219 33.0188C176.805 32.8853 176.398 32.8185 175.997 32.8185C175.249 32.8185 174.681 32.9654 174.294 33.2593C173.907 33.5531 173.713 33.9405 173.713 34.4213C173.713 34.7953 173.833 35.1025 174.074 35.343C174.314 35.5834 174.688 35.757 175.196 35.8639L177.019 36.2446C177.887 36.4316 178.535 36.7321 178.962 37.1462C179.403 37.5469 179.624 38.0945 179.624 38.7891C179.624 39.6707 179.27 40.3719 178.562 40.8929C177.854 41.4138 176.912 41.6742 175.737 41.6742ZM182.898 41.6342C182.631 41.6342 182.431 41.5607 182.297 41.4138C182.164 41.2669 182.097 41.0598 182.097 40.7927V28.05C182.097 27.7828 182.164 27.5825 182.297 27.4489C182.431 27.302 182.631 27.2285 182.898 27.2285C183.152 27.2285 183.352 27.302 183.499 27.4489C183.646 27.5825 183.72 27.7828 183.72 28.05V33.9204H183.459C183.74 33.1457 184.194 32.5647 184.822 32.1773C185.463 31.7766 186.197 31.5763 187.026 31.5763C187.8 31.5763 188.441 31.7165 188.949 31.997C189.47 32.2775 189.857 32.7049 190.111 33.2793C190.365 33.8403 190.492 34.5549 190.492 35.4231V40.7927C190.492 41.0598 190.418 41.2669 190.271 41.4138C190.138 41.5607 189.944 41.6342 189.69 41.6342C189.423 41.6342 189.216 41.5607 189.069 41.4138C188.936 41.2669 188.869 41.0598 188.869 40.7927V35.5233C188.869 34.615 188.689 33.9538 188.328 33.5398C187.981 33.1123 187.42 32.8986 186.645 32.8986C185.75 32.8986 185.035 33.1791 184.501 33.7401C183.98 34.2878 183.72 35.0224 183.72 35.944V40.7927C183.72 41.3537 183.446 41.6342 182.898 41.6342ZM194.286 41.5941C194.019 41.5941 193.818 41.5206 193.685 41.3737C193.551 41.2134 193.484 40.993 193.484 40.7125V32.5179C193.484 32.2374 193.551 32.0237 193.685 31.8768C193.818 31.7299 194.019 31.6564 194.286 31.6564C194.54 31.6564 194.74 31.7299 194.887 31.8768C195.034 32.0237 195.107 32.2374 195.107 32.5179V40.7125C195.107 40.993 195.034 41.2134 194.887 41.3737C194.753 41.5206 194.553 41.5941 194.286 41.5941ZM194.286 29.4124C193.952 29.4124 193.691 29.3256 193.504 29.1519C193.317 28.9649 193.224 28.7178 193.224 28.4106C193.224 28.0901 193.317 27.8496 193.504 27.6893C193.691 27.5157 193.952 27.4289 194.286 27.4289C194.633 27.4289 194.893 27.5157 195.067 27.6893C195.254 27.8496 195.348 28.0901 195.348 28.4106C195.348 28.7178 195.254 28.9649 195.067 29.1519C194.893 29.3256 194.633 29.4124 194.286 29.4124ZM198.942 45.2406C198.675 45.2406 198.475 45.1671 198.341 45.0202C198.208 44.8866 198.141 44.6863 198.141 44.4191V32.4378C198.141 32.1707 198.208 31.9703 198.341 31.8367C198.475 31.6898 198.669 31.6163 198.922 31.6163C199.19 31.6163 199.39 31.6898 199.523 31.8367C199.67 31.9703 199.744 32.1707 199.744 32.4378V34.3412L199.523 34.0607C199.737 33.2993 200.158 32.6983 200.786 32.2575C201.427 31.8033 202.188 31.5763 203.07 31.5763C203.938 31.5763 204.693 31.7833 205.334 32.1974C205.988 32.5981 206.489 33.1791 206.837 33.9405C207.197 34.6885 207.377 35.5834 207.377 36.6253C207.377 37.6538 207.197 38.5487 206.837 39.31C206.489 40.058 205.995 40.6391 205.354 41.0531C204.713 41.4672 203.951 41.6742 203.07 41.6742C202.188 41.6742 201.434 41.4539 200.806 41.0131C200.178 40.5589 199.751 39.9579 199.523 39.2099H199.764V44.4191C199.764 44.6863 199.69 44.8866 199.544 45.0202C199.397 45.1671 199.196 45.2406 198.942 45.2406ZM202.729 40.3719C203.344 40.3719 203.871 40.225 204.312 39.9311C204.766 39.6373 205.113 39.2099 205.354 38.6489C205.608 38.0879 205.735 37.4133 205.735 36.6253C205.735 35.4098 205.461 34.4814 204.913 33.8403C204.379 33.1992 203.651 32.8786 202.729 32.8786C202.128 32.8786 201.601 33.0255 201.146 33.3194C200.692 33.5999 200.338 34.0206 200.084 34.5816C199.844 35.1293 199.724 35.8105 199.724 36.6253C199.724 37.8274 199.998 38.7557 200.545 39.4102C201.093 40.0514 201.821 40.3719 202.729 40.3719ZM210.334 43.3973C210.2 43.571 210.06 43.6711 209.913 43.6979C209.766 43.7246 209.639 43.6979 209.532 43.6177C209.425 43.5376 209.365 43.424 209.352 43.2771C209.352 43.1302 209.419 42.9699 209.552 42.7962C209.766 42.5157 209.913 42.2286 209.993 41.9347C210.073 41.6542 210.113 41.3937 210.113 41.1533L210.193 41.5741C209.846 41.5741 209.566 41.4739 209.352 41.2735C209.152 41.0598 209.051 40.7927 209.051 40.4721C209.051 40.1515 209.145 39.8911 209.332 39.6907C209.532 39.477 209.793 39.3701 210.113 39.3701C210.461 39.3701 210.734 39.4904 210.935 39.7308C211.135 39.9579 211.235 40.2918 211.235 40.7326C211.235 41.0131 211.209 41.3002 211.155 41.5941C211.102 41.9013 211.008 42.2085 210.875 42.5157C210.741 42.823 210.561 43.1168 210.334 43.3973ZM223.484 41.6742C222.456 41.6742 221.567 41.4739 220.819 41.0732C220.085 40.6591 219.51 40.0781 219.096 39.3301C218.696 38.5821 218.495 37.6871 218.495 36.6453C218.495 35.6301 218.696 34.7486 219.096 34.0006C219.497 33.2392 220.045 32.6448 220.739 32.2174C221.447 31.79 222.262 31.5763 223.184 31.5763C223.838 31.5763 224.426 31.6898 224.947 31.9169C225.468 32.1306 225.908 32.4445 226.269 32.8585C226.643 33.2726 226.924 33.7735 227.111 34.3612C227.311 34.9489 227.411 35.6101 227.411 36.3448C227.411 36.5585 227.351 36.7188 227.231 36.8256C227.111 36.9191 226.937 36.9659 226.71 36.9659H219.737V35.904H226.329L226.009 36.1644C226.009 35.4431 225.902 34.8354 225.688 34.3412C225.474 33.8336 225.16 33.4463 224.746 33.1791C224.346 32.912 223.838 32.7784 223.224 32.7784C222.542 32.7784 221.961 32.9387 221.481 33.2593C221.013 33.5665 220.659 34.0006 220.419 34.5616C220.178 35.1092 220.058 35.7504 220.058 36.485V36.6052C220.058 37.8341 220.352 38.7691 220.94 39.4102C221.541 40.0514 222.389 40.3719 223.484 40.3719C223.938 40.3719 224.386 40.3118 224.827 40.1916C225.281 40.0714 225.721 39.871 226.149 39.5905C226.336 39.4703 226.503 39.4169 226.65 39.4303C226.81 39.4303 226.937 39.477 227.03 39.5705C227.124 39.6506 227.184 39.7575 227.211 39.8911C227.251 40.0113 227.237 40.1449 227.171 40.2918C227.117 40.4387 227.004 40.5656 226.83 40.6725C226.389 40.993 225.868 41.2401 225.267 41.4138C224.666 41.5874 224.072 41.6742 223.484 41.6742ZM233.667 41.6742C232.905 41.6742 232.264 41.5407 231.743 41.2735C231.236 40.993 230.855 40.5923 230.601 40.0714C230.348 39.5371 230.221 38.8893 230.221 38.1279V33.0188H228.878C228.651 33.0188 228.478 32.9654 228.357 32.8585C228.237 32.7383 228.177 32.578 228.177 32.3777C228.177 32.1773 228.237 32.0237 228.357 31.9169C228.478 31.81 228.651 31.7566 228.878 31.7566H230.221V29.4525C230.221 29.1853 230.294 28.985 230.441 28.8514C230.588 28.7045 230.788 28.631 231.042 28.631C231.296 28.631 231.49 28.7045 231.623 28.8514C231.77 28.985 231.844 29.1853 231.844 29.4525V31.7566H234.368C234.595 31.7566 234.769 31.81 234.889 31.9169C235.009 32.0237 235.069 32.1773 235.069 32.3777C235.069 32.578 235.009 32.7383 234.889 32.8585C234.769 32.9654 234.595 33.0188 234.368 33.0188H231.844V37.9676C231.844 38.729 232.004 39.31 232.324 39.7108C232.645 40.0981 233.166 40.2918 233.887 40.2918C234.141 40.2918 234.355 40.2651 234.528 40.2116C234.715 40.1582 234.869 40.1315 234.989 40.1315C235.109 40.1181 235.21 40.1582 235.29 40.2517C235.37 40.3452 235.41 40.5055 235.41 40.7326C235.41 40.8929 235.377 41.0398 235.31 41.1734C235.256 41.3069 235.156 41.4004 235.009 41.4539C234.849 41.5073 234.635 41.554 234.368 41.5941C234.114 41.6475 233.881 41.6742 233.667 41.6742ZM240.794 41.6742C239.819 41.6742 238.977 41.4605 238.27 41.0331C237.562 40.6057 237.014 40.0113 236.627 39.2499C236.253 38.4752 236.066 37.5803 236.066 36.5651C236.066 35.7904 236.172 35.0959 236.386 34.4814C236.6 33.867 236.914 33.3461 237.328 32.9187C237.742 32.4779 238.236 32.1439 238.811 31.9169C239.398 31.6898 240.059 31.5763 240.794 31.5763C241.275 31.5763 241.776 31.6497 242.297 31.7967C242.818 31.9436 243.292 32.1974 243.719 32.558C243.853 32.6515 243.94 32.765 243.98 32.8986C244.02 33.0322 244.02 33.1658 243.98 33.2993C243.94 33.4195 243.873 33.5264 243.779 33.6199C243.686 33.7 243.566 33.7468 243.419 33.7602C243.285 33.7735 243.145 33.7268 242.998 33.6199C242.651 33.3528 242.297 33.1658 241.936 33.0589C241.575 32.952 241.228 32.8986 240.894 32.8986C240.373 32.8986 239.919 32.9854 239.532 33.1591C239.144 33.3194 238.817 33.5531 238.55 33.8603C238.283 34.1675 238.076 34.5482 237.929 35.0024C237.795 35.4565 237.729 35.9841 237.729 36.5852C237.729 37.7473 238.002 38.6689 238.55 39.3501C239.098 40.018 239.879 40.3519 240.894 40.3519C241.228 40.3519 241.569 40.2985 241.916 40.1916C242.277 40.0848 242.637 39.8978 242.998 39.6306C243.145 39.5238 243.285 39.477 243.419 39.4904C243.552 39.5037 243.666 39.5571 243.759 39.6506C243.853 39.7308 243.913 39.8376 243.94 39.9712C243.98 40.1048 243.98 40.2384 243.94 40.3719C243.9 40.4921 243.813 40.599 243.679 40.6925C243.252 41.0398 242.784 41.2936 242.277 41.4539C241.769 41.6008 241.275 41.6742 240.794 41.6742ZM246.918 41.5741C246.584 41.5741 246.317 41.4739 246.117 41.2735C245.916 41.0598 245.816 40.7927 245.816 40.4721C245.816 40.1515 245.916 39.8911 246.117 39.6907C246.317 39.477 246.584 39.3701 246.918 39.3701C247.252 39.3701 247.512 39.477 247.699 39.6907C247.9 39.8911 248 40.1515 248 40.4721C248 40.7927 247.9 41.0598 247.699 41.2735C247.512 41.4739 247.252 41.5741 246.918 41.5741Z" fill="#A1A1A1"/>
</svg>
