<svg width="57" height="18" viewBox="0 0 57 18" fill="none" xmlns="http://www.w3.org/2000/svg">
<path d="M0.880975 14.396C0.600663 14.396 0.380418 14.3226 0.22024 14.1758C0.0734096 14.0156 -5.40023e-06 13.7887 -5.40023e-06 13.495V1.04115C-5.40023e-06 0.747488 0.0734096 0.527243 0.22024 0.380413C0.380418 0.220234 0.607337 0.140145 0.900997 0.140145H8.16908C8.396 0.140145 8.56953 0.200212 8.68966 0.320346C8.80979 0.440479 8.86986 0.607332 8.86986 0.820903C8.86986 1.04782 8.80979 1.22135 8.68966 1.34148C8.56953 1.46162 8.396 1.52168 8.16908 1.52168H1.64182V6.44716H7.74861C7.97553 6.44716 8.14906 6.50723 8.26919 6.62736C8.40267 6.74749 8.46942 6.91435 8.46942 7.12792C8.46942 7.35484 8.40267 7.52836 8.26919 7.6485C8.14906 7.76863 7.97553 7.8287 7.74861 7.8287H1.64182V13.495C1.64182 14.0957 1.38821 14.396 0.880975 14.396ZM13.4213 14.436C12.7539 14.436 12.1533 14.3092 11.6193 14.0556C11.0987 13.7887 10.685 13.4283 10.3779 12.9744C10.0709 12.5206 9.91743 12.0134 9.91743 11.4527C9.91743 10.7319 10.0976 10.1646 10.458 9.75083C10.8318 9.33704 11.4391 9.04338 12.2801 8.86985C13.1343 8.69633 14.2956 8.60957 15.7639 8.60957H16.6649V9.67075H15.784C14.7028 9.67075 13.8485 9.72414 13.2211 9.83092C12.6071 9.92436 12.1733 10.0912 11.9197 10.3315C11.6794 10.5717 11.5593 10.9121 11.5593 11.3526C11.5593 11.8999 11.7461 12.3471 12.1199 12.6941C12.507 13.0412 13.0276 13.2147 13.6816 13.2147C14.2155 13.2147 14.6827 13.0879 15.0832 12.8343C15.497 12.5806 15.8173 12.2336 16.0442 11.7931C16.2845 11.3526 16.4046 10.8454 16.4046 10.2714V7.98887C16.4046 7.16129 16.2378 6.56729 15.9041 6.20689C15.5704 5.83314 15.0231 5.64627 14.2623 5.64627C13.7951 5.64627 13.3279 5.70634 12.8607 5.82647C12.3935 5.9466 11.8996 6.14015 11.3791 6.40712C11.1922 6.50055 11.032 6.53392 10.8985 6.50723C10.765 6.46718 10.6583 6.39377 10.5782 6.28698C10.4981 6.1802 10.4514 6.06006 10.438 5.92658C10.4247 5.77975 10.4514 5.6396 10.5181 5.50611C10.5982 5.37263 10.7183 5.26585 10.8785 5.18576C11.4658 4.8921 12.0465 4.67853 12.6204 4.54504C13.1944 4.41156 13.7417 4.34482 14.2623 4.34482C15.1032 4.34482 15.7973 4.48498 16.3446 4.76529C16.8919 5.03225 17.299 5.44605 17.5659 6.00667C17.8329 6.55395 17.9664 7.2614 17.9664 8.12903V13.5551C17.9664 13.822 17.8996 14.0289 17.7662 14.1758C17.646 14.3226 17.4658 14.396 17.2256 14.396C16.9719 14.396 16.7784 14.3226 16.6449 14.1758C16.5114 14.0289 16.4447 13.822 16.4447 13.5551V11.9933H16.6249C16.5181 12.5006 16.3112 12.9344 16.0042 13.2948C15.7105 13.6552 15.3435 13.9355 14.903 14.1357C14.4625 14.3359 13.9686 14.436 13.4213 14.436ZM21.8161 14.396C21.5492 14.396 21.3489 14.3226 21.2155 14.1758C21.082 14.0289 21.0152 13.822 21.0152 13.5551V5.20578C21.0152 4.93882 21.082 4.73859 21.2155 4.60511C21.3489 4.45828 21.5425 4.38487 21.7961 4.38487C22.0497 4.38487 22.2433 4.45828 22.3768 4.60511C22.5236 4.73859 22.597 4.93882 22.597 5.20578V6.96774L22.3768 6.68743C22.6304 5.93993 23.0375 5.36596 23.5981 4.96551C24.1721 4.55172 24.8528 4.34482 25.6404 4.34482C26.468 4.34482 27.1354 4.54504 27.6426 4.94549C28.1632 5.33259 28.5102 5.93993 28.6838 6.76752H28.3834C28.6237 6.02002 29.0508 5.4327 29.6649 5.00556C30.2922 4.56507 31.0197 4.34482 31.8473 4.34482C32.5814 4.34482 33.1821 4.48498 33.6493 4.76529C34.1298 5.0456 34.4902 5.47274 34.7305 6.04671C34.9708 6.60734 35.0909 7.32147 35.0909 8.1891V13.5551C35.0909 13.822 35.0175 14.0289 34.8707 14.1758C34.7372 14.3226 34.5369 14.396 34.27 14.396C34.0164 14.396 33.8161 14.3226 33.6693 14.1758C33.5358 14.0289 33.4691 13.822 33.4691 13.5551V8.26919C33.4691 7.37486 33.3156 6.7208 33.0086 6.307C32.7016 5.87986 32.181 5.66629 31.4468 5.66629C30.646 5.66629 30.0119 5.9466 29.5447 6.50723C29.0909 7.0545 28.864 7.802 28.864 8.74972V13.5551C28.864 13.822 28.7906 14.0289 28.6437 14.1758C28.5102 14.3226 28.31 14.396 28.0431 14.396C27.7894 14.396 27.5892 14.3226 27.4424 14.1758C27.3089 14.0289 27.2422 13.822 27.2422 13.5551V8.26919C27.2422 7.37486 27.082 6.7208 26.7616 6.307C26.4546 5.87986 25.9407 5.66629 25.2199 5.66629C24.419 5.66629 23.785 5.9466 23.3178 6.50723C22.864 7.0545 22.637 7.802 22.637 8.74972V13.5551C22.637 14.1157 22.3634 14.396 21.8161 14.396ZM38.9241 14.356C38.6571 14.356 38.4569 14.2825 38.3234 14.1357C38.1899 13.9755 38.1232 13.7553 38.1232 13.475V5.28587C38.1232 5.00556 38.1899 4.79199 38.3234 4.64516C38.4569 4.49833 38.6571 4.42491 38.9241 4.42491C39.1777 4.42491 39.3779 4.49833 39.5247 4.64516C39.6716 4.79199 39.745 5.00556 39.745 5.28587V13.475C39.745 13.7553 39.6716 13.9755 39.5247 14.1357C39.3913 14.2825 39.191 14.356 38.9241 14.356ZM38.9241 2.18242C38.5904 2.18242 38.3301 2.09565 38.1432 1.92213C37.9563 1.73525 37.8629 1.48831 37.8629 1.1813C37.8629 0.860947 37.9563 0.62068 38.1432 0.460502C38.3301 0.286976 38.5904 0.200212 38.9241 0.200212C39.2711 0.200212 39.5314 0.286976 39.7049 0.460502C39.8918 0.62068 39.9852 0.860947 39.9852 1.1813C39.9852 1.48831 39.8918 1.73525 39.7049 1.92213C39.5314 2.09565 39.2711 2.18242 38.9241 2.18242ZM45.7401 14.436C44.779 14.436 44.0449 14.1424 43.5376 13.5551C43.0304 12.9677 42.7768 12.1268 42.7768 11.0323V0.820903C42.7768 0.553939 42.8435 0.353716 42.977 0.220234C43.1105 0.0734048 43.3107 -1.00247e-05 43.5777 -1.00247e-05C43.8313 -1.00247e-05 44.0315 0.0734048 44.1783 0.220234C44.3252 0.353716 44.3986 0.553939 44.3986 0.820903V10.9121C44.3986 11.6329 44.5387 12.1735 44.8191 12.5339C45.1127 12.881 45.5399 13.0545 46.1005 13.0545C46.2206 13.0545 46.3274 13.0478 46.4208 13.0345C46.5143 13.0211 46.6077 13.0145 46.7012 13.0145C46.848 13.0011 46.9481 13.0345 47.0015 13.1146C47.0682 13.1947 47.1016 13.3548 47.1016 13.5951C47.1016 13.8354 47.0482 14.0156 46.9414 14.1357C46.8346 14.2558 46.6611 14.3359 46.4208 14.376C46.3141 14.3893 46.2006 14.4027 46.0805 14.416C45.9603 14.4294 45.8469 14.436 45.7401 14.436ZM50.6487 18C50.4484 18 50.2883 17.9466 50.1681 17.8398C50.048 17.733 49.9746 17.5862 49.9479 17.3993C49.9345 17.2258 49.9679 17.0456 50.048 16.8587L51.4295 13.7553V14.4561L47.5853 5.52614C47.5052 5.32591 47.4785 5.13904 47.5052 4.96551C47.5319 4.79199 47.612 4.65183 47.7454 4.54504C47.8789 4.43826 48.0658 4.38487 48.3061 4.38487C48.5196 4.38487 48.6865 4.43159 48.8066 4.52502C48.9268 4.61846 49.0335 4.78531 49.127 5.02558L52.4106 13.0745H51.87L55.1937 5.02558C55.3005 4.78531 55.414 4.61846 55.5341 4.52502C55.6542 4.43159 55.8278 4.38487 56.0547 4.38487C56.2683 4.38487 56.4284 4.43826 56.5352 4.54504C56.6554 4.65183 56.7221 4.79199 56.7354 4.96551C56.7621 5.12569 56.7354 5.30589 56.6554 5.50611L51.5296 17.3593C51.4229 17.5996 51.3027 17.7664 51.1692 17.8599C51.0491 17.9533 50.8756 18 50.6487 18Z" fill="#A1A1A1"/>
</svg>
