<svg width="273" height="31" viewBox="0 0 273 31" fill="none" xmlns="http://www.w3.org/2000/svg">
<path d="M2.56768 29.2536C1.73864 29.2504 1.09768 29.0206 0.644797 28.5642C0.218761 28.0812 0.00734129 27.4252 0.0105361 26.5961L0.101589 2.96857C0.104887 2.11279 0.321357 1.45841 0.750999 1.00542C1.20738 0.552538 1.8501 0.327695 2.67913 0.33089C3.50817 0.334084 4.13576 0.563823 4.5619 1.02011C5.01478 1.47649 5.23957 2.13258 5.23627 2.98836L5.19979 12.4554L19.7614 12.5115L19.7979 3.04447C19.8012 2.18869 20.0177 1.53431 20.4473 1.08132C20.9037 0.628441 21.5464 0.403598 22.3755 0.406792C23.2045 0.409987 23.8321 0.639726 24.2582 1.09601C24.7111 1.5524 24.9359 2.20848 24.9326 3.06426L24.8416 26.6918C24.8384 27.5209 24.6085 28.1752 24.152 28.6548C23.7224 29.1078 23.093 29.3327 22.264 29.3295C21.435 29.3263 20.794 29.0965 20.3411 28.6401C19.9151 28.1571 19.7037 27.5011 19.7069 26.672L19.7449 16.8038L5.18325 16.7477L5.14522 26.6159C5.14203 27.445 4.92556 28.0994 4.49581 28.5791C4.06617 29.0321 3.42346 29.2569 2.56768 29.2536ZM39.4905 29.4761C37.458 29.4683 35.6945 29.047 34.2001 28.2122C32.7057 27.3774 31.5469 26.1962 30.7237 24.6686C29.9007 23.1143 29.4932 21.2942 29.5012 19.2082C29.5073 17.6304 29.74 16.2272 30.1994 14.9988C30.6856 13.7437 31.3717 12.6766 32.2576 11.7975C33.1436 10.8916 34.2026 10.2138 35.4346 9.76387C36.6666 9.28724 38.0448 9.05186 39.5692 9.05773C41.6016 9.06556 43.3651 9.48688 44.8595 10.3217C46.3539 11.1565 47.5127 12.3377 48.3359 13.8652C49.159 15.3928 49.5666 17.1996 49.5586 19.2855C49.5525 20.8634 49.3063 22.2798 48.8201 23.5349C48.3606 24.7901 47.6879 25.8706 46.8019 26.7765C45.9159 27.6556 44.8569 28.3335 43.6249 28.8101C42.393 29.26 41.0148 29.482 39.4905 29.4761ZM39.5052 25.6652C40.4946 25.669 41.3647 25.4317 42.1154 24.9532C42.8661 24.4747 43.4438 23.7682 43.8485 22.8338C44.2801 21.8727 44.4986 20.6834 44.5041 19.266C44.5124 17.1266 44.0639 15.5336 43.1586 14.4871C42.2535 13.4139 41.0521 12.8744 39.5545 12.8686C38.565 12.8648 37.6949 13.1022 36.9442 13.5806C36.1937 14.0324 35.6026 14.7388 35.171 15.6999C34.7662 16.6344 34.5611 17.8103 34.5557 19.2277C34.5475 21.3404 34.996 22.9468 35.901 24.0467C36.8062 25.12 38.0075 25.6595 39.5052 25.6652ZM60.8481 29.4782C60.1795 29.4756 59.6052 29.313 59.125 28.9902C58.645 28.6407 58.2593 28.1043 57.9679 27.3811L52.2084 12.5162C51.9702 11.8735 51.8922 11.3116 51.9742 10.8305C52.0832 10.3228 52.3388 9.92262 52.7411 9.62999C53.1433 9.33736 53.6788 9.19234 54.3474 9.19491C54.9357 9.19718 55.4165 9.34612 55.7898 9.64174C56.1632 9.91061 56.4821 10.4333 56.7465 11.2099L61.5489 24.5868L60.6263 24.5833L65.6933 10.9235C65.9095 10.336 66.192 9.90915 66.5407 9.64305C66.9161 9.37707 67.398 9.24521 67.9864 9.24747C68.5747 9.24974 69.0555 9.39868 69.4288 9.6943C69.8022 9.96317 70.0814 10.3788 70.2664 10.9411L75.1478 24.6392L74.3054 24.636L79.2513 11.1763C79.5216 10.4553 79.8577 9.96181 80.2599 9.69592C80.6888 9.43014 81.1574 9.29823 81.6655 9.30019C82.3073 9.30266 82.8015 9.46503 83.1479 9.78728C83.4943 10.1095 83.6933 10.5248 83.7448 11.0332C83.7964 11.5147 83.7008 12.0492 83.4578 12.6367L77.6241 27.4569C77.354 28.1511 76.9642 28.6711 76.4547 29.0168C75.972 29.3627 75.3964 29.5343 74.7278 29.5317C74.0592 29.5291 73.4715 29.353 72.9648 29.0034C72.4847 28.6539 72.1123 28.1309 71.8476 27.4346L66.6462 13.4945L68.9327 13.5033L63.7446 27.3633C63.4743 28.0843 63.0979 28.6177 62.6152 28.9635C62.1324 29.3093 61.5434 29.4809 60.8481 29.4782ZM100.844 29.5922C100.041 29.5891 99.4271 29.3461 99.0011 28.863C98.5751 28.38 98.3637 27.7106 98.367 26.8548L98.4237 12.1327C98.4271 11.2502 98.6436 10.5824 99.0733 10.1295C99.503 9.64973 100.119 9.41142 100.921 9.41451C101.724 9.4176 102.338 9.66066 102.764 10.1437C103.217 10.6001 103.441 11.2695 103.438 12.152L103.381 26.8742C103.378 27.7299 103.162 28.3977 102.732 28.8774C102.302 29.3571 101.673 29.5954 100.844 29.5922ZM100.936 5.68384C99.9997 5.68023 99.2651 5.45008 98.732 4.99339C98.2258 4.51005 97.9742 3.85386 97.9774 3.02483C97.9807 2.16905 98.2373 1.51482 98.7472 1.06214C99.2838 0.60957 100.02 0.385087 100.956 0.388694C101.919 0.392405 102.653 0.622555 103.16 1.07915C103.666 1.53574 103.918 2.19192 103.914 3.04771C103.911 3.87674 103.655 4.53097 103.145 5.01039C102.635 5.46307 101.898 5.68755 100.936 5.68384ZM117.566 29.777C115.828 29.7703 114.372 29.4705 113.197 28.8776C112.049 28.2848 111.197 27.4258 110.64 26.3004C110.083 25.1483 109.807 23.7298 109.814 22.045L109.847 13.5006L107.761 13.4925C107.119 13.49 106.625 13.3277 106.278 13.0054C105.932 12.6564 105.76 12.1877 105.762 11.5994C105.765 10.9843 105.94 10.517 106.289 10.1974C106.638 9.87781 107.133 9.71925 107.775 9.72173L109.861 9.72977L109.875 6.07932C109.878 5.25029 110.095 4.62265 110.524 4.19641C110.981 3.77027 111.61 3.55875 112.412 3.56184C113.214 3.56493 113.829 3.78124 114.255 4.21078C114.681 4.64032 114.893 5.26961 114.89 6.09865L114.875 9.74909L119.128 9.76548C119.769 9.76795 120.264 9.93031 120.61 10.2526C120.956 10.5748 121.128 11.0435 121.126 11.6586C121.124 12.2469 120.948 12.7143 120.599 13.0606C120.25 13.3802 119.755 13.5387 119.113 13.5363L114.861 13.5199L114.829 21.7835C114.824 23.0672 115.101 24.031 115.66 24.675C116.22 25.319 117.128 25.6434 118.384 25.6483C118.839 25.65 119.24 25.6115 119.588 25.5326C119.936 25.4537 120.244 25.4014 120.512 25.3757C120.833 25.3502 121.1 25.4582 121.313 25.6997C121.526 25.9144 121.631 26.3695 121.628 27.0648C121.626 27.5997 121.531 28.0807 121.342 28.5079C121.18 28.9084 120.871 29.188 120.416 29.3467C120.068 29.4524 119.613 29.5442 119.051 29.6223C118.489 29.7271 117.994 29.7787 117.566 29.777ZM156.187 29.8456C155.465 29.8428 154.878 29.6667 154.424 29.3173C153.998 28.968 153.652 28.4184 153.388 27.6686L145.095 3.92848C144.804 3.07156 144.86 2.3497 145.264 1.7629C145.694 1.1762 146.404 0.884755 147.393 0.888568C148.115 0.891351 148.676 1.06735 149.076 1.41655C149.476 1.73902 149.795 2.26175 150.033 2.98474L157.171 24.4338L155.566 24.4276L163.19 3.07556C163.461 2.35452 163.797 1.82095 164.199 1.47483C164.602 1.12872 165.124 0.956896 165.766 0.95937C166.408 0.961843 166.915 1.13763 167.288 1.48674C167.661 1.83584 167.98 2.38531 168.245 3.13515L175.463 24.5043L174.059 24.4989L181.483 3.10594C181.726 2.41154 182.049 1.89129 182.452 1.54517C182.854 1.19906 183.403 1.02734 184.098 1.03002C184.954 1.03331 185.581 1.32991 185.98 1.91981C186.379 2.5097 186.43 3.23197 186.132 4.08662L177.577 27.8019C177.306 28.523 176.957 29.0565 176.528 29.4025C176.098 29.7485 175.523 29.9201 174.801 29.9173C174.078 29.9146 173.504 29.7385 173.078 29.3892C172.651 29.0399 172.306 28.4903 172.041 27.7405L165.138 7.81667L166.06 7.82022L158.923 27.73C158.653 28.4511 158.303 28.9846 157.874 29.3306C157.472 29.6767 156.909 29.8484 156.187 29.8456ZM196.855 30.0826C194.822 30.0747 193.059 29.6534 191.564 28.8186C190.07 27.9838 188.911 26.8026 188.088 25.275C187.265 23.7207 186.857 21.9006 186.865 19.8147C186.871 18.2368 187.104 16.8337 187.563 15.6052C188.05 14.3502 188.736 13.2831 189.622 12.4039C190.508 11.4981 191.567 10.8202 192.799 10.3703C194.031 9.89366 195.409 9.65828 196.933 9.66416C198.966 9.67199 200.729 10.0933 202.224 10.9281C203.718 11.7629 204.877 12.9441 205.7 14.4717C206.523 15.9992 206.931 17.806 206.923 19.8919C206.917 21.4698 206.67 22.8863 206.184 24.1413C205.725 25.3965 205.052 26.477 204.166 27.3829C203.28 28.262 202.221 28.9399 200.989 29.4165C199.757 29.8664 198.379 30.0884 196.855 30.0826ZM196.869 26.2717C197.859 26.2755 198.729 26.0381 199.48 25.5596C200.23 25.0811 200.808 24.3747 201.213 23.4402C201.644 22.4791 201.863 21.2899 201.868 19.8725C201.876 17.733 201.428 16.14 200.523 15.0936C199.618 14.0203 198.416 13.4808 196.919 13.4751C195.929 13.4712 195.059 13.7086 194.308 14.1871C193.558 14.6388 192.967 15.3452 192.535 16.3064C192.13 17.2408 191.925 18.4167 191.92 19.8341C191.912 21.9468 192.36 23.5532 193.265 24.6532C194.17 25.7264 195.372 26.2659 196.869 26.2717ZM213.59 30.0668C212.761 30.0636 212.12 29.8472 211.667 29.4176C211.24 28.9613 211.029 28.3186 211.032 27.4896L211.091 12.3262C211.094 11.4972 211.31 10.8695 211.74 10.4433C212.169 10.0171 212.772 9.80543 213.547 9.80841C214.323 9.8114 214.924 10.0277 215.35 10.4572C215.776 10.8867 215.988 11.516 215.985 12.3451L215.975 14.8723L215.574 14.8708C215.954 13.2676 216.694 12.0536 217.794 11.2288C218.894 10.404 220.353 9.91487 222.172 9.76142C222.734 9.7101 223.175 9.85889 223.494 10.2078C223.841 10.53 224.039 11.0389 224.09 11.7345C224.141 12.4032 223.979 12.9509 223.603 13.3773C223.253 13.7771 222.718 14.0157 221.995 14.0932L221.112 14.17C219.48 14.3242 218.248 14.8276 217.416 15.6802C216.584 16.506 216.165 17.6811 216.159 19.2055L216.127 27.5092C216.124 28.3382 215.907 28.9793 215.477 29.4322C215.048 29.8585 214.419 30.07 213.59 30.0668ZM229.218 30.127C228.416 30.124 227.802 29.9076 227.376 29.4781C226.949 29.0218 226.738 28.3792 226.741 27.5501L226.833 3.72197C226.836 2.89293 227.053 2.26529 227.482 1.83905C227.912 1.41281 228.528 1.20123 229.33 1.20432C230.132 1.20742 230.746 1.42373 231.173 1.85327C231.626 2.28291 231.851 2.91225 231.847 3.74129L231.79 18.5436L231.871 18.5439L238.516 11.5895C239.053 11.0567 239.523 10.644 239.925 10.3513C240.327 10.0587 240.876 9.91373 241.572 9.91641C242.267 9.91909 242.788 10.1083 243.134 10.484C243.507 10.8331 243.692 11.2618 243.691 11.7699C243.689 12.278 243.446 12.7852 242.963 13.2915L235.954 20.6457L235.962 18.5597L243.592 26.8529C244.072 27.3628 244.284 27.8852 244.228 28.4198C244.199 28.9278 243.984 29.3549 243.581 29.701C243.179 30.0204 242.67 30.1789 242.055 30.1765C241.306 30.1736 240.705 30.0242 240.252 29.7283C239.825 29.4325 239.345 28.9894 238.813 28.3989L231.861 21.0712L231.781 21.0709L231.756 27.5694C231.749 29.281 230.903 30.1335 229.218 30.127ZM255.105 30.307C253.955 30.3026 252.739 30.1776 251.456 29.9319C250.173 29.6863 249.025 29.2673 248.011 28.6751C247.584 28.406 247.278 28.0973 247.092 27.7489C246.933 27.3739 246.867 27.0126 246.895 26.665C246.95 26.2908 247.085 25.9704 247.3 25.7038C247.542 25.4373 247.837 25.2646 248.185 25.1857C248.559 25.1069 248.96 25.1753 249.387 25.3909C250.455 25.9032 251.457 26.2681 252.392 26.4856C253.327 26.6764 254.249 26.7736 255.159 26.7771C256.442 26.782 257.393 26.5718 258.009 26.1462C258.653 25.6941 258.976 25.107 258.979 24.3849C258.981 23.7698 258.769 23.301 258.342 22.9784C257.943 22.6292 257.328 22.3728 256.5 22.2091L252.492 21.4315C250.835 21.1042 249.567 20.4976 248.688 19.6116C247.835 18.6991 247.412 17.5341 247.417 16.1167C247.422 14.833 247.774 13.7245 248.473 12.7912C249.199 11.858 250.191 11.1397 251.45 10.6364C252.709 10.1332 254.154 9.88467 255.785 9.89095C256.962 9.89549 258.058 10.0334 259.073 10.3048C260.115 10.5495 261.117 10.9411 262.077 11.4797C262.478 11.6952 262.744 11.977 262.876 12.3252C263.035 12.6735 263.074 13.0347 262.993 13.4088C262.911 13.7561 262.749 14.0764 262.507 14.3697C262.266 14.6362 261.958 14.8088 261.583 14.8876C261.235 14.9397 260.834 14.858 260.38 14.6423C259.553 14.2112 258.752 13.9005 257.977 13.7104C257.229 13.5203 256.507 13.4239 255.812 13.4212C254.501 13.4162 253.524 13.6397 252.881 14.0919C252.264 14.5441 251.954 15.1447 251.951 15.8935C251.949 16.4551 252.134 16.9238 252.507 17.2997C252.88 17.6755 253.454 17.9318 254.229 18.0685L258.238 18.8461C259.975 19.1737 261.283 19.7671 262.162 20.6263C263.068 21.4856 263.519 22.6373 263.513 24.0814C263.505 26.0337 262.737 27.5685 261.209 28.6858C259.68 29.7764 257.646 30.3168 255.105 30.307ZM269.951 21.8197C269.443 21.8177 269.043 21.6557 268.75 21.3337C268.484 21.0117 268.325 20.5565 268.274 19.9679L267.129 4.63945C267.053 3.64964 267.27 2.86154 267.78 2.27515C268.291 1.66202 269.041 1.35736 270.03 1.36117C270.993 1.36488 271.714 1.67521 272.193 2.29216C272.699 2.88246 272.91 3.67221 272.826 4.6614L271.563 19.9806C271.534 20.5688 271.372 21.0228 271.077 21.3426C270.808 21.6625 270.433 21.8215 269.951 21.8197ZM269.919 30.1635C269.01 30.16 268.276 29.8764 267.716 29.3126C267.184 28.749 266.919 28.0259 266.922 27.1433C266.926 26.2876 267.196 25.5933 267.733 25.0605C268.296 24.501 269.033 24.2231 269.942 24.2266C270.878 24.2302 271.599 24.5138 272.105 25.0773C272.638 25.6142 272.903 26.3106 272.899 27.1664C272.896 28.0489 272.626 28.7699 272.089 29.3295C271.578 29.8891 270.855 30.1672 269.919 30.1635Z" fill="#9CDAD5"/>
</svg>
