<svg width="59" height="18" viewBox="0 0 59 18" fill="none" xmlns="http://www.w3.org/2000/svg">
<path d="M0.760848 14.396C0.52058 14.396 0.333706 14.3293 0.200224 14.1958C0.0667422 14.0489 1.25309e-06 13.8487 1.25309e-06 13.5951V0.80088C1.25309e-06 0.533917 0.0667422 0.333694 0.200224 0.200212C0.333706 0.0667308 0.52058 -1.00247e-05 0.760848 -1.00247e-05C0.974418 -1.00247e-05 1.14127 0.0467084 1.2614 0.140145C1.39489 0.220234 1.51502 0.36039 1.62181 0.560613L7.10791 10.8921H6.50724L11.9733 0.560613C12.0801 0.36039 12.1936 0.220234 12.3137 0.140145C12.4338 0.0467084 12.6074 -1.00247e-05 12.8343 -1.00247e-05C13.0612 -1.00247e-05 13.2414 0.0667308 13.3749 0.200212C13.5084 0.333694 13.5751 0.533917 13.5751 0.80088V13.5951C13.5751 13.8487 13.5084 14.0489 13.3749 14.1958C13.2547 14.3293 13.0679 14.396 12.8143 14.396C12.574 14.396 12.3871 14.3293 12.2536 14.1958C12.1201 14.0489 12.0534 13.8487 12.0534 13.5951V2.3426H12.5339L7.52837 11.733C7.43494 11.9066 7.33483 12.0334 7.22804 12.1135C7.1346 12.1802 6.99445 12.2136 6.80757 12.2136C6.6207 12.2136 6.47387 12.1735 6.36708 12.0934C6.2603 12.0134 6.16686 11.8932 6.08677 11.733L1.02114 2.32257H1.50167V13.5951C1.50167 13.8487 1.43493 14.0489 1.30145 14.1958C1.18132 14.3293 1.00111 14.396 0.760848 14.396ZM20.9126 14.436C19.9649 14.436 19.144 14.2291 18.4499 13.8154C17.7558 13.4016 17.2152 12.8209 16.8281 12.0734C16.4543 11.3126 16.2675 10.4182 16.2675 9.39043C16.2675 8.61624 16.3743 7.92213 16.5878 7.30812C16.8014 6.68075 17.1151 6.14683 17.5289 5.70634C17.9427 5.26585 18.4299 4.93214 18.9905 4.70522C19.5645 4.46496 20.2052 4.34482 20.9126 4.34482C21.8604 4.34482 22.6813 4.55172 23.3754 4.96551C24.0695 5.37931 24.6034 5.96663 24.9772 6.72747C25.3643 7.47497 25.5578 8.36262 25.5578 9.39043C25.5578 10.1646 25.451 10.8587 25.2374 11.4727C25.0239 12.0868 24.7102 12.6207 24.2964 13.0745C23.8826 13.515 23.3887 13.8554 22.8148 14.0957C22.2541 14.3226 21.6201 14.436 20.9126 14.436ZM20.9126 13.1346C21.5133 13.1346 22.0406 12.9878 22.4944 12.6941C22.9482 12.4004 23.2953 11.9733 23.5356 11.4127C23.7892 10.8521 23.916 10.178 23.916 9.39043C23.916 8.17575 23.6423 7.24805 23.0951 6.60734C22.5611 5.96663 21.8337 5.64627 20.9126 5.64627C20.2986 5.64627 19.7647 5.7931 19.3109 6.08676C18.8704 6.36707 18.5233 6.78754 18.2697 7.34816C18.0294 7.89544 17.9093 8.57619 17.9093 9.39043C17.9093 10.5918 18.1829 11.5195 18.7302 12.1735C19.2775 12.8142 20.005 13.1346 20.9126 13.1346ZM28.7947 14.396C28.5277 14.396 28.3275 14.3226 28.194 14.1758C28.0605 14.0289 27.9938 13.822 27.9938 13.5551V5.20578C27.9938 4.93882 28.0605 4.73859 28.194 4.60511C28.3275 4.45828 28.521 4.38487 28.7747 4.38487C29.0283 4.38487 29.2218 4.45828 29.3553 4.60511C29.5021 4.73859 29.5756 4.93882 29.5756 5.20578V6.92769L29.3553 6.68743C29.6356 5.91323 30.0895 5.33259 30.7168 4.94549C31.3575 4.54504 32.0917 4.34482 32.9193 4.34482C33.6935 4.34482 34.3342 4.48498 34.8414 4.76529C35.362 5.0456 35.7491 5.47274 36.0027 6.04671C36.2563 6.60734 36.3831 7.32147 36.3831 8.1891V13.5551C36.3831 13.822 36.3097 14.0289 36.1629 14.1758C36.0294 14.3226 35.8358 14.396 35.5822 14.396C35.3153 14.396 35.1084 14.3226 34.9615 14.1758C34.8281 14.0289 34.7613 13.822 34.7613 13.5551V8.28921C34.7613 7.38153 34.5811 6.7208 34.2207 6.307C33.8737 5.87986 33.313 5.66629 32.5388 5.66629C31.6445 5.66629 30.9304 5.9466 30.3965 6.50723C29.8759 7.0545 29.6156 7.78865 29.6156 8.70968V13.5551C29.6156 14.1157 29.342 14.396 28.7947 14.396ZM43.7585 14.436C42.7307 14.436 41.843 14.2358 41.0956 13.8354C40.3614 13.4216 39.7874 12.8409 39.3736 12.0934C38.9732 11.3459 38.773 10.4516 38.773 9.41046C38.773 8.39599 38.9732 7.51501 39.3736 6.76752C39.7741 6.00667 40.3214 5.41268 41.0155 4.98553C41.7229 4.55839 42.5372 4.34482 43.4582 4.34482C44.1122 4.34482 44.6996 4.45828 45.2201 4.6852C45.7407 4.89877 46.1812 5.21245 46.5416 5.62625C46.9154 6.04004 47.1957 6.5406 47.3825 7.12792C47.5828 7.71524 47.6829 8.37597 47.6829 9.11012C47.6829 9.32369 47.6228 9.48387 47.5027 9.59066C47.3825 9.68409 47.209 9.73081 46.9821 9.73081H40.0143V8.66963H46.6017L46.2813 8.92992C46.2813 8.20912 46.1745 7.60178 45.961 7.1079C45.7474 6.60066 45.4337 6.21357 45.0199 5.9466C44.6195 5.67964 44.1122 5.54616 43.4982 5.54616C42.8175 5.54616 42.2368 5.70634 41.7563 6.02669C41.2891 6.3337 40.9354 6.76752 40.6951 7.32814C40.4548 7.87542 40.3347 8.51613 40.3347 9.25028V9.37041C40.3347 10.5984 40.6284 11.5328 41.2157 12.1735C41.8164 12.8142 42.664 13.1346 43.7585 13.1346C44.2124 13.1346 44.6595 13.0745 45.1 12.9544C45.5538 12.8343 45.9943 12.634 46.4215 12.3537C46.6083 12.2336 46.7752 12.1802 46.922 12.1936C47.0822 12.1936 47.209 12.2403 47.3025 12.3337C47.3959 12.4138 47.456 12.5206 47.4827 12.6541C47.5227 12.7742 47.5094 12.9077 47.4426 13.0545C47.3892 13.2013 47.2758 13.3281 47.1022 13.4349C46.6617 13.7553 46.1412 14.0022 45.5405 14.1758C44.9398 14.3493 44.3458 14.436 43.7585 14.436ZM52.0751 18C51.8749 18 51.7147 17.9466 51.5946 17.8398C51.4744 17.733 51.401 17.5862 51.3743 17.3993C51.361 17.2258 51.3943 17.0456 51.4744 16.8587L52.856 13.7553V14.4561L49.0117 5.52614C48.9316 5.32591 48.9049 5.13904 48.9316 4.96551C48.9583 4.79199 49.0384 4.65183 49.1719 4.54504C49.3054 4.43826 49.4922 4.38487 49.7325 4.38487C49.9461 4.38487 50.1129 4.43159 50.2331 4.52502C50.3532 4.61846 50.46 4.78531 50.5534 5.02558L53.8371 13.0745H53.2965L56.6202 5.02558C56.7269 4.78531 56.8404 4.61846 56.9605 4.52502C57.0807 4.43159 57.2542 4.38487 57.4811 4.38487C57.6947 4.38487 57.8549 4.43826 57.9617 4.54504C58.0818 4.65183 58.1485 4.79199 58.1619 4.96551C58.1886 5.12569 58.1619 5.30589 58.0818 5.50611L52.9561 17.3593C52.8493 17.5996 52.7292 17.7664 52.5957 17.8599C52.4756 17.9533 52.302 18 52.0751 18Z" fill="#A1A1A1"/>
</svg>
