<svg width="51" height="15" viewBox="0 0 51 15" fill="none" xmlns="http://www.w3.org/2000/svg">
<path d="M6.53311 14.6691C5.20755 14.6691 4.05107 14.3715 3.06366 13.7764C2.08978 13.1677 1.33232 12.3156 0.791276 11.2199C0.263758 10.1243 -1.14886e-06 8.82582 -1.14886e-06 7.32442C-1.14886e-06 6.18823 0.148786 5.17377 0.446361 4.28104C0.757461 3.37479 1.19706 2.61057 1.76516 1.98837C2.33325 1.35264 3.01632 0.8657 3.81436 0.527548C4.62593 0.175868 5.53218 2.8782e-05 6.53311 2.8782e-05C7.88572 2.8782e-05 9.04897 0.297603 10.0228 0.892753C11.0103 1.4879 11.7677 2.33328 12.2952 3.4289C12.8363 4.51099 13.1068 5.80273 13.1068 7.30413C13.1068 8.44032 12.9513 9.46154 12.6402 10.3678C12.329 11.274 11.8895 12.045 11.3214 12.6808C10.7533 13.3165 10.0634 13.8102 9.25186 14.1619C8.45382 14.5 7.54757 14.6691 6.53311 14.6691ZM6.53311 13.188C7.5611 13.188 8.42677 12.958 9.13012 12.4982C9.84701 12.0383 10.3948 11.3687 10.7735 10.4895C11.1523 9.61033 11.3416 8.55529 11.3416 7.32442C11.3416 5.47134 10.9223 4.03757 10.0837 3.02312C9.25862 1.99513 8.07509 1.48114 6.53311 1.48114C5.53218 1.48114 4.67327 1.71108 3.95639 2.17097C3.25303 2.63086 2.71198 3.3004 2.33325 4.1796C1.95452 5.04527 1.76516 6.09354 1.76516 7.32442C1.76516 9.16397 2.18447 10.6045 3.02308 11.646C3.8617 12.674 5.03171 13.188 6.53311 13.188ZM19.8144 14.6691C19.0434 14.6691 18.3942 14.5338 17.8667 14.2633C17.3527 13.9793 16.9672 13.5735 16.7102 13.046C16.4532 12.5049 16.3247 11.8489 16.3247 11.0779V5.90418H14.9653C14.7354 5.90418 14.5595 5.85007 14.4378 5.74186C14.3161 5.62013 14.2552 5.45782 14.2552 5.25492C14.2552 5.05203 14.3161 4.89648 14.4378 4.78827C14.5595 4.68006 14.7354 4.62596 14.9653 4.62596H16.3247V2.29271C16.3247 2.02218 16.3991 1.81929 16.5479 1.68403C16.6967 1.53524 16.8996 1.46085 17.1566 1.46085C17.4135 1.46085 17.6097 1.53524 17.7449 1.68403C17.8937 1.81929 17.9681 2.02218 17.9681 2.29271V4.62596H20.5246C20.7545 4.62596 20.9303 4.68006 21.0521 4.78827C21.1738 4.89648 21.2347 5.05203 21.2347 5.25492C21.2347 5.45782 21.1738 5.62013 21.0521 5.74186C20.9303 5.85007 20.7545 5.90418 20.5246 5.90418H17.9681V10.9156C17.9681 11.6866 18.1304 12.275 18.4551 12.6808C18.7797 13.073 19.3072 13.2691 20.0376 13.2691C20.2946 13.2691 20.511 13.2421 20.6869 13.188C20.8762 13.1339 21.0318 13.1068 21.1535 13.1068C21.2753 13.0933 21.3767 13.1339 21.4579 13.2286C21.539 13.3232 21.5796 13.4856 21.5796 13.7155C21.5796 13.8778 21.5458 14.0266 21.4781 14.1619C21.424 14.2971 21.3226 14.3918 21.1738 14.4459C21.0115 14.5 20.7951 14.5474 20.5246 14.5879C20.2676 14.642 20.0308 14.6691 19.8144 14.6691ZM23.8818 14.6285C23.6113 14.6285 23.4084 14.5541 23.2731 14.4053C23.1378 14.2566 23.0702 14.0469 23.0702 13.7764V0.872464C23.0702 0.601941 23.1378 0.399049 23.2731 0.263788C23.4084 0.115001 23.6113 0.0406078 23.8818 0.0406078C24.1388 0.0406078 24.3417 0.115001 24.4905 0.263788C24.6392 0.399049 24.7136 0.601941 24.7136 0.872464V6.81719H24.4499C24.7339 6.03268 25.1938 5.44429 25.8295 5.05203C26.4788 4.64625 27.2227 4.44336 28.0613 4.44336C28.8459 4.44336 29.4951 4.58538 30.0091 4.86943C30.5366 5.15348 30.9289 5.58631 31.1859 6.16794C31.4429 6.73603 31.5714 7.45968 31.5714 8.33888V13.7764C31.5714 14.0469 31.497 14.2566 31.3482 14.4053C31.2129 14.5541 31.0168 14.6285 30.7598 14.6285C30.4893 14.6285 30.2796 14.5541 30.1308 14.4053C29.9956 14.2566 29.9279 14.0469 29.9279 13.7764V8.44032C29.9279 7.52055 29.7453 6.851 29.3801 6.4317C29.0285 5.99886 28.4604 5.78244 27.6758 5.78244C26.7696 5.78244 26.046 6.06649 25.5049 6.63459C24.9774 7.18916 24.7136 7.93309 24.7136 8.8664V13.7764C24.7136 14.3445 24.4363 14.6285 23.8818 14.6285ZM39.0451 14.6691C38.0036 14.6691 37.1041 14.4662 36.3466 14.0604C35.6027 13.6411 35.0211 13.0527 34.6017 12.2953C34.196 11.5378 33.9931 10.6316 33.9931 9.57652C33.9931 8.54853 34.196 7.65581 34.6017 6.89835C35.0075 6.12736 35.5621 5.52545 36.2655 5.09261C36.9823 4.65977 37.8074 4.44336 38.7407 4.44336C39.4035 4.44336 39.9987 4.55833 40.5262 4.78827C41.0537 5.00469 41.5001 5.32255 41.8653 5.74186C42.244 6.16117 42.528 6.6684 42.7174 7.26355C42.9203 7.8587 43.0218 8.52824 43.0218 9.27218C43.0218 9.4886 42.9609 9.65091 42.8391 9.75912C42.7174 9.8538 42.5416 9.90114 42.3116 9.90114H35.251V8.82582H41.9261L41.6015 9.08958C41.6015 8.35917 41.4933 7.74373 41.2769 7.24326C41.0605 6.72927 40.7426 6.33701 40.3233 6.06649C39.9175 5.79597 39.4035 5.66071 38.7813 5.66071C38.0915 5.66071 37.5031 5.82302 37.0162 6.14765C36.5427 6.45875 36.1843 6.89835 35.9408 7.46644C35.6974 8.02101 35.5756 8.67027 35.5756 9.4142V9.53594C35.5756 10.7803 35.8732 11.7272 36.4684 12.3764C37.077 13.0257 37.9359 13.3503 39.0451 13.3503C39.505 13.3503 39.9581 13.2894 40.4044 13.1677C40.8643 13.046 41.3107 12.8431 41.7435 12.559C41.9329 12.4373 42.102 12.3832 42.2508 12.3967C42.4131 12.3967 42.5416 12.4441 42.6363 12.5387C42.7309 12.6199 42.7918 12.7281 42.8189 12.8634C42.8594 12.9851 42.8459 13.1204 42.7783 13.2691C42.7242 13.4179 42.6092 13.5464 42.4334 13.6546C41.987 13.9793 41.4595 14.2295 40.8508 14.4053C40.2421 14.5812 39.6402 14.6691 39.0451 14.6691ZM46.232 14.6285C45.9615 14.6285 45.7519 14.5541 45.6031 14.4053C45.4678 14.2566 45.4002 14.0469 45.4002 13.7764V5.31579C45.4002 5.04527 45.4678 4.84238 45.6031 4.70712C45.7383 4.55833 45.9345 4.48394 46.1915 4.48394C46.4485 4.48394 46.6446 4.55833 46.7798 4.70712C46.9286 4.84238 47.003 5.04527 47.003 5.31579V6.95921H46.8001C47.0166 6.16117 47.4291 5.54574 48.0378 5.1129C48.6464 4.68006 49.3971 4.45012 50.2899 4.42307C50.4928 4.40954 50.6551 4.45688 50.7768 4.56509C50.8985 4.65977 50.9662 4.82885 50.9797 5.07232C50.9932 5.30227 50.9391 5.48487 50.8174 5.62013C50.6957 5.75539 50.5063 5.83655 50.2493 5.8636L49.9247 5.90418C49.0049 5.98533 48.2948 6.28291 47.7943 6.7969C47.3074 7.29737 47.0639 7.9872 47.0639 8.8664V13.7764C47.0639 14.0469 46.9895 14.2566 46.8407 14.4053C46.7055 14.5541 46.5026 14.6285 46.232 14.6285Z" fill="#A1A1A1"/>
</svg>
