<svg width="234" height="15" viewBox="0 0 234 15" fill="none" xmlns="http://www.w3.org/2000/svg">
<path d="M9.07569 13.5812C9.18258 13.7416 9.22534 13.8859 9.20396 14.0142C9.19327 14.1531 9.13983 14.2654 9.04362 14.3509C8.9581 14.4471 8.8512 14.5059 8.72292 14.5273C8.59465 14.5593 8.46102 14.5433 8.32206 14.4792C8.19378 14.4257 8.08154 14.3188 7.98533 14.1585L6.94307 12.5069C6.77204 12.2076 6.53686 11.9777 6.23755 11.8174C5.93823 11.6677 5.58012 11.5929 5.16322 11.5929L6.25358 11.1279C6.756 11.1279 7.15152 11.2188 7.44015 11.4005C7.73946 11.5715 8.03343 11.8922 8.32206 12.3626L9.07569 13.5812ZM5.16322 11.5929C4.11562 11.5929 3.20164 11.3577 2.42129 10.8874C1.65162 10.4063 1.05299 9.73289 0.625401 8.86702C0.208499 8.00114 4.80261e-05 6.97492 4.80261e-05 5.78835C4.80261e-05 4.89041 0.117636 4.08868 0.352811 3.38315C0.598677 2.66693 0.946095 2.06296 1.39507 1.57123C1.84404 1.06881 2.38387 0.683974 3.01457 0.41673C3.65596 0.138795 4.37218 -0.000172989 5.16322 -0.000172989C6.2322 -0.000172989 7.15152 0.235003 7.92119 0.705354C8.70154 1.1757 9.30017 1.84382 9.71708 2.70969C10.1447 3.56487 10.3585 4.58575 10.3585 5.77232C10.3585 6.67026 10.2355 7.47734 9.98966 8.19356C9.7438 8.90977 9.39638 9.51909 8.94741 10.0215C8.49844 10.5239 7.95326 10.9141 7.31187 11.192C6.68117 11.4593 5.96496 11.5929 5.16322 11.5929ZM5.16322 10.4224C5.97565 10.4224 6.65979 10.2407 7.21566 9.8772C7.78222 9.51375 8.21516 8.9846 8.51447 8.28977C8.81379 7.59493 8.96344 6.76112 8.96344 5.78835C8.96344 4.32385 8.63206 3.19073 7.96929 2.389C7.31721 1.57657 6.38186 1.17036 5.16322 1.17036C4.37218 1.17036 3.69337 1.35209 3.12681 1.71554C2.57094 2.07899 2.14335 2.60814 1.84404 3.30298C1.54472 3.98712 1.39507 4.81558 1.39507 5.78835C1.39507 7.24217 1.72645 8.38063 2.38922 9.20374C3.05199 10.0162 3.97665 10.4224 5.16322 10.4224ZM13.1581 11.5127C12.8909 11.5127 12.6771 11.4326 12.5168 11.2722C12.3564 11.1012 12.2762 10.8874 12.2762 10.6308C12.2762 10.3743 12.3564 10.1658 12.5168 10.0055C12.6771 9.83444 12.8909 9.74892 13.1581 9.74892C13.4254 9.74892 13.6338 9.83444 13.7835 10.0055C13.9438 10.1658 14.024 10.3743 14.024 10.6308C14.024 10.8874 13.9438 11.1012 13.7835 11.2722C13.6338 11.4326 13.4254 11.5127 13.1581 11.5127ZM13.1581 5.35542C12.8909 5.35542 12.6771 5.2699 12.5168 5.09886C12.3564 4.92782 12.2762 4.71937 12.2762 4.47351C12.2762 4.20626 12.3564 3.99247 12.5168 3.83212C12.6771 3.67177 12.8909 3.5916 13.1581 3.5916C13.4254 3.5916 13.6338 3.67177 13.7835 3.83212C13.9438 3.99247 14.024 4.20626 14.024 4.47351C14.024 4.71937 13.9438 4.92782 13.7835 5.09886C13.6338 5.2699 13.4254 5.35542 13.1581 5.35542ZM21.1491 11.5608C20.9353 11.5608 20.7696 11.5021 20.652 11.3845C20.5451 11.2562 20.4916 11.0851 20.4916 10.8714V0.721389C20.4916 0.496903 20.5451 0.325866 20.652 0.208278C20.7696 0.0906907 20.9353 0.0318969 21.1491 0.0318969C21.3629 0.0318969 21.5232 0.0906907 21.6301 0.208278C21.7477 0.325866 21.8065 0.496903 21.8065 0.721389V5.14697H28.5892V0.721389C28.5892 0.496903 28.6426 0.325866 28.7495 0.208278C28.8671 0.0906907 29.0328 0.0318969 29.2466 0.0318969C29.4604 0.0318969 29.6207 0.0906907 29.7276 0.208278C29.8452 0.325866 29.904 0.496903 29.904 0.721389V10.8714C29.904 11.0851 29.8452 11.2562 29.7276 11.3845C29.6207 11.5021 29.4604 11.5608 29.2466 11.5608C29.0328 11.5608 28.8671 11.5021 28.7495 11.3845C28.6426 11.2562 28.5892 11.0851 28.5892 10.8714V6.28543H21.8065V10.8714C21.8065 11.0851 21.753 11.2562 21.6461 11.3845C21.5392 11.5021 21.3735 11.5608 21.1491 11.5608ZM35.7525 11.5929C34.9936 11.5929 34.3361 11.4272 33.7803 11.0958C33.2244 10.7645 32.7915 10.2994 32.4815 9.70082C32.1821 9.0915 32.0325 8.37528 32.0325 7.55217C32.0325 6.93216 32.118 6.37629 32.289 5.88456C32.4601 5.38214 32.7113 4.95455 33.0427 4.60179C33.3741 4.24902 33.7642 3.98178 34.2132 3.80005C34.6729 3.60763 35.186 3.51143 35.7525 3.51143C36.5115 3.51143 37.1689 3.67712 37.7248 4.0085C38.2807 4.33989 38.7083 4.81024 39.0076 5.41956C39.3176 6.01818 39.4726 6.72906 39.4726 7.55217C39.4726 8.17218 39.3871 8.72805 39.216 9.21978C39.045 9.71151 38.7938 10.1391 38.4624 10.5026C38.131 10.8553 37.7355 11.1279 37.2758 11.3203C36.8269 11.5021 36.3191 11.5929 35.7525 11.5929ZM35.7525 10.5507C36.2336 10.5507 36.6558 10.4331 37.0193 10.1979C37.3827 9.96272 37.6607 9.62065 37.8531 9.17167C38.0562 8.7227 38.1577 8.18287 38.1577 7.55217C38.1577 6.5794 37.9386 5.83646 37.5003 5.32335C37.0727 4.81024 36.4901 4.55368 35.7525 4.55368C35.2608 4.55368 34.8332 4.67127 34.4698 4.90644C34.117 5.13093 33.8391 5.46766 33.636 5.91663C33.4435 6.35491 33.3473 6.90009 33.3473 7.55217C33.3473 8.51425 33.5665 9.25719 34.0048 9.78099C34.443 10.2941 35.0256 10.5507 35.7525 10.5507ZM44.0077 11.5608C43.8259 11.5608 43.6656 11.5127 43.5266 11.4165C43.3876 11.3203 43.2754 11.1653 43.1899 10.9515L40.8007 4.45747C40.7366 4.27575 40.7152 4.1154 40.7366 3.97643C40.7686 3.83746 40.8381 3.73057 40.945 3.65574C41.0519 3.58091 41.1855 3.5435 41.3459 3.5435C41.5062 3.5435 41.6345 3.58091 41.7307 3.65574C41.8376 3.73057 41.9231 3.86953 41.9873 4.07264L44.2321 10.4865H43.8473L46.1563 4.07264C46.2311 3.88022 46.322 3.7466 46.4289 3.67177C46.5465 3.58625 46.6961 3.5435 46.8779 3.5435C47.0489 3.5435 47.1932 3.58625 47.3108 3.67177C47.4284 3.75729 47.5192 3.89091 47.5834 4.07264L49.8443 10.4865H49.4755L51.7524 4.04057C51.8272 3.84815 51.9181 3.71988 52.025 3.65574C52.1319 3.58091 52.2602 3.5435 52.4098 3.5435C52.5809 3.5435 52.7091 3.58625 52.7947 3.67177C52.8909 3.75729 52.9443 3.86953 52.955 4.0085C52.9657 4.14747 52.939 4.29713 52.8748 4.45747L50.4857 10.9515C50.4108 11.1546 50.2986 11.3096 50.1489 11.4165C50.01 11.5127 49.8496 11.5608 49.6679 11.5608C49.4862 11.5608 49.3258 11.5127 49.1869 11.4165C49.0479 11.3096 48.941 11.1546 48.8662 10.9515L46.493 4.44144H47.1825L44.8254 10.9515C44.7506 11.1546 44.6437 11.3096 44.5047 11.4165C44.3658 11.5127 44.2001 11.5608 44.0077 11.5608ZM61.8965 11.5929C61.2016 11.5929 60.5923 11.4272 60.0685 11.0958C59.5554 10.7645 59.1546 10.2994 58.8659 9.70082C58.588 9.0915 58.449 8.37528 58.449 7.55217C58.449 6.71837 58.588 6.00215 58.8659 5.40352C59.1546 4.7942 59.5554 4.3292 60.0685 4.0085C60.5923 3.67712 61.2016 3.51143 61.8965 3.51143C62.602 3.51143 63.206 3.68781 63.7084 4.04057C64.2108 4.39333 64.5476 4.86903 64.7186 5.46766H64.5422V0.68932C64.5422 0.475523 64.5957 0.315176 64.7026 0.208278C64.8201 0.0906907 64.9858 0.0318969 65.1996 0.0318969C65.4027 0.0318969 65.5577 0.0906907 65.6646 0.208278C65.7822 0.315176 65.841 0.475523 65.841 0.68932V10.8874C65.841 11.1012 65.7876 11.2669 65.6807 11.3845C65.5738 11.5021 65.4134 11.5608 65.1996 11.5608C64.9965 11.5608 64.8362 11.5021 64.7186 11.3845C64.6117 11.2669 64.5582 11.1012 64.5582 10.8874V9.36409L64.7346 9.58858C64.5636 10.1979 64.2215 10.6843 63.7084 11.0477C63.206 11.4112 62.602 11.5929 61.8965 11.5929ZM62.1691 10.5507C62.6501 10.5507 63.0724 10.4331 63.4358 10.1979C63.7993 9.96272 64.0772 9.62065 64.2696 9.17167C64.4727 8.7227 64.5743 8.18287 64.5743 7.55217C64.5743 6.5794 64.3551 5.83646 63.9169 5.32335C63.4893 4.81024 62.9067 4.55368 62.1691 4.55368C61.6773 4.55368 61.2498 4.67127 60.8863 4.90644C60.5335 5.13093 60.2556 5.46766 60.0525 5.91663C59.8601 6.35491 59.7639 6.90009 59.7639 7.55217C59.7639 8.51425 59.983 9.25719 60.4213 9.78099C60.8596 10.2941 61.4422 10.5507 62.1691 10.5507ZM71.5174 11.5929C70.7585 11.5929 70.101 11.4272 69.5452 11.0958C68.9893 10.7645 68.5564 10.2994 68.2463 9.70082C67.947 9.0915 67.7974 8.37528 67.7974 7.55217C67.7974 6.93216 67.8829 6.37629 68.0539 5.88456C68.225 5.38214 68.4762 4.95455 68.8076 4.60179C69.1389 4.24902 69.5291 3.98178 69.9781 3.80005C70.4378 3.60763 70.9509 3.51143 71.5174 3.51143C72.2764 3.51143 72.9338 3.67712 73.4897 4.0085C74.0456 4.33989 74.4732 4.81024 74.7725 5.41956C75.0825 6.01818 75.2375 6.72906 75.2375 7.55217C75.2375 8.17218 75.152 8.72805 74.9809 9.21978C74.8099 9.71151 74.5587 10.1391 74.2273 10.5026C73.8959 10.8553 73.5004 11.1279 73.0407 11.3203C72.5918 11.5021 72.084 11.5929 71.5174 11.5929ZM71.5174 10.5507C71.9985 10.5507 72.4207 10.4331 72.7842 10.1979C73.1476 9.96272 73.4256 9.62065 73.618 9.17167C73.8211 8.7227 73.9226 8.18287 73.9226 7.55217C73.9226 6.5794 73.7035 5.83646 73.2652 5.32335C72.8376 4.81024 72.255 4.55368 71.5174 4.55368C71.0257 4.55368 70.5981 4.67127 70.2347 4.90644C69.8819 5.13093 69.604 5.46766 69.4008 5.91663C69.2084 6.35491 69.1122 6.90009 69.1122 7.55217C69.1122 8.51425 69.3314 9.25719 69.7696 9.78099C70.2079 10.2941 70.7905 10.5507 71.5174 10.5507ZM80.6999 11.5929C79.8768 11.5929 79.1659 11.4326 78.5673 11.1119C77.9794 10.7805 77.5197 10.3155 77.1883 9.71685C76.8676 9.11823 76.7073 8.40201 76.7073 7.5682C76.7073 6.75578 76.8676 6.05025 77.1883 5.45162C77.509 4.84231 77.9473 4.36661 78.5032 4.02454C79.0697 3.68246 79.7218 3.51143 80.4594 3.51143C80.9832 3.51143 81.4536 3.60229 81.8705 3.78402C82.2874 3.95505 82.6401 4.20626 82.9287 4.53765C83.2281 4.86903 83.4525 5.2699 83.6022 5.74025C83.7626 6.2106 83.8427 6.73975 83.8427 7.32768C83.8427 7.49872 83.7946 7.627 83.6984 7.71252C83.6022 7.78735 83.4632 7.82476 83.2815 7.82476H77.7014V6.97492H82.9768L82.7203 7.18337C82.7203 6.60612 82.6348 6.11974 82.4637 5.72421C82.2927 5.318 82.0415 5.008 81.7101 4.7942C81.3894 4.58041 80.9832 4.47351 80.4915 4.47351C79.9463 4.47351 79.4813 4.60179 79.0965 4.85834C78.7223 5.10421 78.439 5.45162 78.2466 5.9006C78.0542 6.33888 77.958 6.85199 77.958 7.43993V7.53614C77.958 8.5196 78.1932 9.26788 78.6635 9.78099C79.1446 10.2941 79.8234 10.5507 80.6999 10.5507C81.0634 10.5507 81.4215 10.5026 81.7742 10.4063C82.1377 10.3101 82.4905 10.1498 82.8325 9.92531C82.9822 9.8291 83.1158 9.78634 83.2334 9.79703C83.3617 9.79703 83.4632 9.83444 83.5381 9.90927C83.6129 9.97341 83.661 10.0589 83.6824 10.1658C83.7144 10.262 83.7038 10.3689 83.6503 10.4865C83.6075 10.6041 83.5167 10.7057 83.3777 10.7912C83.025 11.0477 82.6081 11.2455 82.127 11.3845C81.646 11.5234 81.1703 11.5929 80.6999 11.5929ZM88.3521 11.5929C87.8711 11.5929 87.3847 11.5341 86.8929 11.4165C86.4119 11.2989 85.9629 11.0958 85.546 10.8072C85.4391 10.7324 85.3643 10.6469 85.3215 10.5507C85.2788 10.4438 85.2628 10.3422 85.2734 10.246C85.2948 10.1391 85.3376 10.0482 85.4017 9.97341C85.4766 9.89858 85.5621 9.85582 85.6583 9.84513C85.7652 9.82375 85.8828 9.84513 86.011 9.90927C86.4279 10.1658 86.8288 10.3476 87.2136 10.4545C87.6092 10.5507 87.9993 10.5988 88.3842 10.5988C88.9935 10.5988 89.4532 10.4865 89.7632 10.262C90.0732 10.0375 90.2282 9.73289 90.2282 9.34806C90.2282 9.04874 90.1266 8.81357 89.9235 8.64253C89.7204 8.4608 89.3997 8.32184 88.9614 8.22563L87.5023 7.90493C86.8288 7.76597 86.3264 7.52545 85.995 7.18337C85.6743 6.8413 85.514 6.39767 85.514 5.85249C85.514 5.37145 85.6369 4.95989 85.8828 4.61782C86.1393 4.26506 86.4974 3.99247 86.9571 3.80005C87.4167 3.60763 87.9512 3.51143 88.5606 3.51143C89.0309 3.51143 89.4745 3.57556 89.8914 3.70384C90.319 3.82143 90.7039 4.01385 91.0459 4.28109C91.1528 4.35592 91.2223 4.44678 91.2544 4.55368C91.2971 4.64989 91.3025 4.75144 91.2704 4.85834C91.249 4.95455 91.2009 5.04007 91.1261 5.1149C91.0513 5.17903 90.9604 5.21645 90.8535 5.22714C90.7466 5.23783 90.6344 5.20576 90.5168 5.13093C90.1961 4.91713 89.8701 4.76213 89.5387 4.66592C89.2073 4.55903 88.8813 4.50558 88.5606 4.50558C87.9619 4.50558 87.5076 4.62317 87.1976 4.85834C86.8876 5.09352 86.7326 5.40352 86.7326 5.78835C86.7326 6.08767 86.8288 6.33353 87.0212 6.52595C87.2136 6.71837 87.513 6.85733 87.9192 6.94285L89.3783 7.24751C90.0732 7.39717 90.5916 7.63769 90.9337 7.96907C91.2865 8.28977 91.4628 8.72805 91.4628 9.28392C91.4628 9.98944 91.1796 10.5507 90.613 10.9676C90.0464 11.3845 89.2928 11.5929 88.3521 11.5929ZM100.703 11.5929C100.094 11.5929 99.5805 11.486 99.1636 11.2722C98.7574 11.0477 98.4528 10.727 98.2496 10.3101C98.0465 9.88255 97.945 9.36409 97.945 8.75477V4.66592H96.8707C96.6889 4.66592 96.55 4.62317 96.4538 4.53765C96.3576 4.44144 96.3094 4.31316 96.3094 4.15281C96.3094 3.99247 96.3576 3.86953 96.4538 3.78402C96.55 3.6985 96.6889 3.65574 96.8707 3.65574H97.945V1.81175C97.945 1.59795 98.0038 1.4376 98.1214 1.33071C98.239 1.21312 98.3993 1.15433 98.6024 1.15433C98.8055 1.15433 98.9605 1.21312 99.0674 1.33071C99.185 1.4376 99.2438 1.59795 99.2438 1.81175V3.65574H101.264C101.446 3.65574 101.585 3.6985 101.681 3.78402C101.777 3.86953 101.825 3.99247 101.825 4.15281C101.825 4.31316 101.777 4.44144 101.681 4.53765C101.585 4.62317 101.446 4.66592 101.264 4.66592H99.2438V8.62649C99.2438 9.23581 99.3721 9.70082 99.6286 10.0215C99.8852 10.3315 100.302 10.4865 100.879 10.4865C101.082 10.4865 101.253 10.4651 101.392 10.4224C101.542 10.3796 101.665 10.3582 101.761 10.3582C101.857 10.3476 101.938 10.3796 102.002 10.4545C102.066 10.5293 102.098 10.6576 102.098 10.8393C102.098 10.9676 102.071 11.0851 102.018 11.192C101.975 11.2989 101.895 11.3738 101.777 11.4165C101.649 11.4593 101.478 11.4967 101.264 11.5288C101.061 11.5715 100.874 11.5929 100.703 11.5929ZM103.917 11.5608C103.704 11.5608 103.543 11.5021 103.436 11.3845C103.329 11.2669 103.276 11.1012 103.276 10.8874V0.68932C103.276 0.475523 103.329 0.315176 103.436 0.208278C103.543 0.0906907 103.704 0.0318969 103.917 0.0318969C104.121 0.0318969 104.281 0.0906907 104.398 0.208278C104.516 0.315176 104.575 0.475523 104.575 0.68932V5.38749H104.366C104.591 4.76748 104.954 4.30247 105.457 3.99247C105.97 3.67177 106.558 3.51143 107.221 3.51143C107.841 3.51143 108.354 3.62367 108.76 3.84815C109.177 4.07264 109.487 4.41471 109.69 4.87438C109.893 5.32335 109.995 5.89525 109.995 6.59009V10.8874C109.995 11.1012 109.936 11.2669 109.818 11.3845C109.711 11.5021 109.556 11.5608 109.353 11.5608C109.139 11.5608 108.974 11.5021 108.856 11.3845C108.749 11.2669 108.696 11.1012 108.696 10.8874V6.67026C108.696 5.94336 108.551 5.41421 108.263 5.08283C107.985 4.74075 107.536 4.56972 106.916 4.56972C106.2 4.56972 105.628 4.7942 105.2 5.24317C104.783 5.68146 104.575 6.26939 104.575 7.00699V10.8874C104.575 11.3364 104.356 11.5608 103.917 11.5608ZM115.901 11.5929C115.078 11.5929 114.367 11.4326 113.768 11.1119C113.181 10.7805 112.721 10.3155 112.389 9.71685C112.069 9.11823 111.908 8.40201 111.908 7.5682C111.908 6.75578 112.069 6.05025 112.389 5.45162C112.71 4.84231 113.148 4.36661 113.704 4.02454C114.271 3.68246 114.923 3.51143 115.661 3.51143C116.184 3.51143 116.655 3.60229 117.072 3.78402C117.489 3.95505 117.841 4.20626 118.13 4.53765C118.429 4.86903 118.654 5.2699 118.803 5.74025C118.964 6.2106 119.044 6.73975 119.044 7.32768C119.044 7.49872 118.996 7.627 118.9 7.71252C118.803 7.78735 118.664 7.82476 118.483 7.82476H112.903V6.97492H118.178L117.921 7.18337C117.921 6.60612 117.836 6.11974 117.665 5.72421C117.494 5.318 117.243 5.008 116.911 4.7942C116.591 4.58041 116.184 4.47351 115.693 4.47351C115.147 4.47351 114.682 4.60179 114.298 4.85834C113.923 5.10421 113.64 5.45162 113.448 5.9006C113.255 6.33888 113.159 6.85199 113.159 7.43993V7.53614C113.159 8.5196 113.394 9.26788 113.865 9.78099C114.346 10.2941 115.025 10.5507 115.901 10.5507C116.265 10.5507 116.623 10.5026 116.975 10.4063C117.339 10.3101 117.692 10.1498 118.034 9.92531C118.183 9.8291 118.317 9.78634 118.435 9.79703C118.563 9.79703 118.664 9.83444 118.739 9.90927C118.814 9.97341 118.862 10.0589 118.884 10.1658C118.916 10.262 118.905 10.3689 118.851 10.4865C118.809 10.6041 118.718 10.7057 118.579 10.7912C118.226 11.0477 117.809 11.2455 117.328 11.3845C116.847 11.5234 116.371 11.5929 115.901 11.5929ZM128.361 11.5929C127.58 11.5929 126.907 11.4219 126.34 11.0798C125.774 10.7377 125.335 10.262 125.025 9.65272C124.726 9.03271 124.576 8.31649 124.576 7.50407C124.576 6.88406 124.662 6.32819 124.833 5.83646C125.004 5.34473 125.255 4.92782 125.587 4.58575C125.918 4.23299 126.314 3.96574 126.773 3.78402C127.244 3.60229 127.773 3.51143 128.361 3.51143C128.746 3.51143 129.146 3.57022 129.563 3.68781C129.98 3.8054 130.36 4.0085 130.702 4.29713C130.809 4.37196 130.878 4.46282 130.91 4.56972C130.942 4.67661 130.942 4.78351 130.91 4.89041C130.878 4.98662 130.825 5.07214 130.75 5.14697C130.675 5.2111 130.579 5.24852 130.461 5.25921C130.354 5.2699 130.242 5.23248 130.124 5.14697C129.847 4.93317 129.563 4.78351 129.275 4.69799C128.986 4.61248 128.708 4.56972 128.441 4.56972C128.024 4.56972 127.66 4.6392 127.35 4.77817C127.04 4.90644 126.779 5.09352 126.565 5.33938C126.351 5.58525 126.185 5.88991 126.068 6.25336C125.961 6.61681 125.907 7.03906 125.907 7.5201C125.907 8.45011 126.127 9.18771 126.565 9.73289C127.003 10.2674 127.628 10.5346 128.441 10.5346C128.708 10.5346 128.981 10.4919 129.259 10.4063C129.547 10.3208 129.836 10.1712 130.124 9.95737C130.242 9.87186 130.354 9.83444 130.461 9.84513C130.568 9.85582 130.659 9.89858 130.734 9.97341C130.809 10.0375 130.857 10.1231 130.878 10.23C130.91 10.3369 130.91 10.4438 130.878 10.5507C130.846 10.6469 130.777 10.7324 130.67 10.8072C130.328 11.0851 129.953 11.2883 129.547 11.4165C129.141 11.5341 128.746 11.5929 128.361 11.5929ZM135.562 11.5929C134.803 11.5929 134.146 11.4272 133.59 11.0958C133.034 10.7645 132.601 10.2994 132.291 9.70082C131.992 9.0915 131.842 8.37528 131.842 7.55217C131.842 6.93216 131.928 6.37629 132.099 5.88456C132.27 5.38214 132.521 4.95455 132.852 4.60179C133.184 4.24902 133.574 3.98178 134.023 3.80005C134.483 3.60763 134.996 3.51143 135.562 3.51143C136.321 3.51143 136.979 3.67712 137.535 4.0085C138.09 4.33989 138.518 4.81024 138.817 5.41956C139.127 6.01818 139.282 6.72906 139.282 7.55217C139.282 8.17218 139.197 8.72805 139.026 9.21978C138.855 9.71151 138.604 10.1391 138.272 10.5026C137.941 10.8553 137.545 11.1279 137.086 11.3203C136.637 11.5021 136.129 11.5929 135.562 11.5929ZM135.562 10.5507C136.043 10.5507 136.466 10.4331 136.829 10.1979C137.192 9.96272 137.47 9.62065 137.663 9.17167C137.866 8.7227 137.967 8.18287 137.967 7.55217C137.967 6.5794 137.748 5.83646 137.31 5.32335C136.882 4.81024 136.3 4.55368 135.562 4.55368C135.071 4.55368 134.643 4.67127 134.279 4.90644C133.927 5.13093 133.649 5.46766 133.446 5.91663C133.253 6.35491 133.157 6.90009 133.157 7.55217C133.157 8.51425 133.376 9.25719 133.814 9.78099C134.253 10.2941 134.835 10.5507 135.562 10.5507ZM143.686 11.5929C143.152 11.5929 142.671 11.4914 142.243 11.2883C141.826 11.0745 141.495 10.7858 141.249 10.4224C141.003 10.0589 140.88 9.65272 140.88 9.20374C140.88 8.62649 141.025 8.17218 141.313 7.84079C141.613 7.50941 142.099 7.27424 142.772 7.13527C143.457 6.9963 144.387 6.92682 145.563 6.92682H146.284V7.77666H145.579C144.713 7.77666 144.029 7.81941 143.526 7.90493C143.034 7.97976 142.687 8.11338 142.484 8.3058C142.291 8.49822 142.195 8.77081 142.195 9.12357C142.195 9.56185 142.345 9.91996 142.644 10.1979C142.954 10.4758 143.371 10.6148 143.895 10.6148C144.323 10.6148 144.697 10.5132 145.017 10.3101C145.349 10.107 145.605 9.8291 145.787 9.47633C145.979 9.12357 146.076 8.71736 146.076 8.2577V6.42974C146.076 5.76697 145.942 5.29128 145.675 5.00265C145.408 4.70334 144.969 4.55368 144.36 4.55368C143.986 4.55368 143.612 4.60179 143.237 4.69799C142.863 4.7942 142.468 4.9492 142.051 5.163C141.901 5.23783 141.773 5.26455 141.666 5.24317C141.559 5.2111 141.474 5.15231 141.41 5.06679C141.345 4.98127 141.308 4.88507 141.297 4.77817C141.287 4.66058 141.308 4.54834 141.361 4.44144C141.426 4.33454 141.522 4.24902 141.65 4.18488C142.12 3.94971 142.585 3.77867 143.045 3.67177C143.505 3.56487 143.943 3.51143 144.36 3.51143C145.033 3.51143 145.589 3.62367 146.028 3.84815C146.466 4.06195 146.792 4.39333 147.006 4.84231C147.219 5.28059 147.326 5.84715 147.326 6.54198V10.8874C147.326 11.1012 147.273 11.2669 147.166 11.3845C147.07 11.5021 146.925 11.5608 146.733 11.5608C146.53 11.5608 146.375 11.5021 146.268 11.3845C146.161 11.2669 146.108 11.1012 146.108 10.8874V9.63668H146.252C146.167 10.0429 146.001 10.3903 145.755 10.6789C145.52 10.9676 145.226 11.192 144.873 11.3524C144.52 11.5127 144.125 11.5929 143.686 11.5929ZM153.039 11.5929C152.259 11.5929 151.585 11.4219 151.019 11.0798C150.452 10.7377 150.014 10.262 149.704 9.65272C149.405 9.03271 149.255 8.31649 149.255 7.50407C149.255 6.88406 149.34 6.32819 149.511 5.83646C149.682 5.34473 149.934 4.92782 150.265 4.58575C150.596 4.23299 150.992 3.96574 151.452 3.78402C151.922 3.60229 152.451 3.51143 153.039 3.51143C153.424 3.51143 153.825 3.57022 154.242 3.68781C154.659 3.8054 155.038 4.0085 155.38 4.29713C155.487 4.37196 155.557 4.46282 155.589 4.56972C155.621 4.67661 155.621 4.78351 155.589 4.89041C155.557 4.98662 155.503 5.07214 155.428 5.14697C155.353 5.2111 155.257 5.24852 155.14 5.25921C155.033 5.2699 154.92 5.23248 154.803 5.14697C154.525 4.93317 154.242 4.78351 153.953 4.69799C153.664 4.61248 153.386 4.56972 153.119 4.56972C152.702 4.56972 152.339 4.6392 152.029 4.77817C151.719 4.90644 151.457 5.09352 151.243 5.33938C151.029 5.58525 150.864 5.88991 150.746 6.25336C150.639 6.61681 150.586 7.03906 150.586 7.5201C150.586 8.45011 150.805 9.18771 151.243 9.73289C151.681 10.2674 152.307 10.5346 153.119 10.5346C153.386 10.5346 153.659 10.4919 153.937 10.4063C154.226 10.3208 154.514 10.1712 154.803 9.95737C154.92 9.87186 155.033 9.83444 155.14 9.84513C155.247 9.85582 155.337 9.89858 155.412 9.97341C155.487 10.0375 155.535 10.1231 155.557 10.23C155.589 10.3369 155.589 10.4438 155.557 10.5507C155.524 10.6469 155.455 10.7324 155.348 10.8072C155.006 11.0851 154.632 11.2883 154.226 11.4165C153.819 11.5341 153.424 11.5929 153.039 11.5929ZM157.8 11.5608C157.586 11.5608 157.425 11.5021 157.319 11.3845C157.212 11.2669 157.158 11.1012 157.158 10.8874V0.68932C157.158 0.475523 157.212 0.315176 157.319 0.208278C157.425 0.0906907 157.586 0.0318969 157.8 0.0318969C158.003 0.0318969 158.163 0.0906907 158.281 0.208278C158.398 0.315176 158.457 0.475523 158.457 0.68932V5.38749H158.249C158.473 4.76748 158.837 4.30247 159.339 3.99247C159.852 3.67177 160.44 3.51143 161.103 3.51143C161.723 3.51143 162.236 3.62367 162.642 3.84815C163.059 4.07264 163.369 4.41471 163.572 4.87438C163.775 5.32335 163.877 5.89525 163.877 6.59009V10.8874C163.877 11.1012 163.818 11.2669 163.7 11.3845C163.594 11.5021 163.439 11.5608 163.235 11.5608C163.022 11.5608 162.856 11.5021 162.738 11.3845C162.631 11.2669 162.578 11.1012 162.578 10.8874V6.67026C162.578 5.94336 162.434 5.41421 162.145 5.08283C161.867 4.74075 161.418 4.56972 160.798 4.56972C160.082 4.56972 159.51 4.7942 159.082 5.24317C158.666 5.68146 158.457 6.26939 158.457 7.00699V10.8874C158.457 11.3364 158.238 11.5608 157.8 11.5608ZM166.913 11.5288C166.699 11.5288 166.539 11.47 166.432 11.3524C166.325 11.2241 166.272 11.0477 166.272 10.8232V4.26506C166.272 4.04057 166.325 3.86953 166.432 3.75195C166.539 3.63436 166.699 3.57556 166.913 3.57556C167.116 3.57556 167.277 3.63436 167.394 3.75195C167.512 3.86953 167.571 4.04057 167.571 4.26506V10.8232C167.571 11.0477 167.512 11.2241 167.394 11.3524C167.287 11.47 167.127 11.5288 166.913 11.5288ZM166.913 1.77968C166.646 1.77968 166.437 1.71019 166.288 1.57123C166.138 1.42157 166.063 1.22381 166.063 0.977943C166.063 0.721388 166.138 0.528972 166.288 0.400695C166.437 0.261728 166.646 0.192244 166.913 0.192244C167.191 0.192244 167.399 0.261728 167.538 0.400695C167.688 0.528972 167.763 0.721388 167.763 0.977943C167.763 1.22381 167.688 1.42157 167.538 1.57123C167.399 1.71019 167.191 1.77968 166.913 1.77968ZM170.64 11.5608C170.426 11.5608 170.266 11.5021 170.159 11.3845C170.052 11.2669 169.999 11.1012 169.999 10.8874V4.20092C169.999 3.98712 170.052 3.82677 170.159 3.71988C170.266 3.60229 170.421 3.5435 170.624 3.5435C170.827 3.5435 170.982 3.60229 171.089 3.71988C171.206 3.82677 171.265 3.98712 171.265 4.20092V5.5799L171.089 5.38749C171.313 4.76748 171.677 4.30247 172.179 3.99247C172.692 3.67177 173.28 3.51143 173.943 3.51143C174.563 3.51143 175.076 3.62367 175.482 3.84815C175.899 4.07264 176.209 4.41471 176.412 4.87438C176.616 5.32335 176.717 5.89525 176.717 6.59009V10.8874C176.717 11.1012 176.658 11.2669 176.541 11.3845C176.434 11.5021 176.279 11.5608 176.076 11.5608C175.862 11.5608 175.696 11.5021 175.579 11.3845C175.472 11.2669 175.418 11.1012 175.418 10.8874V6.67026C175.418 5.94336 175.274 5.41421 174.985 5.08283C174.707 4.74075 174.258 4.56972 173.638 4.56972C172.922 4.56972 172.35 4.7942 171.923 5.24317C171.506 5.68146 171.297 6.26939 171.297 7.00699V10.8874C171.297 11.3364 171.078 11.5608 170.64 11.5608ZM182.559 14.4792C181.993 14.4792 181.437 14.4097 180.892 14.2707C180.357 14.1424 179.871 13.934 179.433 13.6454C179.304 13.5705 179.219 13.4797 179.176 13.3728C179.144 13.2659 179.139 13.159 179.16 13.0521C179.181 12.9559 179.23 12.865 179.304 12.7795C179.379 12.7047 179.465 12.6565 179.561 12.6352C179.668 12.6138 179.775 12.6298 179.882 12.6833C180.352 12.9719 180.801 13.1697 181.229 13.2766C181.656 13.3835 182.078 13.4369 182.495 13.4369C183.254 13.4369 183.826 13.2338 184.211 12.8276C184.607 12.4214 184.804 11.8334 184.804 11.0638V9.25185H184.965C184.804 9.87186 184.462 10.3636 183.938 10.727C183.425 11.0905 182.821 11.2722 182.127 11.2722C181.41 11.2722 180.79 11.1119 180.266 10.7912C179.743 10.4598 179.336 10.0001 179.048 9.41219C178.77 8.82426 178.631 8.14545 178.631 7.37579C178.631 6.79854 178.711 6.27474 178.871 5.80439C179.032 5.32335 179.262 4.91713 179.561 4.58575C179.871 4.24368 180.24 3.98178 180.667 3.80005C181.106 3.60763 181.592 3.51143 182.127 3.51143C182.832 3.51143 183.441 3.69315 183.954 4.05661C184.468 4.40937 184.799 4.89041 184.949 5.49973L184.788 5.69214V4.20092C184.788 3.98712 184.842 3.82677 184.949 3.71988C185.066 3.60229 185.227 3.5435 185.43 3.5435C185.643 3.5435 185.804 3.60229 185.911 3.71988C186.018 3.82677 186.071 3.98712 186.071 4.20092V10.8874C186.071 12.074 185.772 12.9666 185.173 13.5652C184.585 14.1745 183.714 14.4792 182.559 14.4792ZM182.367 10.2139C182.869 10.2139 183.302 10.1017 183.666 9.8772C184.029 9.64203 184.307 9.31064 184.5 8.88305C184.703 8.45546 184.804 7.95304 184.804 7.37579C184.804 6.50991 184.585 5.82577 184.147 5.32335C183.709 4.81024 183.115 4.55368 182.367 4.55368C181.875 4.55368 181.448 4.67127 181.084 4.90644C180.721 5.13093 180.438 5.45697 180.234 5.88456C180.042 6.30146 179.946 6.79854 179.946 7.37579C179.946 8.24166 180.165 8.93115 180.603 9.44426C181.042 9.95737 181.629 10.2139 182.367 10.2139ZM195.335 11.5608C195.153 11.5608 194.993 11.5127 194.854 11.4165C194.715 11.3203 194.603 11.1653 194.517 10.9515L192.128 4.45747C192.064 4.27575 192.043 4.1154 192.064 3.97643C192.096 3.83746 192.166 3.73057 192.272 3.65574C192.379 3.58091 192.513 3.5435 192.673 3.5435C192.834 3.5435 192.962 3.58091 193.058 3.65574C193.165 3.73057 193.251 3.86953 193.315 4.07264L195.56 10.4865H195.175L197.484 4.07264C197.559 3.88022 197.649 3.7466 197.756 3.67177C197.874 3.58625 198.024 3.5435 198.205 3.5435C198.376 3.5435 198.521 3.58625 198.638 3.67177C198.756 3.75729 198.847 3.89091 198.911 4.07264L201.172 10.4865H200.803L203.08 4.04057C203.155 3.84815 203.246 3.71988 203.352 3.65574C203.459 3.58091 203.588 3.5435 203.737 3.5435C203.908 3.5435 204.037 3.58625 204.122 3.67177C204.218 3.75729 204.272 3.86953 204.282 4.0085C204.293 4.14747 204.266 4.29713 204.202 4.45747L201.813 10.9515C201.738 11.1546 201.626 11.3096 201.476 11.4165C201.337 11.5127 201.177 11.5608 200.995 11.5608C200.814 11.5608 200.653 11.5127 200.514 11.4165C200.375 11.3096 200.268 11.1546 200.194 10.9515L197.82 4.44144H198.51L196.153 10.9515C196.078 11.1546 195.971 11.3096 195.832 11.4165C195.693 11.5127 195.528 11.5608 195.335 11.5608ZM209.253 11.5929C208.494 11.5929 207.837 11.4272 207.281 11.0958C206.725 10.7645 206.292 10.2994 205.982 9.70082C205.683 9.0915 205.533 8.37528 205.533 7.55217C205.533 6.93216 205.618 6.37629 205.789 5.88456C205.961 5.38214 206.212 4.95455 206.543 4.60179C206.874 4.24902 207.265 3.98178 207.714 3.80005C208.173 3.60763 208.686 3.51143 209.253 3.51143C210.012 3.51143 210.669 3.67712 211.225 4.0085C211.781 4.33989 212.209 4.81024 212.508 5.41956C212.818 6.01818 212.973 6.72906 212.973 7.55217C212.973 8.17218 212.888 8.72805 212.716 9.21978C212.545 9.71151 212.294 10.1391 211.963 10.5026C211.631 10.8553 211.236 11.1279 210.776 11.3203C210.327 11.5021 209.82 11.5929 209.253 11.5929ZM209.253 10.5507C209.734 10.5507 210.156 10.4331 210.52 10.1979C210.883 9.96272 211.161 9.62065 211.354 9.17167C211.557 8.7227 211.658 8.18287 211.658 7.55217C211.658 6.5794 211.439 5.83646 211.001 5.32335C210.573 4.81024 209.991 4.55368 209.253 4.55368C208.761 4.55368 208.334 4.67127 207.97 4.90644C207.617 5.13093 207.339 5.46766 207.136 5.91663C206.944 6.35491 206.848 6.90009 206.848 7.55217C206.848 8.51425 207.067 9.25719 207.505 9.78099C207.943 10.2941 208.526 10.5507 209.253 10.5507ZM215.581 11.5608C215.367 11.5608 215.202 11.5021 215.084 11.3845C214.977 11.2669 214.924 11.1012 214.924 10.8874V4.20092C214.924 3.98712 214.977 3.82677 215.084 3.71988C215.191 3.60229 215.346 3.5435 215.549 3.5435C215.752 3.5435 215.907 3.60229 216.014 3.71988C216.132 3.82677 216.191 3.98712 216.191 4.20092V5.49973H216.03C216.201 4.86903 216.527 4.38264 217.008 4.04057C217.489 3.6985 218.083 3.51677 218.788 3.49539C218.949 3.4847 219.077 3.52212 219.173 3.60763C219.269 3.68246 219.323 3.81609 219.333 4.0085C219.344 4.19023 219.301 4.33454 219.205 4.44144C219.109 4.54834 218.959 4.61248 218.756 4.63386L218.5 4.66592C217.773 4.73006 217.211 4.96524 216.816 5.37145C216.431 5.76697 216.239 6.31215 216.239 7.00699V10.8874C216.239 11.1012 216.18 11.2669 216.062 11.3845C215.955 11.5021 215.795 11.5608 215.581 11.5608ZM221.312 11.5608C221.098 11.5608 220.938 11.5021 220.831 11.3845C220.724 11.2669 220.671 11.1012 220.671 10.8874V0.68932C220.671 0.475523 220.724 0.315176 220.831 0.208278C220.938 0.0906907 221.098 0.0318969 221.312 0.0318969C221.515 0.0318969 221.676 0.0906907 221.793 0.208278C221.911 0.315176 221.969 0.475523 221.969 0.68932V7.11923H222.002L225.289 3.97643C225.438 3.83746 225.567 3.73057 225.674 3.65574C225.791 3.58091 225.946 3.5435 226.139 3.5435C226.31 3.5435 226.443 3.5916 226.539 3.68781C226.636 3.77333 226.678 3.88557 226.668 4.02454C226.668 4.15281 226.604 4.29178 226.475 4.44144L222.98 7.76062V7.05509L226.78 10.6308C226.93 10.7805 227.004 10.9248 227.004 11.0638C227.004 11.2027 226.951 11.3203 226.844 11.4165C226.748 11.5127 226.62 11.5608 226.459 11.5608C226.267 11.5608 226.112 11.5234 225.994 11.4486C225.877 11.3631 225.732 11.2402 225.561 11.0798L222.002 7.79269H221.969V10.8874C221.969 11.3364 221.75 11.5608 221.312 11.5608ZM230.633 8.56236C230.494 8.56236 230.387 8.5196 230.312 8.43408C230.237 8.33787 230.2 8.20959 230.2 8.04925C230.2 7.6751 230.243 7.32768 230.328 7.00699C230.424 6.67561 230.569 6.33888 230.761 5.9968C230.964 5.65473 231.237 5.28593 231.579 4.89041C231.846 4.56972 232.06 4.28644 232.22 4.04057C232.381 3.79471 232.493 3.55953 232.557 3.33504C232.632 3.09987 232.669 2.86469 232.669 2.62952C232.669 2.18055 232.509 1.82778 232.188 1.57123C231.867 1.30398 231.424 1.17036 230.857 1.17036C230.365 1.17036 229.911 1.24519 229.494 1.39485C229.088 1.53381 228.693 1.74761 228.308 2.03623C228.147 2.14313 227.998 2.19658 227.859 2.19658C227.73 2.19658 227.624 2.15917 227.538 2.08434C227.453 2.00951 227.394 1.9133 227.362 1.79571C227.34 1.67813 227.356 1.55519 227.41 1.42692C227.474 1.29864 227.581 1.18105 227.73 1.07415C228.147 0.742768 228.639 0.480868 229.206 0.288452C229.772 0.0960352 230.344 -0.000172989 230.921 -0.000172989C231.531 -0.000172989 232.065 0.106725 232.525 0.320522C232.995 0.523628 233.359 0.817597 233.615 1.20243C233.872 1.57657 234 2.0202 234 2.53331C234 2.86469 233.952 3.18539 233.856 3.49539C233.76 3.79471 233.604 4.09937 233.391 4.40937C233.188 4.71937 232.899 5.07214 232.525 5.46766C232.193 5.80973 231.926 6.13043 231.723 6.42974C231.52 6.71837 231.365 7.00165 231.258 7.27958C231.162 7.54682 231.098 7.8301 231.066 8.12942C231.055 8.2577 231.012 8.36459 230.937 8.45011C230.863 8.52494 230.761 8.56236 230.633 8.56236ZM230.617 11.5127C230.349 11.5127 230.13 11.4326 229.959 11.2722C229.799 11.1012 229.719 10.8874 229.719 10.6308C229.719 10.3743 229.799 10.1658 229.959 10.0055C230.13 9.83444 230.349 9.74892 230.617 9.74892C230.884 9.74892 231.092 9.83444 231.242 10.0055C231.402 10.1658 231.483 10.3743 231.483 10.6308C231.483 10.8874 231.402 11.1012 231.242 11.2722C231.092 11.4326 230.884 11.5127 230.617 11.5127Z" fill="#A1A1A1"/>
</svg>
