<svg width="81" height="15" viewBox="0 0 81 15" fill="none" xmlns="http://www.w3.org/2000/svg">
<path d="M0.824884 14.3246C0.556632 14.3246 0.348737 14.2508 0.201199 14.1033C0.0670728 13.9424 9.9232e-06 13.7278 9.9232e-06 13.4595V0.844967C9.9232e-06 0.563303 0.0737791 0.355409 0.221317 0.221283C0.368856 0.073744 0.576751 -2.54226e-05 0.845003 -2.54226e-05H5.61317C7.1288 -2.54226e-05 8.29569 0.355408 9.11386 1.06628C9.93203 1.77714 10.3411 2.78979 10.3411 4.10422C10.3411 4.9358 10.1533 5.66008 9.77778 6.27706C9.41564 6.88063 8.87914 7.34336 8.16827 7.66526C7.4574 7.97375 6.60571 8.128 5.61317 8.128L5.81436 7.86645H6.21674C6.73983 7.86645 7.19586 8.00058 7.58482 8.26883C7.97379 8.53708 8.32922 8.96628 8.65112 9.55644L10.5825 13.1577C10.6898 13.3455 10.7368 13.5333 10.7234 13.721C10.7234 13.8954 10.663 14.0429 10.5423 14.1637C10.4216 14.271 10.2472 14.3246 10.0192 14.3246C9.79119 14.3246 9.60342 14.271 9.45588 14.1637C9.30834 14.0564 9.18092 13.9021 9.07362 13.7009L6.88066 9.63691C6.57217 9.06017 6.21674 8.67791 5.81436 8.49014C5.41199 8.28895 4.88219 8.18836 4.22497 8.18836H1.64976V13.4595C1.64976 13.7278 1.58269 13.9424 1.44857 14.1033C1.31444 14.2508 1.10655 14.3246 0.824884 14.3246ZM1.64976 6.88063H5.37175C6.47158 6.88063 7.30316 6.65261 7.86649 6.19659C8.42982 5.72715 8.71148 5.02969 8.71148 4.10422C8.71148 3.20558 8.42982 2.52825 7.86649 2.07222C7.30316 1.60278 6.47158 1.36806 5.37175 1.36806H1.64976V6.88063ZM17.085 14.3648C16.1327 14.3648 15.3079 14.157 14.6104 13.7412C13.9129 13.3254 13.3697 12.7419 12.9808 11.9908C12.6052 11.2263 12.4174 10.3277 12.4174 9.29489C12.4174 8.51696 12.5247 7.81951 12.7393 7.20253C12.9539 6.57214 13.2691 6.03564 13.6849 5.59302C14.1007 5.15041 14.5903 4.81509 15.1536 4.58708C15.7303 4.34565 16.3742 4.22494 17.085 4.22494C18.0373 4.22494 18.8622 4.43283 19.5596 4.84862C20.2571 5.26441 20.7936 5.85457 21.1691 6.61908C21.5581 7.37019 21.7526 8.26212 21.7526 9.29489C21.7526 10.0728 21.6453 10.7703 21.4307 11.3873C21.2161 12.0042 20.9009 12.5407 20.4851 12.9968C20.0693 13.4394 19.5731 13.7814 18.9963 14.0228C18.433 14.2508 17.7959 14.3648 17.085 14.3648ZM17.085 13.0571C17.6886 13.0571 18.2184 12.9096 18.6744 12.6145C19.1304 12.3194 19.4792 11.8902 19.7206 11.3269C19.9754 10.7636 20.1028 10.0862 20.1028 9.29489C20.1028 8.07435 19.8279 7.14217 19.278 6.49837C18.7415 5.85457 18.0105 5.53266 17.085 5.53266C16.468 5.53266 15.9315 5.6802 15.4755 5.97528C15.0329 6.25694 14.6842 6.67944 14.4293 7.24277C14.1879 7.79268 14.0672 8.47673 14.0672 9.29489C14.0672 10.502 14.3421 11.4342 14.8921 12.0914C15.442 12.7352 16.173 13.0571 17.085 13.0571ZM25.0453 14.3246C24.7771 14.3246 24.5759 14.2508 24.4418 14.1033C24.3076 13.9558 24.2406 13.7479 24.2406 13.4796V5.09005C24.2406 4.8218 24.3076 4.62061 24.4418 4.48648C24.5759 4.33894 24.7704 4.26518 25.0252 4.26518C25.2801 4.26518 25.4745 4.33894 25.6087 4.48648C25.7562 4.62061 25.83 4.8218 25.83 5.09005V6.86051L25.6087 6.57885C25.8635 5.82774 26.2726 5.251 26.8359 4.84862C27.4127 4.43283 28.0967 4.22494 28.888 4.22494C29.7196 4.22494 30.3902 4.42613 30.8999 4.8285C31.423 5.21747 31.7717 5.82774 31.9461 6.65932H31.6443C31.8857 5.90822 32.3149 5.31806 32.9319 4.88886C33.5623 4.44625 34.2933 4.22494 35.1249 4.22494C35.8626 4.22494 36.4661 4.36577 36.9356 4.64743C37.4184 4.9291 37.7806 5.3583 38.022 5.93504C38.2634 6.49837 38.3841 7.21594 38.3841 8.08776V13.4796C38.3841 13.7479 38.3104 13.9558 38.1628 14.1033C38.0287 14.2508 37.8275 14.3246 37.5593 14.3246C37.3044 14.3246 37.1032 14.2508 36.9557 14.1033C36.8216 13.9558 36.7545 13.7479 36.7545 13.4796V8.16824C36.7545 7.26959 36.6003 6.61238 36.2918 6.19659C35.9833 5.76738 35.4602 5.55278 34.7225 5.55278C33.9178 5.55278 33.2807 5.83445 32.8112 6.39778C32.3552 6.94769 32.1272 7.6988 32.1272 8.65109V13.4796C32.1272 13.7479 32.0534 13.9558 31.9059 14.1033C31.7717 14.2508 31.5706 14.3246 31.3023 14.3246C31.0475 14.3246 30.8463 14.2508 30.6987 14.1033C30.5646 13.9558 30.4975 13.7479 30.4975 13.4796V8.16824C30.4975 7.26959 30.3366 6.61238 30.0147 6.19659C29.7062 5.76738 29.1898 5.55278 28.4655 5.55278C27.6608 5.55278 27.0237 5.83445 26.5542 6.39778C26.0982 6.94769 25.8702 7.6988 25.8702 8.65109V13.4796C25.8702 14.0429 25.5952 14.3246 25.0453 14.3246ZM44.5092 14.3648C43.8386 14.3648 43.235 14.2374 42.6985 13.9826C42.1754 13.7143 41.7597 13.3522 41.4512 12.8962C41.1427 12.4401 40.9884 11.9305 40.9884 11.3671C40.9884 10.6429 41.1695 10.0728 41.5316 9.65703C41.9072 9.24124 42.5175 8.94617 43.3625 8.7718C44.2209 8.59744 45.3878 8.51026 46.8631 8.51026H47.7685V9.57656H46.8833C45.7968 9.57656 44.9384 9.63021 44.308 9.73751C43.6911 9.8314 43.2552 9.99905 43.0003 10.2405C42.7589 10.4819 42.6382 10.8239 42.6382 11.2665C42.6382 11.8165 42.826 12.2658 43.2015 12.6145C43.5905 12.9632 44.1136 13.1376 44.7708 13.1376C45.3073 13.1376 45.7767 13.0102 46.1791 12.7553C46.5949 12.5005 46.9168 12.1518 47.1448 11.7092C47.3862 11.2665 47.5069 10.7569 47.5069 10.1801V7.88657C47.5069 7.05499 47.3393 6.45813 47.004 6.09599C46.6687 5.72044 46.1187 5.53266 45.3542 5.53266C44.8848 5.53266 44.4153 5.59302 43.9459 5.71373C43.4765 5.83445 42.9802 6.02893 42.4571 6.29718C42.2693 6.39107 42.1084 6.4246 41.9743 6.39778C41.8401 6.35754 41.7328 6.28377 41.6524 6.17647C41.5719 6.06917 41.5249 5.94845 41.5115 5.81433C41.4981 5.66679 41.5249 5.52596 41.592 5.39183C41.6725 5.25771 41.7932 5.15041 41.9541 5.06993C42.5443 4.77485 43.1277 4.56025 43.7045 4.42613C44.2812 4.292 44.8311 4.22494 45.3542 4.22494C46.1992 4.22494 46.8967 4.36577 47.4466 4.64743C47.9965 4.91569 48.4056 5.33148 48.6738 5.8948C48.9421 6.44472 49.0762 7.15559 49.0762 8.0274V13.4796C49.0762 13.7479 49.0092 13.9558 48.875 14.1033C48.7543 14.2508 48.5732 14.3246 48.3318 14.3246C48.077 14.3246 47.8825 14.2508 47.7484 14.1033C47.6142 13.9558 47.5472 13.7479 47.5472 13.4796V11.9103H47.7283C47.621 12.42 47.4131 12.8559 47.1046 13.2181C46.8095 13.5802 46.4406 13.8619 45.998 14.0631C45.5554 14.2643 45.0592 14.3648 44.5092 14.3648ZM52.9043 14.3246C52.6361 14.3246 52.4349 14.2508 52.3007 14.1033C52.1666 13.9558 52.0996 13.7479 52.0996 13.4796V5.09005C52.0996 4.8218 52.1666 4.62061 52.3007 4.48648C52.4349 4.33894 52.6293 4.26518 52.8842 4.26518C53.139 4.26518 53.3335 4.33894 53.4676 4.48648C53.6152 4.62061 53.6889 4.8218 53.6889 5.09005V6.82027L53.4676 6.57885C53.7493 5.80092 54.2053 5.21747 54.8357 4.8285C55.4795 4.42613 56.2172 4.22494 57.0488 4.22494C57.8267 4.22494 58.4705 4.36577 58.9802 4.64743C59.5033 4.9291 59.8923 5.3583 60.1471 5.93504C60.4019 6.49837 60.5294 7.21594 60.5294 8.08776V13.4796C60.5294 13.7479 60.4556 13.9558 60.3081 14.1033C60.1739 14.2508 59.9794 14.3246 59.7246 14.3246C59.4564 14.3246 59.2485 14.2508 59.1009 14.1033C58.9668 13.9558 58.8997 13.7479 58.8997 13.4796V8.18836C58.8997 7.2763 58.7187 6.61238 58.3565 6.19659C58.0078 5.76738 57.4445 5.55278 56.6665 5.55278C55.7679 5.55278 55.0503 5.83445 54.5138 6.39778C53.9907 6.94769 53.7292 7.68538 53.7292 8.61085V13.4796C53.7292 14.0429 53.4542 14.3246 52.9043 14.3246ZM67.6788 14.3648C66.6997 14.3648 65.8547 14.1502 65.1438 13.721C64.4329 13.2918 63.883 12.695 63.4941 11.9305C63.1185 11.1525 62.9307 10.2539 62.9307 9.23454C62.9307 8.45661 63.038 7.75915 63.2526 7.14217C63.4672 6.52519 63.7824 6.0021 64.1982 5.5729C64.614 5.13029 65.1103 4.79497 65.687 4.56696C66.2772 4.33894 66.9411 4.22494 67.6788 4.22494C68.1616 4.22494 68.6646 4.29871 69.1877 4.44625C69.7108 4.59378 70.1869 4.84862 70.6161 5.21076C70.7503 5.30465 70.8374 5.41866 70.8777 5.55278C70.9179 5.68691 70.9179 5.82103 70.8777 5.95516C70.8374 6.07587 70.7704 6.18317 70.6765 6.27706C70.5826 6.35754 70.4619 6.40448 70.3144 6.41789C70.1802 6.43131 70.0394 6.38436 69.8919 6.27706C69.5431 6.00881 69.1877 5.82103 68.8256 5.71373C68.4634 5.60643 68.1147 5.55278 67.7794 5.55278C67.2563 5.55278 66.8003 5.63996 66.4113 5.81433C66.0223 5.97528 65.6937 6.21 65.4255 6.51849C65.1572 6.82698 64.9493 7.20924 64.8018 7.66526C64.6677 8.12129 64.6006 8.65109 64.6006 9.25466C64.6006 10.4215 64.8756 11.347 65.4255 12.0311C65.9754 12.7017 66.76 13.037 67.7794 13.037C68.1147 13.037 68.4567 12.9834 68.8054 12.8761C69.1676 12.7688 69.5297 12.581 69.8919 12.3127C70.0394 12.2054 70.1802 12.1585 70.3144 12.1719C70.4485 12.1853 70.5625 12.239 70.6564 12.3328C70.7503 12.4133 70.8106 12.5206 70.8374 12.6547C70.8777 12.7889 70.8777 12.923 70.8374 13.0571C70.7972 13.1778 70.71 13.2851 70.5759 13.379C70.1467 13.7278 69.6773 13.9826 69.1676 14.1435C68.6579 14.2911 68.1616 14.3648 67.6788 14.3648ZM77.0567 14.3648C76.0239 14.3648 75.132 14.1637 74.3809 13.7613C73.6432 13.3455 73.0665 12.762 72.6507 12.0109C72.2483 11.2598 72.0471 10.3612 72.0471 9.31501C72.0471 8.29566 72.2483 7.41043 72.6507 6.65932C73.053 5.8948 73.603 5.29794 74.3004 4.86874C75.0113 4.43954 75.8294 4.22494 76.7549 4.22494C77.4121 4.22494 78.0023 4.33894 78.5254 4.56696C79.0485 4.78156 79.4911 5.09676 79.8532 5.51255C80.2288 5.92834 80.5104 6.43131 80.6982 7.02146C80.8994 7.61161 81 8.27554 81 9.01323C81 9.22783 80.9396 9.38878 80.8189 9.49608C80.6982 9.58997 80.5238 9.63691 80.2958 9.63691H73.2945V8.57061H79.9136L79.5917 8.83216C79.5917 8.10788 79.4844 7.49761 79.2698 7.00134C79.0552 6.49166 78.74 6.1027 78.3242 5.83445C77.9218 5.5662 77.4121 5.43207 76.7951 5.43207C76.1111 5.43207 75.5277 5.59302 75.0448 5.91492C74.5754 6.22341 74.2199 6.65932 73.9785 7.22265C73.7371 7.77257 73.6164 8.41637 73.6164 9.15406V9.27477C73.6164 10.5087 73.9114 11.4476 74.5016 12.0914C75.1052 12.7352 75.9569 13.0571 77.0567 13.0571C77.5127 13.0571 77.962 12.9968 78.4047 12.8761C78.8607 12.7553 79.3033 12.5541 79.7325 12.2725C79.9203 12.1518 80.0879 12.0981 80.2355 12.1115C80.3964 12.1115 80.5238 12.1585 80.6177 12.2524C80.7116 12.3328 80.772 12.4401 80.7988 12.5743C80.839 12.695 80.8256 12.8291 80.7586 12.9766C80.7049 13.1242 80.5909 13.2516 80.4165 13.3589C79.9739 13.6808 79.4508 13.9289 78.8473 14.1033C78.2437 14.2777 77.6468 14.3648 77.0567 14.3648Z" fill="#A1A1A1"/>
</svg>
