<svg width="267" height="69" viewBox="0 0 267 69" fill="none" xmlns="http://www.w3.org/2000/svg">
<path d="M10.8806 14.3926C10.6404 14.3926 10.4469 14.3325 10.3001 14.2124C10.1533 14.0789 10.0332 13.8854 9.93977 13.6319L5.51591 1.00086C5.42249 0.720618 5.44251 0.487082 5.57596 0.300252C5.72275 0.100077 5.94962 -1.00223e-05 6.25655 -1.00223e-05C6.48342 -1.00223e-05 6.66358 0.0600424 6.79702 0.180147C6.93047 0.286907 7.04391 0.460391 7.13732 0.700601L11.2809 12.8512H10.5803L14.804 0.760654C14.8974 0.507099 15.0109 0.320269 15.1443 0.200165C15.2778 0.0667148 15.4579 -1.00223e-05 15.6848 -1.00223e-05C15.8983 -1.00223e-05 16.0651 0.0667148 16.1852 0.200165C16.3187 0.320269 16.4321 0.507099 16.5255 0.760654L20.6892 12.8512H20.0686L24.2523 0.700601C24.319 0.473737 24.4191 0.300252 24.5525 0.180147C24.6993 0.0600424 24.8861 -1.00223e-05 25.113 -1.00223e-05C25.3933 -1.00223e-05 25.6001 0.0934048 25.7336 0.280235C25.867 0.467064 25.8804 0.707274 25.7736 1.00086L21.3297 13.6319C21.2363 13.8854 21.1162 14.0789 20.9694 14.2124C20.8359 14.3325 20.6424 14.3926 20.3889 14.3926C20.1487 14.3926 19.9552 14.3325 19.8084 14.2124C19.6749 14.0789 19.5548 13.8854 19.4481 13.6319L15.4246 2.04177H15.8649L11.8014 13.6319C11.708 13.8854 11.5945 14.0789 11.4611 14.2124C11.3276 14.3325 11.1341 14.3926 10.8806 14.3926ZM31.3783 14.4326C30.3508 14.4326 29.4633 14.2324 28.716 13.8321C27.982 13.4184 27.4082 12.8379 26.9945 12.0905C26.5941 11.3432 26.394 10.4491 26.394 9.4082C26.394 8.39398 26.5941 7.51321 26.9945 6.7659C27.3948 6.00523 27.942 5.41138 28.6359 4.98434C29.3432 4.5573 30.1573 4.34378 31.0781 4.34378C31.732 4.34378 32.3191 4.45721 32.8396 4.68408C33.3601 4.8976 33.8004 5.21121 34.1608 5.6249C34.5344 6.03859 34.8147 6.53903 35.0015 7.12621C35.2017 7.71339 35.3018 8.37397 35.3018 9.10794C35.3018 9.32146 35.2417 9.4816 35.1216 9.58836C35.0015 9.68177 34.828 9.72848 34.6011 9.72848H27.6351V8.66756H34.2208L33.9005 8.92778C33.9005 8.20715 33.7938 7.59996 33.5802 7.10619C33.3667 6.59908 33.0531 6.21208 32.6394 5.94518C32.2391 5.67828 31.732 5.54483 31.1181 5.54483C30.4375 5.54483 29.857 5.70497 29.3766 6.02525C28.9095 6.33218 28.5559 6.7659 28.3157 7.32639C28.0754 7.87353 27.9553 8.51409 27.9553 9.24806V9.36817C27.9553 10.5959 28.2489 11.5301 28.8361 12.1706C29.4366 12.8112 30.284 13.1315 31.3783 13.1315C31.8321 13.1315 32.2791 13.0714 32.7195 12.9513C33.1732 12.8312 33.6136 12.631 34.0406 12.3508C34.2275 12.2307 34.3943 12.1773 34.5411 12.1906C34.7012 12.1906 34.828 12.2373 34.9214 12.3308C35.0148 12.4108 35.0749 12.5176 35.1016 12.651C35.1416 12.7711 35.1283 12.9046 35.0615 13.0514C35.0082 13.1982 34.8947 13.325 34.7212 13.4317C34.2809 13.752 33.7604 13.9989 33.1599 14.1724C32.5594 14.3458 31.9655 14.4326 31.3783 14.4326ZM38.0227 4.08355C37.8893 4.25704 37.7491 4.35713 37.6024 4.38382C37.4556 4.39716 37.3288 4.37047 37.222 4.30375C37.1153 4.22368 37.0552 4.11024 37.0419 3.96345C37.0419 3.81665 37.1086 3.65651 37.242 3.48303C37.4556 3.20279 37.6024 2.92254 37.6824 2.6423C37.7625 2.34871 37.8025 2.08848 37.8025 1.86161L37.8826 2.26196C37.5356 2.26196 37.2554 2.16188 37.0419 1.9617C36.8417 1.74818 36.7416 1.48128 36.7416 1.161C36.7416 0.827379 36.835 0.560479 37.0218 0.360305C37.222 0.160129 37.4822 0.0600416 37.8025 0.0600416C38.1495 0.0600416 38.4231 0.180147 38.6232 0.420356C38.8234 0.647221 38.9235 0.980846 38.9235 1.42123C38.9235 1.70148 38.8968 1.99506 38.8434 2.302C38.7901 2.59559 38.6966 2.89585 38.5632 3.20279C38.4297 3.50972 38.2496 3.80331 38.0227 4.08355ZM44.5575 14.4326C43.6901 14.4326 42.9294 14.2257 42.2755 13.812C41.6349 13.3984 41.1345 12.8178 40.7742 12.0705C40.4272 11.3099 40.2537 10.4157 40.2537 9.38818C40.2537 8.34728 40.4272 7.45316 40.7742 6.70584C41.1345 5.94518 41.6349 5.36467 42.2755 4.96432C42.9294 4.55063 43.6901 4.34378 44.5575 4.34378C45.4383 4.34378 46.1922 4.56397 46.8195 5.00436C47.4467 5.44474 47.867 6.03859 48.0806 6.78591H47.8604V0.820707C47.8604 0.553806 47.9271 0.353631 48.0605 0.220182C48.2073 0.0733872 48.4142 -1.00223e-05 48.6811 -1.00223e-05C48.9346 -1.00223e-05 49.1281 0.0733872 49.2616 0.220182C49.4084 0.353631 49.4818 0.553806 49.4818 0.820707V13.5518C49.4818 13.8187 49.4151 14.0256 49.2816 14.1724C49.1482 14.3192 48.948 14.3926 48.6811 14.3926C48.4275 14.3926 48.2274 14.3192 48.0806 14.1724C47.9471 14.0256 47.8804 13.8187 47.8804 13.5518V11.6502L48.1006 11.9304C47.8871 12.6911 47.46 13.2983 46.8195 13.752C46.1922 14.2057 45.4383 14.4326 44.5575 14.4326ZM44.8978 13.1315C45.4983 13.1315 46.0254 12.9847 46.4792 12.6911C46.9329 12.3975 47.2799 11.9704 47.5201 11.4099C47.7736 10.8495 47.9004 10.1755 47.9004 9.38818C47.9004 8.17379 47.6268 7.24632 47.0797 6.60576C46.5459 5.9652 45.8186 5.64492 44.8978 5.64492C44.2839 5.64492 43.7501 5.79171 43.2964 6.0853C42.856 6.36555 42.509 6.78591 42.2555 7.3464C42.0153 7.89355 41.8952 8.57414 41.8952 9.38818C41.8952 10.5892 42.1687 11.5167 42.7159 12.1706C43.263 12.8112 43.9903 13.1315 44.8978 13.1315ZM60.6479 14.4326C59.6871 14.4326 58.9531 14.139 58.446 13.5518C57.9389 12.9646 57.6854 12.1239 57.6854 11.0296V0.820707C57.6854 0.553806 57.7521 0.353631 57.8855 0.220182C58.019 0.0733872 58.2192 -1.00223e-05 58.4861 -1.00223e-05C58.7396 -1.00223e-05 58.9398 0.0733872 59.0866 0.220182C59.2334 0.353631 59.3068 0.553806 59.3068 0.820707V10.9095C59.3068 11.6301 59.4469 12.1706 59.7271 12.5309C60.0207 12.8779 60.4478 13.0514 61.0083 13.0514C61.1284 13.0514 61.2351 13.0447 61.3285 13.0314C61.4219 13.018 61.5154 13.0113 61.6088 13.0113C61.7556 12.998 61.8557 13.0314 61.909 13.1114C61.9758 13.1915 62.0091 13.3516 62.0091 13.5919C62.0091 13.8321 61.9557 14.0122 61.849 14.1323C61.7422 14.2524 61.5687 14.3325 61.3285 14.3725C61.2218 14.3859 61.1083 14.3992 60.9882 14.4126C60.8681 14.4259 60.7547 14.4326 60.6479 14.4326ZM64.4092 14.3525C64.1423 14.3525 63.9421 14.2791 63.8087 14.1323C63.6752 13.9722 63.6085 13.752 63.6085 13.4717V5.2846C63.6085 5.00436 63.6752 4.79084 63.8087 4.64404C63.9421 4.49725 64.1423 4.42385 64.4092 4.42385C64.6627 4.42385 64.8629 4.49725 65.0097 4.64404C65.1565 4.79084 65.2299 5.00436 65.2299 5.2846V13.4717C65.2299 13.752 65.1565 13.9722 65.0097 14.1323C64.8763 14.2791 64.6761 14.3525 64.4092 14.3525ZM64.4092 2.18189C64.0756 2.18189 63.8153 2.09515 63.6285 1.92167C63.4417 1.73484 63.3483 1.48795 63.3483 1.18102C63.3483 0.860741 63.4417 0.620531 63.6285 0.460392C63.8153 0.286907 64.0756 0.200165 64.4092 0.200165C64.7562 0.200165 65.0164 0.286907 65.1899 0.460392C65.3767 0.620531 65.4701 0.860741 65.4701 1.18102C65.4701 1.48795 65.3767 1.73484 65.1899 1.92167C65.0164 2.09515 64.7562 2.18189 64.4092 2.18189ZM69.0617 14.3926C68.7948 14.3926 68.5946 14.3192 68.4612 14.1724C68.3277 14.0256 68.261 13.8187 68.261 13.5518V0.820707C68.261 0.553806 68.3277 0.353631 68.4612 0.220182C68.5946 0.0733872 68.7948 -1.00223e-05 69.0617 -1.00223e-05C69.3152 -1.00223e-05 69.5154 0.0733872 69.6622 0.220182C69.809 0.353631 69.8824 0.553806 69.8824 0.820707V8.84771H69.9224L74.026 4.92429C74.2129 4.7508 74.373 4.61735 74.5064 4.52394C74.6532 4.43052 74.8467 4.38382 75.0869 4.38382C75.3005 4.38382 75.4673 4.44387 75.5874 4.56397C75.7075 4.67073 75.7609 4.81086 75.7475 4.98434C75.7475 5.14448 75.6675 5.31797 75.5073 5.5048L71.1435 9.64841V8.76764L75.8876 13.2315C76.0745 13.4184 76.1679 13.5985 76.1679 13.772C76.1679 13.9455 76.1012 14.0923 75.9677 14.2124C75.8476 14.3325 75.6875 14.3926 75.4873 14.3926C75.2471 14.3926 75.0536 14.3458 74.9068 14.2524C74.76 14.1457 74.5798 13.9922 74.3663 13.792L69.9224 9.68845H69.8824V13.5518C69.8824 14.1123 69.6088 14.3926 69.0617 14.3926ZM82.3994 14.4326C81.3719 14.4326 80.4844 14.2324 79.7371 13.8321C79.0031 13.4184 78.4293 12.8379 78.0156 12.0905C77.6152 11.3432 77.4151 10.4491 77.4151 9.4082C77.4151 8.39398 77.6152 7.51321 78.0156 6.7659C78.4159 6.00523 78.9631 5.41138 79.657 4.98434C80.3643 4.5573 81.1784 4.34378 82.0992 4.34378C82.7531 4.34378 83.3402 4.45721 83.8607 4.68408C84.3812 4.8976 84.8215 5.21121 85.1819 5.6249C85.5555 6.03859 85.8358 6.53903 86.0226 7.12621C86.2228 7.71339 86.3228 8.37397 86.3228 9.10794C86.3228 9.32146 86.2628 9.4816 86.1427 9.58836C86.0226 9.68177 85.8491 9.72848 85.6222 9.72848H78.6562V8.66756H85.2419L84.9216 8.92778C84.9216 8.20715 84.8149 7.59996 84.6013 7.10619C84.3878 6.59908 84.0742 6.21208 83.6605 5.94518C83.2602 5.67828 82.7531 5.54483 82.1392 5.54483C81.4586 5.54483 80.8781 5.70497 80.3977 6.02525C79.9306 6.33218 79.577 6.7659 79.3368 7.32639C79.0965 7.87353 78.9764 8.51409 78.9764 9.24806V9.36817C78.9764 10.5959 79.27 11.5301 79.8572 12.1706C80.4577 12.8112 81.3051 13.1315 82.3994 13.1315C82.8532 13.1315 83.3002 13.0714 83.7406 12.9513C84.1943 12.8312 84.6347 12.631 85.0617 12.3508C85.2486 12.2307 85.4154 12.1773 85.5622 12.1906C85.7223 12.1906 85.8491 12.2373 85.9425 12.3308C86.0359 12.4108 86.096 12.5176 86.1227 12.651C86.1627 12.7711 86.1494 12.9046 86.0826 13.0514C86.0293 13.1982 85.9158 13.325 85.7423 13.4317C85.302 13.752 84.7815 13.9989 84.181 14.1724C83.5805 14.3458 82.9866 14.4326 82.3994 14.4326ZM97.7336 14.4326C96.9729 14.4326 96.3324 14.2991 95.8119 14.0322C95.3048 13.752 94.9245 13.3516 94.6709 12.8312C94.4174 12.2974 94.2906 11.6502 94.2906 10.8895V5.78504H92.9494C92.7225 5.78504 92.5491 5.73166 92.429 5.6249C92.3089 5.50479 92.2488 5.34466 92.2488 5.14448C92.2488 4.94431 92.3089 4.79084 92.429 4.68408C92.5491 4.57732 92.7225 4.52394 92.9494 4.52394H94.2906V2.22193C94.2906 1.95503 94.364 1.75485 94.5108 1.6214C94.6576 1.47461 94.8577 1.40121 95.1113 1.40121C95.3649 1.40121 95.5584 1.47461 95.6918 1.6214C95.8386 1.75485 95.912 1.95503 95.912 2.22193V4.52394H98.4342C98.6611 4.52394 98.8346 4.57732 98.9547 4.68408C99.0748 4.79084 99.1348 4.94431 99.1348 5.14448C99.1348 5.34466 99.0748 5.50479 98.9547 5.6249C98.8346 5.73166 98.6611 5.78504 98.4342 5.78504H95.912V10.7294C95.912 11.49 96.0721 12.0705 96.3924 12.4709C96.7127 12.8579 97.2332 13.0514 97.9538 13.0514C98.2073 13.0514 98.4209 13.0247 98.5943 12.9713C98.7812 12.9179 98.9346 12.8912 99.0547 12.8912C99.1748 12.8779 99.2749 12.9179 99.355 13.0113C99.4351 13.1048 99.4751 13.2649 99.4751 13.4918C99.4751 13.6519 99.4417 13.7987 99.375 13.9322C99.3216 14.0656 99.2216 14.159 99.0748 14.2124C98.9146 14.2658 98.7011 14.3125 98.4342 14.3525C98.1806 14.4059 97.9471 14.4326 97.7336 14.4326ZM104.774 14.4326C103.827 14.4326 103.006 14.2257 102.312 13.812C101.618 13.3984 101.078 12.8178 100.691 12.0705C100.317 11.3099 100.13 10.4157 100.13 9.38818C100.13 8.61418 100.237 7.92024 100.45 7.30637C100.664 6.67915 100.978 6.14535 101.391 5.70497C101.805 5.26459 102.292 4.93096 102.853 4.7041C103.426 4.46389 104.067 4.34378 104.774 4.34378C105.722 4.34378 106.542 4.55063 107.236 4.96432C107.93 5.37802 108.464 5.9652 108.838 6.72586C109.225 7.47318 109.418 8.36062 109.418 9.38818C109.418 10.1622 109.312 10.8561 109.098 11.47C108.885 12.0839 108.571 12.6177 108.157 13.0714C107.744 13.5118 107.25 13.8521 106.676 14.0923C106.115 14.3192 105.482 14.4326 104.774 14.4326ZM104.774 13.1315C105.375 13.1315 105.902 12.9847 106.356 12.6911C106.809 12.3975 107.156 11.9704 107.397 11.4099C107.65 10.8495 107.777 10.1755 107.777 9.38818C107.777 8.17379 107.503 7.24632 106.956 6.60576C106.422 5.9652 105.695 5.64492 104.774 5.64492C104.16 5.64492 103.627 5.79171 103.173 6.0853C102.732 6.36555 102.386 6.78591 102.132 7.3464C101.892 7.89355 101.772 8.57414 101.772 9.38818C101.772 10.5892 102.045 11.5167 102.592 12.1706C103.14 12.8112 103.867 13.1315 104.774 13.1315ZM120.457 14.4326C119.67 14.4326 119.016 14.2925 118.496 14.0122C117.989 13.7186 117.602 13.2849 117.335 12.7111C117.081 12.1373 116.954 11.4233 116.954 10.5692V5.20453C116.954 4.92429 117.021 4.71744 117.155 4.58399C117.301 4.45054 117.502 4.38382 117.755 4.38382C118.022 4.38382 118.222 4.45054 118.356 4.58399C118.502 4.71744 118.576 4.92429 118.576 5.20453V10.5492C118.576 11.4033 118.749 12.0438 119.096 12.4709C119.457 12.8846 120.017 13.0914 120.778 13.0914C121.605 13.0914 122.279 12.8112 122.8 12.2507C123.32 11.6902 123.58 10.9562 123.58 10.0488V5.20453C123.58 4.92429 123.647 4.71744 123.78 4.58399C123.927 4.45054 124.134 4.38382 124.401 4.38382C124.654 4.38382 124.848 4.45054 124.981 4.58399C125.128 4.71744 125.202 4.92429 125.202 5.20453V13.5518C125.202 14.1123 124.941 14.3926 124.421 14.3926C124.167 14.3926 123.967 14.3192 123.82 14.1724C123.687 14.0256 123.62 13.8187 123.62 13.5518V11.7302L123.88 12.0105C123.614 12.7978 123.173 13.3984 122.559 13.812C121.959 14.2257 121.258 14.4326 120.457 14.4326ZM129.036 14.3926C128.769 14.3926 128.569 14.3192 128.435 14.1724C128.302 14.0256 128.235 13.8187 128.235 13.5518V5.20453C128.235 4.93763 128.302 4.73746 128.435 4.60401C128.569 4.45721 128.762 4.38382 129.016 4.38382C129.269 4.38382 129.463 4.45721 129.596 4.60401C129.743 4.73746 129.817 4.93763 129.817 5.20453V6.92604L129.596 6.68583C129.877 5.91182 130.33 5.33131 130.958 4.94431C131.598 4.54396 132.332 4.34378 133.16 4.34378C133.934 4.34378 134.574 4.4839 135.081 4.76415C135.602 5.04439 135.989 5.47143 136.242 6.04527C136.496 6.60576 136.623 7.31971 136.623 8.18714V13.5518C136.623 13.8187 136.549 14.0256 136.402 14.1724C136.269 14.3192 136.075 14.3926 135.822 14.3926C135.555 14.3926 135.348 14.3192 135.201 14.1724C135.068 14.0256 135.001 13.8187 135.001 13.5518V8.28722C135.001 7.37976 134.821 6.71919 134.461 6.30549C134.114 5.87845 133.553 5.66493 132.779 5.66493C131.885 5.66493 131.171 5.94518 130.637 6.50567C130.117 7.05281 129.857 7.78679 129.857 8.70759V13.5518C129.857 14.1123 129.583 14.3926 129.036 14.3926ZM143.316 14.4326C142.448 14.4326 141.687 14.2257 141.034 13.812C140.393 13.3984 139.893 12.8178 139.532 12.0705C139.185 11.3099 139.012 10.4157 139.012 9.38818C139.012 8.34728 139.185 7.45316 139.532 6.70584C139.893 5.94518 140.393 5.36467 141.034 4.96432C141.687 4.55063 142.448 4.34378 143.316 4.34378C144.196 4.34378 144.95 4.56397 145.578 5.00436C146.205 5.44474 146.625 6.03859 146.839 6.78591H146.618V0.820707C146.618 0.553806 146.685 0.353631 146.819 0.220182C146.965 0.0733872 147.172 -1.00223e-05 147.439 -1.00223e-05C147.693 -1.00223e-05 147.886 0.0733872 148.02 0.220182C148.166 0.353631 148.24 0.553806 148.24 0.820707V13.5518C148.24 13.8187 148.173 14.0256 148.04 14.1724C147.906 14.3192 147.706 14.3926 147.439 14.3926C147.186 14.3926 146.985 14.3192 146.839 14.1724C146.705 14.0256 146.638 13.8187 146.638 13.5518V11.6502L146.859 11.9304C146.645 12.6911 146.218 13.2983 145.578 13.752C144.95 14.2057 144.196 14.4326 143.316 14.4326ZM143.656 13.1315C144.256 13.1315 144.784 12.9847 145.237 12.6911C145.691 12.3975 146.038 11.9704 146.278 11.4099C146.532 10.8495 146.658 10.1755 146.658 9.38818C146.658 8.17379 146.385 7.24632 145.838 6.60576C145.304 5.9652 144.577 5.64492 143.656 5.64492C143.042 5.64492 142.508 5.79171 142.054 6.0853C141.614 6.36555 141.267 6.78591 141.014 7.3464C140.773 7.89355 140.653 8.57414 140.653 9.38818C140.653 10.5892 140.927 11.5167 141.474 12.1706C142.021 12.8112 142.748 13.1315 143.656 13.1315ZM155.667 14.4326C154.639 14.4326 153.751 14.2324 153.004 13.8321C152.27 13.4184 151.696 12.8379 151.283 12.0905C150.882 11.3432 150.682 10.4491 150.682 9.4082C150.682 8.39398 150.882 7.51321 151.283 6.7659C151.683 6.00523 152.23 5.41138 152.924 4.98434C153.631 4.5573 154.445 4.34378 155.366 4.34378C156.02 4.34378 156.607 4.45721 157.128 4.68408C157.648 4.8976 158.089 5.21121 158.449 5.6249C158.823 6.03859 159.103 6.53903 159.29 7.12621C159.49 7.71339 159.59 8.37397 159.59 9.10794C159.59 9.32146 159.53 9.4816 159.41 9.58836C159.29 9.68177 159.116 9.72848 158.889 9.72848H151.923V8.66756H158.509L158.189 8.92778C158.189 8.20715 158.082 7.59996 157.868 7.10619C157.655 6.59908 157.341 6.21208 156.928 5.94518C156.527 5.67828 156.02 5.54483 155.406 5.54483C154.726 5.54483 154.145 5.70497 153.665 6.02525C153.198 6.33218 152.844 6.7659 152.604 7.32639C152.364 7.87353 152.244 8.51409 152.244 9.24806V9.36817C152.244 10.5959 152.537 11.5301 153.124 12.1706C153.725 12.8112 154.572 13.1315 155.667 13.1315C156.12 13.1315 156.567 13.0714 157.008 12.9513C157.461 12.8312 157.902 12.631 158.329 12.3508C158.516 12.2307 158.682 12.1773 158.829 12.1906C158.989 12.1906 159.116 12.2373 159.21 12.3308C159.303 12.4108 159.363 12.5176 159.39 12.651C159.43 12.7711 159.416 12.9046 159.35 13.0514C159.296 13.1982 159.183 13.325 159.009 13.4317C158.569 13.752 158.049 13.9989 157.448 14.1724C156.848 14.3458 156.254 14.4326 155.667 14.4326ZM162.757 14.3926C162.49 14.3926 162.283 14.3192 162.137 14.1724C162.003 14.0256 161.937 13.8187 161.937 13.5518V5.20453C161.937 4.93763 162.003 4.73746 162.137 4.60401C162.27 4.45721 162.464 4.38382 162.717 4.38382C162.971 4.38382 163.164 4.45721 163.298 4.60401C163.444 4.73746 163.518 4.93763 163.518 5.20453V6.82595H163.318C163.531 6.03859 163.938 5.4314 164.539 5.00436C165.139 4.57732 165.88 4.35045 166.761 4.32376C166.961 4.31042 167.121 4.35713 167.241 4.46389C167.361 4.5573 167.428 4.72411 167.441 4.96432C167.455 5.19119 167.401 5.37135 167.281 5.5048C167.161 5.63824 166.974 5.71831 166.721 5.745L166.4 5.78504C165.493 5.86511 164.792 6.1587 164.299 6.66581C163.818 7.15957 163.578 7.84017 163.578 8.70759V13.5518C163.578 13.8187 163.505 14.0256 163.358 14.1724C163.224 14.3192 163.024 14.3926 162.757 14.3926ZM172.296 14.4326C171.695 14.4326 171.088 14.3592 170.474 14.2124C169.874 14.0656 169.313 13.812 168.793 13.4517C168.659 13.3583 168.566 13.2516 168.513 13.1315C168.459 12.998 168.439 12.8712 168.453 12.7511C168.479 12.6177 168.533 12.5042 168.613 12.4108C168.706 12.3174 168.813 12.264 168.933 12.2507C169.066 12.224 169.213 12.2507 169.373 12.3308C169.894 12.651 170.394 12.8779 170.875 13.0113C171.368 13.1315 171.855 13.1915 172.336 13.1915C173.097 13.1915 173.67 13.0514 174.057 12.7711C174.444 12.4909 174.638 12.1106 174.638 11.6301C174.638 11.2565 174.511 10.9629 174.258 10.7494C174.004 10.5225 173.604 10.349 173.057 10.2289L171.235 9.82857C170.394 9.65508 169.767 9.35482 169.353 8.92778C168.953 8.50074 168.753 7.94693 168.753 7.26633C168.753 6.66581 168.906 6.15203 169.213 5.72499C169.533 5.2846 169.981 4.94431 170.554 4.7041C171.128 4.46389 171.795 4.34378 172.556 4.34378C173.143 4.34378 173.697 4.42385 174.218 4.58399C174.751 4.73079 175.232 4.971 175.659 5.30462C175.792 5.39803 175.879 5.51147 175.919 5.64492C175.972 5.76502 175.979 5.8918 175.939 6.02525C175.912 6.14535 175.852 6.25211 175.759 6.34553C175.665 6.4256 175.552 6.47231 175.419 6.48565C175.285 6.499 175.145 6.45896 174.998 6.36555C174.598 6.09865 174.191 5.90514 173.777 5.78504C173.363 5.65159 172.956 5.58486 172.556 5.58486C171.809 5.58486 171.242 5.73166 170.855 6.02525C170.468 6.31884 170.274 6.70584 170.274 7.18626C170.274 7.55992 170.394 7.86686 170.634 8.10707C170.875 8.34728 171.248 8.52076 171.755 8.62752L173.577 9.00785C174.444 9.19468 175.092 9.49494 175.519 9.90864C175.959 10.309 176.179 10.8561 176.179 11.5501C176.179 12.4308 175.826 13.1315 175.118 13.6519C174.411 14.1724 173.47 14.4326 172.296 14.4326ZM182.456 14.4326C181.695 14.4326 181.055 14.2991 180.534 14.0322C180.027 13.752 179.647 13.3516 179.393 12.8312C179.14 12.2974 179.013 11.6502 179.013 10.8895V5.78504H177.672C177.445 5.78504 177.271 5.73166 177.151 5.6249C177.031 5.50479 176.971 5.34466 176.971 5.14448C176.971 4.94431 177.031 4.79084 177.151 4.68408C177.271 4.57732 177.445 4.52394 177.672 4.52394H179.013V2.22193C179.013 1.95503 179.086 1.75485 179.233 1.6214C179.38 1.47461 179.58 1.40121 179.834 1.40121C180.087 1.40121 180.281 1.47461 180.414 1.6214C180.561 1.75485 180.634 1.95503 180.634 2.22193V4.52394H183.157C183.383 4.52394 183.557 4.57732 183.677 4.68408C183.797 4.79084 183.857 4.94431 183.857 5.14448C183.857 5.34466 183.797 5.50479 183.677 5.6249C183.557 5.73166 183.383 5.78504 183.157 5.78504H180.634V10.7294C180.634 11.49 180.795 12.0705 181.115 12.4709C181.435 12.8579 181.956 13.0514 182.676 13.0514C182.93 13.0514 183.143 13.0247 183.317 12.9713C183.504 12.9179 183.657 12.8912 183.777 12.8912C183.897 12.8779 183.997 12.9179 184.077 13.0113C184.157 13.1048 184.198 13.2649 184.198 13.4918C184.198 13.6519 184.164 13.7987 184.097 13.9322C184.044 14.0656 183.944 14.159 183.797 14.2124C183.637 14.2658 183.423 14.3125 183.157 14.3525C182.903 14.4059 182.67 14.4326 182.456 14.4326ZM188.614 14.4326C187.946 14.4326 187.346 14.3058 186.812 14.0523C186.292 13.7854 185.878 13.425 185.571 12.9713C185.264 12.5176 185.11 12.0105 185.11 11.45C185.11 10.7294 185.291 10.1622 185.651 9.7485C186.025 9.3348 186.632 9.04122 187.473 8.86773C188.327 8.69425 189.488 8.6075 190.956 8.6075H191.856V9.66843H190.976C189.895 9.66843 189.041 9.72181 188.413 9.82857C187.8 9.92198 187.366 10.0888 187.112 10.329C186.872 10.5692 186.752 10.9095 186.752 11.3499C186.752 11.897 186.939 12.3441 187.312 12.6911C187.699 13.038 188.22 13.2115 188.874 13.2115C189.408 13.2115 189.875 13.0847 190.275 12.8312C190.689 12.5776 191.009 12.2307 191.236 11.7903C191.476 11.3499 191.596 10.8428 191.596 10.269V7.98696C191.596 7.15957 191.429 6.56572 191.096 6.20541C190.762 5.83175 190.215 5.64492 189.454 5.64492C188.987 5.64492 188.52 5.70497 188.053 5.82507C187.586 5.94518 187.092 6.13868 186.572 6.40558C186.385 6.499 186.225 6.53236 186.091 6.50567C185.958 6.46563 185.851 6.39224 185.771 6.28548C185.691 6.17872 185.644 6.05861 185.631 5.92516C185.618 5.77837 185.644 5.63824 185.711 5.5048C185.791 5.37135 185.911 5.26459 186.071 5.18452C186.659 4.89093 187.239 4.67741 187.813 4.54396C188.387 4.41051 188.934 4.34378 189.454 4.34378C190.295 4.34378 190.989 4.4839 191.536 4.76415C192.083 5.03105 192.49 5.44474 192.757 6.00523C193.024 6.55238 193.158 7.25966 193.158 8.12708V13.5518C193.158 13.8187 193.091 14.0256 192.957 14.1724C192.837 14.3192 192.657 14.3926 192.417 14.3926C192.163 14.3926 191.97 14.3192 191.836 14.1724C191.703 14.0256 191.636 13.8187 191.636 13.5518V11.9905H191.816C191.71 12.4976 191.503 12.9313 191.196 13.2916C190.902 13.6519 190.535 13.9322 190.095 14.1323C189.654 14.3325 189.161 14.4326 188.614 14.4326ZM196.966 14.3926C196.699 14.3926 196.499 14.3192 196.366 14.1724C196.232 14.0256 196.166 13.8187 196.166 13.5518V5.20453C196.166 4.93763 196.232 4.73746 196.366 4.60401C196.499 4.45721 196.693 4.38382 196.946 4.38382C197.2 4.38382 197.393 4.45721 197.527 4.60401C197.674 4.73746 197.747 4.93763 197.747 5.20453V6.92604L197.527 6.68583C197.807 5.91182 198.261 5.33131 198.888 4.94431C199.529 4.54396 200.263 4.34378 201.09 4.34378C201.864 4.34378 202.504 4.4839 203.012 4.76415C203.532 5.04439 203.919 5.47143 204.173 6.04527C204.426 6.60576 204.553 7.31971 204.553 8.18714V13.5518C204.553 13.8187 204.48 14.0256 204.333 14.1724C204.199 14.3192 204.006 14.3926 203.752 14.3926C203.485 14.3926 203.278 14.3192 203.132 14.1724C202.998 14.0256 202.932 13.8187 202.932 13.5518V8.28722C202.932 7.37976 202.751 6.71919 202.391 6.30549C202.044 5.87845 201.484 5.66493 200.71 5.66493C199.815 5.66493 199.102 5.94518 198.568 6.50567C198.047 7.05281 197.787 7.78679 197.787 8.70759V13.5518C197.787 14.1123 197.513 14.3926 196.966 14.3926ZM211.246 14.4326C210.379 14.4326 209.618 14.2257 208.964 13.812C208.323 13.3984 207.823 12.8178 207.463 12.0705C207.116 11.3099 206.942 10.4157 206.942 9.38818C206.942 8.34728 207.116 7.45316 207.463 6.70584C207.823 5.94518 208.323 5.36467 208.964 4.96432C209.618 4.55063 210.379 4.34378 211.246 4.34378C212.127 4.34378 212.881 4.56397 213.508 5.00436C214.135 5.44474 214.556 6.03859 214.769 6.78591H214.549V0.820707C214.549 0.553806 214.616 0.353631 214.749 0.220182C214.896 0.0733872 215.103 -1.00223e-05 215.37 -1.00223e-05C215.623 -1.00223e-05 215.817 0.0733872 215.95 0.220182C216.097 0.353631 216.17 0.553806 216.17 0.820707V13.5518C216.17 13.8187 216.104 14.0256 215.97 14.1724C215.837 14.3192 215.636 14.3926 215.37 14.3926C215.116 14.3926 214.916 14.3192 214.769 14.1724C214.636 14.0256 214.569 13.8187 214.569 13.5518V11.6502L214.789 11.9304C214.576 12.6911 214.148 13.2983 213.508 13.752C212.881 14.2057 212.127 14.4326 211.246 14.4326ZM211.586 13.1315C212.187 13.1315 212.714 12.9847 213.168 12.6911C213.621 12.3975 213.968 11.9704 214.209 11.4099C214.462 10.8495 214.589 10.1755 214.589 9.38818C214.589 8.17379 214.315 7.24632 213.768 6.60576C213.234 5.9652 212.507 5.64492 211.586 5.64492C210.972 5.64492 210.439 5.79171 209.985 6.0853C209.544 6.36555 209.198 6.78591 208.944 7.3464C208.704 7.89355 208.584 8.57414 208.584 9.38818C208.584 10.5892 208.857 11.5167 209.404 12.1706C209.951 12.8112 210.679 13.1315 211.586 13.1315ZM226.536 17.9957C226.336 17.9957 226.175 17.9423 226.055 17.8356C225.935 17.7288 225.862 17.582 225.835 17.3952C225.822 17.2217 225.855 17.0415 225.935 16.8547L227.316 13.752V14.4526L223.473 5.52481C223.393 5.32464 223.366 5.13781 223.393 4.96432C223.42 4.79084 223.5 4.65072 223.633 4.54396C223.767 4.4372 223.953 4.38382 224.194 4.38382C224.407 4.38382 224.574 4.43052 224.694 4.52394C224.814 4.61735 224.921 4.78417 225.014 5.02438L228.297 13.0714H227.757L231.08 5.02438C231.186 4.78417 231.3 4.61735 231.42 4.52394C231.54 4.43052 231.714 4.38382 231.94 4.38382C232.154 4.38382 232.314 4.4372 232.421 4.54396C232.541 4.65072 232.608 4.79084 232.621 4.96432C232.648 5.12446 232.621 5.30462 232.541 5.5048L227.416 17.3551C227.31 17.5953 227.19 17.7622 227.056 17.8556C226.936 17.949 226.763 17.9957 226.536 17.9957ZM238.563 14.4326C237.615 14.4326 236.795 14.2257 236.101 13.812C235.407 13.3984 234.866 12.8178 234.479 12.0705C234.106 11.3099 233.919 10.4157 233.919 9.38818C233.919 8.61418 234.026 7.92024 234.239 7.30637C234.453 6.67915 234.766 6.14535 235.18 5.70497C235.594 5.26459 236.081 4.93096 236.641 4.7041C237.215 4.46389 237.856 4.34378 238.563 4.34378C239.51 4.34378 240.331 4.55063 241.025 4.96432C241.719 5.37802 242.253 5.9652 242.626 6.72586C243.013 7.47318 243.207 8.36062 243.207 9.38818C243.207 10.1622 243.1 10.8561 242.887 11.47C242.673 12.0839 242.36 12.6177 241.946 13.0714C241.532 13.5118 241.038 13.8521 240.465 14.0923C239.904 14.3192 239.27 14.4326 238.563 14.4326ZM238.563 13.1315C239.163 13.1315 239.691 12.9847 240.144 12.6911C240.598 12.3975 240.945 11.9704 241.185 11.4099C241.439 10.8495 241.566 10.1755 241.566 9.38818C241.566 8.17379 241.292 7.24632 240.745 6.60576C240.211 5.9652 239.484 5.64492 238.563 5.64492C237.949 5.64492 237.415 5.79171 236.962 6.0853C236.521 6.36555 236.174 6.78591 235.921 7.3464C235.68 7.89355 235.56 8.57414 235.56 9.38818C235.56 10.5892 235.834 11.5167 236.381 12.1706C236.928 12.8112 237.655 13.1315 238.563 13.1315ZM249.085 14.4326C248.298 14.4326 247.644 14.2925 247.124 14.0122C246.617 13.7186 246.23 13.2849 245.963 12.7111C245.709 12.1373 245.582 11.4233 245.582 10.5692V5.20453C245.582 4.92429 245.649 4.71744 245.783 4.58399C245.929 4.45054 246.129 4.38382 246.383 4.38382C246.65 4.38382 246.85 4.45054 246.984 4.58399C247.13 4.71744 247.204 4.92429 247.204 5.20453V10.5492C247.204 11.4033 247.377 12.0438 247.724 12.4709C248.085 12.8846 248.645 13.0914 249.406 13.0914C250.233 13.0914 250.907 12.8112 251.427 12.2507C251.948 11.6902 252.208 10.9562 252.208 10.0488V5.20453C252.208 4.92429 252.275 4.71744 252.408 4.58399C252.555 4.45054 252.762 4.38382 253.029 4.38382C253.282 4.38382 253.476 4.45054 253.609 4.58399C253.756 4.71744 253.83 4.92429 253.83 5.20453V13.5518C253.83 14.1123 253.569 14.3926 253.049 14.3926C252.795 14.3926 252.595 14.3192 252.448 14.1724C252.315 14.0256 252.248 13.8187 252.248 13.5518V11.7302L252.508 12.0105C252.241 12.7978 251.801 13.3984 251.187 13.812C250.587 14.2257 249.886 14.4326 249.085 14.4326ZM257.684 14.3926C257.417 14.3926 257.21 14.3192 257.063 14.1724C256.93 14.0256 256.863 13.8187 256.863 13.5518V5.20453C256.863 4.93763 256.93 4.73746 257.063 4.60401C257.197 4.45721 257.39 4.38382 257.644 4.38382C257.897 4.38382 258.091 4.45721 258.224 4.60401C258.371 4.73746 258.444 4.93763 258.444 5.20453V6.82595H258.244C258.458 6.03859 258.865 5.4314 259.465 5.00436C260.066 4.57732 260.807 4.35045 261.687 4.32376C261.888 4.31042 262.048 4.35713 262.168 4.46389C262.288 4.5573 262.355 4.72411 262.368 4.96432C262.381 5.19119 262.328 5.37135 262.208 5.5048C262.088 5.63824 261.901 5.71831 261.647 5.745L261.327 5.78504C260.42 5.86511 259.719 6.1587 259.225 6.66581C258.745 7.15957 258.505 7.84017 258.505 8.70759V13.5518C258.505 13.8187 258.431 14.0256 258.284 14.1724C258.151 14.3192 257.951 14.3926 257.684 14.3926ZM0.984686 45.0193C0.717786 45.0193 0.517611 44.9459 0.384161 44.7991C0.250712 44.6656 0.183987 44.4655 0.183987 44.1986V32.2281C0.183987 31.9612 0.250712 31.761 0.384161 31.6276C0.517611 31.4808 0.711113 31.4074 0.964668 31.4074C1.23157 31.4074 1.43174 31.4808 1.56519 31.6276C1.71199 31.761 1.78538 31.9612 1.78538 32.2281V34.1298L1.56519 33.8495C1.77871 33.0889 2.19908 32.4883 2.82629 32.048C3.46685 31.5942 4.22752 31.3674 5.10829 31.3674C5.97571 31.3674 6.7297 31.5742 7.37026 31.9879C8.02416 32.3883 8.5246 32.9688 8.87157 33.7294C9.23188 34.4768 9.41204 35.3709 9.41204 36.4118C9.41204 37.4393 9.23188 38.3335 8.87157 39.0941C8.5246 39.8414 8.03084 40.4219 7.39028 40.8356C6.74972 41.2493 5.98905 41.4562 5.10829 41.4562C4.22752 41.4562 3.47352 41.236 2.84631 40.7956C2.2191 40.3419 1.79206 39.7413 1.56519 38.994H1.8054V44.1986C1.8054 44.4655 1.732 44.6656 1.58521 44.7991C1.43842 44.9459 1.23824 45.0193 0.984686 45.0193ZM4.76799 40.155C5.38186 40.155 5.90898 40.0082 6.34937 39.7147C6.8031 39.4211 7.15007 38.994 7.39028 38.4335C7.64383 37.873 7.77061 37.1991 7.77061 36.4118C7.77061 35.1974 7.49704 34.2699 6.94989 33.6293C6.41609 32.9888 5.68879 32.6685 4.76799 32.6685C4.16746 32.6685 3.64034 32.8153 3.18661 33.1089C2.73288 33.3891 2.37924 33.8095 2.12568 34.37C1.88547 34.9171 1.76537 35.5977 1.76537 36.4118C1.76537 37.6128 2.03894 38.5403 2.58608 39.1942C3.13323 39.8348 3.86053 40.155 4.76799 40.155ZM16.2382 41.4562C15.2106 41.4562 14.3232 41.256 13.5758 40.8557C12.8419 40.442 12.268 39.8615 11.8543 39.1141C11.454 38.3668 11.2538 37.4727 11.2538 36.4318C11.2538 35.4176 11.454 34.5368 11.8543 33.7895C12.2547 33.0288 12.8018 32.435 13.4958 32.0079C14.203 31.5809 15.0171 31.3674 15.9379 31.3674C16.5918 31.3674 17.179 31.4808 17.6994 31.7077C18.2199 31.9212 18.6603 32.2348 19.0206 32.6485C19.3942 33.0622 19.6745 33.5626 19.8613 34.1498C20.0615 34.737 20.1616 35.3976 20.1616 36.1315C20.1616 36.345 20.1015 36.5052 19.9814 36.6119C19.8613 36.7054 19.6878 36.7521 19.461 36.7521H12.4949V35.6911H19.0806L18.7604 35.9514C18.7604 35.2307 18.6536 34.6235 18.4401 34.1298C18.2266 33.6227 17.913 33.2357 17.4993 32.9688C17.0989 32.7019 16.5918 32.5684 15.9779 32.5684C15.2973 32.5684 14.7168 32.7286 14.2364 33.0488C13.7693 33.3558 13.4157 33.7895 13.1755 34.35C12.9353 34.8971 12.8152 35.5377 12.8152 36.2717V36.3918C12.8152 37.6195 13.1088 38.5536 13.6959 39.1942C14.2965 39.8348 15.1439 40.155 16.2382 40.155C16.6919 40.155 17.1389 40.095 17.5793 39.9749C18.0331 39.8548 18.4734 39.6546 18.9005 39.3744C19.0873 39.2543 19.2541 39.2009 19.4009 39.2142C19.5611 39.2142 19.6878 39.2609 19.7812 39.3543C19.8747 39.4344 19.9347 39.5412 19.9614 39.6746C20.0014 39.7947 19.9881 39.9282 19.9214 40.075C19.868 40.2218 19.7546 40.3485 19.5811 40.4553C19.1407 40.7756 18.6202 41.0225 18.0197 41.1959C17.4192 41.3694 16.8253 41.4562 16.2382 41.4562ZM23.3289 41.4161C23.062 41.4161 22.8551 41.3427 22.7083 41.1959C22.5749 41.0492 22.5082 40.8423 22.5082 40.5754V32.2281C22.5082 31.9612 22.5749 31.761 22.7083 31.6276C22.8418 31.4808 23.0353 31.4074 23.2888 31.4074C23.5424 31.4074 23.7359 31.4808 23.8693 31.6276C24.0161 31.761 24.0895 31.9612 24.0895 32.2281V33.8495H23.8894C24.1029 33.0622 24.5099 32.455 25.1104 32.0279C25.711 31.6009 26.4516 31.374 27.3324 31.3474C27.5325 31.334 27.6927 31.3807 27.8128 31.4875C27.9329 31.5809 27.9996 31.7477 28.013 31.9879C28.0263 32.2148 27.9729 32.3949 27.8528 32.5284C27.7327 32.6618 27.5459 32.7419 27.2923 32.7686L26.9721 32.8086C26.0646 32.8887 25.364 33.1823 24.8702 33.6894C24.3898 34.1832 24.1496 34.8638 24.1496 35.7312V40.5754C24.1496 40.8423 24.0762 41.0492 23.9294 41.1959C23.796 41.3427 23.5958 41.4161 23.3289 41.4161ZM32.8675 41.4562C32.267 41.4562 31.6598 41.3828 31.0459 41.236C30.4454 41.0892 29.8849 40.8356 29.3645 40.4753C29.231 40.3819 29.1376 40.2751 29.0842 40.155C29.0308 40.0216 29.0108 39.8948 29.0242 39.7747C29.0509 39.6413 29.1042 39.5278 29.1843 39.4344C29.2777 39.341 29.3845 39.2876 29.5046 39.2743C29.638 39.2476 29.7848 39.2743 29.945 39.3543C30.4654 39.6746 30.9659 39.9015 31.4463 40.0349C31.94 40.155 32.4271 40.2151 32.9076 40.2151C33.6682 40.2151 34.242 40.075 34.6291 39.7947C35.0161 39.5145 35.2096 39.1342 35.2096 38.6537C35.2096 38.2801 35.0828 37.9865 34.8292 37.773C34.5757 37.5461 34.1753 37.3726 33.6282 37.2525L31.8066 36.8522C30.9659 36.6787 30.3386 36.3784 29.9249 35.9514C29.5246 35.5243 29.3244 34.9705 29.3244 34.2899C29.3244 33.6894 29.4779 33.1756 29.7848 32.7486C30.1051 32.3082 30.5522 31.9679 31.126 31.7277C31.6998 31.4875 32.3671 31.3674 33.1277 31.3674C33.7149 31.3674 34.2687 31.4474 34.7892 31.6076C35.323 31.7544 35.8034 31.9946 36.2305 32.3282C36.3639 32.4216 36.4506 32.5351 36.4907 32.6685C36.5441 32.7886 36.5507 32.9154 36.5107 33.0488C36.484 33.1689 36.424 33.2757 36.3305 33.3691C36.2371 33.4492 36.1237 33.4959 35.9902 33.5092C35.8568 33.5226 35.7167 33.4825 35.5699 33.3891C35.1695 33.1222 34.7625 32.9287 34.3488 32.8086C33.9351 32.6752 33.5281 32.6085 33.1277 32.6085C32.3804 32.6085 31.8133 32.7552 31.4263 33.0488C31.0393 33.3424 30.8458 33.7294 30.8458 34.2099C30.8458 34.5835 30.9659 34.8904 31.2061 35.1307C31.4463 35.3709 31.8199 35.5443 32.327 35.6511L34.1486 36.0314C35.0161 36.2183 35.6633 36.5185 36.0903 36.9322C36.5307 37.3326 36.7509 37.8797 36.7509 38.5737C36.7509 39.4544 36.3973 40.155 35.69 40.6755C34.9827 41.1959 34.0419 41.4562 32.8675 41.4562ZM40.0227 45.0193C39.7558 45.0193 39.5556 44.9459 39.4221 44.7991C39.2887 44.6656 39.222 44.4655 39.222 44.1986V32.2281C39.222 31.9612 39.2887 31.761 39.4221 31.6276C39.5556 31.4808 39.7491 31.4074 40.0027 31.4074C40.2696 31.4074 40.4697 31.4808 40.6032 31.6276C40.75 31.761 40.8234 31.9612 40.8234 32.2281V34.1298L40.6032 33.8495C40.8167 33.0889 41.2371 32.4883 41.8643 32.048C42.5048 31.5942 43.2655 31.3674 44.1463 31.3674C45.0137 31.3674 45.7677 31.5742 46.4082 31.9879C47.0621 32.3883 47.5626 32.9688 47.9096 33.7294C48.2699 34.4768 48.45 35.3709 48.45 36.4118C48.45 37.4393 48.2699 38.3335 47.9096 39.0941C47.5626 39.8414 47.0688 40.4219 46.4283 40.8356C45.7877 41.2493 45.027 41.4562 44.1463 41.4562C43.2655 41.4562 42.5115 41.236 41.8843 40.7956C41.2571 40.3419 40.83 39.7413 40.6032 38.994H40.8434V44.1986C40.8434 44.4655 40.77 44.6656 40.6232 44.7991C40.4764 44.9459 40.2762 45.0193 40.0227 45.0193ZM43.806 40.155C44.4198 40.155 44.947 40.0082 45.3874 39.7147C45.8411 39.4211 46.188 38.994 46.4283 38.4335C46.6818 37.873 46.8086 37.1991 46.8086 36.4118C46.8086 35.1974 46.535 34.2699 45.9879 33.6293C45.4541 32.9888 44.7268 32.6685 43.806 32.6685C43.2054 32.6685 42.6783 32.8153 42.2246 33.1089C41.7709 33.3891 41.4172 33.8095 41.1637 34.37C40.9235 34.9171 40.8033 35.5977 40.8033 36.4118C40.8033 37.6128 41.0769 38.5403 41.6241 39.1942C42.1712 39.8348 42.8985 40.155 43.806 40.155ZM55.2761 41.4562C54.2486 41.4562 53.3611 41.256 52.6138 40.8557C51.8798 40.442 51.306 39.8615 50.8923 39.1141C50.492 38.3668 50.2918 37.4727 50.2918 36.4318C50.2918 35.4176 50.492 34.5368 50.8923 33.7895C51.2927 33.0288 51.8398 32.435 52.5337 32.0079C53.241 31.5809 54.0551 31.3674 54.9759 31.3674C55.6298 31.3674 56.217 31.4808 56.7374 31.7077C57.2579 31.9212 57.6983 32.2348 58.0586 32.6485C58.4322 33.0622 58.7125 33.5626 58.8993 34.1498C59.0995 34.737 59.1996 35.3976 59.1996 36.1315C59.1996 36.345 59.1395 36.5052 59.0194 36.6119C58.8993 36.7054 58.7258 36.7521 58.499 36.7521H51.5329V35.6911H58.1186L57.7983 35.9514C57.7983 35.2307 57.6916 34.6235 57.4781 34.1298C57.2645 33.6227 56.9509 33.2357 56.5372 32.9688C56.1369 32.7019 55.6298 32.5684 55.0159 32.5684C54.3353 32.5684 53.7548 32.7286 53.2744 33.0488C52.8073 33.3558 52.4537 33.7895 52.2135 34.35C51.9733 34.8971 51.8532 35.5377 51.8532 36.2717V36.3918C51.8532 37.6195 52.1467 38.5536 52.7339 39.1942C53.3344 39.8348 54.1819 40.155 55.2761 40.155C55.7299 40.155 56.1769 40.095 56.6173 39.9749C57.071 39.8548 57.5114 39.6546 57.9385 39.3744C58.1253 39.2543 58.2921 39.2009 58.4389 39.2142C58.599 39.2142 58.7258 39.2609 58.8192 39.3543C58.9126 39.4344 58.9727 39.5412 58.9994 39.6746C59.0394 39.7947 59.0261 39.9282 58.9594 40.075C58.906 40.2218 58.7925 40.3485 58.6191 40.4553C58.1787 40.7756 57.6582 41.0225 57.0577 41.1959C56.4572 41.3694 55.8633 41.4562 55.2761 41.4562ZM65.6697 41.4562C64.6956 41.4562 63.8548 41.2427 63.1475 40.8156C62.4403 40.3886 61.8931 39.7947 61.5061 39.0341C61.1324 38.2601 60.9456 37.3659 60.9456 36.3517C60.9456 35.5777 61.0524 34.8838 61.2659 34.2699C61.4794 33.656 61.793 33.1356 62.2067 32.7085C62.6204 32.2682 63.1142 31.9345 63.688 31.7077C64.2752 31.4808 64.9358 31.3674 65.6697 31.3674C66.1502 31.3674 66.6506 31.4408 67.1711 31.5876C67.6915 31.7344 68.1653 31.9879 68.5923 32.3482C68.7257 32.4416 68.8125 32.5551 68.8525 32.6885C68.8926 32.822 68.8926 32.9554 68.8525 33.0889C68.8125 33.209 68.7458 33.3157 68.6523 33.4092C68.5589 33.4892 68.4388 33.5359 68.292 33.5493C68.1586 33.5626 68.0185 33.5159 67.8717 33.4092C67.5247 33.1423 67.1711 32.9554 66.8107 32.8487C66.4504 32.7419 66.1035 32.6885 65.7698 32.6885C65.2494 32.6885 64.7956 32.7753 64.4086 32.9488C64.0216 33.1089 63.6947 33.3424 63.4278 33.6494C63.1609 33.9563 62.954 34.3366 62.8072 34.7904C62.6738 35.2441 62.6071 35.7712 62.6071 36.3717C62.6071 37.5328 62.8806 38.4536 63.4278 39.1342C63.9749 39.8014 64.7556 40.135 65.7698 40.135C66.1035 40.135 66.4438 40.0816 66.7907 39.9749C67.151 39.8681 67.5114 39.6813 67.8717 39.4144C68.0185 39.3076 68.1586 39.2609 68.292 39.2743C68.4255 39.2876 68.5389 39.341 68.6323 39.4344C68.7257 39.5145 68.7858 39.6212 68.8125 39.7547C68.8525 39.8881 68.8525 40.0216 68.8125 40.155C68.7725 40.2751 68.6857 40.3819 68.5523 40.4753C68.1252 40.8223 67.6581 41.0758 67.151 41.236C66.6439 41.3828 66.1502 41.4562 65.6697 41.4562ZM74.7155 41.4562C73.9548 41.4562 73.3142 41.3227 72.7938 41.0558C72.2867 40.7756 71.9063 40.3752 71.6528 39.8548C71.3992 39.321 71.2724 38.6737 71.2724 37.9131V32.8086H69.9313C69.7044 32.8086 69.5309 32.7552 69.4108 32.6485C69.2907 32.5284 69.2307 32.3682 69.2307 32.1681C69.2307 31.9679 69.2907 31.8144 69.4108 31.7077C69.5309 31.6009 69.7044 31.5475 69.9313 31.5475H71.2724V29.2455C71.2724 28.9786 71.3458 28.7784 71.4926 28.645C71.6394 28.4982 71.8396 28.4248 72.0932 28.4248C72.3467 28.4248 72.5402 28.4982 72.6737 28.645C72.8205 28.7784 72.8939 28.9786 72.8939 29.2455V31.5475H75.4161C75.6429 31.5475 75.8164 31.6009 75.9365 31.7077C76.0566 31.8144 76.1167 31.9679 76.1167 32.1681C76.1167 32.3682 76.0566 32.5284 75.9365 32.6485C75.8164 32.7552 75.6429 32.8086 75.4161 32.8086H72.8939V37.7529C72.8939 38.5136 73.054 39.0941 73.3743 39.4945C73.6946 39.8815 74.215 40.075 74.9356 40.075C75.1892 40.075 75.4027 40.0483 75.5762 39.9949C75.763 39.9415 75.9165 39.9148 76.0366 39.9148C76.1567 39.9015 76.2568 39.9415 76.3369 40.0349C76.4169 40.1284 76.457 40.2885 76.457 40.5154C76.457 40.6755 76.4236 40.8223 76.3569 40.9557C76.3035 41.0892 76.2034 41.1826 76.0566 41.236C75.8965 41.2894 75.683 41.3361 75.4161 41.3761C75.1625 41.4295 74.929 41.4562 74.7155 41.4562ZM78.7283 41.3761C78.4614 41.3761 78.2613 41.3027 78.1278 41.1559C77.9944 40.9958 77.9276 40.7756 77.9276 40.4953V32.3082C77.9276 32.0279 77.9944 31.8144 78.1278 31.6676C78.2613 31.5208 78.4614 31.4474 78.7283 31.4474C78.9819 31.4474 79.1821 31.5208 79.3289 31.6676C79.4756 31.8144 79.549 32.0279 79.549 32.3082V40.4953C79.549 40.7756 79.4756 40.9958 79.3289 41.1559C79.1954 41.3027 78.9952 41.3761 78.7283 41.3761ZM78.7283 29.2055C78.3947 29.2055 78.1345 29.1187 77.9476 28.9453C77.7608 28.7584 77.6674 28.5115 77.6674 28.2046C77.6674 27.8843 77.7608 27.6441 77.9476 27.484C78.1345 27.3105 78.3947 27.2238 78.7283 27.2238C79.0753 27.2238 79.3355 27.3105 79.509 27.484C79.6958 27.6441 79.7893 27.8843 79.7893 28.2046C79.7893 28.5115 79.6958 28.7584 79.509 28.9453C79.3355 29.1187 79.0753 29.2055 78.7283 29.2055ZM86.2033 41.4161C85.9764 41.4161 85.7763 41.3561 85.6028 41.236C85.4293 41.1025 85.2825 40.9024 85.1624 40.6355L81.6994 32.5484C81.6059 32.3482 81.5726 32.1614 81.5993 31.9879C81.626 31.8144 81.706 31.6743 81.8395 31.5675C81.9729 31.4608 82.1598 31.4074 82.4 31.4074C82.6135 31.4074 82.7803 31.4541 82.9004 31.5475C83.0205 31.6409 83.1273 31.8078 83.2207 32.048L86.5036 40.075H85.9631L89.306 32.048C89.3994 31.8078 89.5062 31.6409 89.6263 31.5475C89.7464 31.4541 89.9199 31.4074 90.1467 31.4074C90.3603 31.4074 90.5204 31.4608 90.6272 31.5675C90.7473 31.6743 90.814 31.8144 90.8273 31.9879C90.854 32.1481 90.8273 32.3282 90.7473 32.5284L87.2442 40.6355C87.1508 40.9024 87.0107 41.1025 86.8238 41.236C86.6503 41.3561 86.4435 41.4161 86.2033 41.4161ZM97.1291 41.4562C96.1015 41.4562 95.2141 41.256 94.4668 40.8557C93.7328 40.442 93.1589 39.8615 92.7453 39.1141C92.3449 38.3668 92.1447 37.4727 92.1447 36.4318C92.1447 35.4176 92.3449 34.5368 92.7453 33.7895C93.1456 33.0288 93.6927 32.435 94.3867 32.0079C95.094 31.5809 95.908 31.3674 96.8288 31.3674C97.4827 31.3674 98.0699 31.4808 98.5904 31.7077C99.1108 31.9212 99.5512 32.2348 99.9115 32.6485C100.285 33.0622 100.565 33.5626 100.752 34.1498C100.952 34.737 101.053 35.3976 101.053 36.1315C101.053 36.345 100.992 36.5052 100.872 36.6119C100.752 36.7054 100.579 36.7521 100.352 36.7521H93.3858V35.6911H99.9716L99.6513 35.9514C99.6513 35.2307 99.5445 34.6235 99.331 34.1298C99.1175 33.6227 98.8039 33.2357 98.3902 32.9688C97.9898 32.7019 97.4827 32.5684 96.8689 32.5684C96.1883 32.5684 95.6078 32.7286 95.1273 33.0488C94.6603 33.3558 94.3066 33.7895 94.0664 34.35C93.8262 34.8971 93.7061 35.5377 93.7061 36.2717V36.3918C93.7061 37.6195 93.9997 38.5536 94.5869 39.1942C95.1874 39.8348 96.0348 40.155 97.1291 40.155C97.5828 40.155 98.0299 40.095 98.4702 39.9749C98.924 39.8548 99.3644 39.6546 99.7914 39.3744C99.9782 39.2543 100.145 39.2009 100.292 39.2142C100.452 39.2142 100.579 39.2609 100.672 39.3543C100.766 39.4344 100.826 39.5412 100.852 39.6746C100.892 39.7947 100.879 39.9282 100.812 40.075C100.759 40.2218 100.645 40.3485 100.472 40.4553C100.032 40.7756 99.5112 41.0225 98.9106 41.1959C98.3101 41.3694 97.7163 41.4562 97.1291 41.4562ZM109.941 44.8792C109.741 44.8792 109.567 44.8124 109.421 44.679C109.287 44.5455 109.22 44.3787 109.22 44.1786V27.8643C109.22 27.6641 109.287 27.4973 109.421 27.3639C109.567 27.2304 109.741 27.1637 109.941 27.1637H112.663C112.864 27.1637 113.024 27.2238 113.144 27.3439C113.264 27.464 113.324 27.6174 113.324 27.8043C113.324 27.9777 113.264 28.1312 113.144 28.2647C113.024 28.3848 112.864 28.4448 112.663 28.4448H110.842V43.598H112.663C112.864 43.598 113.024 43.6581 113.144 43.7782C113.264 43.9117 113.324 44.0651 113.324 44.2386C113.324 44.4121 113.264 44.5589 113.144 44.679C113.024 44.8124 112.864 44.8792 112.663 44.8792H109.941ZM120.659 41.4562C119.725 41.4562 118.904 41.3361 118.197 41.0959C117.503 40.8423 116.916 40.4753 116.435 39.9949C115.955 39.5011 115.595 38.8939 115.354 38.1733C115.114 37.4527 114.994 36.6253 114.994 35.6911V27.8643C114.994 27.5841 115.061 27.3772 115.194 27.2438C115.341 27.097 115.548 27.0236 115.815 27.0236C116.082 27.0236 116.282 27.097 116.415 27.2438C116.562 27.3772 116.635 27.5841 116.635 27.8643V35.6111C116.635 37.079 116.976 38.18 117.656 38.914C118.337 39.6346 119.338 39.9949 120.659 39.9949C121.98 39.9949 122.974 39.6346 123.642 38.914C124.309 38.18 124.642 37.079 124.642 35.6111V27.8643C124.642 27.5841 124.716 27.3772 124.863 27.2438C125.009 27.097 125.216 27.0236 125.483 27.0236C125.737 27.0236 125.93 27.097 126.064 27.2438C126.211 27.3772 126.284 27.5841 126.284 27.8643V35.6911C126.284 36.9322 126.07 37.9865 125.643 38.8539C125.23 39.7213 124.602 40.3752 123.762 40.8156C122.921 41.2427 121.887 41.4562 120.659 41.4562ZM132.72 41.4562C132.12 41.4562 131.513 41.3828 130.899 41.236C130.298 41.0892 129.738 40.8356 129.217 40.4753C129.084 40.3819 128.99 40.2751 128.937 40.155C128.884 40.0216 128.864 39.8948 128.877 39.7747C128.904 39.6413 128.957 39.5278 129.037 39.4344C129.131 39.341 129.237 39.2876 129.357 39.2743C129.491 39.2476 129.638 39.2743 129.798 39.3543C130.318 39.6746 130.819 39.9015 131.299 40.0349C131.793 40.155 132.28 40.2151 132.76 40.2151C133.521 40.2151 134.095 40.075 134.482 39.7947C134.869 39.5145 135.062 39.1342 135.062 38.6537C135.062 38.2801 134.936 37.9865 134.682 37.773C134.428 37.5461 134.028 37.3726 133.481 37.2525L131.659 36.8522C130.819 36.6787 130.191 36.3784 129.778 35.9514C129.377 35.5243 129.177 34.9705 129.177 34.2899C129.177 33.6894 129.331 33.1756 129.638 32.7486C129.958 32.3082 130.405 31.9679 130.979 31.7277C131.553 31.4875 132.22 31.3674 132.981 31.3674C133.568 31.3674 134.122 31.4474 134.642 31.6076C135.176 31.7544 135.656 31.9946 136.083 32.3282C136.217 32.4216 136.303 32.5351 136.343 32.6685C136.397 32.7886 136.404 32.9154 136.363 33.0488C136.337 33.1689 136.277 33.2757 136.183 33.3691C136.09 33.4492 135.976 33.4959 135.843 33.5092C135.71 33.5226 135.569 33.4825 135.423 33.3891C135.022 33.1222 134.615 32.9287 134.202 32.8086C133.788 32.6752 133.381 32.6085 132.981 32.6085C132.233 32.6085 131.666 32.7552 131.279 33.0488C130.892 33.3424 130.699 33.7294 130.699 34.2099C130.699 34.5835 130.819 34.8904 131.059 35.1307C131.299 35.3709 131.673 35.5443 132.18 35.6511L134.001 36.0314C134.869 36.2183 135.516 36.5185 135.943 36.9322C136.383 37.3326 136.604 37.8797 136.604 38.5737C136.604 39.4544 136.25 40.155 135.543 40.6755C134.835 41.1959 133.895 41.4562 132.72 41.4562ZM143.459 41.4562C142.431 41.4562 141.544 41.256 140.796 40.8557C140.062 40.442 139.488 39.8615 139.075 39.1141C138.674 38.3668 138.474 37.4727 138.474 36.4318C138.474 35.4176 138.674 34.5368 139.075 33.7895C139.475 33.0288 140.022 32.435 140.716 32.0079C141.423 31.5809 142.238 31.3674 143.158 31.3674C143.812 31.3674 144.399 31.4808 144.92 31.7077C145.44 31.9212 145.881 32.2348 146.241 32.6485C146.615 33.0622 146.895 33.5626 147.082 34.1498C147.282 34.737 147.382 35.3976 147.382 36.1315C147.382 36.345 147.322 36.5052 147.202 36.6119C147.082 36.7054 146.908 36.7521 146.681 36.7521H139.715V35.6911H146.301L145.981 35.9514C145.981 35.2307 145.874 34.6235 145.661 34.1298C145.447 33.6227 145.133 33.2357 144.72 32.9688C144.319 32.7019 143.812 32.5684 143.198 32.5684C142.518 32.5684 141.937 32.7286 141.457 33.0488C140.99 33.3558 140.636 33.7895 140.396 34.35C140.156 34.8971 140.036 35.5377 140.036 36.2717V36.3918C140.036 37.6195 140.329 38.5536 140.916 39.1942C141.517 39.8348 142.364 40.155 143.459 40.155C143.912 40.155 144.359 40.095 144.8 39.9749C145.253 39.8548 145.694 39.6546 146.121 39.3744C146.308 39.2543 146.475 39.2009 146.621 39.2142C146.781 39.2142 146.908 39.2609 147.002 39.3543C147.095 39.4344 147.155 39.5412 147.182 39.6746C147.222 39.7947 147.209 39.9282 147.142 40.075C147.088 40.2218 146.975 40.3485 146.801 40.4553C146.361 40.7756 145.841 41.0225 145.24 41.1959C144.64 41.3694 144.046 41.4562 143.459 41.4562ZM150.549 41.4161C150.282 41.4161 150.076 41.3427 149.929 41.1959C149.795 41.0492 149.729 40.8423 149.729 40.5754V32.2281C149.729 31.9612 149.795 31.761 149.929 31.6276C150.062 31.4808 150.256 31.4074 150.509 31.4074C150.763 31.4074 150.956 31.4808 151.09 31.6276C151.237 31.761 151.31 31.9612 151.31 32.2281V33.8495H151.11C151.323 33.0622 151.73 32.455 152.331 32.0279C152.931 31.6009 153.672 31.374 154.553 31.3474C154.753 31.334 154.913 31.3807 155.033 31.4875C155.153 31.5809 155.22 31.7477 155.233 31.9879C155.247 32.2148 155.193 32.3949 155.073 32.5284C154.953 32.6618 154.766 32.7419 154.513 32.7686L154.192 32.8086C153.285 32.8887 152.584 33.1823 152.091 33.6894C151.61 34.1832 151.37 34.8638 151.37 35.7312V40.5754C151.37 40.8423 151.297 41.0492 151.15 41.1959C151.016 41.3427 150.816 41.4161 150.549 41.4161ZM157.964 41.276C157.67 41.276 157.45 41.2093 157.303 41.0758C157.17 40.9291 157.103 40.7355 157.103 40.4953C157.103 40.3485 157.136 40.2084 157.203 40.075C157.283 39.9282 157.39 39.7814 157.523 39.6346L162.007 34.8304C162.688 34.0964 163.175 33.4225 163.469 32.8086C163.775 32.1814 163.929 31.5475 163.929 30.907C163.929 30.1063 163.682 29.4991 163.188 29.0854C162.708 28.6583 162.001 28.4448 161.066 28.4448C160.466 28.4448 159.899 28.5382 159.365 28.7251C158.831 28.9119 158.317 29.1988 157.824 29.5858C157.65 29.7193 157.49 29.7793 157.343 29.766C157.21 29.7526 157.09 29.6992 156.983 29.6058C156.876 29.5124 156.803 29.3923 156.763 29.2455C156.723 29.0987 156.723 28.9519 156.763 28.8051C156.816 28.6583 156.923 28.5249 157.083 28.4048C157.603 27.9777 158.231 27.6374 158.965 27.3839C159.699 27.117 160.446 26.9835 161.207 26.9835C162.154 26.9835 162.955 27.1303 163.609 27.4239C164.263 27.7175 164.756 28.1512 165.09 28.7251C165.424 29.2856 165.59 29.9728 165.59 30.7869C165.59 31.3474 165.497 31.9012 165.31 32.4483C165.137 32.9821 164.863 33.5293 164.489 34.0897C164.129 34.6502 163.655 35.2307 163.068 35.8313L158.804 40.3352V39.8748H165.55C165.804 39.8748 165.991 39.9348 166.111 40.055C166.244 40.1617 166.311 40.3285 166.311 40.5554C166.311 40.7956 166.244 40.9758 166.111 41.0959C165.991 41.216 165.804 41.276 165.55 41.276H157.964ZM168.065 44.8792C167.865 44.8792 167.704 44.8124 167.584 44.679C167.464 44.5589 167.404 44.4121 167.404 44.2386C167.404 44.0651 167.464 43.9117 167.584 43.7782C167.704 43.6581 167.865 43.598 168.065 43.598H169.886V28.4448H168.065C167.865 28.4448 167.704 28.3848 167.584 28.2647C167.464 28.1312 167.404 27.9777 167.404 27.8043C167.404 27.6174 167.464 27.464 167.584 27.3439C167.704 27.2238 167.865 27.1637 168.065 27.1637H170.807C171.007 27.1637 171.174 27.2304 171.308 27.3639C171.441 27.4973 171.508 27.6641 171.508 27.8643V44.1786C171.508 44.3787 171.441 44.5455 171.308 44.679C171.174 44.8124 171.007 44.8792 170.807 44.8792H168.065ZM183.663 41.4562C183.063 41.4562 182.455 41.3828 181.842 41.236C181.241 41.0892 180.681 40.8356 180.16 40.4753C180.027 40.3819 179.933 40.2751 179.88 40.155C179.827 40.0216 179.807 39.8948 179.82 39.7747C179.847 39.6413 179.9 39.5278 179.98 39.4344C180.073 39.341 180.18 39.2876 180.3 39.2743C180.434 39.2476 180.581 39.2743 180.741 39.3543C181.261 39.6746 181.762 39.9015 182.242 40.0349C182.736 40.155 183.223 40.2151 183.703 40.2151C184.464 40.2151 185.038 40.075 185.425 39.7947C185.812 39.5145 186.005 39.1342 186.005 38.6537C186.005 38.2801 185.878 37.9865 185.625 37.773C185.371 37.5461 184.971 37.3726 184.424 37.2525L182.602 36.8522C181.762 36.6787 181.134 36.3784 180.721 35.9514C180.32 35.5243 180.12 34.9705 180.12 34.2899C180.12 33.6894 180.274 33.1756 180.581 32.7486C180.901 32.3082 181.348 31.9679 181.922 31.7277C182.496 31.4875 183.163 31.3674 183.923 31.3674C184.511 31.3674 185.064 31.4474 185.585 31.6076C186.119 31.7544 186.599 31.9946 187.026 32.3282C187.16 32.4216 187.246 32.5351 187.286 32.6685C187.34 32.7886 187.346 32.9154 187.306 33.0488C187.28 33.1689 187.22 33.2757 187.126 33.3691C187.033 33.4492 186.919 33.4959 186.786 33.5092C186.652 33.5226 186.512 33.4825 186.366 33.3891C185.965 33.1222 185.558 32.9287 185.145 32.8086C184.731 32.6752 184.324 32.6085 183.923 32.6085C183.176 32.6085 182.609 32.7552 182.222 33.0488C181.835 33.3424 181.641 33.7294 181.641 34.2099C181.641 34.5835 181.762 34.8904 182.002 35.1307C182.242 35.3709 182.616 35.5443 183.123 35.6511L184.944 36.0314C185.812 36.2183 186.459 36.5185 186.886 36.9322C187.326 37.3326 187.547 37.8797 187.547 38.5737C187.547 39.4544 187.193 40.155 186.486 40.6755C185.778 41.1959 184.838 41.4562 183.663 41.4562ZM194.061 41.4562C193.114 41.4562 192.293 41.2493 191.599 40.8356C190.905 40.4219 190.365 39.8414 189.978 39.0941C189.604 38.3335 189.417 37.4393 189.417 36.4118C189.417 35.6378 189.524 34.9438 189.737 34.33C189.951 33.7027 190.265 33.1689 190.678 32.7286C191.092 32.2882 191.579 31.9545 192.14 31.7277C192.713 31.4875 193.354 31.3674 194.061 31.3674C195.009 31.3674 195.829 31.5742 196.523 31.9879C197.217 32.4016 197.751 32.9888 198.125 33.7494C198.512 34.4968 198.705 35.3842 198.705 36.4118C198.705 37.1858 198.598 37.8797 198.385 38.4936C198.171 39.1075 197.858 39.6413 197.444 40.095C197.03 40.5354 196.537 40.8757 195.963 41.1159C195.402 41.3427 194.768 41.4562 194.061 41.4562ZM194.061 40.155C194.662 40.155 195.189 40.0082 195.643 39.7147C196.096 39.4211 196.443 38.994 196.683 38.4335C196.937 37.873 197.064 37.1991 197.064 36.4118C197.064 35.1974 196.79 34.2699 196.243 33.6293C195.709 32.9888 194.982 32.6685 194.061 32.6685C193.447 32.6685 192.914 32.8153 192.46 33.1089C192.019 33.3891 191.672 33.8095 191.419 34.37C191.179 34.9171 191.059 35.5977 191.059 36.4118C191.059 37.6128 191.332 38.5403 191.879 39.1942C192.426 39.8348 193.154 40.155 194.061 40.155ZM209.664 41.4161C209.437 41.4161 209.237 41.3561 209.064 41.236C208.89 41.1159 208.75 40.9224 208.643 40.6555L205.661 32.5484C205.581 32.3215 205.554 32.1214 205.581 31.9479C205.621 31.7744 205.708 31.6409 205.841 31.5475C205.974 31.4541 206.141 31.4074 206.341 31.4074C206.542 31.4074 206.702 31.4541 206.822 31.5475C206.955 31.6409 207.062 31.8144 207.142 32.068L209.945 40.075H209.464L212.347 32.068C212.44 31.8278 212.554 31.661 212.687 31.5675C212.834 31.4608 213.021 31.4074 213.247 31.4074C213.461 31.4074 213.641 31.4608 213.788 31.5675C213.935 31.6743 214.048 31.8411 214.128 32.068L216.951 40.075H216.49L219.333 32.0279C219.426 31.7877 219.54 31.6276 219.673 31.5475C219.807 31.4541 219.967 31.4074 220.153 31.4074C220.367 31.4074 220.527 31.4608 220.634 31.5675C220.754 31.6743 220.821 31.8144 220.834 31.9879C220.847 32.1614 220.814 32.3482 220.734 32.5484L217.751 40.6555C217.658 40.909 217.518 41.1025 217.331 41.236C217.158 41.3561 216.957 41.4161 216.731 41.4161C216.504 41.4161 216.303 41.3561 216.13 41.236C215.957 41.1025 215.823 40.909 215.73 40.6555L212.767 32.5284H213.628L210.685 40.6555C210.592 40.909 210.458 41.1025 210.285 41.236C210.111 41.3561 209.905 41.4161 209.664 41.4161ZM227.379 41.4562C226.352 41.4562 225.464 41.256 224.717 40.8557C223.983 40.442 223.409 39.8615 222.996 39.1141C222.595 38.3668 222.395 37.4727 222.395 36.4318C222.395 35.4176 222.595 34.5368 222.996 33.7895C223.396 33.0288 223.943 32.435 224.637 32.0079C225.344 31.5809 226.158 31.3674 227.079 31.3674C227.733 31.3674 228.32 31.4808 228.841 31.7077C229.361 31.9212 229.802 32.2348 230.162 32.6485C230.536 33.0622 230.816 33.5626 231.003 34.1498C231.203 34.737 231.303 35.3976 231.303 36.1315C231.303 36.345 231.243 36.5052 231.123 36.6119C231.003 36.7054 230.829 36.7521 230.602 36.7521H223.636V35.6911H230.222L229.902 35.9514C229.902 35.2307 229.795 34.6235 229.581 34.1298C229.368 33.6227 229.054 33.2357 228.641 32.9688C228.24 32.7019 227.733 32.5684 227.119 32.5684C226.439 32.5684 225.858 32.7286 225.378 33.0488C224.911 33.3558 224.557 33.7895 224.317 34.35C224.077 34.8971 223.957 35.5377 223.957 36.2717V36.3918C223.957 37.6195 224.25 38.5536 224.837 39.1942C225.438 39.8348 226.285 40.155 227.379 40.155C227.833 40.155 228.28 40.095 228.721 39.9749C229.174 39.8548 229.615 39.6546 230.042 39.3744C230.229 39.2543 230.395 39.2009 230.542 39.2142C230.702 39.2142 230.829 39.2609 230.923 39.3543C231.016 39.4344 231.076 39.5412 231.103 39.6746C231.143 39.7947 231.129 39.9282 231.063 40.075C231.009 40.2218 230.896 40.3485 230.722 40.4553C230.282 40.7756 229.762 41.0225 229.161 41.1959C228.561 41.3694 227.967 41.4562 227.379 41.4562ZM242.934 41.4562C241.96 41.4562 241.119 41.2427 240.412 40.8156C239.704 40.3886 239.157 39.7947 238.77 39.0341C238.397 38.2601 238.21 37.3659 238.21 36.3517C238.21 35.5777 238.316 34.8838 238.53 34.2699C238.744 33.656 239.057 33.1356 239.471 32.7085C239.885 32.2682 240.378 31.9345 240.952 31.7077C241.539 31.4808 242.2 31.3674 242.934 31.3674C243.414 31.3674 243.915 31.4408 244.435 31.5876C244.956 31.7344 245.429 31.9879 245.856 32.3482C245.99 32.4416 246.077 32.5551 246.117 32.6885C246.157 32.822 246.157 32.9554 246.117 33.0889C246.077 33.209 246.01 33.3157 245.916 33.4092C245.823 33.4892 245.703 33.5359 245.556 33.5493C245.423 33.5626 245.283 33.5159 245.136 33.4092C244.789 33.1423 244.435 32.9554 244.075 32.8487C243.715 32.7419 243.368 32.6885 243.034 32.6885C242.513 32.6885 242.06 32.7753 241.673 32.9488C241.286 33.1089 240.959 33.3424 240.692 33.6494C240.425 33.9563 240.218 34.3366 240.071 34.7904C239.938 35.2441 239.871 35.7712 239.871 36.3717C239.871 37.5328 240.145 38.4536 240.692 39.1342C241.239 39.8014 242.02 40.135 243.034 40.135C243.368 40.135 243.708 40.0816 244.055 39.9749C244.415 39.8681 244.775 39.6813 245.136 39.4144C245.283 39.3076 245.423 39.2609 245.556 39.2743C245.69 39.2876 245.803 39.341 245.896 39.4344C245.99 39.5145 246.05 39.6212 246.077 39.7547C246.117 39.8881 246.117 40.0216 246.077 40.155C246.037 40.2751 245.95 40.3819 245.816 40.4753C245.389 40.8223 244.922 41.0758 244.415 41.236C243.908 41.3828 243.414 41.4562 242.934 41.4562ZM251.061 41.4562C250.393 41.4562 249.793 41.3294 249.259 41.0758C248.739 40.8089 248.325 40.4486 248.018 39.9949C247.711 39.5412 247.558 39.0341 247.558 38.4736C247.558 37.7529 247.738 37.1858 248.098 36.7721C248.472 36.3584 249.079 36.0648 249.92 35.8913C250.774 35.7178 251.935 35.6311 253.403 35.6311H254.303V36.692H253.423C252.342 36.692 251.488 36.7454 250.86 36.8522C250.247 36.9456 249.813 37.1124 249.559 37.3526C249.319 37.5928 249.199 37.9331 249.199 38.3735C249.199 38.9206 249.386 39.3677 249.759 39.7147C250.147 40.0616 250.667 40.2351 251.321 40.2351C251.855 40.2351 252.322 40.1083 252.722 39.8548C253.136 39.6012 253.456 39.2543 253.683 38.8139C253.923 38.3735 254.043 37.8664 254.043 37.2925V35.0106C254.043 34.1832 253.876 33.5893 253.543 33.229C253.209 32.8553 252.662 32.6685 251.901 32.6685C251.434 32.6685 250.967 32.7286 250.5 32.8487C250.033 32.9688 249.539 33.1623 249.019 33.4292C248.832 33.5226 248.672 33.5559 248.538 33.5293C248.405 33.4892 248.298 33.4158 248.218 33.3091C248.138 33.2023 248.091 33.0822 248.078 32.9488C248.065 32.802 248.091 32.6618 248.158 32.5284C248.238 32.3949 248.358 32.2882 248.518 32.2081C249.106 31.9145 249.686 31.701 250.26 31.5675C250.834 31.4341 251.381 31.3674 251.901 31.3674C252.742 31.3674 253.436 31.5075 253.983 31.7877C254.53 32.0546 254.937 32.4683 255.204 33.0288C255.471 33.576 255.605 34.2832 255.605 35.1507V40.5754C255.605 40.8423 255.538 41.0492 255.404 41.1959C255.284 41.3427 255.104 41.4161 254.864 41.4161C254.61 41.4161 254.417 41.3427 254.283 41.1959C254.15 41.0492 254.083 40.8423 254.083 40.5754V39.014H254.263C254.157 39.5212 253.95 39.9549 253.643 40.3152C253.349 40.6755 252.982 40.9557 252.542 41.1559C252.102 41.3561 251.608 41.4562 251.061 41.4562ZM259.413 41.4161C259.146 41.4161 258.946 41.3427 258.813 41.1959C258.679 41.0492 258.613 40.8423 258.613 40.5754V32.2281C258.613 31.9612 258.679 31.761 258.813 31.6276C258.946 31.4808 259.14 31.4074 259.393 31.4074C259.647 31.4074 259.84 31.4808 259.974 31.6276C260.121 31.761 260.194 31.9612 260.194 32.2281V33.9496L259.974 33.7094C260.254 32.9354 260.708 32.3549 261.335 31.9679C261.976 31.5675 262.71 31.3674 263.537 31.3674C264.311 31.3674 264.952 31.5075 265.459 31.7877C265.979 32.068 266.366 32.495 266.62 33.0689C266.873 33.6293 267 34.3433 267 35.2107V40.5754C267 40.8423 266.927 41.0492 266.78 41.1959C266.646 41.3427 266.453 41.4161 266.199 41.4161C265.932 41.4161 265.726 41.3427 265.579 41.1959C265.445 41.0492 265.379 40.8423 265.379 40.5754V35.3108C265.379 34.4034 265.198 33.7428 264.838 33.3291C264.491 32.902 263.931 32.6885 263.157 32.6885C262.263 32.6885 261.549 32.9688 261.015 33.5293C260.494 34.0764 260.234 34.8104 260.234 35.7312V40.5754C260.234 41.1359 259.961 41.4161 259.413 41.4161ZM4.1236 68.4397C3.89673 68.4397 3.69656 68.3797 3.52307 68.2596C3.34959 68.1395 3.20947 67.946 3.10271 67.6791L0.120103 59.572C0.0400329 59.3451 0.0133429 59.145 0.0400329 58.9715C0.0800678 58.798 0.16681 58.6645 0.30026 58.5711C0.43371 58.4777 0.600522 58.431 0.800697 58.431C1.00087 58.431 1.16101 58.4777 1.28112 58.5711C1.41457 58.6645 1.52133 58.838 1.6014 59.0916L4.40384 67.0986H3.92342L6.80594 59.0916C6.89935 58.8514 7.01279 58.6845 7.14624 58.5911C7.29303 58.4844 7.47986 58.431 7.70673 58.431C7.92024 58.431 8.1004 58.4844 8.2472 58.5911C8.39399 58.6979 8.50742 58.8647 8.58749 59.0916L11.41 67.0986H10.9496L13.792 59.0515C13.8855 58.8113 13.9989 58.6512 14.1323 58.5711C14.2658 58.4777 14.4259 58.431 14.6128 58.431C14.8263 58.431 14.9864 58.4844 15.0932 58.5911C15.2133 58.6979 15.28 58.838 15.2933 59.0115C15.3067 59.185 15.2733 59.3718 15.1933 59.572L12.2107 67.6791C12.1172 67.9326 11.9771 68.1261 11.7903 68.2596C11.6168 68.3797 11.4166 68.4397 11.1898 68.4397C10.9629 68.4397 10.7627 68.3797 10.5892 68.2596C10.4158 68.1261 10.2823 67.9326 10.1889 67.6791L7.22631 59.552H8.08706L5.14449 67.6791C5.05107 67.9326 4.91762 68.1261 4.74414 68.2596C4.57065 68.3797 4.36381 68.4397 4.1236 68.4397ZM21.4985 68.4798C20.551 68.4798 19.7302 68.2729 19.0363 67.8592C18.3424 67.4455 17.8019 66.865 17.4149 66.1177C17.0412 65.357 16.8544 64.4629 16.8544 63.4354C16.8544 62.6614 16.9612 61.9674 17.1747 61.3535C17.3882 60.7263 17.7018 60.1925 18.1155 59.7521C18.5292 59.3118 19.0163 58.9781 19.5768 58.7513C20.1506 58.5111 20.7912 58.391 21.4985 58.391C22.4459 58.391 23.2667 58.5978 23.9606 59.0115C24.6545 59.4252 25.1883 60.0124 25.562 60.773C25.949 61.5204 26.1425 62.4078 26.1425 63.4354C26.1425 64.2094 26.0357 64.9033 25.8222 65.5172C25.6087 66.131 25.2951 66.6648 24.8814 67.1186C24.4677 67.559 23.9739 67.8993 23.4001 68.1395C22.8396 68.3663 22.2057 68.4798 21.4985 68.4798ZM21.4985 67.1786C22.099 67.1786 22.6261 67.0318 23.0798 66.7382C23.5336 66.4447 23.8805 66.0176 24.1207 65.4571C24.3743 64.8966 24.5011 64.2227 24.5011 63.4354C24.5011 62.221 24.2275 61.2935 23.6804 60.6529C23.1466 60.0124 22.4193 59.6921 21.4985 59.6921C20.8846 59.6921 20.3508 59.8389 19.8971 60.1325C19.4567 60.4127 19.1097 60.8331 18.8561 61.3936C18.6159 61.9407 18.4958 62.6213 18.4958 63.4354C18.4958 64.6364 18.7694 65.5639 19.3165 66.2178C19.8637 66.8584 20.591 67.1786 21.4985 67.1786ZM29.3986 68.4397C29.1317 68.4397 28.9249 68.3663 28.7781 68.2195C28.6446 68.0727 28.5779 67.8659 28.5779 67.599V59.2517C28.5779 58.9848 28.6446 58.7846 28.7781 58.6512C28.9115 58.5044 29.105 58.431 29.3586 58.431C29.6121 58.431 29.8057 58.5044 29.9391 58.6512C30.0859 58.7846 30.1593 58.9848 30.1593 59.2517V60.8731H29.9591C30.1726 60.0858 30.5797 59.4786 31.1802 59.0515C31.7807 58.6245 32.5214 58.3976 33.4021 58.3709C33.6023 58.3576 33.7624 58.4043 33.8825 58.5111C34.0026 58.6045 34.0694 58.7713 34.0827 59.0115C34.0961 59.2384 34.0427 59.4185 33.9226 59.552C33.8025 59.6854 33.6156 59.7655 33.3621 59.7922L33.0418 59.8322C32.1344 59.9123 31.4337 60.2059 30.94 60.713C30.4596 61.2068 30.2193 61.8873 30.2193 62.7548V67.599C30.2193 67.8659 30.1459 68.0727 29.9992 68.2195C29.8657 68.3663 29.6655 68.4397 29.3986 68.4397ZM36.5528 68.4397C36.2859 68.4397 36.0858 68.3663 35.9523 68.2195C35.8189 68.0727 35.7521 67.8659 35.7521 67.599V54.8679C35.7521 54.601 35.8189 54.4008 35.9523 54.2674C36.0858 54.1206 36.2859 54.0472 36.5528 54.0472C36.8064 54.0472 37.0066 54.1206 37.1534 54.2674C37.3002 54.4008 37.3736 54.601 37.3736 54.8679V62.8949H37.4136L41.5172 58.9715C41.704 58.798 41.8641 58.6645 41.9976 58.5711C42.1444 58.4777 42.3379 58.431 42.5781 58.431C42.7916 58.431 42.9584 58.491 43.0785 58.6112C43.1986 58.7179 43.252 58.858 43.2387 59.0315C43.2387 59.1917 43.1586 59.3651 42.9985 59.552L38.6347 63.6956V62.8148L43.3788 67.2787C43.5656 67.4655 43.659 67.6457 43.659 67.8192C43.659 67.9927 43.5923 68.1395 43.4589 68.2596C43.3388 68.3797 43.1786 68.4397 42.9785 68.4397C42.7382 68.4397 42.5447 68.393 42.3979 68.2996C42.2511 68.1928 42.071 68.0394 41.8575 67.8392L37.4136 63.7356H37.3736V67.599C37.3736 68.1595 37.1 68.4397 36.5528 68.4397ZM54.825 68.4798C54.0644 68.4798 53.4238 68.3463 52.9034 68.0794C52.3963 67.7992 52.0159 67.3988 51.7624 66.8784C51.5088 66.3446 51.382 65.6973 51.382 64.9367V59.8322H50.0409C49.814 59.8322 49.6405 59.7788 49.5204 59.6721C49.4003 59.552 49.3403 59.3918 49.3403 59.1917C49.3403 58.9915 49.4003 58.838 49.5204 58.7313C49.6405 58.6245 49.814 58.5711 50.0409 58.5711H51.382V56.2691C51.382 56.0022 51.4554 55.802 51.6022 55.6686C51.749 55.5218 51.9492 55.4484 52.2028 55.4484C52.4563 55.4484 52.6498 55.5218 52.7833 55.6686C52.9301 55.802 53.0035 56.0022 53.0035 56.2691V58.5711H55.5257C55.7525 58.5711 55.926 58.6245 56.0461 58.7313C56.1662 58.838 56.2263 58.9915 56.2263 59.1917C56.2263 59.3918 56.1662 59.552 56.0461 59.6721C55.926 59.7788 55.7525 59.8322 55.5257 59.8322H53.0035V64.7765C53.0035 65.5372 53.1636 66.1177 53.4839 66.5181C53.8042 66.9051 54.3246 67.0986 55.0452 67.0986C55.2988 67.0986 55.5123 67.0719 55.6858 67.0185C55.8726 66.9651 56.0261 66.9384 56.1462 66.9384C56.2663 66.9251 56.3664 66.9651 56.4465 67.0585C56.5265 67.1519 56.5666 67.3121 56.5666 67.5389C56.5666 67.6991 56.5332 67.8459 56.4665 67.9793C56.4131 68.1128 56.313 68.2062 56.1662 68.2596C56.0061 68.313 55.7926 68.3597 55.5257 68.3997C55.2721 68.4531 55.0386 68.4798 54.825 68.4798ZM61.8657 68.4798C60.9182 68.4798 60.0975 68.2729 59.4036 67.8592C58.7096 67.4455 58.1692 66.865 57.7822 66.1177C57.4085 65.357 57.2217 64.4629 57.2217 63.4354C57.2217 62.6614 57.3284 61.9674 57.5419 61.3535C57.7555 60.7263 58.0691 60.1925 58.4828 59.7521C58.8965 59.3118 59.3836 58.9781 59.944 58.7513C60.5179 58.5111 61.1584 58.391 61.8657 58.391C62.8132 58.391 63.6339 58.5978 64.3279 59.0115C65.0218 59.4252 65.5556 60.0124 65.9293 60.773C66.3163 61.5204 66.5098 62.4078 66.5098 63.4354C66.5098 64.2094 66.403 64.9033 66.1895 65.5172C65.976 66.131 65.6624 66.6648 65.2487 67.1186C64.835 67.559 64.3412 67.8993 63.7674 68.1395C63.2069 68.3663 62.573 68.4798 61.8657 68.4798ZM61.8657 67.1786C62.4662 67.1786 62.9934 67.0318 63.4471 66.7382C63.9008 66.4447 64.2478 66.0176 64.488 65.4571C64.7416 64.8966 64.8683 64.2227 64.8683 63.4354C64.8683 62.221 64.5948 61.2935 64.0476 60.6529C63.5138 60.0124 62.7865 59.6921 61.8657 59.6921C61.2518 59.6921 60.7181 59.8389 60.2643 60.1325C59.8239 60.4127 59.477 60.8331 59.2234 61.3936C58.9832 61.9407 58.8631 62.6213 58.8631 63.4354C58.8631 64.6364 59.1367 65.5639 59.6838 66.2178C60.231 66.8584 60.9583 67.1786 61.8657 67.1786ZM72.1713 68.4397C71.9444 68.4397 71.7442 68.3797 71.5708 68.2596C71.3973 68.1395 71.2571 67.946 71.1504 67.6791L68.1678 59.572C68.0877 59.3451 68.061 59.145 68.0877 58.9715C68.1277 58.798 68.2145 58.6645 68.3479 58.5711C68.4814 58.4777 68.6482 58.431 68.8484 58.431C69.0486 58.431 69.2087 58.4777 69.3288 58.5711C69.4622 58.6645 69.569 58.838 69.6491 59.0916L72.4515 67.0986H71.9711L74.8536 59.0916C74.947 58.8514 75.0605 58.6845 75.1939 58.5911C75.3407 58.4844 75.5275 58.431 75.7544 58.431C75.9679 58.431 76.1481 58.4844 76.2949 58.5911C76.4417 58.6979 76.5551 58.8647 76.6352 59.0916L79.4576 67.0986H78.9972L81.8397 59.0515C81.9331 58.8113 82.0466 58.6512 82.18 58.5711C82.3135 58.4777 82.4736 58.431 82.6604 58.431C82.874 58.431 83.0341 58.4844 83.1409 58.5911C83.261 58.6979 83.3277 58.838 83.341 59.0115C83.3544 59.185 83.321 59.3718 83.2409 59.572L80.2583 67.6791C80.1649 67.9326 80.0248 68.1261 79.838 68.2596C79.6645 68.3797 79.4643 68.4397 79.2374 68.4397C79.0106 68.4397 78.8104 68.3797 78.6369 68.2596C78.4634 68.1261 78.33 67.9326 78.2366 67.6791L75.274 59.552H76.1347L73.1922 67.6791C73.0988 67.9326 72.9653 68.1261 72.7918 68.2596C72.6183 68.3797 72.4115 68.4397 72.1713 68.4397ZM88.5066 68.4798C87.8394 68.4798 87.2389 68.353 86.7051 68.0994C86.1846 67.8325 85.7709 67.4722 85.464 67.0185C85.157 66.5648 85.0036 66.0577 85.0036 65.4972C85.0036 64.7765 85.1837 64.2094 85.544 63.7957C85.9177 63.382 86.5249 63.0884 87.3656 62.9149C88.2197 62.7414 89.3807 62.6547 90.8487 62.6547H91.7495V63.7156H90.8687C89.7877 63.7156 88.9337 63.769 88.3065 63.8757C87.6926 63.9692 87.2589 64.136 87.0053 64.3762C86.7651 64.6164 86.645 64.9567 86.645 65.3971C86.645 65.9442 86.8318 66.3913 87.2055 66.7382C87.5925 67.0852 88.113 67.2587 88.7669 67.2587C89.3007 67.2587 89.7677 67.1319 90.1681 66.8784C90.5818 66.6248 90.9021 66.2778 91.1289 65.8375C91.3691 65.3971 91.4892 64.89 91.4892 64.3161V62.0341C91.4892 61.2068 91.3224 60.6129 90.9888 60.2526C90.6552 59.8789 90.108 59.6921 89.3474 59.6921C88.8803 59.6921 88.4132 59.7521 87.9461 59.8723C87.4791 59.9924 86.9853 60.1859 86.4648 60.4528C86.278 60.5462 86.1179 60.5795 85.9844 60.5528C85.851 60.5128 85.7442 60.4394 85.6641 60.3327C85.5841 60.2259 85.5374 60.1058 85.524 59.9723C85.5107 59.8255 85.5374 59.6854 85.6041 59.552C85.6842 59.4185 85.8043 59.3118 85.9644 59.2317C86.5516 58.9381 87.1321 58.7246 87.7059 58.5911C88.2798 58.4577 88.8269 58.391 89.3474 58.391C90.1881 58.391 90.882 58.5311 91.4292 58.8113C91.9763 59.0782 92.3833 59.4919 92.6502 60.0524C92.9171 60.5996 93.0506 61.3068 93.0506 62.1743V67.599C93.0506 67.8659 92.9839 68.0727 92.8504 68.2195C92.7303 68.3663 92.5502 68.4397 92.31 68.4397C92.0564 68.4397 91.8629 68.3663 91.7294 68.2195C91.596 68.0727 91.5293 67.8659 91.5293 67.599V66.0376H91.7094C91.6027 66.5447 91.3958 66.9785 91.0889 67.3388C90.7953 67.6991 90.4283 67.9793 89.9879 68.1795C89.5475 68.3797 89.0538 68.4798 88.5066 68.4798ZM96.8794 68.4397C96.6125 68.4397 96.4057 68.3663 96.2589 68.2195C96.1254 68.0727 96.0587 67.8659 96.0587 67.599V59.2517C96.0587 58.9848 96.1254 58.7846 96.2589 58.6512C96.3923 58.5044 96.5858 58.431 96.8394 58.431C97.0929 58.431 97.2864 58.5044 97.4199 58.6512C97.5667 58.7846 97.6401 58.9848 97.6401 59.2517V60.8731H97.4399C97.6534 60.0858 98.0604 59.4786 98.661 59.0515C99.2615 58.6245 100.002 58.3976 100.883 58.3709C101.083 58.3576 101.243 58.4043 101.363 58.5111C101.483 58.6045 101.55 58.7713 101.563 59.0115C101.577 59.2384 101.523 59.4185 101.403 59.552C101.283 59.6854 101.096 59.7655 100.843 59.7922L100.523 59.8322C99.6151 59.9123 98.9145 60.2059 98.4208 60.713C97.9403 61.2068 97.7001 61.8873 97.7001 62.7548V67.599C97.7001 67.8659 97.6267 68.0727 97.4799 68.2195C97.3465 68.3663 97.1463 68.4397 96.8794 68.4397ZM106.819 68.4798C105.951 68.4798 105.191 68.2729 104.537 67.8592C103.896 67.4455 103.396 66.865 103.036 66.1177C102.689 65.357 102.515 64.4629 102.515 63.4354C102.515 62.3945 102.689 61.5003 103.036 60.753C103.396 59.9924 103.896 59.4119 104.537 59.0115C105.191 58.5978 105.951 58.391 106.819 58.391C107.7 58.391 108.454 58.6112 109.081 59.0515C109.708 59.4919 110.128 60.0858 110.342 60.8331H110.122V54.8679C110.122 54.601 110.188 54.4008 110.322 54.2674C110.469 54.1206 110.676 54.0472 110.942 54.0472C111.196 54.0472 111.39 54.1206 111.523 54.2674C111.67 54.4008 111.743 54.601 111.743 54.8679V67.599C111.743 67.8659 111.676 68.0727 111.543 68.2195C111.41 68.3663 111.209 68.4397 110.942 68.4397C110.689 68.4397 110.489 68.3663 110.342 68.2195C110.208 68.0727 110.142 67.8659 110.142 67.599V65.6973L110.362 65.9776C110.148 66.7382 109.721 67.3454 109.081 67.7992C108.454 68.2529 107.7 68.4798 106.819 68.4798ZM107.159 67.1786C107.76 67.1786 108.287 67.0318 108.741 66.7382C109.194 66.4447 109.541 66.0176 109.781 65.4571C110.035 64.8966 110.162 64.2227 110.162 63.4354C110.162 62.221 109.888 61.2935 109.341 60.6529C108.807 60.0124 108.08 59.6921 107.159 59.6921C106.545 59.6921 106.011 59.8389 105.558 60.1325C105.117 60.4127 104.77 60.8331 104.517 61.3936C104.277 61.9407 104.157 62.6213 104.157 63.4354C104.157 64.6364 104.43 65.5639 104.977 66.2178C105.524 66.8584 106.252 67.1786 107.159 67.1786ZM118.069 68.4798C117.468 68.4798 116.861 68.4064 116.247 68.2596C115.647 68.1128 115.086 67.8592 114.566 67.4989C114.432 67.4055 114.339 67.2987 114.286 67.1786C114.232 67.0452 114.212 66.9184 114.225 66.7983C114.252 66.6648 114.306 66.5514 114.386 66.458C114.479 66.3646 114.586 66.3112 114.706 66.2979C114.839 66.2712 114.986 66.2979 115.146 66.3779C115.667 66.6982 116.167 66.9251 116.648 67.0585C117.141 67.1786 117.628 67.2387 118.109 67.2387C118.87 67.2387 119.443 67.0986 119.83 66.8183C120.217 66.5381 120.411 66.1577 120.411 65.6773C120.411 65.3037 120.284 65.0101 120.031 64.7966C119.777 64.5697 119.377 64.3962 118.83 64.2761L117.008 63.8757C116.167 63.7023 115.54 63.402 115.126 62.975C114.726 62.5479 114.526 61.9941 114.526 61.3135C114.526 60.713 114.679 60.1992 114.986 59.7722C115.306 59.3318 115.753 58.9915 116.327 58.7513C116.901 58.5111 117.568 58.391 118.329 58.391C118.916 58.391 119.47 58.471 119.991 58.6312C120.524 58.778 121.005 59.0182 121.432 59.3518C121.565 59.4452 121.652 59.5586 121.692 59.6921C121.745 59.8122 121.752 59.939 121.712 60.0724C121.685 60.1925 121.625 60.2993 121.532 60.3927C121.438 60.4728 121.325 60.5195 121.192 60.5328C121.058 60.5462 120.918 60.5061 120.771 60.4127C120.371 60.1458 119.964 59.9523 119.55 59.8322C119.136 59.6988 118.729 59.632 118.329 59.632C117.582 59.632 117.015 59.7788 116.628 60.0724C116.241 60.366 116.047 60.753 116.047 61.2334C116.047 61.6071 116.167 61.914 116.407 62.1542C116.648 62.3945 117.021 62.5679 117.528 62.6747L119.35 63.055C120.217 63.2419 120.865 63.5421 121.292 63.9558C121.732 64.3562 121.952 64.9033 121.952 65.5972C121.952 66.478 121.599 67.1786 120.891 67.6991C120.184 68.2195 119.243 68.4798 118.069 68.4798ZM132.647 68.4798C131.979 68.4798 131.379 68.353 130.845 68.0994C130.325 67.8325 129.911 67.4722 129.604 67.0185C129.297 66.5648 129.144 66.0577 129.144 65.4972C129.144 64.7765 129.324 64.2094 129.684 63.7957C130.058 63.382 130.665 63.0884 131.506 62.9149C132.36 62.7414 133.521 62.6547 134.989 62.6547H135.89V63.7156H135.009C133.928 63.7156 133.074 63.769 132.447 63.8757C131.833 63.9692 131.399 64.136 131.145 64.3762C130.905 64.6164 130.785 64.9567 130.785 65.3971C130.785 65.9442 130.972 66.3913 131.346 66.7382C131.733 67.0852 132.253 67.2587 132.907 67.2587C133.441 67.2587 133.908 67.1319 134.308 66.8784C134.722 66.6248 135.042 66.2778 135.269 65.8375C135.509 65.3971 135.629 64.89 135.629 64.3161V62.0341C135.629 61.2068 135.463 60.6129 135.129 60.2526C134.795 59.8789 134.248 59.6921 133.487 59.6921C133.02 59.6921 132.553 59.7521 132.086 59.8723C131.619 59.9924 131.125 60.1859 130.605 60.4528C130.418 60.5462 130.258 60.5795 130.125 60.5528C129.991 60.5128 129.884 60.4394 129.804 60.3327C129.724 60.2259 129.677 60.1058 129.664 59.9723C129.651 59.8255 129.677 59.6854 129.744 59.552C129.824 59.4185 129.944 59.3118 130.105 59.2317C130.692 58.9381 131.272 58.7246 131.846 58.5911C132.42 58.4577 132.967 58.391 133.487 58.391C134.328 58.391 135.022 58.5311 135.569 58.8113C136.116 59.0782 136.523 59.4919 136.79 60.0524C137.057 60.5996 137.191 61.3068 137.191 62.1743V67.599C137.191 67.8659 137.124 68.0727 136.991 68.2195C136.87 68.3663 136.69 68.4397 136.45 68.4397C136.196 68.4397 136.003 68.3663 135.87 68.2195C135.736 68.0727 135.669 67.8659 135.669 67.599V66.0376H135.85C135.743 66.5447 135.536 66.9785 135.229 67.3388C134.935 67.6991 134.568 67.9793 134.128 68.1795C133.688 68.3797 133.194 68.4798 132.647 68.4798ZM146.681 68.4397C146.427 68.4397 146.227 68.3663 146.08 68.2195C145.947 68.0727 145.88 67.8659 145.88 67.599V59.8322H144.599C144.385 59.8322 144.212 59.7788 144.078 59.6721C143.958 59.552 143.898 59.3918 143.898 59.1917C143.898 58.9915 143.958 58.838 144.078 58.7313C144.212 58.6245 144.385 58.5711 144.599 58.5711H146.32L145.88 58.9915V58.2308C145.88 56.963 146.187 55.9955 146.801 55.3283C147.428 54.661 148.342 54.274 149.543 54.1673L150.124 54.1072C150.311 54.0939 150.457 54.1272 150.564 54.2073C150.684 54.2874 150.758 54.3875 150.784 54.5076C150.824 54.6277 150.831 54.7545 150.804 54.8879C150.778 55.008 150.718 55.1148 150.624 55.2082C150.531 55.3016 150.417 55.355 150.284 55.3683L149.823 55.4084C149.009 55.4751 148.416 55.722 148.042 56.149C147.682 56.576 147.501 57.2033 147.501 58.0306V58.8714L147.261 58.5711H149.663C149.89 58.5711 150.064 58.6245 150.184 58.7313C150.304 58.838 150.364 58.9915 150.364 59.1917C150.364 59.3918 150.304 59.552 150.184 59.6721C150.064 59.7788 149.89 59.8322 149.663 59.8322H147.501V67.599C147.501 68.1595 147.228 68.4397 146.681 68.4397ZM154.99 68.4798C154.323 68.4798 153.723 68.353 153.189 68.0994C152.668 67.8325 152.255 67.4722 151.948 67.0185C151.641 66.5648 151.487 66.0577 151.487 65.4972C151.487 64.7765 151.668 64.2094 152.028 63.7957C152.402 63.382 153.009 63.0884 153.849 62.9149C154.704 62.7414 155.865 62.6547 157.332 62.6547H158.233V63.7156H157.353C156.272 63.7156 155.417 63.769 154.79 63.8757C154.176 63.9692 153.743 64.136 153.489 64.3762C153.249 64.6164 153.129 64.9567 153.129 65.3971C153.129 65.9442 153.316 66.3913 153.689 66.7382C154.076 67.0852 154.597 67.2587 155.251 67.2587C155.784 67.2587 156.252 67.1319 156.652 66.8784C157.066 66.6248 157.386 66.2778 157.613 65.8375C157.853 65.3971 157.973 64.89 157.973 64.3161V62.0341C157.973 61.2068 157.806 60.6129 157.473 60.2526C157.139 59.8789 156.592 59.6921 155.831 59.6921C155.364 59.6921 154.897 59.7521 154.43 59.8723C153.963 59.9924 153.469 60.1859 152.949 60.4528C152.762 60.5462 152.602 60.5795 152.468 60.5528C152.335 60.5128 152.228 60.4394 152.148 60.3327C152.068 60.2259 152.021 60.1058 152.008 59.9723C151.994 59.8255 152.021 59.6854 152.088 59.552C152.168 59.4185 152.288 59.3118 152.448 59.2317C153.035 58.9381 153.616 58.7246 154.19 58.5911C154.764 58.4577 155.311 58.391 155.831 58.391C156.672 58.391 157.366 58.5311 157.913 58.8113C158.46 59.0782 158.867 59.4919 159.134 60.0524C159.401 60.5996 159.534 61.3068 159.534 62.1743V67.599C159.534 67.8659 159.468 68.0727 159.334 68.2195C159.214 68.3663 159.034 68.4397 158.794 68.4397C158.54 68.4397 158.347 68.3663 158.213 68.2195C158.08 68.0727 158.013 67.8659 158.013 67.599V66.0376H158.193C158.086 66.5447 157.88 66.9785 157.573 67.3388C157.279 67.6991 156.912 67.9793 156.472 68.1795C156.031 68.3797 155.538 68.4798 154.99 68.4798ZM163.343 68.3997C163.076 68.3997 162.876 68.3263 162.743 68.1795C162.609 68.0194 162.543 67.7992 162.543 67.5189V59.3318C162.543 59.0515 162.609 58.838 162.743 58.6912C162.876 58.5444 163.076 58.471 163.343 58.471C163.597 58.471 163.797 58.5444 163.944 58.6912C164.091 58.838 164.164 59.0515 164.164 59.3318V67.5189C164.164 67.7992 164.091 68.0194 163.944 68.1795C163.81 68.3263 163.61 68.3997 163.343 68.3997ZM163.343 56.2291C163.01 56.2291 162.749 56.1423 162.563 55.9688C162.376 55.782 162.282 55.5351 162.282 55.2282C162.282 54.9079 162.376 54.6677 162.563 54.5076C162.749 54.3341 163.01 54.2473 163.343 54.2473C163.69 54.2473 163.95 54.3341 164.124 54.5076C164.311 54.6677 164.404 54.9079 164.404 55.2282C164.404 55.5351 164.311 55.782 164.124 55.9688C163.95 56.1423 163.69 56.2291 163.343 56.2291ZM168.016 68.4397C167.749 68.4397 167.542 68.3663 167.395 68.2195C167.262 68.0727 167.195 67.8659 167.195 67.599V59.2517C167.195 58.9848 167.262 58.7846 167.395 58.6512C167.529 58.5044 167.722 58.431 167.976 58.431C168.229 58.431 168.423 58.5044 168.556 58.6512C168.703 58.7846 168.776 58.9848 168.776 59.2517V60.8731H168.576C168.79 60.0858 169.197 59.4786 169.797 59.0515C170.398 58.6245 171.138 58.3976 172.019 58.3709C172.219 58.3576 172.38 58.4043 172.5 58.5111C172.62 58.6045 172.686 58.7713 172.7 59.0115C172.713 59.2384 172.66 59.4185 172.54 59.552C172.42 59.6854 172.233 59.7655 171.979 59.7922L171.659 59.8322C170.751 59.9123 170.051 60.2059 169.557 60.713C169.077 61.2068 168.836 61.8873 168.836 62.7548V67.599C168.836 67.8659 168.763 68.0727 168.616 68.2195C168.483 68.3663 168.283 68.4397 168.016 68.4397ZM180.351 68.4397C180.084 68.4397 179.877 68.3663 179.73 68.2195C179.597 68.0727 179.53 67.8659 179.53 67.599V59.2517C179.53 58.9848 179.597 58.7846 179.73 58.6512C179.864 58.5044 180.057 58.431 180.311 58.431C180.564 58.431 180.758 58.5044 180.891 58.6512C181.038 58.7846 181.111 58.9848 181.111 59.2517V60.8731H180.911C181.125 60.0858 181.532 59.4786 182.132 59.0515C182.733 58.6245 183.473 58.3976 184.354 58.3709C184.554 58.3576 184.715 58.4043 184.835 58.5111C184.955 58.6045 185.021 58.7713 185.035 59.0115C185.048 59.2384 184.995 59.4185 184.875 59.552C184.755 59.6854 184.568 59.7655 184.314 59.7922L183.994 59.8322C183.086 59.9123 182.386 60.2059 181.892 60.713C181.412 61.2068 181.171 61.8873 181.171 62.7548V67.599C181.171 67.8659 181.098 68.0727 180.951 68.2195C180.818 68.3663 180.618 68.4397 180.351 68.4397ZM190.971 68.4798C189.943 68.4798 189.056 68.2796 188.308 67.8792C187.574 67.4655 187.001 66.885 186.587 66.1377C186.187 65.3904 185.986 64.4963 185.986 63.4554C185.986 62.4412 186.187 61.5604 186.587 60.8131C186.987 60.0524 187.534 59.4586 188.228 59.0315C188.936 58.6045 189.75 58.391 190.67 58.391C191.324 58.391 191.912 58.5044 192.432 58.7313C192.952 58.9448 193.393 59.2584 193.753 59.6721C194.127 60.0858 194.407 60.5862 194.594 61.1734C194.794 61.7606 194.894 62.4211 194.894 63.1551C194.894 63.3686 194.834 63.5288 194.714 63.6355C194.594 63.729 194.42 63.7757 194.194 63.7757H187.227V62.7147H193.813L193.493 62.975C193.493 62.2543 193.386 61.6471 193.173 61.1534C192.959 60.6463 192.646 60.2593 192.232 59.9924C191.832 59.7255 191.324 59.592 190.711 59.592C190.03 59.592 189.449 59.7521 188.969 60.0724C188.502 60.3794 188.148 60.8131 187.908 61.3736C187.668 61.9207 187.548 62.5613 187.548 63.2952V63.4153C187.548 64.6431 187.841 65.5772 188.429 66.2178C189.029 66.8584 189.876 67.1786 190.971 67.1786C191.424 67.1786 191.872 67.1186 192.312 66.9985C192.766 66.8784 193.206 66.6782 193.633 66.3979C193.82 66.2778 193.987 66.2245 194.134 66.2378C194.294 66.2378 194.42 66.2845 194.514 66.3779C194.607 66.458 194.667 66.5648 194.694 66.6982C194.734 66.8183 194.721 66.9518 194.654 67.0986C194.601 67.2454 194.487 67.3721 194.314 67.4789C193.873 67.7992 193.353 68.0461 192.752 68.2195C192.152 68.393 191.558 68.4798 190.971 68.4798ZM200.524 68.4798C199.923 68.4798 199.316 68.4064 198.702 68.2596C198.102 68.1128 197.541 67.8592 197.021 67.4989C196.887 67.4055 196.794 67.2987 196.74 67.1786C196.687 67.0452 196.667 66.9184 196.68 66.7983C196.707 66.6648 196.76 66.5514 196.84 66.458C196.934 66.3646 197.041 66.3112 197.161 66.2979C197.294 66.2712 197.441 66.2979 197.601 66.3779C198.122 66.6982 198.622 66.9251 199.102 67.0585C199.596 67.1786 200.083 67.2387 200.564 67.2387C201.324 67.2387 201.898 67.0986 202.285 66.8183C202.672 66.5381 202.866 66.1577 202.866 65.6773C202.866 65.3037 202.739 65.0101 202.485 64.7966C202.232 64.5697 201.831 64.3962 201.284 64.2761L199.463 63.8757C198.622 63.7023 197.995 63.402 197.581 62.975C197.181 62.5479 196.981 61.9941 196.981 61.3135C196.981 60.713 197.134 60.1992 197.441 59.7722C197.761 59.3318 198.208 58.9915 198.782 58.7513C199.356 58.5111 200.023 58.391 200.784 58.391C201.371 58.391 201.925 58.471 202.445 58.6312C202.979 58.778 203.46 59.0182 203.887 59.3518C204.02 59.4452 204.107 59.5586 204.147 59.6921C204.2 59.8122 204.207 59.939 204.167 60.0724C204.14 60.1925 204.08 60.2993 203.987 60.3927C203.893 60.4728 203.78 60.5195 203.646 60.5328C203.513 60.5462 203.373 60.5061 203.226 60.4127C202.826 60.1458 202.419 59.9523 202.005 59.8322C201.591 59.6988 201.184 59.632 200.784 59.632C200.037 59.632 199.469 59.7788 199.082 60.0724C198.695 60.366 198.502 60.753 198.502 61.2334C198.502 61.6071 198.622 61.914 198.862 62.1542C199.102 62.3945 199.476 62.5679 199.983 62.6747L201.805 63.055C202.672 63.2419 203.319 63.5421 203.746 63.9558C204.187 64.3562 204.407 64.9033 204.407 65.5972C204.407 66.478 204.053 67.1786 203.346 67.6991C202.639 68.2195 201.698 68.4798 200.524 68.4798ZM210.922 68.4798C209.974 68.4798 209.153 68.2729 208.459 67.8592C207.766 67.4455 207.225 66.865 206.838 66.1177C206.464 65.357 206.278 64.4629 206.278 63.4354C206.278 62.6614 206.384 61.9674 206.598 61.3535C206.811 60.7263 207.125 60.1925 207.539 59.7521C207.952 59.3118 208.439 58.9781 209 58.7513C209.574 58.5111 210.214 58.391 210.922 58.391C211.869 58.391 212.69 58.5978 213.384 59.0115C214.078 59.4252 214.611 60.0124 214.985 60.773C215.372 61.5204 215.566 62.4078 215.566 63.4354C215.566 64.2094 215.459 64.9033 215.245 65.5172C215.032 66.131 214.718 66.6648 214.305 67.1186C213.891 67.559 213.397 67.8993 212.823 68.1395C212.263 68.3663 211.629 68.4798 210.922 68.4798ZM210.922 67.1786C211.522 67.1786 212.049 67.0318 212.503 66.7382C212.957 66.4447 213.304 66.0176 213.544 65.4571C213.797 64.8966 213.924 64.2227 213.924 63.4354C213.924 62.221 213.651 61.2935 213.104 60.6529C212.57 60.0124 211.842 59.6921 210.922 59.6921C210.308 59.6921 209.774 59.8389 209.32 60.1325C208.88 60.4127 208.533 60.8331 208.279 61.3936C208.039 61.9407 207.919 62.6213 207.919 63.4354C207.919 64.6364 208.193 65.5639 208.74 66.2178C209.287 66.8584 210.014 67.1786 210.922 67.1786ZM220.964 68.4798C220.003 68.4798 219.269 68.1862 218.762 67.599C218.255 67.0118 218.001 66.1711 218.001 65.0768V54.8679C218.001 54.601 218.068 54.4008 218.201 54.2674C218.335 54.1206 218.535 54.0472 218.802 54.0472C219.055 54.0472 219.255 54.1206 219.402 54.2674C219.549 54.4008 219.622 54.601 219.622 54.8679V64.9567C219.622 65.6773 219.763 66.2178 220.043 66.5781C220.336 66.9251 220.763 67.0986 221.324 67.0986C221.444 67.0986 221.551 67.0919 221.644 67.0785C221.738 67.0652 221.831 67.0585 221.924 67.0585C222.071 67.0452 222.171 67.0785 222.225 67.1586C222.291 67.2387 222.325 67.3988 222.325 67.639C222.325 67.8792 222.271 68.0594 222.165 68.1795C222.058 68.2996 221.884 68.3797 221.644 68.4197C221.537 68.4331 221.424 68.4464 221.304 68.4597C221.184 68.4731 221.07 68.4798 220.964 68.4798ZM227.367 68.4798C226.58 68.4798 225.926 68.3396 225.406 68.0594C224.898 67.7658 224.511 67.3321 224.244 66.7583C223.991 66.1844 223.864 65.4705 223.864 64.6164V59.2517C223.864 58.9715 223.931 58.7646 224.064 58.6312C224.211 58.4977 224.411 58.431 224.665 58.431C224.932 58.431 225.132 58.4977 225.265 58.6312C225.412 58.7646 225.486 58.9715 225.486 59.2517V64.5964C225.486 65.4505 225.659 66.091 226.006 66.5181C226.366 66.9317 226.927 67.1386 227.687 67.1386C228.515 67.1386 229.189 66.8584 229.709 66.2979C230.23 65.7374 230.49 65.0034 230.49 64.0959V59.2517C230.49 58.9715 230.557 58.7646 230.69 58.6312C230.837 58.4977 231.044 58.431 231.311 58.431C231.564 58.431 231.758 58.4977 231.891 58.6312C232.038 58.7646 232.111 58.9715 232.111 59.2517V67.599C232.111 68.1595 231.851 68.4397 231.331 68.4397C231.077 68.4397 230.877 68.3663 230.73 68.2195C230.597 68.0727 230.53 67.8659 230.53 67.599V65.7774L230.79 66.0577C230.523 66.845 230.083 67.4455 229.469 67.8592C228.869 68.2729 228.168 68.4798 227.367 68.4798ZM239.048 68.4798C238.288 68.4798 237.647 68.3463 237.127 68.0794C236.62 67.7992 236.239 67.3988 235.986 66.8784C235.732 66.3446 235.605 65.6973 235.605 64.9367V59.8322H234.264C234.037 59.8322 233.864 59.7788 233.744 59.6721C233.624 59.552 233.564 59.3918 233.564 59.1917C233.564 58.9915 233.624 58.838 233.744 58.7313C233.864 58.6245 234.037 58.5711 234.264 58.5711H235.605V56.2691C235.605 56.0022 235.679 55.802 235.826 55.6686C235.972 55.5218 236.173 55.4484 236.426 55.4484C236.68 55.4484 236.873 55.5218 237.007 55.6686C237.153 55.802 237.227 56.0022 237.227 56.2691V58.5711H239.749C239.976 58.5711 240.149 58.6245 240.269 58.7313C240.39 58.838 240.45 58.9915 240.45 59.1917C240.45 59.3918 240.39 59.552 240.269 59.6721C240.149 59.7788 239.976 59.8322 239.749 59.8322H237.227V64.7765C237.227 65.5372 237.387 66.1177 237.707 66.5181C238.027 66.9051 238.548 67.0986 239.269 67.0986C239.522 67.0986 239.736 67.0719 239.909 67.0185C240.096 66.9651 240.249 66.9384 240.37 66.9384C240.49 66.9251 240.59 66.9651 240.67 67.0585C240.75 67.1519 240.79 67.3121 240.79 67.5389C240.79 67.6991 240.757 67.8459 240.69 67.9793C240.636 68.1128 240.536 68.2062 240.39 68.2596C240.229 68.313 240.016 68.3597 239.749 68.3997C239.495 68.4531 239.262 68.4798 239.048 68.4798ZM243.061 68.3997C242.794 68.3997 242.594 68.3263 242.461 68.1795C242.327 68.0194 242.261 67.7992 242.261 67.5189V59.3318C242.261 59.0515 242.327 58.838 242.461 58.6912C242.594 58.5444 242.794 58.471 243.061 58.471C243.315 58.471 243.515 58.5444 243.662 58.6912C243.809 58.838 243.882 59.0515 243.882 59.3318V67.5189C243.882 67.7992 243.809 68.0194 243.662 68.1795C243.528 68.3263 243.328 68.3997 243.061 68.3997ZM243.061 56.2291C242.728 56.2291 242.467 56.1423 242.281 55.9688C242.094 55.782 242 55.5351 242 55.2282C242 54.9079 242.094 54.6677 242.281 54.5076C242.467 54.3341 242.728 54.2473 243.061 54.2473C243.408 54.2473 243.668 54.3341 243.842 54.5076C244.029 54.6677 244.122 54.9079 244.122 55.2282C244.122 55.5351 244.029 55.782 243.842 55.9688C243.668 56.1423 243.408 56.2291 243.061 56.2291ZM250.957 68.4798C250.009 68.4798 249.188 68.2729 248.494 67.8592C247.8 67.4455 247.26 66.865 246.873 66.1177C246.499 65.357 246.313 64.4629 246.313 63.4354C246.313 62.6614 246.419 61.9674 246.633 61.3535C246.846 60.7263 247.16 60.1925 247.574 59.7521C247.987 59.3118 248.474 58.9781 249.035 58.7513C249.609 58.5111 250.249 58.391 250.957 58.391C251.904 58.391 252.725 58.5978 253.419 59.0115C254.113 59.4252 254.646 60.0124 255.02 60.773C255.407 61.5204 255.601 62.4078 255.601 63.4354C255.601 64.2094 255.494 64.9033 255.28 65.5172C255.067 66.131 254.753 66.6648 254.34 67.1186C253.926 67.559 253.432 67.8993 252.858 68.1395C252.298 68.3663 251.664 68.4798 250.957 68.4798ZM250.957 67.1786C251.557 67.1786 252.084 67.0318 252.538 66.7382C252.992 66.4447 253.339 66.0176 253.579 65.4571C253.832 64.8966 253.959 64.2227 253.959 63.4354C253.959 62.221 253.686 61.2935 253.138 60.6529C252.605 60.0124 251.877 59.6921 250.957 59.6921C250.343 59.6921 249.809 59.8389 249.355 60.1325C248.915 60.4127 248.568 60.8331 248.314 61.3936C248.074 61.9407 247.954 62.6213 247.954 63.4354C247.954 64.6364 248.228 65.5639 248.775 66.2178C249.322 66.8584 250.049 67.1786 250.957 67.1786ZM258.837 68.4397C258.57 68.4397 258.37 68.3663 258.236 68.2195C258.103 68.0727 258.036 67.8659 258.036 67.599V59.2517C258.036 58.9848 258.103 58.7846 258.236 58.6512C258.37 58.5044 258.563 58.431 258.817 58.431C259.07 58.431 259.264 58.5044 259.397 58.6512C259.544 58.7846 259.617 58.9848 259.617 59.2517V60.9732L259.397 60.733C259.677 59.959 260.131 59.3785 260.758 58.9915C261.399 58.5911 262.133 58.391 262.96 58.391C263.734 58.391 264.375 58.5311 264.882 58.8113C265.402 59.0916 265.789 59.5186 266.043 60.0924C266.297 60.6529 266.423 61.3669 266.423 62.2343V67.599C266.423 67.8659 266.35 68.0727 266.203 68.2195C266.07 68.3663 265.876 68.4397 265.623 68.4397C265.356 68.4397 265.149 68.3663 265.002 68.2195C264.869 68.0727 264.802 67.8659 264.802 67.599V62.3344C264.802 61.4269 264.622 60.7664 264.261 60.3527C263.914 59.9256 263.354 59.7121 262.58 59.7121C261.686 59.7121 260.972 59.9924 260.438 60.5528C259.918 61.1 259.657 61.834 259.657 62.7548V67.599C259.657 68.1595 259.384 68.4397 258.837 68.4397Z" fill="#A1A1A1"/>
</svg>
