<svg width="48" height="15" viewBox="0 0 48 15" fill="none" xmlns="http://www.w3.org/2000/svg">
<path d="M5.5252 14.4459C5.2841 14.4459 5.08988 14.3856 4.94254 14.265C4.7952 14.1311 4.67465 13.9369 4.58089 13.6824L0.140639 1.00457C0.0468784 0.723288 0.06697 0.488886 0.200914 0.301364C0.348253 0.100448 0.575958 -1.00595e-05 0.88403 -1.00595e-05C1.11173 -1.00595e-05 1.29256 0.0602649 1.4265 0.180815C1.56045 0.287969 1.6743 0.462097 1.76806 0.703196L5.92703 12.8988H5.22382L9.46316 0.763472C9.55692 0.508978 9.67077 0.321456 9.80471 0.200906C9.93866 0.066962 10.1195 -1.00595e-05 10.3472 -1.00595e-05C10.5615 -1.00595e-05 10.7289 0.066962 10.8495 0.200906C10.9834 0.321456 11.0973 0.508978 11.191 0.763472L15.3701 12.8988H14.7473L18.9464 0.703196C19.0134 0.475492 19.1138 0.301365 19.2478 0.180815C19.3951 0.0602649 19.5826 -1.00595e-05 19.8103 -1.00595e-05C20.0916 -1.00595e-05 20.2992 0.0937509 20.4332 0.281273C20.5671 0.468795 20.5805 0.709894 20.4734 1.00457L16.013 13.6824C15.9193 13.9369 15.7987 14.1311 15.6514 14.265C15.5174 14.3856 15.3232 14.4459 15.0687 14.4459C14.8276 14.4459 14.6334 14.3856 14.4861 14.265C14.3521 14.1311 14.2316 13.9369 14.1244 13.6824L10.086 2.04934H10.528L6.44941 13.6824C6.35565 13.9369 6.2418 14.1311 6.10785 14.265C5.97391 14.3856 5.77969 14.4459 5.5252 14.4459ZM25.7573 14.4861C24.8063 14.4861 23.9826 14.2784 23.286 13.8632C22.5895 13.448 22.0471 12.8653 21.6586 12.1152C21.2836 11.3518 21.0961 10.4543 21.0961 9.42296C21.0961 8.64609 21.2032 7.94958 21.4175 7.33344C21.6318 6.7039 21.9466 6.16812 22.3618 5.7261C22.7771 5.28409 23.2659 4.94923 23.8285 4.72152C24.4045 4.48042 25.0474 4.35987 25.7573 4.35987C26.7083 4.35987 27.5321 4.56749 28.2286 4.98271C28.9251 5.39794 29.4609 5.9873 29.8359 6.75078C30.2244 7.50087 30.4186 8.39159 30.4186 9.42296C30.4186 10.1998 30.3114 10.8964 30.0971 11.5125C29.8828 12.1286 29.568 12.6644 29.1528 13.1198C28.7376 13.5618 28.242 13.9034 27.666 14.1445C27.1035 14.3722 26.4672 14.4861 25.7573 14.4861ZM25.7573 13.1801C26.3601 13.1801 26.8891 13.0328 27.3446 12.7381C27.8 12.4434 28.1482 12.0148 28.3893 11.4522C28.6438 10.8897 28.7711 10.2132 28.7711 9.42296C28.7711 8.20407 28.4965 7.27316 27.9473 6.63023C27.4115 5.9873 26.6815 5.66583 25.7573 5.66583C25.1412 5.66583 24.6054 5.81317 24.15 6.10785C23.708 6.38913 23.3597 6.81105 23.1052 7.37362C22.8641 7.92279 22.7436 8.6059 22.7436 9.42296C22.7436 10.6285 23.0182 11.5594 23.5673 12.2157C24.1165 12.8586 24.8465 13.1801 25.7573 13.1801ZM33.6868 14.4459C33.4189 14.4459 33.2113 14.3722 33.0639 14.2249C32.93 14.0775 32.863 13.8699 32.863 13.602V5.22381C32.863 4.95593 32.93 4.75501 33.0639 4.62106C33.1979 4.47373 33.3921 4.40006 33.6466 4.40006C33.9011 4.40006 34.0953 4.47373 34.2292 4.62106C34.3766 4.75501 34.4502 4.95593 34.4502 5.22381V6.85124H34.2493C34.4636 6.06097 34.8722 5.45152 35.4749 5.0229C36.0777 4.59428 36.8211 4.36657 37.7051 4.33978C37.906 4.32639 38.0667 4.37327 38.1873 4.48042C38.3078 4.57418 38.3748 4.74161 38.3882 4.98271C38.4016 5.21042 38.348 5.39124 38.2275 5.52519C38.1069 5.65913 37.9194 5.7395 37.6649 5.76629L37.3434 5.80647C36.4326 5.88684 35.7294 6.18151 35.2338 6.6905C34.7516 7.1861 34.5105 7.86921 34.5105 8.73985V13.602C34.5105 13.8699 34.4368 14.0775 34.2895 14.2249C34.1556 14.3722 33.9546 14.4459 33.6868 14.4459ZM40.8675 14.4459C40.5996 14.4459 40.3987 14.3722 40.2647 14.2249C40.1308 14.0775 40.0638 13.8699 40.0638 13.602V0.823747C40.0638 0.555858 40.1308 0.354942 40.2647 0.220997C40.3987 0.0736591 40.5996 -1.00595e-05 40.8675 -1.00595e-05C41.122 -1.00595e-05 41.3229 0.0736591 41.4702 0.220997C41.6176 0.354942 41.6912 0.555858 41.6912 0.823747V8.88049H41.7314L45.8502 4.94253C46.0377 4.7684 46.1985 4.63446 46.3324 4.5407C46.4797 4.44694 46.674 4.40006 46.9151 4.40006C47.1294 4.40006 47.2968 4.46033 47.4173 4.58088C47.5379 4.68804 47.5915 4.82868 47.5781 5.00281C47.5781 5.16354 47.4977 5.33767 47.337 5.52519L42.957 9.68416V8.80012L47.7187 13.2806C47.9062 13.4681 48 13.6489 48 13.823C48 13.9972 47.933 14.1445 47.7991 14.265C47.6785 14.3856 47.5178 14.4459 47.3169 14.4459C47.0758 14.4459 46.8816 14.399 46.7342 14.3052C46.5869 14.1981 46.4061 14.044 46.1918 13.8431L41.7314 9.72434H41.6912V13.602C41.6912 14.1646 41.4166 14.4459 40.8675 14.4459Z" fill="#A1A1A1"/>
</svg>
