<svg width="294" height="15" viewBox="0 0 294 15" fill="none" xmlns="http://www.w3.org/2000/svg">
<path d="M9.08618 13.5969C9.19321 13.7575 9.23601 13.9019 9.21461 14.0304C9.20391 14.1695 9.1504 14.2819 9.05408 14.3675C8.96846 14.4638 8.86144 14.5227 8.73301 14.5441C8.60459 14.5762 8.47081 14.5601 8.33168 14.4959C8.20326 14.4424 8.09088 14.3354 7.99456 14.1748L6.9511 12.5214C6.77987 12.2217 6.54442 11.9916 6.24476 11.8311C5.9451 11.6812 5.58658 11.6063 5.16919 11.6063L6.26081 11.1408C6.76381 11.1408 7.15979 11.2317 7.44875 11.4137C7.74841 11.5849 8.04272 11.906 8.33168 12.3769L9.08618 13.5969ZM5.16919 11.6063C4.12038 11.6063 3.20535 11.3709 2.42409 10.9C1.65353 10.4184 1.05421 9.74415 0.626125 8.87727C0.20874 8.0104 4.80816e-05 6.98299 4.80816e-05 5.79505C4.80816e-05 4.89607 0.117772 4.0934 0.353219 3.38706C0.599369 2.67002 0.947189 2.06534 1.39668 1.57304C1.84617 1.07004 2.38663 0.684765 3.01806 0.417211C3.66019 0.138955 4.37723 -0.000173189 5.16919 -0.000173189C6.23941 -0.000173189 7.15979 0.235275 7.93035 0.70617C8.71161 1.17706 9.31093 1.84595 9.72831 2.71283C10.1564 3.569 10.3704 4.59105 10.3704 5.779C10.3704 6.67798 10.2474 7.48599 10.0012 8.20303C9.75507 8.92008 9.40725 9.5301 8.95776 10.0331C8.50827 10.5361 7.96246 10.9267 7.32033 11.205C6.6889 11.4725 5.97185 11.6063 5.16919 11.6063ZM5.16919 10.4344C5.98256 10.4344 6.6675 10.2525 7.22401 9.88863C7.79122 9.52475 8.22466 8.99499 8.52432 8.29935C8.82398 7.60371 8.97381 6.76894 8.97381 5.79505C8.97381 4.32885 8.64204 3.19442 7.97851 2.39176C7.32568 1.5784 6.38924 1.17171 5.16919 1.17171C4.37723 1.17171 3.69765 1.35365 3.13043 1.71752C2.57392 2.0814 2.14583 2.61115 1.84617 3.3068C1.54651 3.99173 1.39668 4.82115 1.39668 5.79505C1.39668 7.25054 1.72845 8.39032 2.39198 9.21439C3.05552 10.0278 3.98125 10.4344 5.16919 10.4344ZM13.1734 11.5261C12.9058 11.5261 12.6918 11.4458 12.5312 11.2853C12.3707 11.114 12.2904 10.9 12.2904 10.6431C12.2904 10.3863 12.3707 10.1776 12.5312 10.0171C12.6918 9.84582 12.9058 9.7602 13.1734 9.7602C13.4409 9.7602 13.6496 9.84582 13.7994 10.0171C13.96 10.1776 14.0402 10.3863 14.0402 10.6431C14.0402 10.9 13.96 11.114 13.7994 11.2853C13.6496 11.4458 13.4409 11.5261 13.1734 11.5261ZM13.1734 5.36161C12.9058 5.36161 12.6918 5.27599 12.5312 5.10476C12.3707 4.93352 12.2904 4.72483 12.2904 4.47868C12.2904 4.21113 12.3707 3.99708 12.5312 3.83655C12.6918 3.67602 12.9058 3.59575 13.1734 3.59575C13.4409 3.59575 13.6496 3.67602 13.7994 3.83655C13.96 3.99708 14.0402 4.21113 14.0402 4.47868C14.0402 4.72483 13.96 4.93352 13.7994 5.10476C13.6496 5.27599 13.4409 5.36161 13.1734 5.36161ZM21.2377 11.4618C21.0023 11.4618 20.8204 11.403 20.6919 11.2853C20.5742 11.1568 20.5153 10.9749 20.5153 10.7394V0.866702C20.5153 0.631255 20.5742 0.454669 20.6919 0.336945C20.8204 0.208519 21.0023 0.144306 21.2377 0.144306H24.336C26.1661 0.144306 27.5788 0.625904 28.5741 1.5891C29.5694 2.55229 30.067 3.95428 30.067 5.79505C30.067 6.71543 29.9386 7.5288 29.6817 8.23514C29.4356 8.93078 29.0664 9.5194 28.5741 10.001C28.0818 10.4826 27.4824 10.8465 26.7761 11.0926C26.0698 11.3388 25.2564 11.4618 24.336 11.4618H21.2377ZM21.8317 10.3381H24.2397C24.9888 10.3381 25.6363 10.2418 26.1821 10.0492C26.7386 9.85652 27.1988 9.57291 27.5627 9.19834C27.9373 8.82376 28.2155 8.35286 28.3975 7.78565C28.5794 7.20773 28.6704 6.5442 28.6704 5.79505C28.6704 4.28604 28.3012 3.15697 27.5627 2.40781C26.8243 1.64796 25.7166 1.26803 24.2397 1.26803H21.8317V10.3381ZM35.496 11.6063C34.7362 11.6063 34.078 11.4404 33.5215 11.1087C32.965 10.7769 32.5315 10.3114 32.2212 9.71204C31.9215 9.10202 31.7717 8.38497 31.7717 7.5609C31.7717 6.94018 31.8573 6.38367 32.0285 5.89137C32.1998 5.38837 32.4513 4.96028 32.783 4.60711C33.1148 4.25394 33.5054 3.98638 33.9549 3.80445C34.4151 3.61181 34.9288 3.51549 35.496 3.51549C36.2559 3.51549 36.9141 3.68137 37.4706 4.01314C38.0271 4.3449 38.4552 4.8158 38.7548 5.42582C39.0652 6.02514 39.2204 6.73684 39.2204 7.5609C39.2204 8.18163 39.1348 8.73814 38.9635 9.23044C38.7923 9.72274 38.5408 10.1508 38.209 10.5147C37.8773 10.8679 37.4813 11.1408 37.0211 11.3334C36.5716 11.5154 36.0632 11.6063 35.496 11.6063ZM35.496 10.5629C35.9776 10.5629 36.4004 10.4451 36.7642 10.2097C37.1281 9.97424 37.4064 9.63177 37.599 9.18228C37.8023 8.73279 37.904 8.19233 37.904 7.5609C37.904 6.58701 37.6846 5.84321 37.2458 5.3295C36.8177 4.8158 36.2345 4.55895 35.496 4.55895C35.0037 4.55895 34.5756 4.67667 34.2118 4.91212C33.8586 5.13686 33.5803 5.47398 33.377 5.92347C33.1844 6.36226 33.088 6.90807 33.088 7.5609C33.088 8.5241 33.3074 9.2679 33.7462 9.79231C34.185 10.306 34.7683 10.5629 35.496 10.5629ZM46.147 11.5742C45.9329 11.5742 45.767 11.5154 45.6493 11.3976C45.5423 11.2692 45.4888 11.098 45.4888 10.8839V0.722223C45.4888 0.497477 45.5423 0.326243 45.6493 0.208519C45.767 0.0907956 45.9329 0.0319338 46.147 0.0319338C46.361 0.0319338 46.5216 0.0907956 46.6286 0.208519C46.7463 0.326243 46.8052 0.497477 46.8052 0.722223V10.8839C46.8052 11.098 46.7516 11.2692 46.6446 11.3976C46.5376 11.5154 46.3717 11.5742 46.147 11.5742ZM54.2161 11.5742C54.0021 11.5742 53.8415 11.5154 53.7345 11.3976C53.6275 11.2799 53.574 11.114 53.574 10.9V4.20578C53.574 3.99173 53.6275 3.8312 53.7345 3.72418C53.8415 3.60646 53.9967 3.54759 54.2001 3.54759C54.4034 3.54759 54.5586 3.60646 54.6656 3.72418C54.7833 3.8312 54.8422 3.99173 54.8422 4.20578V5.58636L54.6656 5.39372C54.8904 4.77299 55.2542 4.30745 55.7572 3.99708C56.2709 3.67602 56.8595 3.51549 57.5231 3.51549C58.1438 3.51549 58.6575 3.62786 59.0642 3.85261C59.4816 4.07735 59.7919 4.41982 59.9953 4.88001C60.1986 5.3295 60.3003 5.90207 60.3003 6.59771V10.9C60.3003 11.114 60.2414 11.2799 60.1237 11.3976C60.0167 11.5154 59.8615 11.5742 59.6582 11.5742C59.4441 11.5742 59.2782 11.5154 59.1605 11.3976C59.0535 11.2799 59 11.114 59 10.9V6.67798C59 5.95023 58.8555 5.42047 58.5665 5.08871C58.2883 4.74624 57.8388 4.575 57.2181 4.575C56.501 4.575 55.9285 4.79975 55.5004 5.24924C55.083 5.68803 54.8743 6.27665 54.8743 7.01509V10.9C54.8743 11.3495 54.6549 11.5742 54.2161 11.5742ZM66.2137 11.6063C65.3896 11.6063 64.6779 11.4458 64.0786 11.1247C63.49 10.793 63.0298 10.3274 62.698 9.72809C62.3769 9.12877 62.2164 8.41173 62.2164 7.57696C62.2164 6.76359 62.3769 6.05725 62.698 5.45793C63.0191 4.84791 63.4578 4.37166 64.0144 4.02919C64.5816 3.68672 65.2344 3.51549 65.9729 3.51549C66.4973 3.51549 66.9682 3.60646 67.3855 3.78839C67.8029 3.95963 68.1561 4.21113 68.4451 4.54289C68.7447 4.87466 68.9695 5.27599 69.1193 5.74689C69.2798 6.21778 69.3601 6.74754 69.3601 7.33616C69.3601 7.50739 69.3119 7.63582 69.2156 7.72144C69.1193 7.79635 68.9802 7.83381 68.7982 7.83381H63.2117V6.98299H68.4932L68.2364 7.19168C68.2364 6.61376 68.1507 6.12681 67.9795 5.73083C67.8083 5.32415 67.5568 5.01379 67.225 4.79975C66.9039 4.5857 66.4973 4.47868 66.005 4.47868C65.4592 4.47868 64.9936 4.60711 64.6083 4.86396C64.2338 5.11011 63.9501 5.45793 63.7575 5.90742C63.5649 6.34621 63.4686 6.85991 63.4686 7.44853V7.54485C63.4686 8.52945 63.704 9.2786 64.1749 9.79231C64.6565 10.306 65.3361 10.5629 66.2137 10.5629C66.5775 10.5629 66.9361 10.5147 67.2892 10.4184C67.6531 10.3221 68.0063 10.1615 68.3487 9.93678C68.4986 9.84047 68.6323 9.79766 68.7501 9.80836C68.8785 9.80836 68.9802 9.84582 69.0551 9.92073C69.13 9.98494 69.1782 10.0706 69.1996 10.1776C69.2317 10.2739 69.221 10.3809 69.1675 10.4986C69.1246 10.6164 69.0337 10.718 68.8945 10.8037C68.5414 11.0605 68.124 11.2585 67.6424 11.3976C67.1608 11.5368 66.6846 11.6063 66.2137 11.6063ZM74.7576 11.6063C73.9336 11.6063 73.2219 11.4458 72.6225 11.1247C72.0339 10.793 71.5737 10.3274 71.242 9.72809C70.9209 9.12877 70.7604 8.41173 70.7604 7.57696C70.7604 6.76359 70.9209 6.05725 71.242 5.45793C71.563 4.84791 72.0018 4.37166 72.5583 4.02919C73.1255 3.68672 73.7784 3.51549 74.5168 3.51549C75.0412 3.51549 75.5121 3.60646 75.9295 3.78839C76.3469 3.95963 76.7001 4.21113 76.989 4.54289C77.2887 4.87466 77.5134 5.27599 77.6633 5.74689C77.8238 6.21778 77.9041 6.74754 77.9041 7.33616C77.9041 7.50739 77.8559 7.63582 77.7596 7.72144C77.6633 7.79635 77.5241 7.83381 77.3422 7.83381H71.7557V6.98299H77.0372L76.7803 7.19168C76.7803 6.61376 76.6947 6.12681 76.5235 5.73083C76.3522 5.32415 76.1007 5.01379 75.769 4.79975C75.4479 4.5857 75.0412 4.47868 74.5489 4.47868C74.0031 4.47868 73.5376 4.60711 73.1523 4.86396C72.7777 5.11011 72.4941 5.45793 72.3015 5.90742C72.1088 6.34621 72.0125 6.85991 72.0125 7.44853V7.54485C72.0125 8.52945 72.248 9.2786 72.7189 9.79231C73.2005 10.306 73.88 10.5629 74.7576 10.5629C75.1215 10.5629 75.48 10.5147 75.8332 10.4184C76.1971 10.3221 76.5502 10.1615 76.8927 9.93678C77.0425 9.84047 77.1763 9.79766 77.294 9.80836C77.4225 9.80836 77.5241 9.84582 77.599 9.92073C77.674 9.98494 77.7221 10.0706 77.7435 10.1776C77.7756 10.2739 77.7649 10.3809 77.7114 10.4986C77.6686 10.6164 77.5776 10.718 77.4385 10.8037C77.0853 11.0605 76.668 11.2585 76.1864 11.3976C75.7048 11.5368 75.2285 11.6063 74.7576 11.6063ZM82.7558 11.6063C82.0601 11.6063 81.4501 11.4404 80.9257 11.1087C80.412 10.7769 80.0107 10.3114 79.7217 9.71204C79.4435 9.10202 79.3043 8.38497 79.3043 7.5609C79.3043 6.72614 79.4435 6.00909 79.7217 5.40977C80.0107 4.79975 80.412 4.3342 80.9257 4.01314C81.4501 3.68137 82.0601 3.51549 82.7558 3.51549C83.4621 3.51549 84.0668 3.69207 84.5698 4.04524C85.0728 4.39842 85.4099 4.87466 85.5811 5.47398H85.4046V0.690117C85.4046 0.476073 85.4581 0.315541 85.5651 0.208519C85.6828 0.0907956 85.8487 0.0319338 86.0627 0.0319338C86.2661 0.0319338 86.4213 0.0907956 86.5283 0.208519C86.646 0.315541 86.7049 0.476073 86.7049 0.690117V10.9C86.7049 11.114 86.6514 11.2799 86.5443 11.3976C86.4373 11.5154 86.2768 11.5742 86.0627 11.5742C85.8594 11.5742 85.6989 11.5154 85.5811 11.3976C85.4741 11.2799 85.4206 11.114 85.4206 10.9V9.37492L85.5972 9.59967C85.426 10.2097 85.0835 10.6966 84.5698 11.0605C84.0668 11.4244 83.4621 11.6063 82.7558 11.6063ZM83.0287 10.5629C83.5103 10.5629 83.933 10.4451 84.2969 10.2097C84.6608 9.97424 84.939 9.63177 85.1317 9.18228C85.335 8.73279 85.4367 8.19233 85.4367 7.5609C85.4367 6.58701 85.2173 5.84321 84.7785 5.3295C84.3504 4.8158 83.7671 4.55895 83.0287 4.55895C82.5364 4.55895 82.1083 4.67667 81.7444 4.91212C81.3912 5.13686 81.113 5.47398 80.9096 5.92347C80.717 6.36226 80.6207 6.90807 80.6207 7.5609C80.6207 8.5241 80.8401 9.2679 81.2789 9.79231C81.7177 10.306 82.3009 10.5629 83.0287 10.5629ZM96.4142 11.6063C95.8042 11.6063 95.2905 11.4993 94.8731 11.2853C94.4664 11.0605 94.1614 10.7394 93.958 10.3221C93.7547 9.89398 93.653 9.37492 93.653 8.7649V4.67132H92.5775C92.3955 4.67132 92.2564 4.62851 92.1601 4.54289C92.0638 4.44658 92.0156 4.31815 92.0156 4.15762C92.0156 3.99708 92.0638 3.87401 92.1601 3.78839C92.2564 3.70278 92.3955 3.65997 92.5775 3.65997H93.653V1.81384C93.653 1.5998 93.7119 1.43927 93.8296 1.33225C93.9473 1.21452 94.1079 1.15566 94.3112 1.15566C94.5146 1.15566 94.6697 1.21452 94.7768 1.33225C94.8945 1.43927 94.9534 1.5998 94.9534 1.81384V3.65997H96.9761C97.158 3.65997 97.2971 3.70278 97.3934 3.78839C97.4898 3.87401 97.5379 3.99708 97.5379 4.15762C97.5379 4.31815 97.4898 4.44658 97.3934 4.54289C97.2971 4.62851 97.158 4.67132 96.9761 4.67132H94.9534V8.63647C94.9534 9.2465 95.0818 9.71204 95.3386 10.0331C95.5955 10.3435 96.0129 10.4986 96.5908 10.4986C96.7941 10.4986 96.9654 10.4772 97.1045 10.4344C97.2543 10.3916 97.3774 10.3702 97.4737 10.3702C97.57 10.3595 97.6503 10.3916 97.7145 10.4665C97.7787 10.5415 97.8108 10.6699 97.8108 10.8518C97.8108 10.9802 97.7841 11.098 97.7306 11.205C97.6878 11.312 97.6075 11.3869 97.4898 11.4297C97.3613 11.4725 97.1901 11.51 96.9761 11.5421C96.7727 11.5849 96.5854 11.6063 96.4142 11.6063ZM102.061 11.6063C101.301 11.6063 100.643 11.4404 100.086 11.1087C99.5295 10.7769 99.096 10.3114 98.7857 9.71204C98.486 9.10202 98.3362 8.38497 98.3362 7.5609C98.3362 6.94018 98.4218 6.38367 98.593 5.89137C98.7643 5.38837 99.0158 4.96028 99.3475 4.60711C99.6793 4.25394 100.07 3.98638 100.519 3.80445C100.98 3.61181 101.493 3.51549 102.061 3.51549C102.82 3.51549 103.479 3.68137 104.035 4.01314C104.592 4.3449 105.02 4.8158 105.319 5.42582C105.63 6.02514 105.785 6.73684 105.785 7.5609C105.785 8.18163 105.699 8.73814 105.528 9.23044C105.357 9.72274 105.105 10.1508 104.774 10.5147C104.442 10.8679 104.046 11.1408 103.586 11.3334C103.136 11.5154 102.628 11.6063 102.061 11.6063ZM102.061 10.5629C102.542 10.5629 102.965 10.4451 103.329 10.2097C103.693 9.97424 103.971 9.63177 104.164 9.18228C104.367 8.73279 104.469 8.19233 104.469 7.5609C104.469 6.58701 104.249 5.84321 103.81 5.3295C103.382 4.8158 102.799 4.55895 102.061 4.55895C101.568 4.55895 101.14 4.67667 100.776 4.91212C100.423 5.13686 100.145 5.47398 99.9415 5.92347C99.7489 6.36226 99.6526 6.90807 99.6526 7.5609C99.6526 8.5241 99.872 9.2679 100.311 9.79231C100.75 10.306 101.333 10.5629 102.061 10.5629ZM115.184 11.6063C114.402 11.6063 113.728 11.4351 113.161 11.0926C112.594 10.7501 112.155 10.2739 111.845 9.66388C111.545 9.04315 111.395 8.32611 111.395 7.51275C111.395 6.89202 111.481 6.33551 111.652 5.84321C111.823 5.35091 112.075 4.93352 112.406 4.59105C112.738 4.23788 113.134 3.97033 113.594 3.78839C114.065 3.60646 114.595 3.51549 115.184 3.51549C115.569 3.51549 115.97 3.57435 116.388 3.69207C116.805 3.8098 117.185 4.01314 117.527 4.3021C117.634 4.37701 117.704 4.46798 117.736 4.575C117.768 4.68202 117.768 4.78904 117.736 4.89607C117.704 4.99239 117.651 5.078 117.576 5.15292C117.501 5.21713 117.404 5.25459 117.287 5.26529C117.18 5.27599 117.067 5.23854 116.95 5.15292C116.671 4.93888 116.388 4.78904 116.099 4.70343C115.81 4.61781 115.532 4.575 115.264 4.575C114.847 4.575 114.483 4.64457 114.172 4.78369C113.862 4.91212 113.6 5.09941 113.386 5.34556C113.172 5.59171 113.006 5.89672 112.888 6.26059C112.781 6.62447 112.728 7.0472 112.728 7.5288C112.728 8.45989 112.947 9.19834 113.386 9.74415C113.825 10.2793 114.451 10.5468 115.264 10.5468C115.532 10.5468 115.804 10.504 116.083 10.4184C116.372 10.3328 116.661 10.1829 116.95 9.96889C117.067 9.88327 117.18 9.84582 117.287 9.85652C117.394 9.86722 117.485 9.91003 117.56 9.98494C117.634 10.0492 117.683 10.1348 117.704 10.2418C117.736 10.3488 117.736 10.4558 117.704 10.5629C117.672 10.6592 117.602 10.7448 117.495 10.8197C117.153 11.098 116.778 11.3013 116.372 11.4297C115.965 11.5475 115.569 11.6063 115.184 11.6063ZM122.394 11.6063C121.634 11.6063 120.976 11.4404 120.419 11.1087C119.863 10.7769 119.429 10.3114 119.119 9.71204C118.819 9.10202 118.669 8.38497 118.669 7.5609C118.669 6.94018 118.755 6.38367 118.926 5.89137C119.097 5.38837 119.349 4.96028 119.681 4.60711C120.012 4.25394 120.403 3.98638 120.852 3.80445C121.313 3.61181 121.826 3.51549 122.394 3.51549C123.153 3.51549 123.812 3.68137 124.368 4.01314C124.925 4.3449 125.353 4.8158 125.652 5.42582C125.963 6.02514 126.118 6.73684 126.118 7.5609C126.118 8.18163 126.032 8.73814 125.861 9.23044C125.69 9.72274 125.438 10.1508 125.107 10.5147C124.775 10.8679 124.379 11.1408 123.919 11.3334C123.469 11.5154 122.961 11.6063 122.394 11.6063ZM122.394 10.5629C122.875 10.5629 123.298 10.4451 123.662 10.2097C124.026 9.97424 124.304 9.63177 124.497 9.18228C124.7 8.73279 124.802 8.19233 124.802 7.5609C124.802 6.58701 124.582 5.84321 124.143 5.3295C123.715 4.8158 123.132 4.55895 122.394 4.55895C121.901 4.55895 121.473 4.67667 121.109 4.91212C120.756 5.13686 120.478 5.47398 120.275 5.92347C120.082 6.36226 119.986 6.90807 119.986 7.5609C119.986 8.5241 120.205 9.2679 120.644 9.79231C121.083 10.306 121.666 10.5629 122.394 10.5629ZM128.745 11.5742C128.531 11.5742 128.371 11.5154 128.264 11.3976C128.157 11.2799 128.103 11.114 128.103 10.9V4.20578C128.103 3.99173 128.157 3.8312 128.264 3.72418C128.371 3.60646 128.526 3.54759 128.729 3.54759C128.933 3.54759 129.088 3.60646 129.195 3.72418C129.313 3.8312 129.371 3.99173 129.371 4.20578V5.61846L129.195 5.39372C129.398 4.7944 129.725 4.3342 130.174 4.01314C130.634 3.68137 131.18 3.51549 131.811 3.51549C132.475 3.51549 133.01 3.67602 133.417 3.99708C133.834 4.30745 134.112 4.7944 134.252 5.45793H134.011C134.203 4.85861 134.546 4.38771 135.038 4.04524C135.541 3.69207 136.124 3.51549 136.788 3.51549C137.377 3.51549 137.858 3.62786 138.233 3.85261C138.618 4.07735 138.907 4.41982 139.1 4.88001C139.292 5.3295 139.389 5.90207 139.389 6.59771V10.9C139.389 11.114 139.33 11.2799 139.212 11.3976C139.105 11.5154 138.944 11.5742 138.73 11.5742C138.527 11.5742 138.367 11.5154 138.249 11.3976C138.142 11.2799 138.088 11.114 138.088 10.9V6.66192C138.088 5.94488 137.965 5.42047 137.719 5.08871C137.473 4.74624 137.056 4.575 136.467 4.575C135.825 4.575 135.316 4.79975 134.942 5.24924C134.578 5.68803 134.396 6.28735 134.396 7.0472V10.9C134.396 11.114 134.337 11.2799 134.219 11.3976C134.112 11.5154 133.952 11.5742 133.738 11.5742C133.535 11.5742 133.374 11.5154 133.256 11.3976C133.149 11.2799 133.096 11.114 133.096 10.9V6.66192C133.096 5.94488 132.967 5.42047 132.71 5.08871C132.464 4.74624 132.052 4.575 131.474 4.575C130.832 4.575 130.324 4.79975 129.949 5.24924C129.585 5.68803 129.403 6.28735 129.403 7.0472V10.9C129.403 11.3495 129.184 11.5742 128.745 11.5742ZM142.462 14.4638C142.248 14.4638 142.087 14.4049 141.98 14.2872C141.873 14.1802 141.82 14.0197 141.82 13.8056V4.20578C141.82 3.99173 141.873 3.8312 141.98 3.72418C142.087 3.60646 142.243 3.54759 142.446 3.54759C142.66 3.54759 142.82 3.60646 142.927 3.72418C143.045 3.8312 143.104 3.99173 143.104 4.20578V5.73083L142.927 5.50609C143.099 4.89607 143.436 4.41447 143.939 4.0613C144.453 3.69742 145.063 3.51549 145.769 3.51549C146.465 3.51549 147.069 3.68137 147.583 4.01314C148.107 4.3342 148.509 4.79975 148.787 5.40977C149.076 6.00909 149.22 6.72614 149.22 7.5609C149.22 8.38497 149.076 9.10202 148.787 9.71204C148.509 10.3114 148.113 10.7769 147.599 11.1087C147.085 11.4404 146.475 11.6063 145.769 11.6063C145.063 11.6063 144.458 11.4297 143.955 11.0766C143.452 10.7127 143.109 10.2311 142.927 9.63177H143.12V13.8056C143.12 14.0197 143.061 14.1802 142.944 14.2872C142.826 14.4049 142.665 14.4638 142.462 14.4638ZM145.496 10.5629C145.988 10.5629 146.411 10.4451 146.764 10.2097C147.128 9.97424 147.406 9.63177 147.599 9.18228C147.802 8.73279 147.904 8.19233 147.904 7.5609C147.904 6.58701 147.685 5.84321 147.246 5.3295C146.818 4.8158 146.234 4.55895 145.496 4.55895C145.014 4.55895 144.592 4.67667 144.228 4.91212C143.864 5.13686 143.58 5.47398 143.377 5.92347C143.184 6.36226 143.088 6.90807 143.088 7.5609C143.088 8.5241 143.307 9.2679 143.746 9.79231C144.185 10.306 144.768 10.5629 145.496 10.5629ZM153.555 11.6063C152.784 11.6063 152.196 11.3709 151.789 10.9C151.382 10.4291 151.179 9.75485 151.179 8.87727V0.690117C151.179 0.476073 151.232 0.315541 151.339 0.208519C151.447 0.0907956 151.607 0.0319338 151.821 0.0319338C152.024 0.0319338 152.185 0.0907956 152.303 0.208519C152.42 0.315541 152.479 0.476073 152.479 0.690117V8.78095C152.479 9.35887 152.592 9.79231 152.816 10.0813C153.052 10.3595 153.394 10.4986 153.844 10.4986C153.94 10.4986 154.026 10.4933 154.101 10.4826C154.176 10.4719 154.25 10.4665 154.325 10.4665C154.443 10.4558 154.523 10.4826 154.566 10.5468C154.62 10.611 154.646 10.7394 154.646 10.9321C154.646 11.1247 154.604 11.2692 154.518 11.3655C154.432 11.4618 154.293 11.5261 154.101 11.5582C154.015 11.5689 153.924 11.5796 153.828 11.5903C153.731 11.601 153.64 11.6063 153.555 11.6063ZM159.366 11.6063C158.542 11.6063 157.831 11.4458 157.231 11.1247C156.643 10.793 156.182 10.3274 155.851 9.72809C155.53 9.12877 155.369 8.41173 155.369 7.57696C155.369 6.76359 155.53 6.05725 155.851 5.45793C156.172 4.84791 156.611 4.37166 157.167 4.02919C157.734 3.68672 158.387 3.51549 159.126 3.51549C159.65 3.51549 160.121 3.60646 160.538 3.78839C160.956 3.95963 161.309 4.21113 161.598 4.54289C161.897 4.87466 162.122 5.27599 162.272 5.74689C162.433 6.21778 162.513 6.74754 162.513 7.33616C162.513 7.50739 162.465 7.63582 162.368 7.72144C162.272 7.79635 162.133 7.83381 161.951 7.83381H156.364V6.98299H161.646L161.389 7.19168C161.389 6.61376 161.303 6.12681 161.132 5.73083C160.961 5.32415 160.709 5.01379 160.378 4.79975C160.057 4.5857 159.65 4.47868 159.158 4.47868C158.612 4.47868 158.146 4.60711 157.761 4.86396C157.386 5.11011 157.103 5.45793 156.91 5.90742C156.718 6.34621 156.621 6.85991 156.621 7.44853V7.54485C156.621 8.52945 156.857 9.2786 157.328 9.79231C157.809 10.306 158.489 10.5629 159.366 10.5629C159.73 10.5629 160.089 10.5147 160.442 10.4184C160.806 10.3221 161.159 10.1615 161.501 9.93678C161.651 9.84047 161.785 9.79766 161.903 9.80836C162.031 9.80836 162.133 9.84582 162.208 9.92073C162.283 9.98494 162.331 10.0706 162.352 10.1776C162.384 10.2739 162.374 10.3809 162.32 10.4986C162.277 10.6164 162.186 10.718 162.047 10.8037C161.694 11.0605 161.277 11.2585 160.795 11.3976C160.314 11.5368 159.837 11.6063 159.366 11.6063ZM167.525 11.6063C166.915 11.6063 166.401 11.4993 165.984 11.2853C165.577 11.0605 165.272 10.7394 165.069 10.3221C164.866 9.89398 164.764 9.37492 164.764 8.7649V4.67132H163.688C163.506 4.67132 163.367 4.62851 163.271 4.54289C163.175 4.44658 163.126 4.31815 163.126 4.15762C163.126 3.99708 163.175 3.87401 163.271 3.78839C163.367 3.70278 163.506 3.65997 163.688 3.65997H164.764V1.81384C164.764 1.5998 164.823 1.43927 164.94 1.33225C165.058 1.21452 165.219 1.15566 165.422 1.15566C165.625 1.15566 165.781 1.21452 165.888 1.33225C166.005 1.43927 166.064 1.5998 166.064 1.81384V3.65997H168.087C168.269 3.65997 168.408 3.70278 168.504 3.78839C168.601 3.87401 168.649 3.99708 168.649 4.15762C168.649 4.31815 168.601 4.44658 168.504 4.54289C168.408 4.62851 168.269 4.67132 168.087 4.67132H166.064V8.63647C166.064 9.2465 166.193 9.71204 166.449 10.0331C166.706 10.3435 167.124 10.4986 167.702 10.4986C167.905 10.4986 168.076 10.4772 168.215 10.4344C168.365 10.3916 168.488 10.3702 168.585 10.3702C168.681 10.3595 168.761 10.3916 168.825 10.4665C168.89 10.5415 168.922 10.6699 168.922 10.8518C168.922 10.9802 168.895 11.098 168.841 11.205C168.799 11.312 168.718 11.3869 168.601 11.4297C168.472 11.4725 168.301 11.51 168.087 11.5421C167.884 11.5849 167.696 11.6063 167.525 11.6063ZM173.444 11.6063C172.62 11.6063 171.909 11.4458 171.309 11.1247C170.721 10.793 170.26 10.3274 169.929 9.72809C169.608 9.12877 169.447 8.41173 169.447 7.57696C169.447 6.76359 169.608 6.05725 169.929 5.45793C170.25 4.84791 170.688 4.37166 171.245 4.02919C171.812 3.68672 172.465 3.51549 173.204 3.51549C173.728 3.51549 174.199 3.60646 174.616 3.78839C175.034 3.95963 175.387 4.21113 175.676 4.54289C175.975 4.87466 176.2 5.27599 176.35 5.74689C176.51 6.21778 176.591 6.74754 176.591 7.33616C176.591 7.50739 176.543 7.63582 176.446 7.72144C176.35 7.79635 176.211 7.83381 176.029 7.83381H170.442V6.98299H175.724L175.467 7.19168C175.467 6.61376 175.381 6.12681 175.21 5.73083C175.039 5.32415 174.787 5.01379 174.456 4.79975C174.135 4.5857 173.728 4.47868 173.236 4.47868C172.69 4.47868 172.224 4.60711 171.839 4.86396C171.464 5.11011 171.181 5.45793 170.988 5.90742C170.796 6.34621 170.699 6.85991 170.699 7.44853V7.54485C170.699 8.52945 170.935 9.2786 171.406 9.79231C171.887 10.306 172.567 10.5629 173.444 10.5629C173.808 10.5629 174.167 10.5147 174.52 10.4184C174.884 10.3221 175.237 10.1615 175.579 9.93678C175.729 9.84047 175.863 9.79766 175.981 9.80836C176.109 9.80836 176.211 9.84582 176.286 9.92073C176.361 9.98494 176.409 10.0706 176.43 10.1776C176.462 10.2739 176.452 10.3809 176.398 10.4986C176.355 10.6164 176.264 10.718 176.125 10.8037C175.772 11.0605 175.355 11.2585 174.873 11.3976C174.391 11.5368 173.915 11.6063 173.444 11.6063ZM183.253 11.5421C183.039 11.5421 182.879 11.4832 182.772 11.3655C182.665 11.2371 182.611 11.0605 182.611 10.8358V4.26999C182.611 4.04524 182.665 3.87401 182.772 3.75629C182.879 3.63856 183.039 3.5797 183.253 3.5797C183.457 3.5797 183.617 3.63856 183.735 3.75629C183.853 3.87401 183.912 4.04524 183.912 4.26999V10.8358C183.912 11.0605 183.853 11.2371 183.735 11.3655C183.628 11.4832 183.468 11.5421 183.253 11.5421ZM183.253 1.78174C182.986 1.78174 182.777 1.71217 182.627 1.57304C182.478 1.42321 182.403 1.22522 182.403 0.979074C182.403 0.722223 182.478 0.529584 182.627 0.401158C182.777 0.26203 182.986 0.192466 183.253 0.192466C183.532 0.192466 183.74 0.26203 183.88 0.401158C184.029 0.529584 184.104 0.722223 184.104 0.979074C184.104 1.22522 184.029 1.42321 183.88 1.57304C183.74 1.71217 183.532 1.78174 183.253 1.78174ZM189.473 11.6063C188.863 11.6063 188.349 11.4993 187.932 11.2853C187.525 11.0605 187.22 10.7394 187.017 10.3221C186.813 9.89398 186.712 9.37492 186.712 8.7649V4.67132H185.636C185.454 4.67132 185.315 4.62851 185.219 4.54289C185.122 4.44658 185.074 4.31815 185.074 4.15762C185.074 3.99708 185.122 3.87401 185.219 3.78839C185.315 3.70278 185.454 3.65997 185.636 3.65997H186.712V1.81384C186.712 1.5998 186.771 1.43927 186.888 1.33225C187.006 1.21452 187.167 1.15566 187.37 1.15566C187.573 1.15566 187.728 1.21452 187.835 1.33225C187.953 1.43927 188.012 1.5998 188.012 1.81384V3.65997H190.035C190.217 3.65997 190.356 3.70278 190.452 3.78839C190.548 3.87401 190.597 3.99708 190.597 4.15762C190.597 4.31815 190.548 4.44658 190.452 4.54289C190.356 4.62851 190.217 4.67132 190.035 4.67132H188.012V8.63647C188.012 9.2465 188.14 9.71204 188.397 10.0331C188.654 10.3435 189.072 10.4986 189.649 10.4986C189.853 10.4986 190.024 10.4772 190.163 10.4344C190.313 10.3916 190.436 10.3702 190.532 10.3702C190.629 10.3595 190.709 10.3916 190.773 10.4665C190.837 10.5415 190.869 10.6699 190.869 10.8518C190.869 10.9802 190.843 11.098 190.789 11.205C190.746 11.312 190.666 11.3869 190.548 11.4297C190.42 11.4725 190.249 11.51 190.035 11.5421C189.831 11.5849 189.644 11.6063 189.473 11.6063ZM196.736 11.5421C196.522 11.5421 196.361 11.4832 196.254 11.3655C196.147 11.2371 196.094 11.0605 196.094 10.8358V4.26999C196.094 4.04524 196.147 3.87401 196.254 3.75629C196.361 3.63856 196.522 3.5797 196.736 3.5797C196.939 3.5797 197.1 3.63856 197.217 3.75629C197.335 3.87401 197.394 4.04524 197.394 4.26999V10.8358C197.394 11.0605 197.335 11.2371 197.217 11.3655C197.11 11.4832 196.95 11.5421 196.736 11.5421ZM196.736 1.78174C196.468 1.78174 196.259 1.71217 196.11 1.57304C195.96 1.42321 195.885 1.22522 195.885 0.979074C195.885 0.722223 195.96 0.529584 196.11 0.401158C196.259 0.26203 196.468 0.192466 196.736 0.192466C197.014 0.192466 197.223 0.26203 197.362 0.401158C197.512 0.529584 197.587 0.722223 197.587 0.979074C197.587 1.22522 197.512 1.42321 197.362 1.57304C197.223 1.71217 197.014 1.78174 196.736 1.78174ZM200.467 11.5742C200.253 11.5742 200.092 11.5154 199.985 11.3976C199.878 11.2799 199.825 11.114 199.825 10.9V4.20578C199.825 3.99173 199.878 3.8312 199.985 3.72418C200.092 3.60646 200.247 3.54759 200.451 3.54759C200.654 3.54759 200.809 3.60646 200.916 3.72418C201.034 3.8312 201.093 3.99173 201.093 4.20578V5.58636L200.916 5.39372C201.141 4.77299 201.505 4.30745 202.008 3.99708C202.522 3.67602 203.11 3.51549 203.774 3.51549C204.394 3.51549 204.908 3.62786 205.315 3.85261C205.732 4.07735 206.043 4.41982 206.246 4.88001C206.449 5.3295 206.551 5.90207 206.551 6.59771V10.9C206.551 11.114 206.492 11.2799 206.374 11.3976C206.267 11.5154 206.112 11.5742 205.909 11.5742C205.695 11.5742 205.529 11.5154 205.411 11.3976C205.304 11.2799 205.251 11.114 205.251 10.9V6.67798C205.251 5.95023 205.106 5.42047 204.817 5.08871C204.539 4.74624 204.089 4.575 203.469 4.575C202.752 4.575 202.179 4.79975 201.751 5.24924C201.334 5.68803 201.125 6.27665 201.125 7.01509V10.9C201.125 11.3495 200.906 11.5742 200.467 11.5742ZM216.33 11.6063C215.57 11.6063 214.912 11.4404 214.356 11.1087C213.799 10.7769 213.366 10.3114 213.055 9.71204C212.756 9.10202 212.606 8.38497 212.606 7.5609C212.606 6.94018 212.691 6.38367 212.863 5.89137C213.034 5.38837 213.285 4.96028 213.617 4.60711C213.949 4.25394 214.34 3.98638 214.789 3.80445C215.249 3.61181 215.763 3.51549 216.33 3.51549C217.09 3.51549 217.748 3.68137 218.305 4.01314C218.861 4.3449 219.289 4.8158 219.589 5.42582C219.899 6.02514 220.055 6.73684 220.055 7.5609C220.055 8.18163 219.969 8.73814 219.798 9.23044C219.626 9.72274 219.375 10.1508 219.043 10.5147C218.711 10.8679 218.315 11.1408 217.855 11.3334C217.406 11.5154 216.897 11.6063 216.33 11.6063ZM216.33 10.5629C216.812 10.5629 217.234 10.4451 217.598 10.2097C217.962 9.97424 218.241 9.63177 218.433 9.18228C218.636 8.73279 218.738 8.19233 218.738 7.5609C218.738 6.58701 218.519 5.84321 218.08 5.3295C217.652 4.8158 217.069 4.55895 216.33 4.55895C215.838 4.55895 215.41 4.67667 215.046 4.91212C214.693 5.13686 214.414 5.47398 214.211 5.92347C214.018 6.36226 213.922 6.90807 213.922 7.5609C213.922 8.5241 214.142 9.2679 214.58 9.79231C215.019 10.306 215.602 10.5629 216.33 10.5629ZM222.65 11.5742C222.436 11.5742 222.275 11.5154 222.168 11.3976C222.061 11.2799 222.008 11.114 222.008 10.9V4.20578C222.008 3.99173 222.061 3.8312 222.168 3.72418C222.275 3.60646 222.43 3.54759 222.634 3.54759C222.837 3.54759 222.992 3.60646 223.099 3.72418C223.217 3.8312 223.276 3.99173 223.276 4.20578V5.58636L223.099 5.39372C223.324 4.77299 223.688 4.30745 224.191 3.99708C224.705 3.67602 225.293 3.51549 225.957 3.51549C226.577 3.51549 227.091 3.62786 227.498 3.85261C227.915 4.07735 228.226 4.41982 228.429 4.88001C228.632 5.3295 228.734 5.90207 228.734 6.59771V10.9C228.734 11.114 228.675 11.2799 228.557 11.3976C228.45 11.5154 228.295 11.5742 228.092 11.5742C227.878 11.5742 227.712 11.5154 227.594 11.3976C227.487 11.2799 227.434 11.114 227.434 10.9V6.67798C227.434 5.95023 227.289 5.42047 227 5.08871C226.722 4.74624 226.272 4.575 225.652 4.575C224.935 4.575 224.362 4.79975 223.934 5.24924C223.517 5.68803 223.308 6.27665 223.308 7.01509V10.9C223.308 11.3495 223.089 11.5742 222.65 11.5742ZM234.647 11.6063C233.823 11.6063 233.112 11.4458 232.512 11.1247C231.924 10.793 231.463 10.3274 231.132 9.72809C230.811 9.12877 230.65 8.41173 230.65 7.57696C230.65 6.76359 230.811 6.05725 231.132 5.45793C231.453 4.84791 231.891 4.37166 232.448 4.02919C233.015 3.68672 233.668 3.51549 234.406 3.51549C234.931 3.51549 235.402 3.60646 235.819 3.78839C236.237 3.95963 236.59 4.21113 236.879 4.54289C237.178 4.87466 237.403 5.27599 237.553 5.74689C237.713 6.21778 237.794 6.74754 237.794 7.33616C237.794 7.50739 237.746 7.63582 237.649 7.72144C237.553 7.79635 237.414 7.83381 237.232 7.83381H231.645V6.98299H236.927L236.67 7.19168C236.67 6.61376 236.584 6.12681 236.413 5.73083C236.242 5.32415 235.99 5.01379 235.659 4.79975C235.338 4.5857 234.931 4.47868 234.439 4.47868C233.893 4.47868 233.427 4.60711 233.042 4.86396C232.667 5.11011 232.384 5.45793 232.191 5.90742C231.999 6.34621 231.902 6.85991 231.902 7.44853V7.54485C231.902 8.52945 232.138 9.2786 232.609 9.79231C233.09 10.306 233.77 10.5629 234.647 10.5629C235.011 10.5629 235.37 10.5147 235.723 10.4184C236.087 10.3221 236.44 10.1615 236.782 9.93678C236.932 9.84047 237.066 9.79766 237.184 9.80836C237.312 9.80836 237.414 9.84582 237.489 9.92073C237.564 9.98494 237.612 10.0706 237.633 10.1776C237.665 10.2739 237.655 10.3809 237.601 10.4986C237.558 10.6164 237.467 10.718 237.328 10.8037C236.975 11.0605 236.558 11.2585 236.076 11.3976C235.594 11.5368 235.118 11.6063 234.647 11.6063ZM246.447 11.6063C245.965 11.6063 245.479 11.5475 244.986 11.4297C244.505 11.312 244.055 11.1087 243.638 10.8197C243.531 10.7448 243.456 10.6592 243.413 10.5629C243.37 10.4558 243.354 10.3542 243.365 10.2578C243.386 10.1508 243.429 10.0599 243.493 9.98494C243.568 9.91003 243.654 9.86722 243.75 9.85652C243.857 9.83511 243.975 9.85652 244.103 9.92073C244.521 10.1776 244.922 10.3595 245.307 10.4665C245.703 10.5629 246.094 10.611 246.479 10.611C247.089 10.611 247.549 10.4986 247.86 10.2739C248.17 10.0492 248.325 9.74415 248.325 9.35887C248.325 9.05921 248.224 8.82376 248.02 8.65253C247.817 8.47059 247.496 8.33146 247.057 8.23514L245.596 7.91408C244.922 7.77495 244.419 7.53415 244.087 7.19168C243.766 6.84921 243.606 6.40507 243.606 5.85926C243.606 5.37766 243.729 4.96563 243.975 4.62316C244.232 4.26999 244.59 3.99708 245.05 3.80445C245.511 3.61181 246.046 3.51549 246.656 3.51549C247.127 3.51549 247.571 3.5797 247.988 3.70813C248.416 3.82585 248.802 4.01849 249.144 4.28604C249.251 4.36096 249.321 4.45193 249.353 4.55895C249.395 4.65527 249.401 4.75694 249.369 4.86396C249.347 4.96028 249.299 5.0459 249.224 5.12081C249.149 5.18502 249.058 5.22248 248.951 5.23318C248.844 5.24389 248.732 5.21178 248.614 5.13686C248.293 4.92282 247.967 4.76764 247.635 4.67132C247.303 4.5643 246.977 4.51079 246.656 4.51079C246.056 4.51079 245.602 4.62851 245.291 4.86396C244.981 5.09941 244.826 5.40977 244.826 5.79505C244.826 6.09471 244.922 6.34086 245.115 6.5335C245.307 6.72614 245.607 6.86526 246.014 6.95088L247.474 7.25589C248.17 7.40572 248.689 7.64652 249.032 7.97829C249.385 8.29935 249.561 8.73814 249.561 9.29466C249.561 10.001 249.278 10.5629 248.711 10.9802C248.143 11.3976 247.389 11.6063 246.447 11.6063ZM252.185 11.5421C251.971 11.5421 251.811 11.4832 251.704 11.3655C251.597 11.2371 251.543 11.0605 251.543 10.8358V4.26999C251.543 4.04524 251.597 3.87401 251.704 3.75629C251.811 3.63856 251.971 3.5797 252.185 3.5797C252.389 3.5797 252.549 3.63856 252.667 3.75629C252.785 3.87401 252.843 4.04524 252.843 4.26999V10.8358C252.843 11.0605 252.785 11.2371 252.667 11.3655C252.56 11.4832 252.399 11.5421 252.185 11.5421ZM252.185 1.78174C251.918 1.78174 251.709 1.71217 251.559 1.57304C251.409 1.42321 251.334 1.22522 251.334 0.979074C251.334 0.722223 251.409 0.529584 251.559 0.401158C251.709 0.26203 251.918 0.192466 252.185 0.192466C252.463 0.192466 252.672 0.26203 252.811 0.401158C252.961 0.529584 253.036 0.722223 253.036 0.979074C253.036 1.22522 252.961 1.42321 252.811 1.57304C252.672 1.71217 252.463 1.78174 252.185 1.78174ZM258.405 11.6063C257.795 11.6063 257.281 11.4993 256.863 11.2853C256.457 11.0605 256.152 10.7394 255.948 10.3221C255.745 9.89398 255.643 9.37492 255.643 8.7649V4.67132H254.568C254.386 4.67132 254.247 4.62851 254.15 4.54289C254.054 4.44658 254.006 4.31815 254.006 4.15762C254.006 3.99708 254.054 3.87401 254.15 3.78839C254.247 3.70278 254.386 3.65997 254.568 3.65997H255.643V1.81384C255.643 1.5998 255.702 1.43927 255.82 1.33225C255.938 1.21452 256.098 1.15566 256.302 1.15566C256.505 1.15566 256.66 1.21452 256.767 1.33225C256.885 1.43927 256.944 1.5998 256.944 1.81384V3.65997H258.966C259.148 3.65997 259.288 3.70278 259.384 3.78839C259.48 3.87401 259.528 3.99708 259.528 4.15762C259.528 4.31815 259.48 4.44658 259.384 4.54289C259.288 4.62851 259.148 4.67132 258.966 4.67132H256.944V8.63647C256.944 9.2465 257.072 9.71204 257.329 10.0331C257.586 10.3435 258.003 10.4986 258.581 10.4986C258.785 10.4986 258.956 10.4772 259.095 10.4344C259.245 10.3916 259.368 10.3702 259.464 10.3702C259.56 10.3595 259.641 10.3916 259.705 10.4665C259.769 10.5415 259.801 10.6699 259.801 10.8518C259.801 10.9802 259.774 11.098 259.721 11.205C259.678 11.312 259.598 11.3869 259.48 11.4297C259.352 11.4725 259.18 11.51 258.966 11.5421C258.763 11.5849 258.576 11.6063 258.405 11.6063ZM263.813 11.6063C263.203 11.6063 262.689 11.4993 262.272 11.2853C261.865 11.0605 261.56 10.7394 261.357 10.3221C261.154 9.89398 261.052 9.37492 261.052 8.7649V4.67132H259.976C259.794 4.67132 259.655 4.62851 259.559 4.54289C259.463 4.44658 259.415 4.31815 259.415 4.15762C259.415 3.99708 259.463 3.87401 259.559 3.78839C259.655 3.70278 259.794 3.65997 259.976 3.65997H261.052V1.81384C261.052 1.5998 261.111 1.43927 261.229 1.33225C261.346 1.21452 261.507 1.15566 261.71 1.15566C261.914 1.15566 262.069 1.21452 262.176 1.33225C262.293 1.43927 262.352 1.5998 262.352 1.81384V3.65997H264.375C264.557 3.65997 264.696 3.70278 264.792 3.78839C264.889 3.87401 264.937 3.99708 264.937 4.15762C264.937 4.31815 264.889 4.44658 264.792 4.54289C264.696 4.62851 264.557 4.67132 264.375 4.67132H262.352V8.63647C262.352 9.2465 262.481 9.71204 262.738 10.0331C262.994 10.3435 263.412 10.4986 263.99 10.4986C264.193 10.4986 264.364 10.4772 264.503 10.4344C264.653 10.3916 264.776 10.3702 264.873 10.3702C264.969 10.3595 265.049 10.3916 265.113 10.4665C265.178 10.5415 265.21 10.6699 265.21 10.8518C265.21 10.9802 265.183 11.098 265.13 11.205C265.087 11.312 265.006 11.3869 264.889 11.4297C264.76 11.4725 264.589 11.51 264.375 11.5421C264.172 11.5849 263.984 11.6063 263.813 11.6063ZM267.031 11.5421C266.817 11.5421 266.657 11.4832 266.55 11.3655C266.443 11.2371 266.389 11.0605 266.389 10.8358V4.26999C266.389 4.04524 266.443 3.87401 266.55 3.75629C266.657 3.63856 266.817 3.5797 267.031 3.5797C267.235 3.5797 267.395 3.63856 267.513 3.75629C267.631 3.87401 267.69 4.04524 267.69 4.26999V10.8358C267.69 11.0605 267.631 11.2371 267.513 11.3655C267.406 11.4832 267.245 11.5421 267.031 11.5421ZM267.031 1.78174C266.764 1.78174 266.555 1.71217 266.405 1.57304C266.255 1.42321 266.181 1.22522 266.181 0.979074C266.181 0.722223 266.255 0.529584 266.405 0.401158C266.555 0.26203 266.764 0.192466 267.031 0.192466C267.31 0.192466 267.518 0.26203 267.657 0.401158C267.807 0.529584 267.882 0.722223 267.882 0.979074C267.882 1.22522 267.807 1.42321 267.657 1.57304C267.518 1.71217 267.31 1.78174 267.031 1.78174ZM270.762 11.5742C270.548 11.5742 270.388 11.5154 270.281 11.3976C270.174 11.2799 270.12 11.114 270.12 10.9V4.20578C270.12 3.99173 270.174 3.8312 270.281 3.72418C270.388 3.60646 270.543 3.54759 270.746 3.54759C270.95 3.54759 271.105 3.60646 271.212 3.72418C271.33 3.8312 271.389 3.99173 271.389 4.20578V5.58636L271.212 5.39372C271.437 4.77299 271.801 4.30745 272.304 3.99708C272.817 3.67602 273.406 3.51549 274.069 3.51549C274.69 3.51549 275.204 3.62786 275.611 3.85261C276.028 4.07735 276.338 4.41982 276.542 4.88001C276.745 5.3295 276.847 5.90207 276.847 6.59771V10.9C276.847 11.114 276.788 11.2799 276.67 11.3976C276.563 11.5154 276.408 11.5742 276.204 11.5742C275.99 11.5742 275.825 11.5154 275.707 11.3976C275.6 11.2799 275.546 11.114 275.546 10.9V6.67798C275.546 5.95023 275.402 5.42047 275.113 5.08871C274.835 4.74624 274.385 4.575 273.764 4.575C273.047 4.575 272.475 4.79975 272.047 5.24924C271.629 5.68803 271.421 6.27665 271.421 7.01509V10.9C271.421 11.3495 271.201 11.5742 270.762 11.5742ZM282.696 14.4959C282.129 14.4959 281.572 14.4263 281.026 14.2872C280.491 14.1588 280.004 13.9501 279.565 13.6611C279.437 13.5862 279.351 13.4953 279.309 13.3882C279.276 13.2812 279.271 13.1742 279.292 13.0672C279.314 12.9708 279.362 12.8799 279.437 12.7943C279.512 12.7193 279.598 12.6712 279.694 12.6498C279.801 12.6284 279.908 12.6444 280.015 12.6979C280.486 12.9869 280.935 13.1849 281.363 13.2919C281.791 13.3989 282.214 13.4524 282.632 13.4524C283.391 13.4524 283.964 13.2491 284.349 12.8424C284.745 12.4357 284.943 11.8471 284.943 11.0766V9.26255H285.104C284.943 9.88327 284.601 10.3756 284.076 10.7394C283.563 11.1033 282.958 11.2853 282.262 11.2853C281.545 11.2853 280.925 11.1247 280.4 10.8037C279.876 10.4719 279.469 10.0117 279.18 9.42308C278.902 8.83446 278.763 8.15487 278.763 7.38432C278.763 6.8064 278.843 6.282 279.004 5.8111C279.164 5.3295 279.394 4.92282 279.694 4.59105C280.004 4.24859 280.373 3.98638 280.801 3.80445C281.24 3.61181 281.727 3.51549 282.262 3.51549C282.969 3.51549 283.579 3.69742 284.092 4.0613C284.606 4.41447 284.938 4.89607 285.088 5.50609L284.927 5.69873V4.20578C284.927 3.99173 284.981 3.8312 285.088 3.72418C285.205 3.60646 285.366 3.54759 285.569 3.54759C285.783 3.54759 285.944 3.60646 286.051 3.72418C286.158 3.8312 286.211 3.99173 286.211 4.20578V10.9C286.211 12.0879 285.912 12.9816 285.312 13.5809C284.724 14.1909 283.852 14.4959 282.696 14.4959ZM282.503 10.2257C283.006 10.2257 283.44 10.1134 283.803 9.88863C284.167 9.65318 284.446 9.32141 284.638 8.89332C284.842 8.46524 284.943 7.96224 284.943 7.38432C284.943 6.51744 284.724 5.83251 284.285 5.3295C283.846 4.8158 283.252 4.55895 282.503 4.55895C282.011 4.55895 281.583 4.67667 281.219 4.91212C280.855 5.13686 280.571 5.46328 280.368 5.89137C280.175 6.30875 280.079 6.8064 280.079 7.38432C280.079 8.25119 280.298 8.94148 280.737 9.45519C281.176 9.96889 281.765 10.2257 282.503 10.2257ZM290.629 8.57226C290.49 8.57226 290.383 8.52945 290.308 8.44383C290.233 8.34751 290.195 8.21909 290.195 8.05856C290.195 7.68398 290.238 7.33616 290.324 7.01509C290.42 6.68333 290.565 6.34621 290.757 6.00374C290.961 5.66127 291.234 5.29205 291.576 4.89607C291.844 4.575 292.058 4.29139 292.218 4.04524C292.379 3.79909 292.491 3.56365 292.555 3.3389C292.63 3.10345 292.668 2.86801 292.668 2.63256C292.668 2.18307 292.507 1.8299 292.186 1.57304C291.865 1.30549 291.421 1.17171 290.854 1.17171C290.361 1.17171 289.906 1.24663 289.489 1.39646C289.082 1.53559 288.686 1.74963 288.301 2.03859C288.141 2.14561 287.991 2.19912 287.852 2.19912C287.723 2.19912 287.616 2.16166 287.531 2.08675C287.445 2.01183 287.386 1.91551 287.354 1.79779C287.333 1.68007 287.349 1.55699 287.402 1.42857C287.466 1.30014 287.573 1.18242 287.723 1.07539C288.141 0.743627 288.633 0.481424 289.2 0.288785C289.767 0.0961463 290.34 -0.000173189 290.918 -0.000173189C291.528 -0.000173189 292.063 0.106849 292.523 0.320892C292.994 0.524233 293.358 0.818543 293.615 1.20382C293.872 1.5784 294 2.02254 294 2.53624C294 2.86801 293.952 3.18907 293.856 3.49943C293.759 3.79909 293.604 4.10411 293.39 4.41447C293.187 4.72483 292.898 5.078 292.523 5.47398C292.191 5.81645 291.924 6.13752 291.72 6.43718C291.517 6.72614 291.362 7.00974 291.255 7.288C291.159 7.55555 291.094 7.83916 291.062 8.13882C291.052 8.26725 291.009 8.37427 290.934 8.45989C290.859 8.5348 290.757 8.57226 290.629 8.57226ZM290.613 11.5261C290.345 11.5261 290.126 11.4458 289.955 11.2853C289.794 11.114 289.714 10.9 289.714 10.6431C289.714 10.3863 289.794 10.1776 289.955 10.0171C290.126 9.84582 290.345 9.7602 290.613 9.7602C290.88 9.7602 291.089 9.84582 291.239 10.0171C291.399 10.1776 291.48 10.3863 291.48 10.6431C291.48 10.9 291.399 11.114 291.239 11.2853C291.089 11.4458 290.88 11.5261 290.613 11.5261Z" fill="#A1A1A1"/>
</svg>
