<svg width="156" height="11" viewBox="0 0 156 11" fill="none" xmlns="http://www.w3.org/2000/svg">
<path d="M3.30996 8.67797C3.16553 8.67797 3.04918 8.64186 2.96091 8.56964C2.87264 8.4894 2.80043 8.37305 2.74426 8.22059L0.0842598 0.625752C0.0280908 0.457246 0.040127 0.316823 0.120368 0.204486C0.208634 0.0841239 0.345044 0.0239429 0.529599 0.0239429C0.666009 0.0239429 0.774335 0.0600515 0.854576 0.132269C0.934818 0.196461 1.00302 0.300775 1.05919 0.445209L3.55068 7.75118H3.12942L5.66905 0.481318C5.72522 0.32886 5.79343 0.216522 5.87367 0.144305C5.95391 0.0640636 6.06224 0.0239429 6.19865 0.0239429C6.32703 0.0239429 6.42733 0.0640636 6.49955 0.144305C6.57979 0.216522 6.648 0.32886 6.70417 0.481318L9.2077 7.75118H8.83457L11.3501 0.445209C11.3903 0.308799 11.4504 0.204486 11.5307 0.132269C11.6189 0.0600515 11.7313 0.0239429 11.8677 0.0239429C12.0362 0.0239429 12.1606 0.0801118 12.2408 0.19245C12.3211 0.304787 12.3291 0.449222 12.2649 0.625752L9.59285 8.22059C9.53669 8.37305 9.46447 8.4894 9.3762 8.56964C9.29596 8.64186 9.17961 8.67797 9.02715 8.67797C8.88272 8.67797 8.76637 8.64186 8.6781 8.56964C8.59786 8.4894 8.52564 8.37305 8.46145 8.22059L6.04218 1.25163H6.30697L3.86363 8.22059C3.80746 8.37305 3.73925 8.4894 3.65901 8.56964C3.57877 8.64186 3.46242 8.67797 3.30996 8.67797ZM14.864 8.70204C14.4628 8.70204 14.1018 8.62581 13.7808 8.47335C13.4679 8.31287 13.2191 8.09622 13.0345 7.8234C12.85 7.55058 12.7577 7.24566 12.7577 6.90865C12.7577 6.47534 12.866 6.13432 13.0827 5.88557C13.3074 5.63682 13.6725 5.46029 14.178 5.35598C14.6915 5.25166 15.3896 5.19951 16.2723 5.19951H16.8139V5.83742H16.2843C15.6344 5.83742 15.1208 5.86952 14.7437 5.93371C14.3746 5.98988 14.1138 6.09019 13.9613 6.23462C13.8169 6.37905 13.7447 6.58367 13.7447 6.84847C13.7447 7.17745 13.857 7.44626 14.0817 7.65489C14.3144 7.86352 14.6273 7.96783 15.0205 7.96783C15.3415 7.96783 15.6223 7.8916 15.8631 7.73914C16.1118 7.58669 16.3044 7.37806 16.4408 7.11326C16.5852 6.84847 16.6574 6.54355 16.6574 6.19851V4.82638C16.6574 4.32889 16.5571 3.97181 16.3565 3.75516C16.1559 3.53049 15.8269 3.41815 15.3696 3.41815C15.0887 3.41815 14.8079 3.45426 14.527 3.52648C14.2462 3.59869 13.9493 3.71504 13.6364 3.87553C13.524 3.93169 13.4277 3.95175 13.3475 3.93571C13.2672 3.91163 13.2031 3.8675 13.1549 3.80331C13.1068 3.73911 13.0787 3.6669 13.0707 3.58666C13.0626 3.49839 13.0787 3.41414 13.1188 3.3339C13.1669 3.25366 13.2392 3.18946 13.3355 3.14132C13.6885 2.96479 14.0376 2.8364 14.3826 2.75616C14.7276 2.67592 15.0566 2.6358 15.3696 2.6358C15.8751 2.6358 16.2923 2.72005 16.6213 2.88856C16.9503 3.04904 17.1951 3.29779 17.3555 3.6348C17.516 3.96379 17.5963 4.38907 17.5963 4.91064V8.17245C17.5963 8.33293 17.5561 8.4573 17.4759 8.54557C17.4037 8.63383 17.2954 8.67797 17.1509 8.67797C16.9985 8.67797 16.8821 8.63383 16.8019 8.54557C16.7216 8.4573 16.6815 8.33293 16.6815 8.17245V7.23362H16.7898C16.7256 7.53854 16.6013 7.79932 16.4167 8.01598C16.2402 8.23263 16.0195 8.40113 15.7547 8.5215C15.4899 8.64186 15.193 8.70204 14.864 8.70204ZM19.8864 8.65389C19.726 8.65389 19.6056 8.60976 19.5253 8.5215C19.4451 8.42521 19.405 8.29281 19.405 8.1243V3.2015C19.405 3.03299 19.4451 2.90461 19.5253 2.81634C19.6056 2.72807 19.726 2.68394 19.8864 2.68394C20.0389 2.68394 20.1593 2.72807 20.2475 2.81634C20.3358 2.90461 20.3799 3.03299 20.3799 3.2015V8.1243C20.3799 8.29281 20.3358 8.42521 20.2475 8.5215C20.1673 8.60976 20.0469 8.65389 19.8864 8.65389ZM19.8864 1.33589C19.6858 1.33589 19.5294 1.28373 19.417 1.17942C19.3047 1.06708 19.2485 0.918633 19.2485 0.734078C19.2485 0.541499 19.3047 0.397065 19.417 0.300775C19.5294 0.196462 19.6858 0.144305 19.8864 0.144305C20.0951 0.144305 20.2515 0.196462 20.3558 0.300775C20.4682 0.397065 20.5244 0.541499 20.5244 0.734078C20.5244 0.918633 20.4682 1.06708 20.3558 1.17942C20.2515 1.28373 20.0951 1.33589 19.8864 1.33589ZM24.5495 8.70204C24.0921 8.70204 23.707 8.6218 23.394 8.46132C23.0891 8.29281 22.8604 8.05208 22.708 7.73914C22.5555 7.41818 22.4793 7.02901 22.4793 6.57163V3.5024H21.6729C21.5365 3.5024 21.4321 3.47031 21.3599 3.40611C21.2877 3.3339 21.2516 3.23761 21.2516 3.11724C21.2516 2.99688 21.2877 2.90461 21.3599 2.84041C21.4321 2.77622 21.5365 2.74412 21.6729 2.74412H22.4793V1.35996C22.4793 1.19948 22.5234 1.07912 22.6117 0.998874C22.7 0.910609 22.8203 0.866476 22.9728 0.866476C23.1252 0.866476 23.2416 0.910609 23.3218 0.998874C23.4101 1.07912 23.4542 1.19948 23.4542 1.35996V2.74412H24.9708C25.1072 2.74412 25.2115 2.77622 25.2837 2.84041C25.3559 2.90461 25.3921 2.99688 25.3921 3.11724C25.3921 3.23761 25.3559 3.3339 25.2837 3.40611C25.2115 3.47031 25.1072 3.5024 24.9708 3.5024H23.4542V6.47534C23.4542 6.93272 23.5505 7.28177 23.7431 7.52249C23.9357 7.75519 24.2486 7.87154 24.6819 7.87154C24.8344 7.87154 24.9628 7.85549 25.0671 7.8234C25.1794 7.7913 25.2717 7.77525 25.3439 7.77525C25.4161 7.76723 25.4763 7.7913 25.5245 7.84747C25.5726 7.90364 25.5967 7.99993 25.5967 8.13634C25.5967 8.23263 25.5766 8.32089 25.5365 8.40113C25.5044 8.48138 25.4442 8.53754 25.3559 8.56964C25.2597 8.60174 25.1313 8.62982 24.9708 8.65389C24.8183 8.68599 24.6779 8.70204 24.5495 8.70204ZM26.9624 8.65389C26.8019 8.65389 26.6816 8.60976 26.6013 8.5215C26.5211 8.42521 26.481 8.29281 26.481 8.1243V3.2015C26.481 3.03299 26.5211 2.90461 26.6013 2.81634C26.6816 2.72807 26.8019 2.68394 26.9624 2.68394C27.1149 2.68394 27.2352 2.72807 27.3235 2.81634C27.4118 2.90461 27.4559 3.03299 27.4559 3.2015V8.1243C27.4559 8.29281 27.4118 8.42521 27.3235 8.5215C27.2432 8.60976 27.1229 8.65389 26.9624 8.65389ZM26.9624 1.33589C26.7618 1.33589 26.6053 1.28373 26.493 1.17942C26.3806 1.06708 26.3245 0.918633 26.3245 0.734078C26.3245 0.541499 26.3806 0.397065 26.493 0.300775C26.6053 0.196462 26.7618 0.144305 26.9624 0.144305C27.171 0.144305 27.3275 0.196462 27.4318 0.300775C27.5441 0.397065 27.6003 0.541499 27.6003 0.734078C27.6003 0.918633 27.5441 1.06708 27.4318 1.17942C27.3275 1.28373 27.171 1.33589 26.9624 1.33589ZM29.7599 8.67797C29.5994 8.67797 29.479 8.63383 29.3988 8.54557C29.3185 8.4573 29.2784 8.33293 29.2784 8.17245V3.15335C29.2784 2.99287 29.3185 2.87251 29.3988 2.79227C29.479 2.704 29.5954 2.65987 29.7478 2.65987C29.9003 2.65987 30.0166 2.704 30.0969 2.79227C30.1852 2.87251 30.2293 2.99287 30.2293 3.15335V4.18847L30.0969 4.04403C30.2654 3.57863 30.5382 3.22958 30.9153 2.99688C31.3005 2.75616 31.7418 2.6358 32.2393 2.6358C32.7047 2.6358 33.0899 2.72005 33.3948 2.88856C33.7077 3.05706 33.9404 3.31384 34.0929 3.65887C34.2454 3.99589 34.3216 4.42518 34.3216 4.94675V8.17245C34.3216 8.33293 34.2775 8.4573 34.1892 8.54557C34.109 8.63383 33.9926 8.67797 33.8401 8.67797C33.6797 8.67797 33.5553 8.63383 33.467 8.54557C33.3868 8.4573 33.3467 8.33293 33.3467 8.17245V5.00693C33.3467 4.46129 33.2383 4.06409 33.0217 3.81534C32.8131 3.55857 32.476 3.43019 32.0106 3.43019C31.473 3.43019 31.0437 3.59869 30.7228 3.93571C30.4098 4.2647 30.2534 4.70602 30.2534 5.25969V8.17245C30.2534 8.50946 30.0889 8.67797 29.7599 8.67797ZM38.7071 10.8686C38.2818 10.8686 37.8646 10.8164 37.4553 10.7121C37.0541 10.6158 36.689 10.4593 36.36 10.2427C36.2637 10.1865 36.1996 10.1183 36.1675 10.0381C36.1434 9.95782 36.1394 9.87757 36.1554 9.79733C36.1715 9.72512 36.2076 9.65691 36.2637 9.59272C36.3199 9.53655 36.3841 9.50044 36.4563 9.48439C36.5366 9.46834 36.6168 9.48038 36.697 9.5205C37.0501 9.73715 37.3871 9.8856 37.7081 9.96584C38.0291 10.0461 38.346 10.0862 38.6589 10.0862C39.2287 10.0862 39.658 9.93374 39.9468 9.62883C40.2437 9.32391 40.3922 8.88258 40.3922 8.30485V6.94475H40.5125C40.3922 7.41015 40.1354 7.77926 39.7422 8.05208C39.357 8.32491 38.9037 8.46132 38.3821 8.46132C37.8445 8.46132 37.3791 8.34095 36.9859 8.10023C36.5927 7.85148 36.2878 7.50644 36.0712 7.06512C35.8625 6.62379 35.7582 6.11426 35.7582 5.53652C35.7582 5.10322 35.8184 4.71003 35.9388 4.35697C36.0591 3.99589 36.2316 3.69097 36.4563 3.44222C36.689 3.18545 36.9659 2.98886 37.2868 2.85245C37.6158 2.70801 37.9809 2.6358 38.3821 2.6358C38.9117 2.6358 39.3691 2.77221 39.7542 3.04503C40.1394 3.30982 40.3881 3.67091 40.5005 4.12829L40.3801 4.27272V3.15335C40.3801 2.99287 40.4202 2.87251 40.5005 2.79227C40.5888 2.704 40.7091 2.65987 40.8616 2.65987C41.0221 2.65987 41.1424 2.704 41.2227 2.79227C41.3029 2.87251 41.343 2.99287 41.343 3.15335V8.17245C41.343 9.06313 41.1183 9.73314 40.669 10.1825C40.2277 10.6399 39.5737 10.8686 38.7071 10.8686ZM38.5627 7.66693C38.9398 7.66693 39.2648 7.58267 39.5376 7.41417C39.8104 7.23764 40.019 6.98889 40.1635 6.66792C40.3159 6.34696 40.3922 5.96982 40.3922 5.53652C40.3922 4.88657 40.2277 4.37302 39.8987 3.99589C39.5697 3.61073 39.1243 3.41815 38.5627 3.41815C38.1935 3.41815 37.8726 3.50642 37.5998 3.68295C37.3269 3.85145 37.1143 4.09619 36.9618 4.41715C36.8174 4.73009 36.7452 5.10322 36.7452 5.53652C36.7452 6.18647 36.9097 6.70403 37.2387 7.08919C37.5677 7.47435 38.009 7.66693 38.5627 7.66693ZM43.6412 8.64186C43.4406 8.64186 43.2801 8.58168 43.1597 8.46132C43.0394 8.33293 42.9792 8.17245 42.9792 7.97987C42.9792 7.78729 43.0394 7.63082 43.1597 7.51046C43.2801 7.38207 43.4406 7.31788 43.6412 7.31788C43.8418 7.31788 43.9983 7.38207 44.1106 7.51046C44.231 7.63082 44.2911 7.78729 44.2911 7.97987C44.2911 8.17245 44.231 8.33293 44.1106 8.46132C43.9983 8.58168 43.8418 8.64186 43.6412 8.64186ZM43.6412 4.01996C43.4406 4.01996 43.2801 3.95577 43.1597 3.82738C43.0394 3.69899 42.9792 3.54252 42.9792 3.35797C42.9792 3.15737 43.0394 2.99688 43.1597 2.87652C43.2801 2.75616 43.4406 2.69598 43.6412 2.69598C43.8418 2.69598 43.9983 2.75616 44.1106 2.87652C44.231 2.99688 44.2911 3.15737 44.2911 3.35797C44.2911 3.54252 44.231 3.69899 44.1106 3.82738C43.9983 3.95577 43.8418 4.01996 43.6412 4.01996ZM52.7087 8.70204C51.9223 8.70204 51.2362 8.52551 50.6505 8.17245C50.0727 7.81136 49.6234 7.30584 49.3024 6.65589C48.9895 6.00593 48.833 5.23562 48.833 4.34494C48.833 3.67091 48.9213 3.0691 49.0978 2.53951C49.2824 2.00189 49.5431 1.54853 49.8802 1.17942C50.2172 0.802283 50.6224 0.513415 51.0958 0.312811C51.5773 0.104184 52.1149 -0.000129852 52.7087 -0.000129852C53.5111 -0.000129852 54.2012 0.176401 54.7789 0.529463C55.3647 0.882525 55.814 1.38403 56.1269 2.03399C56.4479 2.67592 56.6084 3.44222 56.6084 4.3329C56.6084 5.00693 56.5161 5.61275 56.3316 6.15037C56.147 6.68798 55.8862 7.14536 55.5492 7.52249C55.2122 7.89963 54.803 8.19251 54.3215 8.40113C53.8481 8.60174 53.3105 8.70204 52.7087 8.70204ZM52.7087 7.8234C53.3185 7.8234 53.832 7.68699 54.2493 7.41417C54.6746 7.14135 54.9996 6.74415 55.2242 6.22258C55.4489 5.70101 55.5612 5.07513 55.5612 4.34494C55.5612 3.24563 55.3125 2.39507 54.815 1.79326C54.3255 1.18343 53.6234 0.878513 52.7087 0.878513C52.1149 0.878513 51.6053 1.01492 51.1801 1.28774C50.7628 1.56056 50.4418 1.95776 50.2172 2.47933C49.9925 2.99287 49.8802 3.61474 49.8802 4.34494C49.8802 5.43622 50.1289 6.29079 50.6264 6.90865C51.1239 7.51848 51.818 7.8234 52.7087 7.8234ZM60.5876 8.70204C60.1302 8.70204 59.745 8.6218 59.4321 8.46132C59.1272 8.29281 58.8985 8.05208 58.746 7.73914C58.5936 7.41818 58.5174 7.02901 58.5174 6.57163V3.5024H57.7109C57.5745 3.5024 57.4702 3.47031 57.398 3.40611C57.3258 3.3339 57.2897 3.23761 57.2897 3.11724C57.2897 2.99688 57.3258 2.90461 57.398 2.84041C57.4702 2.77622 57.5745 2.74412 57.7109 2.74412H58.5174V1.35996C58.5174 1.19948 58.5615 1.07912 58.6498 0.998874C58.738 0.910609 58.8584 0.866476 59.0108 0.866476C59.1633 0.866476 59.2796 0.910609 59.3599 0.998874C59.4482 1.07912 59.4923 1.19948 59.4923 1.35996V2.74412H61.0088C61.1453 2.74412 61.2496 2.77622 61.3218 2.84041C61.394 2.90461 61.4301 2.99688 61.4301 3.11724C61.4301 3.23761 61.394 3.3339 61.3218 3.40611C61.2496 3.47031 61.1453 3.5024 61.0088 3.5024H59.4923V6.47534C59.4923 6.93272 59.5886 7.28177 59.7812 7.52249C59.9737 7.75519 60.2867 7.87154 60.72 7.87154C60.8724 7.87154 61.0008 7.85549 61.1051 7.8234C61.2175 7.7913 61.3097 7.77525 61.382 7.77525C61.4542 7.76723 61.5144 7.7913 61.5625 7.84747C61.6107 7.90364 61.6347 7.99993 61.6347 8.13634C61.6347 8.23263 61.6147 8.32089 61.5745 8.40113C61.5424 8.48138 61.4823 8.53754 61.394 8.56964C61.2977 8.60174 61.1693 8.62982 61.0088 8.65389C60.8564 8.68599 60.716 8.70204 60.5876 8.70204ZM63.0005 8.67797C62.84 8.67797 62.7196 8.63383 62.6394 8.54557C62.5591 8.4573 62.519 8.33293 62.519 8.17245V0.517427C62.519 0.356944 62.5591 0.236582 62.6394 0.156341C62.7196 0.0680756 62.84 0.0239429 63.0005 0.0239429C63.1529 0.0239429 63.2733 0.0680756 63.3615 0.156341C63.4498 0.236582 63.4939 0.356944 63.4939 0.517427V4.04403H63.3375C63.506 3.57863 63.7788 3.22958 64.1559 2.99688C64.5411 2.75616 64.9824 2.6358 65.4799 2.6358C65.9453 2.6358 66.3305 2.72005 66.6354 2.88856C66.9483 3.05706 67.181 3.31384 67.3335 3.65887C67.4859 3.99589 67.5622 4.42518 67.5622 4.94675V8.17245C67.5622 8.33293 67.518 8.4573 67.4298 8.54557C67.3495 8.63383 67.2332 8.67797 67.0807 8.67797C66.9202 8.67797 66.7959 8.63383 66.7076 8.54557C66.6274 8.4573 66.5872 8.33293 66.5872 8.17245V5.00693C66.5872 4.46129 66.4789 4.06409 66.2623 3.81534C66.0536 3.55857 65.7166 3.43019 65.2512 3.43019C64.7136 3.43019 64.2843 3.59869 63.9634 3.93571C63.6504 4.2647 63.4939 4.70602 63.4939 5.25969V8.17245C63.4939 8.50946 63.3294 8.67797 63.0005 8.67797ZM71.9958 8.70204C71.378 8.70204 70.8444 8.58168 70.395 8.34095C69.9537 8.09221 69.6086 7.74316 69.3599 7.2938C69.1192 6.84445 68.9988 6.30684 68.9988 5.68095C68.9988 5.07112 69.1192 4.54153 69.3599 4.09218C69.6006 3.6348 69.9296 3.27773 70.3469 3.02096C70.7721 2.76418 71.2616 2.6358 71.8153 2.6358C72.2085 2.6358 72.5615 2.704 72.8745 2.84041C73.1874 2.9688 73.4522 3.15737 73.6689 3.40611C73.8935 3.65486 74.062 3.95577 74.1744 4.30883C74.2947 4.66189 74.3549 5.05908 74.3549 5.50041C74.3549 5.6288 74.3188 5.72509 74.2466 5.78928C74.1744 5.84545 74.0701 5.87353 73.9336 5.87353H69.7451V5.23562H73.705L73.5124 5.39209C73.5124 4.95878 73.4482 4.59368 73.3198 4.29679C73.1914 3.99188 73.0029 3.75918 72.7541 3.59869C72.5134 3.43821 72.2085 3.35797 71.8394 3.35797C71.4301 3.35797 71.0811 3.45426 70.7922 3.64684C70.5114 3.83139 70.2987 4.09218 70.1543 4.42919C70.0098 4.75818 69.9376 5.14334 69.9376 5.58467V5.65688C69.9376 6.3951 70.1142 6.95679 70.4672 7.34195C70.8283 7.72711 71.3378 7.91969 71.9958 7.91969C72.2686 7.91969 72.5375 7.88358 72.8022 7.81136C73.0751 7.73914 73.3399 7.61878 73.5966 7.45028C73.709 7.37806 73.8093 7.34596 73.8975 7.35399C73.9938 7.35399 74.0701 7.38207 74.1262 7.43824C74.1824 7.48638 74.2185 7.55058 74.2346 7.63082C74.2586 7.70304 74.2506 7.78328 74.2105 7.87154C74.1784 7.95981 74.1102 8.03604 74.0059 8.10023C73.7411 8.29281 73.4281 8.44126 73.067 8.54557C72.706 8.64988 72.3489 8.70204 71.9958 8.70204ZM76.2594 8.67797C76.0989 8.67797 75.9745 8.63383 75.8862 8.54557C75.806 8.4573 75.7659 8.33293 75.7659 8.17245V3.15335C75.7659 2.99287 75.806 2.87251 75.8862 2.79227C75.9665 2.704 76.0828 2.65987 76.2353 2.65987C76.3877 2.65987 76.5041 2.704 76.5843 2.79227C76.6726 2.87251 76.7167 2.99287 76.7167 3.15335V4.12829H76.5964C76.7248 3.65486 76.9695 3.28976 77.3306 3.03299C77.6917 2.77622 78.137 2.63981 78.6666 2.62376C78.787 2.61574 78.8833 2.64382 78.9555 2.70801C79.0277 2.76418 79.0678 2.86448 79.0758 3.00892C79.0839 3.14533 79.0518 3.25366 78.9795 3.3339C78.9073 3.41414 78.795 3.46228 78.6425 3.47833L78.4499 3.5024C77.9043 3.55055 77.483 3.72708 77.1861 4.032C76.8973 4.32889 76.7528 4.73812 76.7528 5.25969V8.17245C76.7528 8.33293 76.7087 8.4573 76.6204 8.54557C76.5402 8.63383 76.4198 8.67797 76.2594 8.67797ZM83.8086 8.67797C83.6481 8.67797 83.5237 8.63383 83.4355 8.54557C83.3552 8.44928 83.3151 8.32089 83.3151 8.16041V0.613716C83.3151 0.44521 83.3592 0.320836 83.4475 0.240595C83.5358 0.152329 83.6601 0.108196 83.8206 0.108196H86.6732C87.5799 0.108196 88.278 0.332872 88.7675 0.782223C89.257 1.22355 89.5017 1.84943 89.5017 2.65987C89.5017 3.46228 89.257 4.08816 88.7675 4.53752C88.278 4.98687 87.5799 5.21154 86.6732 5.21154H84.3021V8.16041C84.3021 8.32089 84.262 8.44928 84.1817 8.54557C84.1015 8.63383 83.9771 8.67797 83.8086 8.67797ZM84.3021 4.38105H86.5528C87.2028 4.38105 87.6923 4.23661 88.0213 3.94774C88.3583 3.65085 88.5268 3.22156 88.5268 2.65987C88.5268 2.09016 88.3583 1.66087 88.0213 1.372C87.6923 1.0751 87.2028 0.926657 86.5528 0.926657H84.3021V4.38105ZM93.1767 8.70204C92.5588 8.70204 92.0252 8.58168 91.5759 8.34095C91.1346 8.09221 90.7895 7.74316 90.5408 7.2938C90.3001 6.84445 90.1797 6.30684 90.1797 5.68095C90.1797 5.07112 90.3001 4.54153 90.5408 4.09218C90.7815 3.6348 91.1105 3.27773 91.5277 3.02096C91.953 2.76418 92.4425 2.6358 92.9962 2.6358C93.3893 2.6358 93.7424 2.704 94.0553 2.84041C94.3683 2.9688 94.6331 3.15737 94.8497 3.40611C95.0744 3.65486 95.2429 3.95577 95.3553 4.30883C95.4756 4.66189 95.5358 5.05908 95.5358 5.50041C95.5358 5.6288 95.4997 5.72509 95.4275 5.78928C95.3553 5.84545 95.2509 5.87353 95.1145 5.87353H90.9259V5.23562H94.8858L94.6933 5.39209C94.6933 4.95878 94.6291 4.59368 94.5007 4.29679C94.3723 3.99188 94.1837 3.75918 93.935 3.59869C93.6943 3.43821 93.3893 3.35797 93.0202 3.35797C92.611 3.35797 92.262 3.45426 91.9731 3.64684C91.6922 3.83139 91.4796 4.09218 91.3352 4.42919C91.1907 4.75818 91.1185 5.14334 91.1185 5.58467V5.65688C91.1185 6.3951 91.295 6.95679 91.6481 7.34195C92.0092 7.72711 92.5187 7.91969 93.1767 7.91969C93.4495 7.91969 93.7183 7.88358 93.9831 7.81136C94.2559 7.73914 94.5207 7.61878 94.7775 7.45028C94.8899 7.37806 94.9902 7.34596 95.0784 7.35399C95.1747 7.35399 95.2509 7.38207 95.3071 7.43824C95.3633 7.48638 95.3994 7.55058 95.4154 7.63082C95.4395 7.70304 95.4315 7.78328 95.3914 7.87154C95.3593 7.95981 95.2911 8.03604 95.1867 8.10023C94.922 8.29281 94.609 8.44126 94.2479 8.54557C93.8868 8.64988 93.5298 8.70204 93.1767 8.70204ZM97.4402 8.67797C97.2798 8.67797 97.1554 8.63383 97.0671 8.54557C96.9869 8.4573 96.9468 8.33293 96.9468 8.17245V3.15335C96.9468 2.99287 96.9869 2.87251 97.0671 2.79227C97.1474 2.704 97.2637 2.65987 97.4162 2.65987C97.5686 2.65987 97.685 2.704 97.7652 2.79227C97.8535 2.87251 97.8976 2.99287 97.8976 3.15335V4.12829H97.7773C97.9056 3.65486 98.1504 3.28976 98.5115 3.03299C98.8726 2.77622 99.3179 2.63981 99.8475 2.62376C99.9678 2.61574 100.064 2.64382 100.136 2.70801C100.209 2.76418 100.249 2.86448 100.257 3.00892C100.265 3.14533 100.233 3.25366 100.16 3.3339C100.088 3.41414 99.9759 3.46228 99.8234 3.47833L99.6308 3.5024C99.0852 3.55055 98.6639 3.72708 98.367 4.032C98.0782 4.32889 97.9337 4.73812 97.9337 5.25969V8.17245C97.9337 8.33293 97.8896 8.4573 97.8013 8.54557C97.7211 8.63383 97.6007 8.67797 97.4402 8.67797ZM103.176 8.70204C102.815 8.70204 102.449 8.65791 102.08 8.56964C101.719 8.48138 101.382 8.32892 101.069 8.11227C100.989 8.0561 100.933 7.9919 100.901 7.91969C100.869 7.83945 100.857 7.76322 100.865 7.691C100.881 7.61076 100.913 7.54255 100.961 7.48638C101.017 7.43021 101.081 7.39812 101.154 7.39009C101.234 7.37405 101.322 7.39009 101.418 7.43824C101.731 7.63082 102.032 7.76723 102.321 7.84747C102.618 7.91969 102.911 7.9558 103.2 7.9558C103.657 7.9558 104.002 7.87154 104.235 7.70304C104.468 7.53453 104.584 7.30584 104.584 7.01697C104.584 6.7923 104.508 6.61577 104.355 6.48738C104.203 6.35097 103.962 6.24666 103.633 6.17444L102.538 5.93371C102.032 5.8294 101.655 5.64886 101.406 5.39209C101.166 5.13531 101.045 4.80231 101.045 4.39308C101.045 4.032 101.138 3.72307 101.322 3.46629C101.515 3.2015 101.783 2.99688 102.129 2.85245C102.474 2.70801 102.875 2.6358 103.332 2.6358C103.685 2.6358 104.018 2.68394 104.331 2.78023C104.652 2.8685 104.941 3.01293 105.198 3.21353C105.278 3.2697 105.33 3.33791 105.354 3.41815C105.386 3.49037 105.39 3.5666 105.366 3.64684C105.35 3.71905 105.314 3.78325 105.258 3.83942C105.202 3.88756 105.134 3.91565 105.053 3.92367C104.973 3.93169 104.889 3.90762 104.801 3.85145C104.56 3.69097 104.315 3.57462 104.066 3.5024C103.818 3.42216 103.573 3.38204 103.332 3.38204C102.883 3.38204 102.542 3.47031 102.309 3.64684C102.076 3.82337 101.96 4.05607 101.96 4.34494C101.96 4.56961 102.032 4.75417 102.177 4.8986C102.321 5.04304 102.546 5.14735 102.851 5.21154L103.946 5.44023C104.468 5.55257 104.857 5.73311 105.114 5.98186C105.378 6.22258 105.511 6.55157 105.511 6.96883C105.511 7.49842 105.298 7.91969 104.873 8.23263C104.448 8.54557 103.882 8.70204 103.176 8.70204ZM109.428 8.70204C108.858 8.70204 108.365 8.57767 107.947 8.32892C107.53 8.08017 107.205 7.73112 106.972 7.28177C106.748 6.82439 106.635 6.28678 106.635 5.66892C106.635 5.20352 106.7 4.78626 106.828 4.41715C106.956 4.04002 107.145 3.71905 107.394 3.45426C107.642 3.18946 107.935 2.98886 108.272 2.85245C108.617 2.70801 109.003 2.6358 109.428 2.6358C109.998 2.6358 110.491 2.76017 110.908 3.00892C111.326 3.25767 111.646 3.61073 111.871 4.0681C112.104 4.51746 112.22 5.05106 112.22 5.66892C112.22 6.13432 112.156 6.55157 112.028 6.92068C111.899 7.28979 111.711 7.61076 111.462 7.88358C111.213 8.14837 110.916 8.35299 110.571 8.49742C110.234 8.63383 109.853 8.70204 109.428 8.70204ZM109.428 7.91969C109.789 7.91969 110.106 7.83142 110.379 7.65489C110.652 7.47836 110.86 7.22159 111.005 6.88457C111.157 6.54756 111.233 6.14234 111.233 5.66892C111.233 4.93872 111.069 4.38105 110.74 3.99589C110.419 3.61073 109.981 3.41815 109.428 3.41815C109.059 3.41815 108.738 3.50642 108.465 3.68295C108.2 3.85145 107.992 4.10421 107.839 4.44123C107.695 4.77022 107.622 5.17945 107.622 5.66892C107.622 6.39109 107.787 6.94877 108.116 7.34195C108.445 7.72711 108.882 7.91969 109.428 7.91969ZM114.166 8.67797C114.006 8.67797 113.885 8.63383 113.805 8.54557C113.725 8.4573 113.685 8.33293 113.685 8.17245V3.15335C113.685 2.99287 113.725 2.87251 113.805 2.79227C113.885 2.704 114.002 2.65987 114.154 2.65987C114.306 2.65987 114.423 2.704 114.503 2.79227C114.591 2.87251 114.635 2.99287 114.635 3.15335V4.18847L114.503 4.04403C114.672 3.57863 114.944 3.22958 115.322 2.99688C115.707 2.75616 116.148 2.6358 116.645 2.6358C117.111 2.6358 117.496 2.72005 117.801 2.88856C118.114 3.05706 118.347 3.31384 118.499 3.65887C118.652 3.99589 118.728 4.42518 118.728 4.94675V8.17245C118.728 8.33293 118.684 8.4573 118.595 8.54557C118.515 8.63383 118.399 8.67797 118.246 8.67797C118.086 8.67797 117.961 8.63383 117.873 8.54557C117.793 8.4573 117.753 8.33293 117.753 8.17245V5.00693C117.753 4.46129 117.645 4.06409 117.428 3.81534C117.219 3.55857 116.882 3.43019 116.417 3.43019C115.879 3.43019 115.45 3.59869 115.129 3.93571C114.816 4.2647 114.66 4.70602 114.66 5.25969V8.17245C114.66 8.50946 114.495 8.67797 114.166 8.67797ZM125.976 8.70204C125.518 8.70204 125.133 8.6218 124.82 8.46132C124.515 8.29281 124.287 8.05208 124.134 7.73914C123.982 7.41818 123.905 7.02901 123.905 6.57163V3.5024H123.099C122.963 3.5024 122.858 3.47031 122.786 3.40611C122.714 3.3339 122.678 3.23761 122.678 3.11724C122.678 2.99688 122.714 2.90461 122.786 2.84041C122.858 2.77622 122.963 2.74412 123.099 2.74412H123.905V1.35996C123.905 1.19948 123.95 1.07912 124.038 0.998874C124.126 0.910609 124.246 0.866476 124.399 0.866476C124.551 0.866476 124.668 0.910609 124.748 0.998874C124.836 1.07912 124.88 1.19948 124.88 1.35996V2.74412H126.397C126.533 2.74412 126.638 2.77622 126.71 2.84041C126.782 2.90461 126.818 2.99688 126.818 3.11724C126.818 3.23761 126.782 3.3339 126.71 3.40611C126.638 3.47031 126.533 3.5024 126.397 3.5024H124.88V6.47534C124.88 6.93272 124.977 7.28177 125.169 7.52249C125.362 7.75519 125.675 7.87154 126.108 7.87154C126.26 7.87154 126.389 7.85549 126.493 7.8234C126.606 7.7913 126.698 7.77525 126.77 7.77525C126.842 7.76723 126.902 7.7913 126.951 7.84747C126.999 7.90364 127.023 7.99993 127.023 8.13634C127.023 8.23263 127.003 8.32089 126.963 8.40113C126.93 8.48138 126.87 8.53754 126.782 8.56964C126.686 8.60174 126.557 8.62982 126.397 8.65389C126.244 8.68599 126.104 8.70204 125.976 8.70204ZM130.209 8.70204C129.639 8.70204 129.146 8.57767 128.729 8.32892C128.311 8.08017 127.986 7.73112 127.754 7.28177C127.529 6.82439 127.417 6.28678 127.417 5.66892C127.417 5.20352 127.481 4.78626 127.609 4.41715C127.738 4.04002 127.926 3.71905 128.175 3.45426C128.424 3.18946 128.717 2.98886 129.054 2.85245C129.399 2.70801 129.784 2.6358 130.209 2.6358C130.779 2.6358 131.272 2.76017 131.69 3.00892C132.107 3.25767 132.428 3.61073 132.652 4.0681C132.885 4.51746 133.001 5.05106 133.001 5.66892C133.001 6.13432 132.937 6.55157 132.809 6.92068C132.68 7.28979 132.492 7.61076 132.243 7.88358C131.994 8.14837 131.698 8.35299 131.353 8.49742C131.015 8.63383 130.634 8.70204 130.209 8.70204ZM130.209 7.91969C130.57 7.91969 130.887 7.83142 131.16 7.65489C131.433 7.47836 131.641 7.22159 131.786 6.88457C131.938 6.54756 132.014 6.14234 132.014 5.66892C132.014 4.93872 131.85 4.38105 131.521 3.99589C131.2 3.61073 130.763 3.41815 130.209 3.41815C129.84 3.41815 129.519 3.50642 129.246 3.68295C128.981 3.85145 128.773 4.10421 128.62 4.44123C128.476 4.77022 128.404 5.17945 128.404 5.66892C128.404 6.39109 128.568 6.94877 128.897 7.34195C129.226 7.72711 129.663 7.91969 130.209 7.91969ZM136.991 8.66593C136.839 8.67396 136.722 8.63383 136.642 8.54557C136.554 8.4573 136.51 8.34898 136.51 8.22059C136.51 8.1243 136.542 8.03604 136.606 7.9558C136.662 7.87555 136.754 7.83142 136.883 7.8234L137.256 7.79932C137.665 7.76723 137.978 7.62681 138.195 7.37806C138.411 7.12129 138.52 6.77224 138.52 6.33091V0.529463C138.52 0.360956 138.56 0.236582 138.64 0.156341C138.728 0.0680756 138.853 0.0239429 139.013 0.0239429C139.174 0.0239429 139.294 0.0680756 139.374 0.156341C139.463 0.236582 139.507 0.360956 139.507 0.529463V6.34295C139.507 6.80032 139.427 7.19752 139.266 7.53453C139.106 7.86352 138.865 8.12029 138.544 8.30485C138.231 8.4894 137.846 8.59773 137.388 8.62982L136.991 8.66593ZM143.903 8.70204C143.333 8.70204 142.839 8.57767 142.422 8.32892C142.005 8.08017 141.68 7.73112 141.447 7.28177C141.223 6.82439 141.11 6.28678 141.11 5.66892C141.11 5.20352 141.174 4.78626 141.303 4.41715C141.431 4.04002 141.62 3.71905 141.868 3.45426C142.117 3.18946 142.41 2.98886 142.747 2.85245C143.092 2.70801 143.477 2.6358 143.903 2.6358C144.472 2.6358 144.966 2.76017 145.383 3.00892C145.8 3.25767 146.121 3.61073 146.346 4.0681C146.579 4.51746 146.695 5.05106 146.695 5.66892C146.695 6.13432 146.631 6.55157 146.502 6.92068C146.374 7.28979 146.185 7.61076 145.937 7.88358C145.688 8.14837 145.391 8.35299 145.046 8.49742C144.709 8.63383 144.328 8.70204 143.903 8.70204ZM143.903 7.91969C144.264 7.91969 144.581 7.83142 144.853 7.65489C145.126 7.47836 145.335 7.22159 145.479 6.88457C145.632 6.54756 145.708 6.14234 145.708 5.66892C145.708 4.93872 145.544 4.38105 145.215 3.99589C144.894 3.61073 144.456 3.41815 143.903 3.41815C143.533 3.41815 143.213 3.50642 142.94 3.68295C142.675 3.85145 142.466 4.10421 142.314 4.44123C142.169 4.77022 142.097 5.17945 142.097 5.66892C142.097 6.39109 142.262 6.94877 142.591 7.34195C142.92 7.72711 143.357 7.91969 143.903 7.91969ZM148.641 8.65389C148.48 8.65389 148.36 8.60976 148.28 8.5215C148.199 8.42521 148.159 8.29281 148.159 8.1243V3.2015C148.159 3.03299 148.199 2.90461 148.28 2.81634C148.36 2.72807 148.48 2.68394 148.641 2.68394C148.793 2.68394 148.914 2.72807 149.002 2.81634C149.09 2.90461 149.134 3.03299 149.134 3.2015V8.1243C149.134 8.29281 149.09 8.42521 149.002 8.5215C148.922 8.60976 148.801 8.65389 148.641 8.65389ZM148.641 1.33589C148.44 1.33589 148.284 1.28373 148.171 1.17942C148.059 1.06708 148.003 0.918633 148.003 0.734078C148.003 0.541499 148.059 0.397065 148.171 0.300775C148.284 0.196462 148.44 0.144305 148.641 0.144305C148.849 0.144305 149.006 0.196462 149.11 0.300775C149.223 0.397065 149.279 0.541499 149.279 0.734078C149.279 0.918633 149.223 1.06708 149.11 1.17942C149.006 1.28373 148.849 1.33589 148.641 1.33589ZM151.438 8.67797C151.278 8.67797 151.157 8.63383 151.077 8.54557C150.997 8.4573 150.957 8.33293 150.957 8.17245V3.15335C150.957 2.99287 150.997 2.87251 151.077 2.79227C151.157 2.704 151.274 2.65987 151.426 2.65987C151.579 2.65987 151.695 2.704 151.775 2.79227C151.864 2.87251 151.908 2.99287 151.908 3.15335V4.18847L151.775 4.04403C151.944 3.57863 152.217 3.22958 152.594 2.99688C152.979 2.75616 153.42 2.6358 153.918 2.6358C154.383 2.6358 154.768 2.72005 155.073 2.88856C155.386 3.05706 155.619 3.31384 155.771 3.65887C155.924 3.99589 156 4.42518 156 4.94675V8.17245C156 8.33293 155.956 8.4573 155.868 8.54557C155.787 8.63383 155.671 8.67797 155.519 8.67797C155.358 8.67797 155.234 8.63383 155.145 8.54557C155.065 8.4573 155.025 8.33293 155.025 8.17245V5.00693C155.025 4.46129 154.917 4.06409 154.7 3.81534C154.491 3.55857 154.154 3.43019 153.689 3.43019C153.151 3.43019 152.722 3.59869 152.401 3.93571C152.088 4.2647 151.932 4.70602 151.932 5.25969V8.17245C151.932 8.50946 151.767 8.67797 151.438 8.67797Z" fill="#CCB2FF"/>
</svg>
