<svg width="305" height="153" viewBox="0 0 305 153" fill="none" xmlns="http://www.w3.org/2000/svg">
<path d="M16.4432 49.5409C16.1778 49.5713 15.9554 49.5378 15.7762 49.4406C15.6117 49.325 15.5015 49.1695 15.4456 48.9742C15.4043 48.7604 15.4266 48.5141 15.5124 48.2353L20.5764 31.8731C20.6878 31.5242 20.8355 31.272 21.0194 31.1165C21.2181 30.9425 21.4418 30.8413 21.6907 30.8129C21.9396 30.7845 22.1721 30.8335 22.3883 30.9601C22.6192 31.0682 22.8199 31.2806 22.9906 31.5973L31.6401 46.3924C31.8032 46.6427 31.8804 46.8776 31.8719 47.0971C31.88 47.3147 31.816 47.4901 31.6799 47.6233C31.5438 47.7566 31.3431 47.8383 31.0776 47.8687C30.7789 47.9028 30.5298 47.8556 30.3302 47.7271C30.1288 47.5821 29.9529 47.3668 29.8026 47.0815L27.4746 43.036L28.5298 43.4449L17.8278 44.6678L18.7885 44.0285L17.458 48.4921C17.3447 48.8244 17.2136 49.0747 17.0647 49.243C16.9159 49.4113 16.7087 49.5106 16.4432 49.5409ZM21.9587 33.3792L19.0296 43.2698L18.3782 42.8652L27.5869 41.8129L27.0934 42.3484L22.0085 33.3736L21.9587 33.3792ZM35.6948 47.3411C35.3629 47.379 35.0953 47.3171 34.892 47.1555C34.7052 46.9919 34.5928 46.7442 34.5549 46.4124L33.369 36.0339C33.3311 35.7021 33.3856 35.4437 33.5325 35.2588C33.6776 35.0573 33.9078 34.9386 34.223 34.9026C34.5383 34.8665 34.7893 34.9303 34.9761 35.0939C35.1775 35.2389 35.2972 35.4774 35.3352 35.8092L35.5655 37.8252L35.3166 37.8536C35.4702 36.8443 35.89 36.0316 36.576 35.4153C37.262 34.799 38.1506 34.4117 39.2419 34.2534C39.4889 34.2084 39.6947 34.2437 39.8592 34.3594C40.0218 34.4585 40.1284 34.6564 40.1791 34.9531C40.228 35.2333 40.1872 35.4649 40.0568 35.6479C39.9265 35.8309 39.7055 35.957 39.3941 36.0262L39.0016 36.1215C37.8847 36.3499 37.0553 36.8145 36.5134 37.5152C35.9862 38.1973 35.7843 39.0777 35.9075 40.1562L36.5958 46.1791C36.6337 46.511 36.5718 46.7786 36.4101 46.982C36.2651 47.1834 36.0266 47.3031 35.6948 47.3411ZM44.5842 46.2748C44.2523 46.3128 43.993 46.25 43.8062 46.0864C43.6176 45.9062 43.5033 45.642 43.4635 45.2935L42.3003 35.1142C42.2605 34.7657 42.3131 34.4908 42.4582 34.2893C42.6032 34.0878 42.8417 33.9681 43.1735 33.9302C43.4888 33.8942 43.7481 33.957 43.9515 34.1187C44.1549 34.2803 44.2764 34.5354 44.3163 34.8838L45.4794 45.0632C45.5193 45.4116 45.4593 45.6958 45.2995 45.9158C45.1545 46.1172 44.916 46.2369 44.5842 46.2748ZM42.855 31.1427C42.4402 31.1901 42.1043 31.1192 41.8474 30.9301C41.5886 30.7243 41.4373 30.4306 41.3937 30.049C41.3482 29.6508 41.4303 29.3389 41.6398 29.1132C41.8474 28.871 42.1587 28.7262 42.5735 28.6788C43.0049 28.6295 43.3407 28.7003 43.5811 28.8914C43.8361 29.064 43.9864 29.3493 44.0319 29.7476C44.0755 30.1292 43.9944 30.4494 43.7887 30.7082C43.5976 30.9486 43.2864 31.0934 42.855 31.1427ZM59.6091 44.6588C58.7794 44.7536 58.0148 44.6813 57.3151 44.4419C56.6301 44.184 56.0645 43.7948 55.6184 43.2742C55.1723 42.7537 54.9095 42.145 54.8298 41.4481C54.7275 40.5522 54.8709 39.8214 55.2601 39.2558C55.6659 38.6884 56.3791 38.2371 57.3998 37.902C58.4371 37.5649 59.8683 37.2921 61.6934 37.0836L62.8134 36.9556L62.9641 38.2747L61.869 38.3998C60.5251 38.5534 59.4707 38.7411 58.7061 38.9629C57.9561 39.1663 57.4405 39.4353 57.1594 39.77C56.8949 40.1028 56.7939 40.543 56.8565 41.0905C56.9342 41.7708 57.23 42.3001 57.7439 42.6784C58.2744 43.0548 58.9461 43.1966 59.7591 43.1037C60.4228 43.0278 60.9855 42.8038 61.4473 42.4317C61.9256 42.0577 62.2745 41.5808 62.494 41.001C62.7301 40.4193 62.8074 39.7717 62.7259 39.0583L62.4017 36.221C62.2841 35.1923 61.9923 34.4776 61.5263 34.077C61.0585 33.6599 60.3516 33.5053 59.4059 33.6134C58.8251 33.6797 58.2529 33.8208 57.6893 34.0364C57.1256 34.2521 56.5392 34.5629 55.93 34.9687C55.711 35.1114 55.5166 35.1756 55.3469 35.1614C55.1753 35.1305 55.0321 35.0545 54.9174 34.9331C54.8027 34.8117 54.7276 34.669 54.692 34.505C54.6546 34.3244 54.6678 34.1464 54.7318 33.971C54.8124 33.7937 54.9466 33.6439 55.1343 33.5216C55.8227 33.0731 56.5141 32.7252 57.2086 32.4777C57.9031 32.2303 58.5739 32.0696 59.221 31.9956C60.2663 31.8762 61.149 31.9518 61.8691 32.2225C62.5873 32.4766 63.1522 32.9331 63.5636 33.5921C63.9732 34.2345 64.2396 35.0949 64.3629 36.1734L65.1336 42.9181C65.1715 43.25 65.1179 43.5166 64.9729 43.7181C64.8444 43.9177 64.6308 44.0346 64.3322 44.0687C64.0169 44.1047 63.7659 44.0409 63.5791 43.8774C63.3923 43.7138 63.28 43.4661 63.2421 43.1343L63.0202 41.193L63.2442 41.1674C63.1835 41.8131 62.988 42.3817 62.6576 42.8733C62.3437 43.363 61.9272 43.7636 61.4081 44.075C60.889 44.3865 60.2893 44.5811 59.6091 44.6588ZM72.6823 43.1649C71.4876 43.3015 70.5333 43.0407 69.8194 42.3827C69.1055 41.7247 68.6708 40.7154 68.5153 39.3548L67.0649 26.6618C67.027 26.3299 67.0815 26.0716 67.2284 25.8867C67.3735 25.6852 67.612 25.5655 67.9438 25.5276C68.2591 25.4916 68.5184 25.5544 68.7217 25.716C68.9232 25.8611 69.0429 26.0996 69.0808 26.4314L70.5142 38.9751C70.6166 39.8711 70.8676 40.5232 71.2672 40.9314C71.6815 41.3211 72.2371 41.4761 72.934 41.3965C73.0834 41.3794 73.2151 41.3559 73.3294 41.3261C73.4436 41.2962 73.5588 41.2746 73.675 41.2614C73.8556 41.2239 73.9848 41.2512 74.0625 41.3431C74.1569 41.4332 74.2211 41.6276 74.2552 41.9262C74.2894 42.2249 74.2486 42.4565 74.1329 42.621C74.0172 42.7855 73.8129 42.9097 73.5199 42.9936C73.3891 43.0253 73.25 43.0581 73.1025 43.0917C72.9551 43.1254 72.815 43.1498 72.6823 43.1649ZM80.9977 42.2147C80.0519 42.3228 79.2366 42.2479 78.5515 41.99C77.8812 41.7136 77.3515 41.2699 76.9623 40.6588C76.5712 40.0311 76.3216 39.2444 76.2135 38.2987L75.4883 31.9521L73.8208 32.1427C73.5387 32.1749 73.3154 32.1332 73.1509 32.0175C72.9845 31.8852 72.8871 31.6947 72.8587 31.4458C72.8302 31.1969 72.8831 30.9976 73.0173 30.8478C73.1514 30.698 73.3595 30.6069 73.6416 30.5747L75.3091 30.3842L74.9821 27.522C74.9442 27.1902 75.007 26.9308 75.1705 26.7441C75.3322 26.5407 75.5706 26.421 75.8859 26.385C76.2012 26.349 76.4522 26.4127 76.6389 26.5763C76.8404 26.7213 76.9601 26.9598 76.998 27.2916L77.3251 30.1538L80.461 29.7955C80.7431 29.7632 80.9664 29.8049 81.1309 29.9206C81.2954 30.0363 81.3918 30.2186 81.4203 30.4675C81.4487 30.7163 81.3968 30.924 81.2645 31.0904C81.1304 31.2402 80.9223 31.3312 80.6402 31.3634L77.5043 31.7218L78.2067 37.8692C78.3148 38.815 78.5964 39.514 79.0515 39.9662C79.5047 40.4019 80.1793 40.5685 81.0752 40.4662C81.3905 40.4301 81.6522 40.3666 81.8603 40.2756C82.085 40.1827 82.272 40.1277 82.4214 40.1106C82.5688 40.077 82.6989 40.1125 82.8117 40.2173C82.9246 40.3221 82.9971 40.5155 83.0293 40.7976C83.0521 40.9967 83.0315 41.1839 82.9675 41.3593C82.92 41.5328 82.8089 41.6632 82.6339 41.7504C82.4424 41.8395 82.1836 41.928 81.8574 42.0157C81.5498 42.118 81.2632 42.1844 80.9977 42.2147ZM90.1747 41.1661C88.8971 41.3121 87.7653 41.1893 86.7792 40.7977C85.8079 40.3876 85.0119 39.7474 84.3914 38.877C83.7875 38.0047 83.4116 36.9215 83.2637 35.6273C83.1196 34.3663 83.2433 33.2427 83.6349 32.2567C84.0246 31.254 84.6205 30.438 85.4226 29.8084C86.2414 29.177 87.2232 28.7958 88.368 28.665C89.181 28.5721 89.9272 28.6297 90.6065 28.8378C91.284 29.0294 91.8761 29.3567 92.3828 29.8199C92.9062 30.2812 93.3257 30.8636 93.6415 31.5671C93.9738 32.2687 94.1921 33.0758 94.2963 33.9884C94.3267 34.2538 94.2748 34.4615 94.1406 34.6113C94.0045 34.7445 93.7955 34.8272 93.5134 34.8594L84.8522 35.8492L84.7015 34.5301L92.8898 33.5944L92.5286 33.9635C92.4262 33.0675 92.2072 32.3277 91.8715 31.7441C91.534 31.1439 91.0891 30.7073 90.5368 30.4343C90.0011 30.1593 89.3517 30.0654 88.5884 30.1526C87.7422 30.2493 87.0432 30.5309 86.4914 30.9974C85.9543 31.4454 85.5762 32.0348 85.3572 32.7659C85.1363 33.4803 85.0779 34.2938 85.1822 35.2063L85.1993 35.3557C85.3737 36.8821 85.8715 38.0019 86.6925 38.7149C87.5302 39.426 88.6293 39.7038 89.9899 39.5484C90.554 39.4839 91.1013 39.3457 91.6318 39.1338C92.1789 38.92 92.698 38.6086 93.1891 38.1995C93.4043 38.0236 93.6041 37.9335 93.7885 37.9292C93.9877 37.9065 94.1519 37.9466 94.2813 38.0494C94.4089 38.1357 94.4987 38.2599 94.5508 38.4221C94.6177 38.5657 94.62 38.7335 94.5579 38.9255C94.5124 39.1156 94.3894 39.2893 94.1889 39.4467C93.6868 39.9075 93.0748 40.2884 92.3528 40.5894C91.6308 40.8905 90.9048 41.0827 90.1747 41.1661ZM98.9851 40.1089C98.6533 40.1468 98.3857 40.085 98.1823 39.9233C97.9955 39.7597 97.8832 39.512 97.8453 39.1802L96.6593 28.8017C96.6214 28.4699 96.6759 28.2115 96.8229 28.0267C96.968 27.8252 97.1981 27.7064 97.5134 27.6704C97.8286 27.6344 98.0796 27.6981 98.2664 27.8617C98.4679 28.0068 98.5876 28.2452 98.6255 28.5771L98.8559 30.593L98.607 30.6215C98.7606 29.6122 99.1804 28.7994 99.8664 28.1831C100.552 27.5669 101.441 27.1796 102.532 27.0213C102.779 26.9762 102.985 27.0115 103.15 27.1272C103.312 27.2263 103.419 27.4242 103.47 27.721C103.518 28.0012 103.478 28.2327 103.347 28.4157C103.217 28.5987 102.996 28.7248 102.684 28.794L102.292 28.8893C101.175 29.1178 100.346 29.5823 99.8038 30.283C99.2766 30.9652 99.0746 31.8455 99.1979 32.924L99.8861 38.947C99.924 39.2788 99.8622 39.5464 99.7005 39.7498C99.5554 39.9513 99.317 40.071 98.9851 40.1089ZM107.88 39.0925C107.548 39.1304 107.289 39.0676 107.102 38.904C106.916 38.7405 106.803 38.4928 106.765 38.1609L105.579 27.7825C105.541 27.4506 105.596 27.1923 105.743 27.0074C105.888 26.8059 106.118 26.6872 106.433 26.6511C106.749 26.6151 107 26.6789 107.186 26.8424C107.388 26.9875 107.508 27.2259 107.545 27.5578L107.79 29.6982L107.482 29.4308C107.721 28.4286 108.202 27.6424 108.927 27.0721C109.667 26.4834 110.551 26.1302 111.58 26.0126C112.542 25.9027 113.358 25.9859 114.029 26.2623C114.715 26.5368 115.257 27.0127 115.654 27.6902C116.049 28.351 116.308 29.2207 116.431 30.2992L117.193 36.9693C117.231 37.3011 117.17 37.5687 117.008 37.7721C116.863 37.9736 116.633 38.0923 116.317 38.1284C115.986 38.1663 115.718 38.1044 115.515 37.9428C115.328 37.7792 115.215 37.5315 115.178 37.1997L114.43 30.654C114.301 29.5257 113.983 28.73 113.476 28.2668C112.984 27.7852 112.257 27.5993 111.294 27.7093C110.183 27.8363 109.335 28.2862 108.751 29.0589C108.181 29.8132 107.962 30.7627 108.093 31.9076L108.781 37.9306C108.861 38.6274 108.56 39.0147 107.88 39.0925ZM124.844 37.2045C124.014 37.2993 123.25 37.227 122.55 36.9876C121.865 36.7297 121.299 36.3404 120.853 35.8199C120.407 35.2994 120.144 34.6907 120.065 33.9938C119.962 33.0978 120.106 32.3671 120.495 31.8015C120.901 31.2341 121.614 30.7828 122.635 30.4476C123.672 30.1106 125.103 29.8378 126.928 29.6292L128.048 29.5012L128.199 30.8203L127.104 30.9455C125.76 31.099 124.706 31.2867 123.941 31.5086C123.191 31.7119 122.675 31.981 122.394 32.3157C122.13 32.6484 122.029 33.0886 122.091 33.6362C122.169 34.3164 122.465 34.8457 122.979 35.224C123.509 35.6005 124.181 35.7422 124.994 35.6493C125.658 35.5735 126.22 35.3495 126.682 34.9774C127.16 34.6033 127.509 34.1264 127.729 33.5466C127.965 32.965 128.042 32.3174 127.961 31.6039L127.636 28.7667C127.519 27.7379 127.227 27.0233 126.761 26.6227C126.293 26.2055 125.586 26.051 124.641 26.159C124.06 26.2254 123.488 26.3664 122.924 26.5821C122.36 26.7978 121.774 27.1085 121.165 27.5143C120.946 27.657 120.751 27.7212 120.582 27.707C120.41 27.6762 120.267 27.6001 120.152 27.4788C120.037 27.3574 119.962 27.2147 119.927 27.0507C119.889 26.87 119.903 26.692 119.967 26.5166C120.047 26.3393 120.181 26.1895 120.369 26.0672C121.057 25.6188 121.749 25.2708 122.443 25.0234C123.138 24.7759 123.809 24.6152 124.456 24.5413C125.501 24.4218 126.384 24.4975 127.104 24.7682C127.822 25.0223 128.387 25.4788 128.798 26.1378C129.208 26.7801 129.474 27.6406 129.598 28.7191L130.368 35.4638C130.406 35.7956 130.353 36.0623 130.208 36.2638C130.079 36.4634 129.866 36.5802 129.567 36.6143C129.252 36.6504 129.001 36.5866 128.814 36.423C128.627 36.2595 128.515 36.0118 128.477 35.6799L128.255 33.7387L128.479 33.7131C128.418 34.3587 128.223 34.9274 127.892 35.419C127.578 35.9087 127.162 36.3092 126.643 36.6207C126.124 36.9321 125.524 37.1267 124.844 37.2045ZM139.087 35.5769C138.141 35.685 137.326 35.6101 136.641 35.3522C135.97 35.0758 135.441 34.6321 135.051 34.021C134.66 33.3933 134.411 32.6066 134.303 31.6609L133.577 25.3143L131.91 25.5049C131.628 25.5371 131.405 25.4954 131.24 25.3797C131.074 25.2474 130.976 25.0569 130.948 24.808C130.919 24.5591 130.972 24.3598 131.106 24.21C131.241 24.0602 131.449 23.9691 131.731 23.9369L133.398 23.7464L133.071 20.8842C133.033 20.5524 133.096 20.293 133.26 20.1063C133.421 19.9029 133.66 19.7832 133.975 19.7472C134.29 19.7111 134.541 19.7749 134.728 19.9385C134.93 20.0835 135.049 20.322 135.087 20.6538L135.414 23.516L138.55 23.1577C138.832 23.1254 139.055 23.1671 139.22 23.2828C139.384 23.3985 139.481 23.5808 139.509 23.8297C139.538 24.0785 139.486 24.2862 139.354 24.4526C139.219 24.6024 139.011 24.6934 138.729 24.7256L135.593 25.084L136.296 31.2314C136.404 32.1772 136.685 32.8762 137.141 33.3284C137.594 33.7641 138.268 33.9307 139.164 33.8284C139.48 33.7923 139.741 33.7288 139.949 33.6378C140.174 33.5449 140.361 33.4899 140.51 33.4728C140.658 33.4392 140.788 33.4747 140.901 33.5795C141.014 33.6843 141.086 33.8777 141.118 34.1598C141.141 34.3589 141.121 34.5461 141.057 34.7215C141.009 34.895 140.898 35.0254 140.723 35.1126C140.532 35.2017 140.273 35.2902 139.947 35.3778C139.639 35.4802 139.352 35.5466 139.087 35.5769ZM148.264 34.5283C146.986 34.6743 145.854 34.5515 144.868 34.1599C143.897 33.7498 143.101 33.1096 142.48 32.2392C141.877 31.3669 141.501 30.2837 141.353 28.9895C141.209 27.7284 141.332 26.6049 141.724 25.6189C142.114 24.6162 142.71 23.8001 143.512 23.1706C144.33 22.5392 145.312 22.158 146.457 22.0272C147.27 21.9343 148.016 21.9919 148.696 22.2C149.373 22.3916 149.965 22.7189 150.472 23.1821C150.995 23.6434 151.415 24.2258 151.731 24.9293C152.063 25.6309 152.281 26.438 152.385 27.3506C152.416 27.616 152.364 27.8237 152.23 27.9735C152.094 28.1067 151.885 28.1894 151.602 28.2216L142.941 29.2113L142.791 27.8923L150.979 26.9566L150.618 27.3256C150.515 26.4297 150.296 25.6899 149.961 25.1063C149.623 24.5061 149.178 24.0695 148.626 23.7964C148.09 23.5215 147.441 23.4276 146.678 23.5148C145.831 23.6115 145.132 23.8931 144.58 24.3596C144.043 24.8076 143.665 25.397 143.446 26.128C143.225 26.8425 143.167 27.6559 143.271 28.5685L143.288 28.7179C143.463 30.2443 143.961 31.3641 144.782 32.0771C145.619 32.7882 146.718 33.066 148.079 32.9105C148.643 32.8461 149.19 32.7079 149.721 32.496C150.268 32.2822 150.787 31.9708 151.278 31.5616C151.493 31.3858 151.693 31.2957 151.878 31.2914C152.077 31.2687 152.241 31.3088 152.37 31.4116C152.498 31.4979 152.588 31.6221 152.64 31.7842C152.707 31.9279 152.709 32.0957 152.647 32.2877C152.602 32.4778 152.478 32.6515 152.278 32.8089C151.776 33.2697 151.164 33.6506 150.442 33.9516C149.72 34.2526 148.994 34.4449 148.264 34.5283ZM160.141 33.1711C159.395 33.2564 158.629 33.2514 157.845 33.1561C157.078 33.0589 156.345 32.8233 155.646 32.4492C155.467 32.352 155.336 32.2326 155.252 32.0908C155.167 31.9325 155.124 31.7777 155.124 31.6265C155.138 31.4568 155.188 31.3082 155.274 31.1806C155.377 31.0512 155.503 30.9697 155.65 30.936C155.812 30.8839 155.998 30.8962 156.209 30.973C156.901 31.2973 157.556 31.5082 158.172 31.6059C158.803 31.6851 159.417 31.6906 160.015 31.6223C160.96 31.5142 161.654 31.2585 162.095 30.8551C162.537 30.4516 162.723 29.9513 162.655 29.3539C162.602 28.8894 162.403 28.5423 162.057 28.3129C161.709 28.0669 161.187 27.908 160.49 27.8364L158.168 27.5975C157.098 27.5012 156.276 27.217 155.701 26.7448C155.142 26.2708 154.814 25.6106 154.718 24.7644C154.632 24.0178 154.75 23.3572 155.071 22.7826C155.407 22.1895 155.914 21.7029 156.594 21.3227C157.273 20.9426 158.086 20.6984 159.031 20.5904C159.761 20.5069 160.461 20.5278 161.131 20.653C161.816 20.7596 162.447 20.99 163.026 21.3442C163.205 21.4414 163.329 21.5701 163.397 21.7303C163.481 21.8721 163.507 22.0287 163.476 22.2003C163.46 22.3535 163.401 22.4947 163.298 22.6242C163.193 22.737 163.059 22.8112 162.895 22.8467C162.731 22.8823 162.551 22.8524 162.355 22.7571C161.819 22.4821 161.286 22.2994 160.754 22.2088C160.221 22.1017 159.705 22.0766 159.208 22.1334C158.279 22.2396 157.594 22.5027 157.155 22.9227C156.715 23.3427 156.53 23.8514 156.598 24.4487C156.651 24.9133 156.844 25.2779 157.177 25.5424C157.51 25.8069 157.999 25.9695 158.644 26.0302L160.963 26.2443C162.068 26.3534 162.916 26.6347 163.505 27.0884C164.11 27.5236 164.461 28.1726 164.56 29.0354C164.685 30.1305 164.345 31.0518 163.54 31.7994C162.734 32.547 161.601 33.0042 160.141 33.1711ZM184.696 34.8532C184.364 34.8911 184.097 34.8292 183.893 34.6676C183.708 34.5206 183.597 34.2812 183.559 33.9494L182.82 27.4784L183.093 27.4471C182.934 28.4066 182.497 29.213 181.781 29.8662C181.064 30.5029 180.158 30.8838 179.063 31.0089C177.984 31.1321 177.009 30.983 176.137 30.5616C175.282 30.1382 174.577 29.4876 174.023 28.6096C173.484 27.7131 173.141 26.6261 172.995 25.3485C172.847 24.0543 172.936 22.918 173.261 21.9395C173.601 20.9426 174.141 20.1497 174.88 19.5609C175.635 18.9537 176.551 18.5884 177.629 18.4652C178.724 18.34 179.694 18.515 180.538 18.99C181.397 19.4465 182.014 20.1325 182.387 21.0479L182.153 21.4277L181.883 19.0633C181.845 18.7314 181.9 18.4731 182.047 18.2882C182.208 18.0848 182.447 17.9651 182.762 17.9291C183.094 17.8912 183.353 17.954 183.54 18.1175C183.725 18.2645 183.836 18.5039 183.874 18.8357L185.575 33.719C185.613 34.0508 185.55 34.3102 185.386 34.4969C185.241 34.6984 185.011 34.8172 184.696 34.8532ZM179.301 29.3428C180.048 29.2575 180.682 29.0001 181.205 28.5706C181.727 28.1411 182.098 27.5609 182.317 26.8299C182.552 26.097 182.614 25.241 182.502 24.2621C182.33 22.7522 181.858 21.6379 181.087 20.9192C180.332 20.1986 179.382 19.9037 178.237 20.0346C177.474 20.1218 176.831 20.3801 176.309 20.8096C175.801 21.2206 175.429 21.7926 175.194 22.5255C174.973 23.2399 174.92 24.1032 175.036 25.1153C175.207 26.6086 175.678 27.7229 176.452 28.4582C177.223 29.1769 178.173 29.4717 179.301 29.3428ZM193.249 29.3878C192.27 29.4997 191.437 29.4184 190.751 29.1439C190.078 28.8509 189.536 28.3666 189.122 27.6911C188.725 27.0136 188.466 26.144 188.345 25.0821L187.583 18.412C187.543 18.0635 187.597 17.7969 187.744 17.612C187.907 17.4252 188.146 17.3138 188.462 17.2778C188.794 17.2399 189.052 17.2944 189.237 17.4414C189.438 17.5864 189.559 17.8332 189.599 18.1816L190.358 24.8268C190.479 25.8887 190.786 26.6605 191.278 27.1421C191.785 27.6053 192.511 27.7829 193.457 27.6748C194.486 27.5572 195.284 27.1131 195.851 26.3422C196.419 25.5714 196.638 24.6219 196.509 23.4936L195.821 17.4706C195.781 17.1222 195.835 16.8555 195.982 16.6706C196.145 16.4839 196.393 16.3715 196.725 16.3336C197.04 16.2976 197.29 16.353 197.475 16.5C197.676 16.6451 197.797 16.8918 197.837 17.2403L199.023 27.6187C199.102 28.3156 198.819 28.701 198.172 28.7749C197.856 28.811 197.597 28.7481 197.394 28.5865C197.207 28.4229 197.094 28.1752 197.057 27.8434L196.798 25.5785L197.161 25.89C196.941 26.9069 196.479 27.7161 195.774 28.3177C195.087 28.9173 194.245 29.2741 193.249 29.3878ZM208.37 27.66C207.093 27.806 205.961 27.6832 204.975 27.2916C204.003 26.8815 203.207 26.2412 202.587 25.3709C201.983 24.4986 201.607 23.4153 201.459 22.1211C201.315 20.8601 201.439 19.7366 201.83 18.7506C202.22 17.7479 202.816 16.9318 203.618 16.3023C204.437 15.6708 205.419 15.2897 206.564 15.1589C207.377 15.066 208.123 15.1236 208.802 15.3317C209.479 15.5232 210.072 15.8506 210.578 16.3138C211.102 16.775 211.521 17.3574 211.837 18.0609C212.169 18.7626 212.388 19.5697 212.492 20.4822C212.522 20.7477 212.47 20.9554 212.336 21.1052C212.2 21.2384 211.991 21.3211 211.709 21.3533L203.048 22.343L202.897 21.0239L211.085 20.0883L210.724 20.4573C210.622 19.5613 210.403 18.8216 210.067 18.238C209.73 17.6378 209.285 17.2012 208.732 16.9281C208.197 16.6532 207.547 16.5593 206.784 16.6465C205.938 16.7432 205.239 17.0248 204.687 17.4912C204.15 17.9392 203.772 18.5287 203.553 19.2597C203.332 19.9741 203.273 20.7876 203.378 21.7002L203.395 21.8495C203.569 23.376 204.067 24.4958 204.888 25.2088C205.726 25.9199 206.825 26.1977 208.185 26.0422C208.749 25.9778 209.297 25.8396 209.827 25.6277C210.374 25.4139 210.893 25.1024 211.385 24.6933C211.6 24.5175 211.8 24.4274 211.984 24.4231C212.183 24.4004 212.347 24.4404 212.477 24.5433C212.604 24.6296 212.694 24.7538 212.746 24.9159C212.813 25.0596 212.816 25.2274 212.753 25.4194C212.708 25.6095 212.585 25.7832 212.384 25.9406C211.882 26.4014 211.27 26.7823 210.548 27.0833C209.826 27.3843 209.1 27.5765 208.37 27.66ZM220.248 26.3027C219.501 26.3881 218.736 26.3831 217.951 26.2878C217.184 26.1906 216.451 25.955 215.753 25.5809C215.574 25.4837 215.442 25.3643 215.359 25.2225C215.274 25.0642 215.231 24.9094 215.23 24.7582C215.244 24.5885 215.295 24.4398 215.381 24.3123C215.484 24.1829 215.609 24.1014 215.756 24.0677C215.918 24.0156 216.105 24.0279 216.315 24.1047C217.008 24.429 217.662 24.6399 218.279 24.7376C218.91 24.8168 219.524 24.8222 220.121 24.754C221.067 24.6459 221.76 24.3902 222.202 23.9867C222.643 23.5833 222.83 23.0829 222.761 22.4856C222.708 22.021 222.509 21.674 222.163 21.4446C221.816 21.1985 221.293 21.0397 220.596 20.9681L218.274 20.7291C217.204 20.6329 216.382 20.3487 215.807 19.8765C215.248 19.4024 214.921 18.7423 214.824 17.8961C214.739 17.1494 214.857 16.4888 215.178 15.9143C215.513 15.3212 216.021 14.8346 216.7 14.4544C217.379 14.0742 218.192 13.8301 219.138 13.722C219.868 13.6386 220.568 13.6595 221.238 13.7846C221.922 13.8913 222.554 14.1217 223.132 14.4759C223.311 14.573 223.435 14.7018 223.504 14.862C223.587 15.0037 223.614 15.1604 223.583 15.332C223.567 15.4851 223.507 15.6264 223.404 15.7558C223.3 15.8687 223.165 15.9428 223.001 15.9784C222.837 16.0139 222.657 15.9841 222.461 15.8888C221.926 15.6138 221.392 15.4311 220.861 15.3405C220.327 15.2334 219.812 15.2082 219.314 15.2651C218.385 15.3713 217.701 15.6344 217.261 16.0544C216.822 16.4744 216.636 16.9831 216.704 17.5804C216.757 18.045 216.95 18.4095 217.283 18.6741C217.616 18.9386 218.105 19.1012 218.751 19.1619L221.07 19.376C222.175 19.485 223.022 19.7664 223.612 20.2201C224.216 20.6553 224.568 21.3043 224.666 22.1671C224.792 23.2622 224.451 24.1835 223.646 24.9311C222.84 25.6787 221.708 26.1359 220.248 26.3027ZM232.88 24.8592C231.934 24.9673 231.119 24.8924 230.434 24.6345C229.764 24.3581 229.234 23.9144 228.845 23.3033C228.453 22.6756 228.204 21.8889 228.096 20.9432L227.371 14.5966L225.703 14.7872C225.421 14.8194 225.198 14.7777 225.033 14.662C224.867 14.5297 224.769 14.3392 224.741 14.0903C224.713 13.8414 224.765 13.6421 224.9 13.4923C225.034 13.3425 225.242 13.2514 225.524 13.2192L227.191 13.0287L226.864 10.1665C226.826 9.83465 226.889 9.57534 227.053 9.38856C227.214 9.18519 227.453 9.0655 227.768 9.02947C228.083 8.99345 228.334 9.05722 228.521 9.22077C228.723 9.36584 228.842 9.60429 228.88 9.93614L229.207 12.7983L232.343 12.44C232.625 12.4077 232.849 12.4494 233.013 12.5651C233.178 12.6808 233.274 12.8631 233.303 13.112C233.331 13.3608 233.279 13.5685 233.147 13.7349C233.013 13.8847 232.805 13.9757 232.522 14.0079L229.387 14.3663L230.089 20.5137C230.197 21.4595 230.479 22.1585 230.934 22.6107C231.387 23.0464 232.062 23.213 232.958 23.1107C233.273 23.0746 233.534 23.0111 233.743 22.9201C233.967 22.8272 234.154 22.7722 234.304 22.7551C234.451 22.7215 234.581 22.757 234.694 22.8618C234.807 22.9666 234.879 23.16 234.912 23.4421C234.934 23.6412 234.914 23.8284 234.85 24.0038C234.802 24.1773 234.691 24.3077 234.516 24.3949C234.325 24.484 234.066 24.5725 233.74 24.6602C233.432 24.7625 233.145 24.8289 232.88 24.8592ZM237.858 24.1896C237.526 24.2275 237.267 24.1647 237.08 24.0011C236.891 23.821 236.777 23.5567 236.737 23.2082L235.574 13.0289C235.534 12.6805 235.587 12.4055 235.732 12.204C235.877 12.0025 236.116 11.8828 236.447 11.8449C236.763 11.8089 237.022 11.8717 237.225 12.0334C237.429 12.195 237.55 12.4501 237.59 12.7985L238.753 22.9779C238.793 23.3263 238.733 23.6105 238.573 23.8305C238.428 24.0319 238.19 24.1516 237.858 24.1896ZM236.129 9.05743C235.714 9.10483 235.378 9.03395 235.121 8.8448C234.862 8.63905 234.711 8.34536 234.668 7.96374C234.622 7.56553 234.704 7.2536 234.914 7.02794C235.121 6.7857 235.432 6.64088 235.847 6.59348C236.279 6.54418 236.615 6.61506 236.855 6.80611C237.11 6.97868 237.26 7.26407 237.306 7.66228C237.349 8.0439 237.268 8.36413 237.063 8.62296C236.871 8.86331 236.56 9.00813 236.129 9.05743ZM247.686 23.1674C246.508 23.302 245.458 23.1614 244.536 22.7457C243.615 22.3299 242.86 21.6849 242.273 20.8107C241.7 19.9181 241.341 18.8329 241.195 17.5553C241.085 16.593 241.119 15.715 241.298 14.9214C241.474 14.1113 241.788 13.403 242.24 12.7967C242.692 12.1904 243.25 11.7064 243.914 11.3447C244.594 10.9645 245.373 10.7241 246.252 10.6236C247.431 10.489 248.48 10.6296 249.402 11.0454C250.324 11.4611 251.071 12.1154 251.643 13.008C252.231 13.8822 252.597 14.9581 252.743 16.2357C252.853 17.1981 252.819 18.076 252.641 18.8696C252.463 19.6632 252.149 20.3714 251.699 20.9943C251.247 21.6007 250.681 22.0939 250.002 22.4741C249.337 22.8358 248.565 23.0669 247.686 23.1674ZM247.501 21.5496C248.248 21.4643 248.882 21.2069 249.405 20.7774C249.927 20.3479 250.298 19.7677 250.517 19.0367C250.752 18.3038 250.814 17.4479 250.702 16.4689C250.53 14.959 250.058 13.8447 249.287 13.126C248.532 12.4055 247.582 12.1106 246.437 12.2414C245.674 12.3286 245.031 12.587 244.509 13.0165C244.001 13.4275 243.629 13.9994 243.394 14.7323C243.173 15.4467 243.12 16.31 243.236 17.3221C243.407 18.8154 243.878 19.9297 244.652 20.665C245.423 21.3837 246.373 21.6786 247.501 21.5496ZM257.478 21.998C257.146 22.036 256.887 21.9731 256.7 21.8096C256.513 21.646 256.401 21.3983 256.363 21.0665L255.177 10.688C255.139 10.3562 255.194 10.0978 255.34 9.91294C255.486 9.71147 255.716 9.59272 256.031 9.55669C256.346 9.52067 256.597 9.58444 256.784 9.74799C256.985 9.89306 257.105 10.1315 257.143 10.4634L257.388 12.6038L257.08 12.3364C257.318 11.3342 257.8 10.548 258.525 9.9777C259.264 9.38893 260.148 9.03576 261.177 8.91821C262.14 8.80825 262.956 8.89146 263.626 9.16785C264.313 9.44234 264.855 9.91831 265.252 10.5958C265.647 11.2566 265.906 12.1263 266.029 13.2048L266.791 19.8749C266.829 20.2067 266.767 20.4743 266.605 20.6777C266.46 20.8792 266.23 20.9979 265.915 21.0339C265.583 21.0719 265.316 21.01 265.112 20.8483C264.925 20.6848 264.813 20.4371 264.775 20.1052L264.027 13.5596C263.898 12.4313 263.58 11.6356 263.074 11.1724C262.582 10.6908 261.854 10.5049 260.892 10.6149C259.78 10.7419 258.932 11.1918 258.348 11.9645C257.779 12.7187 257.56 13.6683 257.691 14.8131L258.379 20.8361C258.458 21.533 258.158 21.9203 257.478 21.998ZM274.715 20.0788C273.969 20.1641 273.203 20.1591 272.419 20.0638C271.652 19.9666 270.919 19.731 270.22 19.3569C270.041 19.2597 269.91 19.1403 269.826 18.9985C269.741 18.8402 269.698 18.6854 269.698 18.5342C269.712 18.3645 269.762 18.2158 269.849 18.0883C269.951 17.9589 270.077 17.8774 270.224 17.8437C270.386 17.7916 270.572 17.8039 270.783 17.8807C271.475 18.205 272.13 18.4159 272.746 18.5136C273.377 18.5928 273.991 18.5982 274.589 18.53C275.534 18.4219 276.228 18.1662 276.669 17.7628C277.111 17.3593 277.297 16.859 277.229 16.2616C277.176 15.7971 276.977 15.45 276.631 15.2206C276.283 14.9745 275.761 14.8157 275.064 14.7441L272.742 14.5052C271.672 14.4089 270.85 14.1247 270.275 13.6525C269.716 13.1785 269.389 12.5183 269.292 11.6721C269.207 10.9255 269.324 10.2648 269.645 9.69029C269.981 9.09724 270.488 8.61062 271.168 8.23044C271.847 7.85025 272.66 7.60612 273.605 7.49805C274.335 7.41462 275.035 7.43549 275.705 7.56066C276.39 7.66733 277.021 7.89774 277.6 8.25187C277.779 8.34906 277.903 8.47777 277.971 8.638C278.055 8.77975 278.081 8.93643 278.05 9.10804C278.034 9.26116 277.975 9.40243 277.872 9.53185C277.767 9.64467 277.633 9.71886 277.469 9.75441C277.305 9.78997 277.125 9.7601 276.929 9.66481C276.393 9.38984 275.86 9.20708 275.328 9.11653C274.795 9.00938 274.279 8.98425 273.782 9.04113C272.853 9.1473 272.168 9.4104 271.729 9.83041C271.289 10.2504 271.104 10.7591 271.172 11.3564C271.225 11.821 271.418 12.1856 271.751 12.4501C272.084 12.7146 272.573 12.8772 273.218 12.9379L275.537 13.152C276.642 13.261 277.49 13.5424 278.079 13.9961C278.684 14.4313 279.035 15.0803 279.134 15.9431C279.259 17.0382 278.919 17.9595 278.114 18.7071C277.308 19.4547 276.175 19.9119 274.715 20.0788ZM35.3859 81.717C34.2908 81.8421 33.3128 81.6681 32.4519 81.195C31.6076 80.7199 30.9987 80.0247 30.6251 79.1093L30.8676 78.8042L31.1293 81.094C31.1672 81.4258 31.1053 81.6934 30.9437 81.8968C30.7986 82.0983 30.5684 82.217 30.2532 82.253C29.9213 82.291 29.662 82.2281 29.4752 82.0646C29.2885 81.901 29.1761 81.6533 29.1382 81.3215L27.3294 65.4925C27.2915 65.1606 27.346 64.9023 27.493 64.7174C27.6381 64.5159 27.8765 64.3962 28.2084 64.3583C28.5236 64.3223 28.7829 64.3851 28.9863 64.5467C29.1878 64.6918 29.3075 64.9303 29.3454 65.2621L30.1929 72.6788L29.8942 72.713C30.0701 71.7516 30.5167 70.9526 31.234 70.3159C31.9512 69.6792 32.8574 69.2983 33.9525 69.1732C35.0476 69.0481 36.0227 69.1972 36.8779 69.6205C37.7313 70.0273 38.4276 70.6789 38.9671 71.5754C39.5213 72.4533 39.8723 73.5394 40.0202 74.8336C40.1662 76.1112 40.0692 77.2485 39.7293 78.2455C39.4041 79.2239 38.8643 80.0168 38.1101 80.624C37.3724 81.2294 36.4644 81.5937 35.3859 81.717ZM34.7779 80.1476C35.5412 80.0603 36.1757 79.8029 36.6815 79.3753C37.2039 78.9458 37.5747 78.3656 37.7937 77.6346C38.0293 76.9017 38.0912 76.0458 37.9793 75.0668C37.8068 73.5569 37.3349 72.4426 36.5636 71.7239C35.8089 71.0034 34.8591 70.7085 33.7143 70.8393C32.9676 70.9246 32.3331 71.182 31.8106 71.6115C31.2863 72.0244 30.9064 72.5973 30.6707 73.3302C30.4498 74.0446 30.3972 74.9079 30.5128 75.92C30.6835 77.4133 31.1554 78.5276 31.9286 79.2629C32.6999 79.9816 33.6496 80.2765 34.7779 80.1476ZM49.224 80.1357C47.9464 80.2817 46.8146 80.1589 45.8285 79.7673C44.8572 79.3572 44.0612 78.717 43.4407 77.8466C42.8368 76.9743 42.4608 75.891 42.313 74.5968C42.1689 73.3358 42.2926 72.2123 42.6842 71.2263C43.0739 70.2236 43.6698 69.4075 44.4719 68.778C45.2907 68.1465 46.2724 67.7654 47.4173 67.6346C48.2303 67.5417 48.9765 67.5993 49.6558 67.8074C50.3333 67.999 50.9254 68.3263 51.4321 68.7895C51.9555 69.2507 52.375 69.8331 52.6907 70.5367C53.0231 71.2383 53.2413 72.0454 53.3456 72.9579C53.376 73.2234 53.324 73.4311 53.1899 73.5809C53.0538 73.7141 52.8448 73.7968 52.5627 73.829L43.9015 74.8187L43.7508 73.4996L51.9391 72.564L51.5778 72.933C51.4755 72.037 51.2565 71.2973 50.9208 70.7137C50.5833 70.1135 50.1384 69.6769 49.5861 69.4038C49.0504 69.1289 48.401 69.035 47.6377 69.1222C46.7915 69.2189 46.0925 69.5005 45.5407 69.967C45.0036 70.4149 44.6255 71.0044 44.4065 71.7354C44.1855 72.4498 44.1272 73.2633 44.2315 74.1759L44.2486 74.3252C44.423 75.8517 44.9207 76.9715 45.7418 77.6845C46.5795 78.3956 47.6786 78.6734 49.0391 78.5179C49.6033 78.4535 50.1506 78.3153 50.6811 78.1034C51.2281 77.8896 51.7472 77.5781 52.2384 77.169C52.4536 76.9932 52.6534 76.9031 52.8378 76.8988C53.0369 76.8761 53.2012 76.9161 53.3306 77.019C53.4581 77.1053 53.548 77.2295 53.6001 77.3916C53.667 77.5353 53.6693 77.7031 53.6072 77.8951C53.5617 78.0852 53.4387 78.2589 53.2382 78.4163C52.7361 78.8771 52.1241 79.258 51.4021 79.559C50.6801 79.86 49.9541 80.0523 49.224 80.1357ZM61.8729 78.6903C60.9272 78.7984 60.1118 78.7234 59.4268 78.4655C58.7565 78.1892 58.2267 77.7454 57.8375 77.1343C57.4464 76.5067 57.1968 75.72 57.0888 74.7742L56.3635 68.4277L54.696 68.6182C54.4139 68.6505 54.1907 68.6087 54.0262 68.4931C53.8598 68.3608 53.7624 68.1702 53.7339 67.9213C53.7055 67.6724 53.7583 67.4731 53.8925 67.3233C54.0267 67.1735 54.2348 67.0825 54.5168 67.0503L56.1844 66.8597L55.8573 63.9975C55.8194 63.6657 55.8822 63.4064 56.0458 63.2196C56.2074 63.0162 56.4459 62.8965 56.7611 62.8605C57.0764 62.8245 57.3274 62.8883 57.5142 63.0518C57.7156 63.1969 57.8353 63.4353 57.8733 63.7672L58.2003 66.6293L61.3363 66.271C61.6183 66.2388 61.8416 66.2805 62.0061 66.3962C62.1706 66.5118 62.2671 66.6941 62.2955 66.943C62.324 67.1919 62.272 67.3995 62.1398 67.5659C62.0056 67.7157 61.7975 67.8067 61.5154 67.839L58.3795 68.1973L59.082 74.3447C59.19 75.2905 59.4716 75.9895 59.9267 76.4418C60.3799 76.8774 61.0545 77.0441 61.9505 76.9417C62.2657 76.9057 62.5274 76.8422 62.7355 76.7511C62.9602 76.6582 63.1473 76.6032 63.2966 76.5862C63.444 76.5525 63.5741 76.5881 63.687 76.6929C63.7998 76.7976 63.8723 76.991 63.9046 77.2731C63.9273 77.4722 63.9067 77.6595 63.8427 77.8349C63.7953 78.0084 63.6841 78.1387 63.5092 78.226C63.3177 78.3151 63.0588 78.4035 62.7327 78.4912C62.425 78.5936 62.1384 78.66 61.8729 78.6903ZM70.0423 77.7064C69.7602 77.7386 69.5028 77.6924 69.2701 77.5677C69.0373 77.443 68.8356 77.2223 68.6649 76.9056L63.8047 67.2496C63.673 66.9789 63.6113 66.7338 63.6199 66.5143C63.645 66.2929 63.7339 66.1147 63.8865 65.9796C64.0392 65.8445 64.24 65.7627 64.4888 65.7343C64.7377 65.7058 64.9435 65.7411 65.1061 65.8402C65.2853 65.9374 65.4427 66.1379 65.5782 66.4418L70.2002 75.999L69.6029 76.0673L72.0492 65.7024C72.1312 65.3905 72.2486 65.1669 72.4012 65.0318C72.5686 64.8782 72.7933 64.7853 73.0753 64.7531C73.3408 64.7228 73.5724 64.7635 73.7701 64.8754C73.9678 64.9873 74.1325 65.1786 74.2643 65.4493L78.9111 75.0036L78.3387 75.069L80.7296 64.6601C80.8116 64.3481 80.9299 64.1329 81.0844 64.0144C81.2371 63.8793 81.4295 63.7985 81.6618 63.7719C81.9273 63.7416 82.134 63.7852 82.2819 63.9028C82.4464 64.0184 82.5493 64.1832 82.5905 64.397C82.6317 64.6108 82.6168 64.8478 82.5457 65.1081L79.9891 75.6116C79.909 75.9402 79.7623 76.2006 79.549 76.3931C79.3503 76.5671 79.11 76.6702 78.8279 76.7024C78.5458 76.7347 78.2884 76.6884 78.0557 76.5638C77.821 76.4225 77.6276 76.2009 77.4754 75.8989L72.6373 66.2151L73.7075 66.0928L71.2035 76.6156C71.1234 76.9441 70.985 77.2036 70.7882 77.3942C70.5896 77.5682 70.341 77.6722 70.0423 77.7064ZM92.0738 75.2393C90.7962 75.3852 89.6644 75.2624 88.6783 74.8709C87.707 74.4608 86.9111 73.8205 86.2905 72.9501C85.6866 72.0779 85.3107 70.9946 85.1628 69.7004C85.0187 68.4394 85.1424 67.3159 85.534 66.3298C85.9237 65.3272 86.5196 64.5111 87.3217 63.8816C88.1405 63.2501 89.1223 62.869 90.2671 62.7382C91.0801 62.6453 91.8263 62.7029 92.5056 62.911C93.1831 63.1025 93.7752 63.4299 94.2819 63.8931C94.8053 64.3543 95.2248 64.9367 95.5406 65.6402C95.8729 66.3419 96.0912 67.149 96.1954 68.0615C96.2258 68.327 96.1739 68.5346 96.0397 68.6844C95.9036 68.8177 95.6946 68.9004 95.4125 68.9326L86.7514 69.9223L86.6006 68.6032L94.7889 67.6676L94.4277 68.0366C94.3253 67.1406 94.1063 66.4008 93.7706 65.8173C93.4331 65.2171 92.9882 64.7805 92.4359 64.5074C91.9002 64.2324 91.2508 64.1386 90.4875 64.2258C89.6413 64.3225 88.9423 64.6041 88.3905 65.0705C87.8534 65.5185 87.4753 66.108 87.2563 66.839C87.0354 67.5534 86.977 68.3669 87.0813 69.2795L87.0984 69.4288C87.2728 70.9553 87.7706 72.075 88.5916 72.7881C89.4293 73.4992 90.5284 73.777 91.889 73.6215C92.4531 73.557 93.0004 73.4189 93.5309 73.207C94.078 72.9932 94.5971 72.6817 95.0882 72.2726C95.3034 72.0967 95.5032 72.0067 95.6877 72.0024C95.8868 71.9797 96.051 72.0197 96.1804 72.1226C96.308 72.2089 96.3978 72.3331 96.4499 72.4952C96.5168 72.6388 96.5191 72.8067 96.457 72.9987C96.4115 73.1888 96.2885 73.3625 96.088 73.5199C95.5859 73.9807 94.9739 74.3616 94.2519 74.6626C93.5299 74.9636 92.8039 75.1558 92.0738 75.2393ZM105.32 73.7256C104.042 73.8716 102.911 73.7488 101.925 73.3572C100.953 72.9471 100.157 72.3069 99.5368 71.4365C98.9328 70.5642 98.5569 69.481 98.409 68.1868C98.2649 66.9258 98.3887 65.8022 98.7803 64.8162C99.17 63.8136 99.7659 62.9975 100.568 62.3679C101.387 61.7365 102.369 61.3554 103.513 61.2245C104.326 61.1316 105.073 61.1892 105.752 61.3974C106.429 61.5889 107.021 61.9162 107.528 62.3794C108.052 62.8407 108.471 63.4231 108.787 64.1266C109.119 64.8282 109.337 65.6353 109.442 66.5479C109.472 66.8134 109.42 67.021 109.286 67.1708C109.15 67.304 108.941 67.3867 108.659 67.419L99.9976 68.4087L99.8469 67.0896L108.035 66.1539L107.674 66.523C107.572 65.627 107.353 64.8872 107.017 64.3036C106.679 63.7035 106.234 63.2668 105.682 62.9938C105.147 62.7188 104.497 62.6249 103.734 62.7121C102.888 62.8088 102.189 63.0904 101.637 63.5569C101.1 64.0049 100.722 64.5944 100.503 65.3254C100.282 66.0398 100.223 66.8533 100.328 67.7658L100.345 67.9152C100.519 69.4417 101.017 70.5614 101.838 71.2744C102.676 71.9855 103.775 72.2633 105.135 72.1079C105.699 72.0434 106.247 71.9052 106.777 71.6933C107.324 71.4795 107.843 71.1681 108.334 70.759C108.55 70.5831 108.749 70.493 108.934 70.4888C109.133 70.466 109.297 70.5061 109.427 70.6089C109.554 70.6952 109.644 70.8194 109.696 70.9816C109.763 71.1252 109.765 71.293 109.703 71.485C109.658 71.6751 109.535 71.8489 109.334 72.0062C108.832 72.467 108.22 72.8479 107.498 73.1489C106.776 73.45 106.05 73.6422 105.32 73.7256ZM114.106 72.6713C113.774 72.7092 113.514 72.6464 113.328 72.4828C113.141 72.3193 113.029 72.0716 112.991 71.7397L111.805 61.3613C111.767 61.0294 111.821 60.771 111.968 60.5862C112.113 60.3847 112.343 60.2659 112.659 60.2299C112.974 60.1939 113.225 60.2577 113.412 60.4212C113.613 60.5663 113.733 60.8047 113.771 61.1366L114.015 63.277L113.708 63.0096C113.946 62.0074 114.428 61.2212 115.153 60.6509C115.892 60.0622 116.776 59.709 117.805 59.5914C118.767 59.4815 119.584 59.5647 120.254 59.8411C120.941 60.1156 121.483 60.5915 121.879 61.269C122.274 61.9298 122.533 62.7995 122.657 63.878L123.419 70.5481C123.457 70.8799 123.395 71.1475 123.233 71.3509C123.088 71.5524 122.858 71.6711 122.543 71.7072C122.211 71.7451 121.943 71.6832 121.74 71.5215C121.553 71.358 121.441 71.1103 121.403 70.7784L120.655 64.2328C120.526 63.1045 120.208 62.3088 119.701 61.8456C119.209 61.364 118.482 61.1781 117.52 61.2881C116.408 61.4151 115.56 61.865 114.976 62.6377C114.407 63.392 114.188 64.3415 114.318 65.4864L115.007 71.5093C115.086 72.2062 114.786 72.5935 114.106 72.6713ZM139.8 69.7856C138.705 69.9107 137.727 69.7367 136.866 69.2636C136.022 68.7885 135.413 68.0933 135.04 67.1779L135.282 66.8728L135.544 69.1626C135.582 69.4944 135.52 69.762 135.358 69.9654C135.213 70.1669 134.983 70.2856 134.668 70.3216C134.336 70.3596 134.077 70.2968 133.89 70.1332C133.703 69.9696 133.591 69.7219 133.553 69.3901L131.744 53.5611C131.706 53.2292 131.761 52.9709 131.908 52.786C132.053 52.5845 132.291 52.4648 132.623 52.4269C132.938 52.3909 133.197 52.4537 133.401 52.6154C133.602 52.7604 133.722 52.9989 133.76 53.3307L134.607 60.7475L134.309 60.7816C134.485 59.8202 134.931 59.0212 135.648 58.3845C136.366 57.7479 137.272 57.367 138.367 57.2418C139.462 57.1167 140.437 57.2658 141.292 57.6891C142.146 58.0959 142.842 58.7475 143.382 59.644C143.936 60.522 144.287 61.608 144.435 62.9022C144.581 64.1798 144.484 65.3171 144.144 66.3141C143.819 67.2925 143.279 68.0854 142.525 68.6927C141.787 69.298 140.879 69.6623 139.8 69.7856ZM139.192 68.2162C139.956 68.129 140.59 67.8715 141.096 67.4439C141.618 67.0145 141.989 66.4342 142.208 65.7032C142.444 64.9703 142.506 64.1144 142.394 63.1354C142.221 61.6255 141.749 60.5113 140.978 59.7926C140.223 59.072 139.274 58.7771 138.129 58.9079C137.382 58.9932 136.748 59.2506 136.225 59.6801C135.701 60.093 135.321 60.6659 135.085 61.3988C134.864 62.1132 134.812 62.9765 134.927 63.9886C135.098 65.4819 135.57 66.5962 136.343 67.3315C137.114 68.0502 138.064 68.3451 139.192 68.2162ZM153.215 68.2526C152.037 68.3873 150.988 68.2467 150.066 67.8309C149.144 67.4151 148.39 66.7702 147.803 65.896C147.23 65.0033 146.871 63.9182 146.725 62.6406C146.615 61.6782 146.649 60.8003 146.827 60.0067C147.003 59.1965 147.318 58.4883 147.769 57.8819C148.221 57.2756 148.779 56.7916 149.444 56.4299C150.123 56.0497 150.903 55.8094 151.782 55.7089C152.96 55.5743 154.01 55.7149 154.931 56.1306C155.853 56.5464 156.6 57.2006 157.173 58.0933C157.76 58.9675 158.127 60.0434 158.273 61.321C158.383 62.2833 158.349 63.1613 158.17 63.9549C157.992 64.7484 157.678 65.4567 157.228 66.0796C156.776 66.6859 156.211 67.1792 155.531 67.5594C154.867 67.9211 154.095 68.1521 153.215 68.2526ZM153.031 66.6349C153.777 66.5496 154.412 66.2922 154.934 65.8627C155.457 65.4332 155.827 64.8529 156.046 64.1219C156.282 63.389 156.344 62.5331 156.232 61.5542C156.059 60.0443 155.588 58.93 154.816 58.2113C154.062 57.4907 153.112 57.1958 151.967 57.3266C151.204 57.4139 150.561 57.6722 150.038 58.1017C149.531 58.5127 149.159 59.0847 148.923 59.8176C148.702 60.532 148.65 61.3952 148.765 62.4074C148.936 63.9007 149.408 65.015 150.181 65.7502C150.953 66.4689 151.902 66.7638 153.031 66.6349ZM166.749 66.7061C165.803 66.8142 164.988 66.7393 164.303 66.4814C163.633 66.205 163.103 65.7613 162.714 65.1502C162.323 64.5225 162.073 63.7358 161.965 62.7901L161.24 56.4435L159.572 56.6341C159.29 56.6663 159.067 56.6246 158.902 56.5089C158.736 56.3766 158.639 56.1861 158.61 55.9372C158.582 55.6883 158.635 55.489 158.769 55.3391C158.903 55.1893 159.111 55.0983 159.393 55.0661L161.061 54.8756L160.734 52.0134C160.696 51.6815 160.759 51.4222 160.922 51.2355C161.084 51.0321 161.322 50.9124 161.637 50.8764C161.953 50.8403 162.204 50.9041 162.39 51.0677C162.592 51.2127 162.712 51.4512 162.75 51.783L163.077 54.6452L166.213 54.2868C166.495 54.2546 166.718 54.2963 166.882 54.412C167.047 54.5277 167.143 54.71 167.172 54.9588C167.2 55.2077 167.148 55.4154 167.016 55.5818C166.882 55.7316 166.674 55.8226 166.392 55.8548L163.256 56.2132L163.958 62.3606C164.066 63.3063 164.348 64.0054 164.803 64.4576C165.256 64.8933 165.931 65.0599 166.827 64.9576C167.142 64.9215 167.404 64.858 167.612 64.767C167.837 64.6741 168.024 64.6191 168.173 64.602C168.32 64.5684 168.45 64.6039 168.563 64.7087C168.676 64.8135 168.749 65.0069 168.781 65.289C168.804 65.4881 168.783 65.6753 168.719 65.8507C168.672 66.0242 168.56 66.1546 168.385 66.2418C168.194 66.3309 167.935 66.4193 167.609 66.507C167.301 66.6094 167.015 66.6758 166.749 66.7061ZM171.733 66.0862C171.401 66.1241 171.142 66.0613 170.955 65.8978C170.768 65.7342 170.656 65.4865 170.618 65.1547L168.809 49.3257C168.771 48.9938 168.826 48.7355 168.973 48.5506C169.118 48.3491 169.356 48.2294 169.688 48.1915C170.003 48.1555 170.263 48.2183 170.466 48.3799C170.667 48.525 170.787 48.7635 170.825 49.0953L171.658 56.3876L171.335 56.4246C171.573 55.4224 172.055 54.6362 172.78 54.0659C173.519 53.4771 174.404 53.124 175.432 53.0064C176.395 52.8964 177.211 52.9796 177.881 53.256C178.568 53.5305 179.11 54.0065 179.507 54.6839C179.902 55.3448 180.161 56.2145 180.284 57.293L181.046 63.963C181.084 64.2949 181.022 64.5625 180.861 64.7659C180.715 64.9673 180.485 65.0861 180.17 65.1221C179.838 65.16 179.571 65.0982 179.367 64.9365C179.18 64.773 179.068 64.5253 179.03 64.1934L178.282 57.6478C178.153 56.5195 177.835 55.7238 177.329 55.2606C176.837 54.7789 176.109 54.5931 175.147 54.7031C174.035 54.8301 173.188 55.28 172.603 56.0527C172.034 56.8069 171.815 57.7565 171.946 58.9013L172.634 64.9243C172.714 65.6212 172.413 66.0085 171.733 66.0862ZM195.387 63.4337C194.64 63.5191 193.875 63.5141 193.091 63.4188C192.323 63.3216 191.59 63.0859 190.892 62.7119C190.713 62.6147 190.582 62.4952 190.498 62.3535C190.413 62.1952 190.37 62.0404 190.369 61.8892C190.384 61.7194 190.434 61.5708 190.52 61.4433C190.623 61.3139 190.748 61.2323 190.896 61.1987C191.058 61.1465 191.244 61.1589 191.455 61.2357C192.147 61.5599 192.802 61.7709 193.418 61.8686C194.049 61.9478 194.663 61.9532 195.26 61.885C196.206 61.7769 196.9 61.5212 197.341 61.1177C197.782 60.7143 197.969 60.2139 197.901 59.6166C197.848 59.152 197.648 58.805 197.303 58.5756C196.955 58.3295 196.433 58.1707 195.735 58.0991L193.414 57.8601C192.344 57.7639 191.521 57.4797 190.946 57.0075C190.388 56.5334 190.06 55.8733 189.963 55.0271C189.878 54.2804 189.996 53.6198 190.317 53.0453C190.653 52.4522 191.16 51.9656 191.839 51.5854C192.519 51.2052 193.331 50.9611 194.277 50.853C195.007 50.7696 195.707 50.7905 196.377 50.9156C197.061 51.0223 197.693 51.2527 198.271 51.6068C198.45 51.704 198.574 51.8327 198.643 51.993C198.727 52.1347 198.753 52.2914 198.722 52.463C198.706 52.6161 198.646 52.7574 198.544 52.8868C198.439 52.9996 198.304 53.0738 198.14 53.1094C197.976 53.1449 197.796 53.1151 197.601 53.0198C197.065 52.7448 196.531 52.5621 196 52.4715C195.467 52.3644 194.951 52.3392 194.453 52.3961C193.524 52.5023 192.84 52.7654 192.4 53.1854C191.961 53.6054 191.775 54.1141 191.844 54.7114C191.897 55.176 192.09 55.5405 192.422 55.8051C192.755 56.0696 193.244 56.2322 193.89 56.2929L196.209 56.507C197.314 56.616 198.161 56.8974 198.751 57.3511C199.356 57.7863 199.707 58.4353 199.806 59.2981C199.931 60.3932 199.591 61.3145 198.785 62.0621C197.98 62.8097 196.847 63.2669 195.387 63.4337ZM204.272 62.3176C203.94 62.3555 203.681 62.2927 203.494 62.1292C203.305 61.949 203.191 61.6847 203.151 61.3363L201.988 51.1569C201.948 50.8085 202.001 50.5335 202.146 50.3321C202.291 50.1306 202.529 50.0109 202.861 49.973C203.176 49.937 203.436 49.9998 203.639 50.1614C203.842 50.3231 203.964 50.5781 204.004 50.9266L205.167 61.1059C205.207 61.4544 205.147 61.7386 204.987 61.9585C204.842 62.16 204.604 62.2797 204.272 62.3176ZM202.543 47.1855C202.128 47.2329 201.792 47.162 201.535 46.9728C201.276 46.7671 201.125 46.4734 201.081 46.0918C201.036 45.6936 201.118 45.3816 201.327 45.156C201.535 44.9138 201.846 44.7689 202.261 44.7215C202.692 44.6722 203.028 44.7431 203.269 44.9342C203.524 45.1067 203.674 45.3921 203.719 45.7903C203.763 46.172 203.682 46.4922 203.476 46.751C203.285 46.9914 202.974 47.1362 202.543 47.1855ZM213.676 61.3438C212.598 61.467 211.623 61.3179 210.751 60.8965C209.896 60.4731 209.191 59.8224 208.637 58.9445C208.098 58.048 207.755 56.961 207.609 55.6834C207.461 54.3892 207.55 53.2528 207.875 52.2744C208.215 51.2774 208.754 50.4846 209.494 49.8958C210.248 49.2885 211.165 48.9233 212.243 48.8C213.338 48.6749 214.307 48.8416 215.149 49.3C215.992 49.7584 216.599 50.4371 216.97 51.3359L216.697 51.3672L215.849 43.9504C215.811 43.6186 215.866 43.3602 216.013 43.1753C216.174 42.972 216.421 42.8513 216.753 42.8134C217.068 42.7774 217.319 42.8411 217.506 43.0047C217.707 43.1498 217.827 43.3882 217.865 43.7201L219.674 59.5491C219.712 59.8809 219.658 60.1476 219.513 60.3491C219.368 60.5505 219.13 60.6702 218.798 60.7082C218.483 60.7442 218.223 60.6814 218.02 60.5197C217.833 60.3561 217.721 60.1084 217.683 59.7766L217.413 57.4122L217.726 57.7294C217.569 58.7054 217.124 59.5211 216.392 60.1762C215.677 60.8295 214.772 61.2187 213.676 61.3438ZM213.915 59.6777C214.661 59.5924 215.296 59.335 215.818 58.9055C216.341 58.476 216.711 57.8957 216.931 57.1647C217.166 56.4318 217.228 55.5759 217.116 54.597C216.944 53.0871 216.472 51.9728 215.7 51.2541C214.946 50.5335 213.996 50.2386 212.851 50.3694C212.088 50.4567 211.445 50.715 210.923 51.1445C210.415 51.5555 210.043 52.1275 209.808 52.8604C209.587 53.5748 209.534 54.438 209.65 55.4502C209.82 56.9435 210.292 58.0578 211.065 58.793C211.837 59.5117 212.786 59.8066 213.915 59.6777ZM229.033 59.589C227.755 59.735 226.623 59.6122 225.637 59.2206C224.666 58.8105 223.87 58.1703 223.25 57.2999C222.646 56.4276 222.27 55.3444 222.122 54.0502C221.978 52.7892 222.101 51.6657 222.493 50.6796C222.883 49.677 223.479 48.8609 224.281 48.2313C225.099 47.5999 226.081 47.2188 227.226 47.0879C228.039 46.995 228.785 47.0527 229.465 47.2608C230.142 47.4523 230.734 47.7797 231.241 48.2428C231.764 48.7041 232.184 49.2865 232.5 49.99C232.832 50.6916 233.05 51.4987 233.154 52.4113C233.185 52.6768 233.133 52.8844 232.999 53.0342C232.863 53.1674 232.654 53.2501 232.371 53.2824L223.71 54.2721L223.56 52.953L231.748 52.0173L231.387 52.3864C231.284 51.4904 231.065 50.7506 230.73 50.167C230.392 49.5669 229.947 49.1303 229.395 48.8572C228.859 48.5822 228.21 48.4883 227.447 48.5756C226.6 48.6723 225.901 48.9538 225.349 49.4203C224.812 49.8683 224.434 50.4578 224.215 51.1888C223.994 51.9032 223.936 52.7167 224.04 53.6293L224.057 53.7786C224.232 55.3051 224.73 56.4248 225.551 57.1378C226.388 57.8489 227.487 58.1268 228.848 57.9713C229.412 57.9068 229.959 57.7686 230.49 57.5567C231.037 57.3429 231.556 57.0315 232.047 56.6224C232.262 56.4465 232.462 56.3564 232.647 56.3522C232.846 56.3294 233.01 56.3695 233.139 56.4724C233.267 56.5586 233.357 56.6829 233.409 56.845C233.476 56.9886 233.478 57.1564 233.416 57.3484C233.371 57.5385 233.247 57.7123 233.047 57.8697C232.545 58.3304 231.933 58.7113 231.211 59.0124C230.489 59.3134 229.763 59.5056 229.033 59.589ZM240.91 58.2318C240.164 58.3171 239.398 58.3121 238.614 58.2168C237.847 58.1196 237.114 57.884 236.415 57.51C236.236 57.4128 236.105 57.2933 236.021 57.1516C235.936 56.9932 235.893 56.8385 235.893 56.6872C235.907 56.5175 235.957 56.3689 236.043 56.2414C236.146 56.112 236.272 56.0304 236.419 55.9968C236.581 55.9446 236.767 55.9569 236.978 56.0337C237.67 56.358 238.325 56.569 238.941 56.6667C239.572 56.7458 240.186 56.7513 240.784 56.683C241.729 56.575 242.423 56.3192 242.864 55.9158C243.306 55.5124 243.492 55.012 243.424 54.4147C243.371 53.9501 243.172 53.6031 242.826 53.3736C242.478 53.1276 241.956 52.9688 241.259 52.8972L238.937 52.6582C237.867 52.562 237.045 52.2777 236.47 51.8056C235.911 51.3315 235.584 50.6714 235.487 49.8252C235.401 49.0785 235.519 48.4179 235.84 47.8433C236.176 47.2503 236.683 46.7637 237.363 46.3835C238.042 46.0033 238.855 45.7592 239.8 45.6511C240.53 45.5677 241.23 45.5885 241.9 45.7137C242.585 45.8204 243.216 46.0508 243.795 46.4049C243.974 46.5021 244.098 46.6308 244.166 46.791C244.25 46.9328 244.276 47.0895 244.245 47.2611C244.229 47.4142 244.17 47.5555 244.067 47.6849C243.962 47.7977 243.828 47.8719 243.664 47.9075C243.5 47.943 243.32 47.9131 243.124 47.8179C242.588 47.5429 242.055 47.3601 241.523 47.2696C240.99 47.1624 240.474 47.1373 239.977 47.1942C239.048 47.3003 238.363 47.5634 237.924 47.9835C237.484 48.4035 237.299 48.9121 237.367 49.5095C237.42 49.974 237.613 50.3386 237.946 50.6031C238.279 50.8677 238.768 51.0303 239.413 51.091L241.732 51.305C242.837 51.4141 243.685 51.6955 244.274 52.1492C244.879 52.5844 245.23 53.2334 245.329 54.0961C245.454 55.1912 245.114 56.1126 244.309 56.8602C243.503 57.6077 242.37 58.065 240.91 58.2318ZM260.081 56.0412C259.135 56.1493 258.32 56.0744 257.635 55.8165C256.964 55.5401 256.434 55.0963 256.045 54.4853C255.654 53.8576 255.405 53.0709 255.296 52.1251L254.571 45.7786L252.904 45.9691C252.622 46.0014 252.398 45.9597 252.234 45.844C252.068 45.7117 251.97 45.5211 251.942 45.2723C251.913 45.0234 251.966 44.824 252.1 44.6742C252.234 44.5244 252.443 44.4334 252.725 44.4012L254.392 44.2106L254.065 41.3485C254.027 41.0166 254.09 40.7573 254.253 40.5705C254.415 40.3672 254.654 40.2475 254.969 40.2114C255.284 40.1754 255.535 40.2392 255.722 40.4027C255.923 40.5478 256.043 40.7863 256.081 41.1181L256.408 43.9803L259.544 43.6219C259.826 43.5897 260.049 43.6314 260.214 43.7471C260.378 43.8628 260.475 44.045 260.503 44.2939C260.532 44.5428 260.48 44.7504 260.348 44.9168C260.213 45.0666 260.005 45.1577 259.723 45.1899L256.587 45.5482L257.29 51.6957C257.398 52.6414 257.679 53.3404 258.134 53.7927C258.588 54.2284 259.262 54.395 260.158 54.2926C260.473 54.2566 260.735 54.1931 260.943 54.1021C261.168 54.0092 261.355 53.9542 261.504 53.9371C261.652 53.9034 261.782 53.939 261.895 54.0438C262.008 54.1485 262.08 54.342 262.112 54.624C262.135 54.8231 262.114 55.0104 262.05 55.1858C262.003 55.3593 261.892 55.4897 261.717 55.5769C261.525 55.666 261.267 55.7544 260.94 55.8421C260.633 55.9445 260.346 56.0109 260.081 56.0412ZM268.835 55.0409C267.657 55.1755 266.607 55.0349 265.685 54.6192C264.764 54.2034 264.009 53.5584 263.422 52.6842C262.849 51.7916 262.49 50.7064 262.344 49.4288C262.234 48.4665 262.268 47.5885 262.446 46.7949C262.623 45.9848 262.937 45.2765 263.388 44.6702C263.84 44.0639 264.398 43.5799 265.063 43.2182C265.742 42.838 266.522 42.5977 267.401 42.4972C268.579 42.3625 269.629 42.5031 270.551 42.9189C271.472 43.3347 272.219 43.9889 272.792 44.8816C273.379 45.7557 273.746 46.8316 273.892 48.1092C274.002 49.0716 273.968 49.9495 273.79 50.7431C273.611 51.5367 273.297 52.245 272.847 52.8679C272.396 53.4742 271.83 53.9674 271.151 54.3476C270.486 54.7093 269.714 54.9404 268.835 55.0409ZM268.65 53.4232C269.396 53.3378 270.031 53.0804 270.553 52.6509C271.076 52.2214 271.446 51.6412 271.665 50.9102C271.901 50.1773 271.963 49.3214 271.851 48.3424C271.679 46.8325 271.207 45.7182 270.435 44.9996C269.681 44.279 268.731 43.9841 267.586 44.1149C266.823 44.2021 266.18 44.4605 265.658 44.89C265.15 45.301 264.778 45.8729 264.543 46.6058C264.322 47.3202 264.269 48.1835 264.385 49.1956C264.555 50.6889 265.027 51.8032 265.8 52.5385C266.572 53.2572 267.521 53.5521 268.65 53.4232ZM10.776 118.769C10.4441 118.807 10.1848 118.744 9.99805 118.58C9.81127 118.417 9.69892 118.169 9.661 117.837L7.85223 102.008C7.81431 101.676 7.86883 101.418 8.01579 101.233C8.16086 101.032 8.39932 100.912 8.73116 100.874C9.04641 100.838 9.30573 100.901 9.5091 101.063C9.71057 101.208 9.83027 101.446 9.86819 101.778L10.7015 109.07L10.3779 109.107C10.6164 108.105 11.0981 107.319 11.8229 106.749C12.5625 106.16 13.4466 105.807 14.4753 105.689C15.4377 105.579 16.254 105.662 16.9243 105.939C17.6112 106.213 18.1531 106.689 18.5499 107.367C18.9447 108.027 19.2038 108.897 19.327 109.976L20.0892 116.646C20.1272 116.978 20.0653 117.245 19.9036 117.448C19.7586 117.65 19.5284 117.769 19.2131 117.805C18.8813 117.843 18.6137 117.781 18.4103 117.619C18.2235 117.456 18.1112 117.208 18.0733 116.876L17.3253 110.33C17.1964 109.202 16.8785 108.406 16.3718 107.943C15.8797 107.462 15.1525 107.276 14.1901 107.386C13.0785 107.513 12.2306 107.963 11.6465 108.735C11.0772 109.49 10.8579 110.439 10.9887 111.584L11.677 117.607C11.7566 118.304 11.4563 118.691 10.776 118.769ZM29.3822 116.693C28.1046 116.839 26.9728 116.716 25.9868 116.325C25.0154 115.915 24.2195 115.274 23.5989 114.404C22.995 113.532 22.6191 112.449 22.4712 111.154C22.3271 109.893 22.4508 108.77 22.8424 107.784C23.2321 106.781 23.828 105.965 24.6302 105.335C25.4489 104.704 26.4307 104.323 27.5755 104.192C28.3886 104.099 29.1347 104.157 29.8141 104.365C30.4915 104.556 31.0836 104.884 31.5904 105.347C32.1137 105.808 32.5333 106.391 32.849 107.094C33.1813 107.796 33.3996 108.603 33.5039 109.515C33.5342 109.781 33.4823 109.989 33.3481 110.138C33.2121 110.272 33.003 110.354 32.7209 110.386L24.0598 111.376L23.909 110.057L32.0973 109.121L31.7361 109.491C31.6337 108.595 31.4147 107.855 31.0791 107.271C30.7415 106.671 30.2966 106.234 29.7444 105.961C29.2087 105.686 28.5592 105.592 27.796 105.68C26.9498 105.776 26.2507 106.058 25.6989 106.524C25.1618 106.972 24.7837 107.562 24.5647 108.293C24.3438 109.007 24.2855 109.821 24.3897 110.733L24.4068 110.883C24.5812 112.409 25.079 113.529 25.9 114.242C26.7377 114.953 27.8368 115.231 29.1974 115.075C29.7615 115.011 30.3088 114.873 30.8393 114.661C31.3864 114.447 31.9055 114.136 32.3966 113.727C32.6118 113.551 32.8117 113.461 32.9961 113.456C33.1952 113.434 33.3594 113.474 33.4889 113.576C33.6164 113.663 33.7062 113.787 33.7584 113.949C33.8252 114.093 33.8276 114.261 33.7655 114.453C33.7199 114.643 33.5969 114.816 33.3964 114.974C32.8944 115.435 32.2823 115.815 31.5603 116.116C30.8383 116.418 30.1123 116.61 29.3822 116.693ZM40.8614 115.381C39.6668 115.518 38.7125 115.257 37.9986 114.599C37.2846 113.941 36.8499 112.932 36.6945 111.571L35.244 98.8782C35.2061 98.5464 35.2606 98.288 35.4076 98.1032C35.5527 97.9017 35.7911 97.782 36.123 97.7441C36.4382 97.708 36.6975 97.7709 36.9009 97.9325C37.1024 98.0776 37.2221 98.316 37.26 98.6479L38.6934 111.192C38.7957 112.088 39.0467 112.74 39.4464 113.148C39.8607 113.538 40.4163 113.693 41.1132 113.613C41.2625 113.596 41.3943 113.572 41.5085 113.543C41.6228 113.513 41.738 113.491 41.8541 113.478C42.0348 113.44 42.1639 113.468 42.2417 113.56C42.336 113.65 42.4002 113.844 42.4344 114.143C42.4685 114.441 42.4277 114.673 42.3121 114.837C42.1964 115.002 41.9921 115.126 41.6991 115.21C41.5682 115.242 41.4291 115.275 41.2817 115.308C41.1342 115.342 40.9942 115.366 40.8614 115.381ZM46.0441 119.277C45.7123 119.315 45.453 119.252 45.2662 119.089C45.0813 118.942 44.9699 118.702 44.932 118.371L43.2313 103.487C43.1934 103.155 43.2479 102.897 43.3949 102.712C43.5399 102.511 43.7701 102.392 44.0853 102.356C44.4172 102.318 44.6765 102.381 44.8633 102.544C45.0647 102.689 45.1844 102.928 45.2224 103.26L45.4925 105.624L45.179 105.307C45.3364 104.331 45.7737 103.525 46.491 102.888C47.2229 102.233 48.1365 101.843 49.2315 101.717C50.31 101.594 51.2769 101.744 52.1321 102.168C53.002 102.572 53.7067 103.223 54.2461 104.12C54.8003 104.998 55.1513 106.084 55.2992 107.378C55.4452 108.655 55.3483 109.793 55.0083 110.79C54.6831 111.768 54.1517 112.56 53.414 113.165C52.6764 113.771 51.76 114.136 50.6649 114.261C49.5698 114.386 48.6011 114.22 47.7587 113.761C46.9144 113.286 46.2981 112.6 45.9099 111.703L46.2085 111.669L46.9479 118.14C46.9859 118.472 46.9231 118.731 46.7595 118.918C46.5978 119.121 46.3594 119.241 46.0441 119.277ZM50.0569 112.692C50.8202 112.605 51.4547 112.347 51.9606 111.92C52.483 111.49 52.8537 110.91 53.0727 110.179C53.3084 109.446 53.3702 108.59 53.2584 107.611C53.0858 106.101 52.6139 104.987 51.8426 104.268C51.0879 103.548 50.1382 103.253 48.9933 103.384C48.2466 103.469 47.6121 103.726 47.0897 104.156C46.5654 104.569 46.1854 105.142 45.9498 105.874C45.7288 106.589 45.6762 107.452 45.7919 108.464C45.9625 109.958 46.4344 111.072 47.2076 111.807C47.9789 112.526 48.9287 112.821 50.0569 112.692ZM77.3361 111.213C76.0585 111.359 74.9267 111.237 73.9406 110.845C72.9693 110.435 72.1733 109.795 71.5528 108.924C70.9489 108.052 70.573 106.969 70.4251 105.675C70.281 104.414 70.4047 103.29 70.7963 102.304C71.186 101.301 71.7819 100.485 72.584 99.8558C73.4028 99.2244 74.3846 98.8432 75.5294 98.7124C76.3424 98.6195 77.0886 98.6771 77.7679 98.8852C78.4454 99.0768 79.0375 99.4041 79.5442 99.8673C80.0676 100.329 80.4871 100.911 80.8029 101.614C81.1352 102.316 81.3535 103.123 81.4577 104.036C81.4881 104.301 81.4362 104.509 81.302 104.659C81.1659 104.792 80.9569 104.875 80.6748 104.907L72.0136 105.897L71.8629 104.577L80.0512 103.642L79.6899 104.011C79.5876 103.115 79.3686 102.375 79.0329 101.792C78.6954 101.191 78.2505 100.755 77.6982 100.482C77.1625 100.207 76.5131 100.113 75.7498 100.2C74.9036 100.297 74.2046 100.578 73.6528 101.045C73.1157 101.493 72.7376 102.082 72.5186 102.813C72.2976 103.528 72.2393 104.341 72.3436 105.254L72.3607 105.403C72.5351 106.93 73.0328 108.049 73.8539 108.762C74.6916 109.473 75.7907 109.751 77.1512 109.596C77.7154 109.531 78.2627 109.393 78.7932 109.181C79.3402 108.967 79.8594 108.656 80.3505 108.247C80.5657 108.071 80.7655 107.981 80.9499 107.977C81.1491 107.954 81.3133 107.994 81.4427 108.097C81.5703 108.183 81.6601 108.307 81.7122 108.469C81.7791 108.613 81.7814 108.781 81.7193 108.973C81.6738 109.163 81.5508 109.337 81.3503 109.494C80.8482 109.955 80.2362 110.336 79.5142 110.637C78.7922 110.938 78.0662 111.13 77.3361 111.213ZM88.9397 109.888C88.1101 109.982 87.3455 109.91 86.6457 109.671C85.9607 109.413 85.3952 109.024 84.9491 108.503C84.503 107.982 84.2401 107.374 84.1605 106.677C84.0581 105.781 84.2015 105.05 84.5908 104.485C84.9966 103.917 85.7098 103.466 86.7305 103.131C87.7677 102.794 89.1989 102.521 91.0241 102.312L92.1441 102.184L92.2948 103.503L91.1997 103.629C89.8557 103.782 88.8014 103.97 88.0367 104.192C87.2868 104.395 86.7712 104.664 86.4901 104.999C86.2256 105.332 86.1246 105.772 86.1871 106.319C86.2649 107 86.5607 107.529 87.0746 107.907C87.605 108.284 88.2768 108.425 89.0898 108.332C89.7535 108.257 90.3162 108.033 90.7779 107.66C91.2563 107.286 91.6052 106.809 91.8247 106.23C92.0608 105.648 92.1381 105 92.0566 104.287L91.7323 101.45C91.6148 100.421 91.323 99.7064 90.857 99.3058C90.3891 98.8886 89.6823 98.734 88.7365 98.8421C88.1558 98.9085 87.5836 99.0495 87.0199 99.2652C86.4563 99.4809 85.8699 99.7916 85.2607 100.197C85.0417 100.34 84.8473 100.404 84.6776 100.39C84.506 100.359 84.3628 100.283 84.2481 100.162C84.1334 100.04 84.0582 99.8978 84.0227 99.7337C83.9852 99.5531 83.9985 99.3751 84.0625 99.1997C84.1431 99.0224 84.2773 98.8726 84.465 98.7503C85.1533 98.3019 85.8448 97.9539 86.5393 97.7064C87.2338 97.459 87.9046 97.2983 88.5517 97.2244C89.597 97.1049 90.4797 97.1805 91.1998 97.4512C91.918 97.7053 92.4828 98.1619 92.8943 98.8208C93.3039 99.4632 93.5703 100.324 93.6935 101.402L94.4643 108.147C94.5022 108.479 94.4486 108.745 94.3035 108.947C94.1751 109.146 93.9615 109.263 93.6628 109.297C93.3476 109.333 93.0966 109.27 92.9098 109.106C92.723 108.943 92.6107 108.695 92.5727 108.363L92.3509 106.422L92.5749 106.396C92.5142 107.042 92.3187 107.61 91.9882 108.102C91.6744 108.592 91.2579 108.992 90.7388 109.304C90.2197 109.615 89.62 109.81 88.9397 109.888ZM103.456 108.229C102.245 108.367 101.17 108.221 100.23 107.791C99.2895 107.36 98.5248 106.7 97.9356 105.809C97.361 104.9 97.0017 103.814 96.8576 102.553C96.7476 101.591 96.7818 100.713 96.96 99.9195C97.1383 99.1259 97.4543 98.4342 97.908 97.8445C98.3597 97.2382 98.9263 96.7532 99.6075 96.3896C100.305 96.0242 101.111 95.7893 102.023 95.685C102.62 95.6167 103.253 95.6369 103.921 95.7455C104.589 95.854 105.214 96.102 105.796 96.4893C105.975 96.5865 106.099 96.7152 106.168 96.8754C106.237 97.0357 106.256 97.2016 106.225 97.3732C106.192 97.5282 106.124 97.6704 106.022 97.7998C105.917 97.9127 105.774 97.9878 105.593 98.0253C105.429 98.0608 105.249 98.0226 105.051 97.9108C104.582 97.6282 104.115 97.4462 103.652 97.3646C103.189 97.2831 102.75 97.266 102.335 97.3134C101.688 97.3873 101.136 97.5597 100.68 97.8303C100.221 98.0844 99.848 98.4212 99.5598 98.8408C99.2716 99.2603 99.0684 99.7626 98.9504 100.348C98.8489 100.931 98.8408 101.596 98.9262 102.342C99.0911 103.786 99.5621 104.892 100.339 105.66C101.114 106.412 102.132 106.716 103.393 106.572C103.808 106.524 104.224 106.41 104.64 106.228C105.073 106.044 105.494 105.76 105.904 105.377C106.071 105.224 106.239 105.146 106.407 105.143C106.575 105.141 106.723 105.191 106.853 105.294C106.98 105.38 107.07 105.505 107.122 105.667C107.191 105.827 107.21 105.993 107.179 106.164C107.146 106.319 107.054 106.465 106.901 106.6C106.419 107.092 105.875 107.473 105.267 107.745C104.657 107.999 104.054 108.16 103.456 108.229ZM110.84 107.335C110.508 107.373 110.249 107.31 110.062 107.146C109.875 106.983 109.763 106.735 109.725 106.403L107.916 90.574C107.878 90.2422 107.933 89.9838 108.08 89.7989C108.225 89.5975 108.463 89.4778 108.795 89.4399C109.11 89.4038 109.37 89.4667 109.573 89.6283C109.774 89.7734 109.894 90.0118 109.932 90.3437L110.765 97.636L110.442 97.6729C110.68 96.6708 111.162 95.8846 111.887 95.3143C112.626 94.7255 113.511 94.3723 114.539 94.2548C115.502 94.1448 116.318 94.228 116.988 94.5044C117.675 94.7789 118.217 95.2549 118.614 95.9323C119.009 96.5932 119.268 97.4628 119.391 98.5413L120.153 105.211C120.191 105.543 120.129 105.811 119.968 106.014C119.822 106.216 119.592 106.334 119.277 106.37C118.945 106.408 118.678 106.347 118.474 106.185C118.287 106.021 118.175 105.774 118.137 105.442L117.389 98.8961C117.26 97.7679 116.942 96.9721 116.436 96.509C115.944 96.0273 115.216 95.8415 114.254 95.9514C113.142 96.0785 112.294 96.5283 111.71 97.3011C111.141 98.0553 110.922 99.0048 111.053 100.15L111.741 106.173C111.821 106.87 111.52 107.257 110.84 107.335ZM135.44 104.574C134.262 104.709 133.212 104.568 132.29 104.152C131.369 103.737 130.614 103.092 130.027 102.217C129.454 101.325 129.095 100.24 128.949 98.962C128.839 97.9996 128.873 97.1217 129.051 96.3281C129.228 95.5179 129.542 94.8097 129.993 94.2033C130.445 93.597 131.003 93.113 131.668 92.7513C132.347 92.3711 133.127 92.1308 134.006 92.0303C135.184 91.8957 136.234 92.0363 137.156 92.452C138.077 92.8678 138.824 93.522 139.397 94.4147C139.984 95.2889 140.351 96.3648 140.497 97.6424C140.607 98.6047 140.573 99.4827 140.395 100.276C140.216 101.07 139.902 101.778 139.452 102.401C139.001 103.007 138.435 103.501 137.756 103.881C137.091 104.242 136.319 104.474 135.44 104.574ZM135.255 102.956C136.001 102.871 136.636 102.614 137.158 102.184C137.681 101.755 138.051 101.174 138.271 100.443C138.506 99.7104 138.568 98.8545 138.456 97.8756C138.284 96.3657 137.812 95.2514 137.04 94.5327C136.286 93.8121 135.336 93.5172 134.191 93.648C133.428 93.7353 132.785 93.9936 132.263 94.4231C131.755 94.8341 131.383 95.4061 131.148 96.139C130.927 96.8534 130.874 97.7166 130.99 98.7288C131.16 100.222 131.632 101.336 132.405 102.072C133.177 102.79 134.126 103.085 135.255 102.956ZM148.973 103.028C148.028 103.136 147.212 103.061 146.527 102.803C145.857 102.526 145.327 102.083 144.938 101.472C144.547 100.844 144.297 100.057 144.189 99.1115L143.464 92.7649L141.796 92.9555C141.514 92.9877 141.291 92.946 141.127 92.8303C140.96 92.698 140.863 92.5075 140.834 92.2586C140.806 92.0097 140.859 91.8104 140.993 91.6605C141.127 91.5107 141.335 91.4197 141.617 91.3875L143.285 91.197L142.958 88.3348C142.92 88.0029 142.983 87.7436 143.146 87.5569C143.308 87.3535 143.546 87.2338 143.862 87.1978C144.177 87.1617 144.428 87.2255 144.615 87.3891C144.816 87.5341 144.936 87.7726 144.974 88.1044L145.301 90.9666L148.437 90.6082C148.719 90.576 148.942 90.6177 149.107 90.7334C149.271 90.8491 149.368 91.0314 149.396 91.2802C149.424 91.5291 149.373 91.7368 149.24 91.9032C149.106 92.053 148.898 92.144 148.616 92.1762L145.48 92.5346L146.182 98.682C146.291 99.6277 146.572 100.327 147.027 100.779C147.48 101.215 148.155 101.381 149.051 101.279C149.366 101.243 149.628 101.179 149.836 101.088C150.061 100.995 150.248 100.94 150.397 100.923C150.544 100.89 150.675 100.925 150.787 101.03C150.9 101.135 150.973 101.328 151.005 101.61C151.028 101.809 151.007 101.997 150.943 102.172C150.896 102.346 150.785 102.476 150.61 102.563C150.418 102.652 150.159 102.741 149.833 102.828C149.525 102.931 149.239 102.997 148.973 103.028ZM153.957 102.408C153.625 102.446 153.366 102.383 153.179 102.219C152.992 102.056 152.88 101.808 152.842 101.476L151.033 85.6471C150.995 85.3152 151.05 85.0569 151.197 84.872C151.342 84.6705 151.58 84.5508 151.912 84.5129C152.227 84.4769 152.487 84.5397 152.69 84.7013C152.892 84.8464 153.011 85.0849 153.049 85.4167L153.883 92.709L153.559 92.746C153.797 91.7438 154.279 90.9576 155.004 90.3873C155.744 89.7985 156.628 89.4454 157.656 89.3278C158.619 89.2178 159.435 89.301 160.105 89.5774C160.792 89.8519 161.334 90.3279 161.731 91.0053C162.126 91.6662 162.385 92.5359 162.508 93.6144L163.27 100.284C163.308 100.616 163.246 100.884 163.085 101.087C162.94 101.289 162.709 101.407 162.394 101.444C162.062 101.481 161.795 101.42 161.591 101.258C161.405 101.094 161.292 100.847 161.254 100.515L160.506 93.9692C160.377 92.8409 160.06 92.0452 159.553 91.582C159.061 91.1003 158.334 90.9145 157.371 91.0245C156.26 91.1515 155.412 91.6014 154.828 92.3741C154.258 93.1283 154.039 94.0779 154.17 95.2227L154.858 101.246C154.938 101.943 154.637 102.33 153.957 102.408ZM172.563 100.332C171.286 100.478 170.154 100.355 169.168 99.9635C168.196 99.5534 167.401 98.9132 166.78 98.0428C166.176 97.1705 165.8 96.0873 165.652 94.7931C165.508 93.5321 165.632 92.4086 166.024 91.4225C166.413 90.4199 167.009 89.6038 167.811 88.9742C168.63 88.3428 169.612 87.9617 170.757 87.8308C171.57 87.7379 172.316 87.7956 172.995 88.0037C173.673 88.1952 174.265 88.5226 174.771 88.9857C175.295 89.447 175.714 90.0294 176.03 90.7329C176.362 91.4345 176.581 92.2416 176.685 93.1542C176.715 93.4197 176.663 93.6273 176.529 93.7771C176.393 93.9103 176.184 93.993 175.902 94.0253L167.241 95.015L167.09 93.6959L175.278 92.7602L174.917 93.1293C174.815 92.2333 174.596 91.4935 174.26 90.9099C173.923 90.3098 173.478 89.8732 172.925 89.6001C172.39 89.3251 171.74 89.2312 170.977 89.3185C170.131 89.4152 169.432 89.6967 168.88 90.1632C168.343 90.6112 167.965 91.2007 167.746 91.9317C167.525 92.6461 167.467 93.4596 167.571 94.3722L167.588 94.5215C167.762 96.048 168.26 97.1677 169.081 97.8807C169.919 98.5918 171.018 98.8697 172.378 98.7142C172.943 98.6497 173.49 98.5115 174.02 98.2996C174.567 98.0858 175.087 97.7744 175.578 97.3653C175.793 97.1894 175.993 97.0993 176.177 97.0951C176.376 97.0723 176.541 97.1124 176.67 97.2153C176.797 97.3015 176.887 97.4258 176.939 97.5879C177.006 97.7315 177.009 97.8993 176.947 98.0913C176.901 98.2814 176.778 98.4552 176.577 98.6126C176.075 99.0733 175.463 99.4542 174.741 99.7553C174.019 100.056 173.293 100.249 172.563 100.332ZM181.374 99.2747C181.042 99.3127 180.774 99.2508 180.571 99.0891C180.384 98.9256 180.272 98.6779 180.234 98.346L179.048 87.9676C179.01 87.6357 179.065 87.3774 179.212 87.1925C179.357 86.991 179.587 86.8723 179.902 86.8362C180.217 86.8002 180.468 86.864 180.655 87.0275C180.857 87.1726 180.976 87.4111 181.014 87.7429L181.244 89.7589L180.996 89.7873C181.149 88.778 181.569 87.9652 182.255 87.349C182.941 86.7327 183.83 86.3454 184.921 86.1871C185.168 86.1421 185.374 86.1774 185.538 86.2931C185.701 86.3921 185.807 86.5901 185.858 86.8868C185.907 87.167 185.866 87.3986 185.736 87.5816C185.605 87.7645 185.385 87.8906 185.073 87.9599L184.681 88.0551C183.564 88.2836 182.734 88.7482 182.192 89.4488C181.665 90.131 181.463 91.0113 181.586 92.0898L182.275 98.1128C182.313 98.4447 182.251 98.7123 182.089 98.9156C181.944 99.1171 181.706 99.2368 181.374 99.2747ZM199.503 97.2535C198.674 97.3483 197.909 97.276 197.209 97.0366C196.524 96.7787 195.959 96.3895 195.513 95.8689C195.067 95.3484 194.804 94.7397 194.724 94.0428C194.622 93.1468 194.765 92.4161 195.154 91.8505C195.56 91.2831 196.274 90.8318 197.294 90.4966C198.331 90.1596 199.763 89.8868 201.588 89.6782L202.708 89.5503L202.858 90.8693L201.763 90.9945C200.419 91.1481 199.365 91.3358 198.6 91.5576C197.85 91.761 197.335 92.03 197.054 92.3647C196.789 92.6975 196.688 93.1376 196.751 93.6852C196.829 94.3655 197.124 94.8948 197.638 95.2731C198.169 95.6495 198.84 95.7912 199.653 95.6983C200.317 95.6225 200.88 95.3985 201.342 95.0264C201.82 94.6524 202.169 94.1754 202.388 93.5957C202.624 93.014 202.702 92.3664 202.62 91.653L202.296 88.8157C202.178 87.787 201.887 87.0723 201.421 86.6717C200.953 86.2545 200.246 86.1 199.3 86.2081C198.72 86.2744 198.147 86.4154 197.584 86.6311C197.02 86.8468 196.434 87.1576 195.824 87.5633C195.605 87.706 195.411 87.7703 195.241 87.756C195.07 87.7252 194.927 87.6491 194.812 87.5278C194.697 87.4064 194.622 87.2637 194.586 87.0997C194.549 86.9191 194.562 86.7411 194.626 86.5657C194.707 86.3884 194.841 86.2386 195.029 86.1163C195.717 85.6678 196.408 85.3198 197.103 85.0724C197.797 84.8249 198.468 84.6643 199.115 84.5903C200.161 84.4709 201.043 84.5465 201.763 84.8172C202.482 85.0713 203.047 85.5278 203.458 86.1868C203.868 86.8292 204.134 87.6896 204.257 88.7681L205.028 95.5128C205.066 95.8447 205.012 96.1113 204.867 96.3128C204.739 96.5124 204.525 96.6292 204.227 96.6634C203.911 96.6994 203.66 96.6356 203.473 96.4721C203.287 96.3085 203.174 96.0608 203.136 95.729L202.915 93.7877L203.139 93.7621C203.078 94.4078 202.882 94.9764 202.552 95.468C202.238 95.9577 201.822 96.3583 201.303 96.6697C200.783 96.9812 200.184 97.1758 199.503 97.2535ZM209.883 96.017C209.551 96.0549 209.292 95.9921 209.105 95.8286C208.918 95.665 208.806 95.4173 208.768 95.0855L207.582 84.707C207.544 84.3752 207.599 84.1168 207.746 83.9319C207.891 83.7304 208.121 83.6117 208.436 83.5757C208.751 83.5396 209.002 83.6034 209.189 83.767C209.391 83.912 209.51 84.1505 209.548 84.4823L209.793 86.6227L209.485 86.3553C209.723 85.3532 210.205 84.567 210.93 83.9967C211.669 83.4079 212.554 83.0547 213.582 82.9372C214.545 82.8272 215.361 82.9104 216.031 83.1868C216.718 83.4613 217.26 83.9373 217.657 84.6147C218.052 85.2756 218.311 86.1452 218.434 87.2237L219.196 93.8938C219.234 94.2257 219.172 94.4933 219.011 94.6966C218.866 94.8981 218.635 95.0169 218.32 95.0529C217.988 95.0908 217.721 95.0289 217.517 94.8673C217.331 94.7037 217.218 94.456 217.18 94.1242L216.432 87.5785C216.303 86.4503 215.986 85.6545 215.479 85.1914C214.987 84.7097 214.26 84.5239 213.297 84.6338C212.185 84.7609 211.338 85.2108 210.754 85.9835C210.184 86.7377 209.965 87.6872 210.096 88.8321L210.784 94.8551C210.864 95.552 210.563 95.9393 209.883 96.017ZM227.643 94.038C226.565 94.1612 225.589 94.0121 224.718 93.5907C223.862 93.1673 223.158 92.5167 222.604 91.6387C222.064 90.7422 221.721 89.6552 221.575 88.3776C221.427 87.0834 221.516 85.9471 221.841 84.9686C222.181 83.9717 222.721 83.1788 223.461 82.59C224.215 81.9827 225.131 81.6175 226.21 81.4943C227.305 81.3691 228.274 81.5358 229.116 81.9942C229.958 82.4526 230.565 83.1313 230.937 84.0301L230.663 84.0614L229.816 76.6446C229.778 76.3128 229.832 76.0544 229.979 75.8696C230.141 75.6662 230.388 75.5455 230.72 75.5076C231.035 75.4716 231.286 75.5354 231.473 75.6989C231.674 75.844 231.794 76.0824 231.832 76.4143L233.64 92.2433C233.678 92.5751 233.625 92.8418 233.48 93.0433C233.335 93.2447 233.096 93.3644 232.764 93.4024C232.449 93.4384 232.19 93.3756 231.986 93.2139C231.8 93.0504 231.687 92.8027 231.649 92.4708L231.379 90.1064L231.693 90.4236C231.535 91.3997 231.091 92.2153 230.359 92.8704C229.643 93.5237 228.738 93.9129 227.643 94.038ZM227.881 92.3719C228.628 92.2866 229.262 92.0292 229.785 91.5997C230.307 91.1702 230.678 90.5899 230.897 89.8589C231.133 89.126 231.195 88.2701 231.083 87.2912C230.91 85.7813 230.438 84.667 229.667 83.9483C228.912 83.2277 227.963 82.9328 226.818 83.0637C226.054 83.1509 225.412 83.4092 224.889 83.8387C224.381 84.2497 224.01 84.8217 223.774 85.5546C223.553 86.269 223.501 87.1323 223.616 88.1444C223.787 89.6377 224.259 90.752 225.032 91.4873C225.803 92.206 226.753 92.5008 227.881 92.3719ZM244.98 92.0065C244.648 92.0444 244.381 91.9825 244.177 91.8209C243.99 91.6573 243.878 91.4096 243.84 91.0778L242.654 80.6993C242.616 80.3675 242.671 80.1091 242.818 79.9242C242.963 79.7228 243.193 79.604 243.508 79.568C243.824 79.532 244.075 79.5957 244.261 79.7593C244.463 79.9043 244.583 80.1428 244.62 80.4746L244.851 82.4906L244.602 82.519C244.756 81.5098 245.175 80.697 245.861 80.0807C246.547 79.4644 247.436 79.0772 248.527 78.9188C248.774 78.8738 248.98 78.9091 249.144 79.0248C249.307 79.1239 249.414 79.3218 249.464 79.6186C249.513 79.8987 249.473 80.1303 249.342 80.3133C249.212 80.4963 248.991 80.6224 248.679 80.6916L248.287 80.7869C247.17 81.0154 246.341 81.4799 245.799 82.1806C245.272 82.8628 245.07 83.7431 245.193 84.8216L245.881 90.8446C245.919 91.1764 245.857 91.444 245.695 91.6474C245.55 91.8489 245.312 91.9686 244.98 92.0065ZM258.19 90.5474C256.912 90.6934 255.781 90.5706 254.795 90.179C253.823 89.7689 253.027 89.1287 252.407 88.2583C251.803 87.386 251.427 86.3028 251.279 85.0086C251.135 83.7476 251.259 82.624 251.65 81.638C252.04 80.6354 252.636 79.8193 253.438 79.1897C254.257 78.5583 255.238 78.1772 256.383 78.0463C257.196 77.9534 257.943 78.011 258.622 78.2192C259.299 78.4107 259.891 78.738 260.398 79.2012C260.922 79.6625 261.341 80.2449 261.657 80.9484C261.989 81.65 262.207 82.4571 262.312 83.3697C262.342 83.6352 262.29 83.8428 262.156 83.9926C262.02 84.1258 261.811 84.2085 261.529 84.2408L252.868 85.2305L252.717 83.9114L260.905 82.9757L260.544 83.3448C260.441 82.4488 260.222 81.709 259.887 81.1254C259.549 80.5253 259.104 80.0886 258.552 79.8156C258.016 79.5406 257.367 79.4467 256.604 79.5339C255.758 79.6306 255.059 79.9122 254.507 80.3787C253.97 80.8267 253.592 81.4162 253.372 82.1472C253.152 82.8616 253.093 83.6751 253.198 84.5876L253.215 84.737C253.389 86.2635 253.887 87.3832 254.708 88.0962C255.545 88.8073 256.645 89.0851 258.005 88.9297C258.569 88.8652 259.117 88.727 259.647 88.5151C260.194 88.3013 260.713 87.9899 261.204 87.5808C261.42 87.4049 261.619 87.3148 261.804 87.3106C262.003 87.2878 262.167 87.3279 262.297 87.4308C262.424 87.517 262.514 87.6412 262.566 87.8034C262.633 87.947 262.635 88.1148 262.573 88.3068C262.528 88.4969 262.405 88.6707 262.204 88.8281C261.702 89.2888 261.09 89.6697 260.368 89.9708C259.646 90.2718 258.92 90.464 258.19 90.5474ZM269.794 89.2215C268.964 89.3163 268.199 89.244 267.5 89.0046C266.815 88.7467 266.249 88.3574 265.803 87.8369C265.357 87.3164 265.094 86.7077 265.014 86.0108C264.912 85.1148 265.055 84.3841 265.445 83.8185C265.85 83.2511 266.564 82.7998 267.584 82.4646C268.622 82.1276 270.053 81.8548 271.878 81.6462L272.998 81.5182L273.149 82.8373L272.054 82.9625C270.71 83.116 269.655 83.3037 268.891 83.5256C268.141 83.729 267.625 83.998 267.344 84.3327C267.079 84.6654 266.978 85.1056 267.041 85.6532C267.119 86.3334 267.415 86.8627 267.928 87.241C268.459 87.6175 269.131 87.7592 269.944 87.6663C270.607 87.5905 271.17 87.3665 271.632 86.9944C272.11 86.6203 272.459 86.1434 272.679 85.5637C272.915 84.982 272.992 84.3344 272.91 83.6209L272.586 80.7837C272.469 79.7549 272.177 79.0403 271.711 78.6397C271.243 78.2225 270.536 78.068 269.59 78.176C269.01 78.2424 268.438 78.3834 267.874 78.5991C267.31 78.8148 266.724 79.1255 266.115 79.5313C265.896 79.674 265.701 79.7382 265.531 79.724C265.36 79.6932 265.217 79.6171 265.102 79.4958C264.987 79.3744 264.912 79.2317 264.877 79.0677C264.839 78.8871 264.852 78.709 264.916 78.5336C264.997 78.3563 265.131 78.2065 265.319 78.0842C266.007 77.6358 266.699 77.2878 267.393 77.0404C268.088 76.7929 268.758 76.6322 269.406 76.5583C270.451 76.4388 271.334 76.5145 272.054 76.7852C272.772 77.0393 273.337 77.4958 273.748 78.1548C274.158 78.7971 274.424 79.6576 274.547 80.7361L275.318 87.4808C275.356 87.8127 275.303 88.0793 275.157 88.2808C275.029 88.4804 274.815 88.5972 274.517 88.6313C274.201 88.6674 273.95 88.6036 273.764 88.44C273.577 88.2765 273.465 88.0288 273.427 87.6969L273.205 85.7557L273.429 85.7301C273.368 86.3757 273.173 86.9444 272.842 87.436C272.528 87.9257 272.112 88.3262 271.593 88.6377C271.074 88.9491 270.474 89.1437 269.794 89.2215ZM284.31 87.5627C283.099 87.7011 282.023 87.555 281.083 87.1246C280.143 86.6941 279.379 86.0335 278.789 85.1427C278.215 84.2335 277.856 83.1483 277.711 81.8873C277.602 80.925 277.636 80.047 277.814 79.2534C277.992 78.4598 278.308 77.7682 278.762 77.1784C279.214 76.5721 279.78 76.0872 280.461 75.7236C281.159 75.3581 281.964 75.1232 282.877 75.0189C283.474 74.9507 284.107 74.9708 284.775 75.0794C285.443 75.188 286.068 75.4359 286.65 75.8232C286.829 75.9204 286.953 76.0491 287.022 76.2094C287.091 76.3696 287.11 76.5355 287.079 76.7071C287.046 76.8621 286.978 77.0044 286.875 77.1338C286.771 77.2466 286.628 77.3217 286.447 77.3592C286.283 77.3947 286.102 77.3566 285.905 77.2447C285.435 76.9621 284.969 76.7801 284.506 76.6986C284.043 76.617 283.604 76.5999 283.189 76.6473C282.542 76.7213 281.99 76.8936 281.534 77.1643C281.075 77.4184 280.702 77.7552 280.414 78.1747C280.125 78.5943 279.922 79.0965 279.804 79.6815C279.703 80.2646 279.695 80.9295 279.78 81.6761C279.945 83.1197 280.416 84.2257 281.193 84.9941C281.968 85.746 282.986 86.0499 284.247 85.9058C284.662 85.8584 285.077 85.7437 285.494 85.5617C285.926 85.3777 286.348 85.0942 286.758 84.7112C286.925 84.5576 287.093 84.4796 287.261 84.4773C287.429 84.4749 287.577 84.5252 287.707 84.628C287.834 84.7143 287.924 84.8385 287.976 85.0006C288.045 85.1609 288.064 85.3268 288.033 85.4984C288 85.6534 287.908 85.7985 287.755 85.9336C287.273 86.4257 286.729 86.8073 286.121 87.0784C285.511 87.333 284.908 87.4944 284.31 87.5627ZM291.694 86.6685C291.362 86.7065 291.103 86.6436 290.916 86.4801C290.729 86.3165 290.617 86.0688 290.579 85.737L288.77 69.908C288.732 69.5761 288.787 69.3178 288.934 69.1329C289.079 68.9314 289.317 68.8117 289.649 68.7738C289.964 68.7378 290.224 68.8006 290.427 68.9622C290.628 69.1073 290.748 69.3458 290.786 69.6776L291.619 76.9699L291.296 77.0069C291.534 76.0047 292.016 75.2185 292.741 74.6482C293.48 74.0594 294.364 73.7063 295.393 73.5887C296.355 73.4787 297.172 73.562 297.842 73.8383C298.529 74.1128 299.071 74.5888 299.468 75.2662C299.863 75.9271 300.122 76.7968 300.245 77.8753L301.007 84.5454C301.045 84.8772 300.983 85.1448 300.821 85.3482C300.676 85.5497 300.446 85.6684 300.131 85.7044C299.799 85.7423 299.532 85.6805 299.328 85.5188C299.141 85.3553 299.029 85.1076 298.991 84.7757L298.243 78.2301C298.114 77.1018 297.796 76.3061 297.29 75.8429C296.798 75.3613 296.07 75.1754 295.108 75.2854C293.996 75.4124 293.148 75.8623 292.564 76.635C291.995 77.3892 291.776 78.3388 291.907 79.4836L292.595 85.5066C292.674 86.2035 292.374 86.5908 291.694 86.6685ZM59.3704 147.557C58.1592 147.695 57.0835 147.549 56.1435 147.118C55.2034 146.688 54.4387 146.027 53.8495 145.137C53.2749 144.227 52.9156 143.142 52.7715 141.881C52.6616 140.919 52.6957 140.041 52.874 139.247C53.0522 138.454 53.3682 137.762 53.8219 137.172C54.2737 136.566 54.8402 136.081 55.5214 135.717C56.2193 135.352 57.0245 135.117 57.937 135.013C58.5344 134.945 59.167 134.965 59.8349 135.073C60.5029 135.182 61.1279 135.43 61.7101 135.817C61.8893 135.914 62.0133 136.043 62.082 136.203C62.1507 136.364 62.1697 136.529 62.1389 136.701C62.1062 136.856 62.0384 136.998 61.9355 137.128C61.8307 137.241 61.688 137.316 61.5074 137.353C61.3434 137.389 61.1625 137.351 60.9648 137.239C60.4955 136.956 60.0293 136.774 59.5661 136.692C59.103 136.611 58.664 136.594 58.2492 136.641C57.6021 136.715 57.0503 136.888 56.5937 137.158C56.1353 137.412 55.762 137.749 55.4737 138.169C55.1855 138.588 54.9824 139.09 54.8643 139.675C54.7629 140.259 54.7548 140.923 54.8401 141.67C55.0051 143.114 55.476 144.22 56.253 144.988C57.0281 145.74 58.0461 146.044 59.3071 145.9C59.7219 145.852 60.1375 145.738 60.5537 145.556C60.9865 145.372 61.408 145.088 61.818 144.705C61.9854 144.552 62.153 144.474 62.3208 144.471C62.4886 144.469 62.6372 144.519 62.7666 144.622C62.8942 144.708 62.984 144.832 63.0361 144.995C63.1049 145.155 63.1238 145.321 63.093 145.492C63.0603 145.647 62.9676 145.792 62.815 145.928C62.3333 146.42 61.7886 146.801 61.1809 147.072C60.5712 147.327 59.9677 147.488 59.3704 147.557ZM70.5484 146.279C69.3703 146.414 68.3205 146.273 67.399 145.858C66.4774 145.442 65.7229 144.797 65.1356 143.923C64.5629 143.03 64.2036 141.945 64.0576 140.667C63.9476 139.705 63.9818 138.827 64.16 138.033C64.3364 137.223 64.6505 136.515 65.1023 135.909C65.5541 135.302 66.1123 134.818 66.7769 134.457C67.4563 134.076 68.2356 133.836 69.115 133.736C70.2931 133.601 71.3429 133.742 72.2645 134.157C73.186 134.573 73.9331 135.227 74.5058 136.12C75.0932 136.994 75.4598 138.07 75.6058 139.348C75.7158 140.31 75.6816 141.188 75.5034 141.982C75.3251 142.775 75.011 143.483 74.5611 144.106C74.1093 144.713 73.5438 145.206 72.8644 145.586C72.1998 145.948 71.4278 146.179 70.5484 146.279ZM70.3635 144.662C71.1102 144.576 71.7447 144.319 72.2671 143.889C72.7896 143.46 73.1603 142.88 73.3793 142.149C73.6149 141.416 73.6768 140.56 73.565 139.581C73.3924 138.071 72.9205 136.957 72.1492 136.238C71.3945 135.517 70.4447 135.222 69.2999 135.353C68.5366 135.44 67.8938 135.699 67.3714 136.128C66.8637 136.539 66.492 137.111 66.2564 137.844C66.0354 138.559 65.9828 139.422 66.0985 140.434C66.2691 141.927 66.741 143.042 67.5142 143.777C68.2855 144.496 69.2353 144.79 70.3635 144.662ZM80.3901 145.104C80.0583 145.142 79.799 145.079 79.6122 144.916C79.4254 144.752 79.3131 144.505 79.2752 144.173L78.0892 133.794C78.0513 133.462 78.1058 133.204 78.2528 133.019C78.3978 132.818 78.628 132.699 78.9433 132.663C79.2585 132.627 79.5095 132.691 79.6963 132.854C79.8978 132.999 80.0175 133.238 80.0554 133.57L80.3057 135.76L79.9921 135.443C80.2012 134.477 80.6257 133.706 81.2657 133.129C81.9204 132.533 82.7372 132.179 83.7161 132.067C84.7449 131.95 85.6029 132.104 86.2903 132.529C86.9924 132.937 87.51 133.642 87.8433 134.646L87.47 134.689C87.6625 133.726 88.11 132.935 88.8126 132.317C89.5298 131.68 90.4028 131.303 91.4315 131.185C92.3441 131.081 93.1107 131.17 93.7312 131.452C94.3684 131.732 94.877 132.212 95.2572 132.891C95.6355 133.554 95.8863 134.425 96.0095 135.503L96.7717 142.173C96.8096 142.505 96.7477 142.773 96.5861 142.976C96.441 143.178 96.2026 143.297 95.8707 143.335C95.5555 143.371 95.2961 143.308 95.0928 143.147C94.906 142.983 94.7936 142.736 94.7557 142.404L94.0049 135.833C93.8779 134.722 93.5942 133.93 93.1538 133.46C92.7115 132.972 92.034 132.781 91.1215 132.885C90.1259 132.999 89.3776 133.437 88.8765 134.2C88.3901 134.945 88.2142 135.907 88.3488 137.085L89.0314 143.058C89.0693 143.39 89.0075 143.657 88.8458 143.861C88.7007 144.062 88.4623 144.182 88.1304 144.22C87.8152 144.256 87.5559 144.193 87.3525 144.031C87.1657 143.868 87.0534 143.62 87.0154 143.288L86.2646 136.718C86.1376 135.606 85.8456 134.816 85.3886 134.347C84.9463 133.86 84.2772 133.667 83.3812 133.769C82.3857 133.883 81.6373 134.322 81.1362 135.085C80.6498 135.83 80.4739 136.791 80.6086 137.969L81.2911 143.942C81.3707 144.639 81.0704 145.027 80.3901 145.104ZM101.706 142.669C101.374 142.706 101.115 142.644 100.928 142.48C100.741 142.317 100.629 142.069 100.591 141.737L99.4048 131.359C99.3668 131.027 99.4214 130.768 99.5683 130.583C99.7134 130.382 99.9435 130.263 100.259 130.227C100.574 130.191 100.825 130.255 101.012 130.418C101.213 130.564 101.333 130.802 101.371 131.134L101.621 133.324L101.308 133.007C101.517 132.042 101.941 131.27 102.581 130.693C103.236 130.097 104.053 129.743 105.032 129.631C106.06 129.514 106.918 129.668 107.606 130.094C108.308 130.501 108.826 131.207 109.159 132.211L108.786 132.253C108.978 131.29 109.426 130.499 110.128 129.881C110.845 129.244 111.718 128.867 112.747 128.75C113.66 128.645 114.426 128.734 115.047 129.016C115.684 129.297 116.193 129.776 116.573 130.456C116.951 131.118 117.202 131.989 117.325 133.068L118.087 139.738C118.125 140.07 118.063 140.337 117.902 140.54C117.757 140.742 117.518 140.862 117.186 140.9C116.871 140.936 116.612 140.873 116.408 140.711C116.222 140.548 116.109 140.3 116.071 139.968L115.32 133.397C115.193 132.286 114.91 131.495 114.469 131.024C114.027 130.536 113.35 130.345 112.437 130.449C111.441 130.563 110.693 131.001 110.192 131.765C109.706 132.509 109.53 133.471 109.664 134.649L110.347 140.622C110.385 140.954 110.323 141.222 110.161 141.425C110.016 141.626 109.778 141.746 109.446 141.784C109.131 141.82 108.871 141.757 108.668 141.596C108.481 141.432 108.369 141.184 108.331 140.853L107.58 134.282C107.453 133.17 107.161 132.38 106.704 131.911C106.262 131.424 105.593 131.231 104.697 131.334C103.701 131.447 102.953 131.886 102.452 132.649C101.965 133.394 101.789 134.355 101.924 135.533L102.607 141.507C102.686 142.203 102.386 142.591 101.706 142.669ZM127.009 139.828C125.831 139.962 124.781 139.822 123.86 139.406C122.938 138.99 122.184 138.345 121.596 137.471C121.024 136.578 120.664 135.493 120.518 134.215C120.408 133.253 120.442 132.375 120.621 131.582C120.797 130.771 121.111 130.063 121.563 129.457C122.015 128.851 122.573 128.367 123.238 128.005C123.917 127.625 124.696 127.384 125.576 127.284C126.754 127.149 127.804 127.29 128.725 127.706C129.647 128.121 130.394 128.776 130.966 129.668C131.554 130.542 131.92 131.618 132.066 132.896C132.176 133.858 132.142 134.736 131.964 135.53C131.786 136.323 131.472 137.032 131.022 137.655C130.57 138.261 130.004 138.754 129.325 139.134C128.66 139.496 127.888 139.727 127.009 139.828ZM126.824 138.21C127.571 138.124 128.205 137.867 128.728 137.438C129.25 137.008 129.621 136.428 129.84 135.697C130.076 134.964 130.137 134.108 130.026 133.129C129.853 131.619 129.381 130.505 128.61 129.786C127.855 129.066 126.905 128.771 125.761 128.902C124.997 128.989 124.354 129.247 123.832 129.677C123.324 130.088 122.953 130.66 122.717 131.392C122.496 132.107 122.443 132.97 122.559 133.982C122.73 135.476 123.202 136.59 123.975 137.325C124.746 138.044 125.696 138.339 126.824 138.21ZM136.801 138.658C136.469 138.696 136.21 138.633 136.023 138.47C135.836 138.306 135.724 138.058 135.686 137.727L134.5 127.348C134.462 127.016 134.517 126.758 134.664 126.573C134.809 126.372 135.039 126.253 135.354 126.217C135.669 126.181 135.92 126.245 136.107 126.408C136.309 126.553 136.428 126.792 136.466 127.124L136.711 129.264L136.403 128.997C136.641 127.994 137.123 127.208 137.848 126.638C138.587 126.049 139.472 125.696 140.5 125.578C141.463 125.468 142.279 125.552 142.949 125.828C143.636 126.103 144.178 126.578 144.575 127.256C144.97 127.917 145.229 128.786 145.352 129.865L146.114 136.535C146.152 136.867 146.09 137.134 145.929 137.338C145.784 137.539 145.553 137.658 145.238 137.694C144.906 137.732 144.639 137.67 144.435 137.508C144.249 137.345 144.136 137.097 144.098 136.765L143.35 130.22C143.221 129.091 142.904 128.296 142.397 127.833C141.905 127.351 141.178 127.165 140.215 127.275C139.103 127.402 138.256 127.852 137.672 128.625C137.102 129.379 136.883 130.328 137.014 131.473L137.702 137.496C137.782 138.193 137.481 138.58 136.801 138.658ZM157.388 136.306C157.056 136.344 156.789 136.282 156.585 136.12C156.398 135.957 156.286 135.709 156.248 135.377L155.062 124.999C155.024 124.667 155.079 124.408 155.226 124.223C155.371 124.022 155.601 123.903 155.916 123.867C156.231 123.831 156.482 123.895 156.669 124.059C156.871 124.204 156.99 124.442 157.028 124.774L157.259 126.79L157.01 126.818C157.163 125.809 157.583 124.996 158.269 124.38C158.955 123.764 159.844 123.376 160.935 123.218C161.182 123.173 161.388 123.208 161.552 123.324C161.715 123.423 161.822 123.621 161.872 123.918C161.921 124.198 161.88 124.43 161.75 124.613C161.62 124.796 161.399 124.922 161.087 124.991L160.695 125.086C159.578 125.315 158.748 125.779 158.207 126.48C157.679 127.162 157.477 128.042 157.601 129.121L158.289 135.144C158.327 135.476 158.265 135.743 158.103 135.947C157.958 136.148 157.72 136.268 157.388 136.306ZM170.598 134.847C169.32 134.993 168.188 134.87 167.202 134.478C166.231 134.068 165.435 133.428 164.815 132.558C164.211 131.685 163.835 130.602 163.687 129.308C163.543 128.047 163.667 126.923 164.058 125.937C164.448 124.935 165.044 124.119 165.846 123.489C166.665 122.858 167.646 122.476 168.791 122.346C169.604 122.253 170.35 122.31 171.03 122.518C171.707 122.71 172.299 123.037 172.806 123.5C173.329 123.962 173.749 124.544 174.065 125.248C174.397 125.949 174.615 126.756 174.72 127.669C174.75 127.934 174.698 128.142 174.564 128.292C174.428 128.425 174.219 128.508 173.937 128.54L165.275 129.53L165.125 128.211L173.313 127.275L172.952 127.644C172.849 126.748 172.63 126.008 172.295 125.425C171.957 124.825 171.512 124.388 170.96 124.115C170.424 123.84 169.775 123.746 169.012 123.833C168.165 123.93 167.466 124.211 166.915 124.678C166.377 125.126 165.999 125.715 165.78 126.446C165.559 127.161 165.501 127.974 165.605 128.887L165.622 129.036C165.797 130.563 166.295 131.682 167.116 132.395C167.953 133.107 169.052 133.384 170.413 133.229C170.977 133.164 171.525 133.026 172.055 132.814C172.602 132.601 173.121 132.289 173.612 131.88C173.828 131.704 174.027 131.614 174.212 131.61C174.411 131.587 174.575 131.627 174.705 131.73C174.832 131.816 174.922 131.941 174.974 132.103C175.041 132.246 175.043 132.414 174.981 132.606C174.936 132.796 174.813 132.97 174.612 133.127C174.11 133.588 173.498 133.969 172.776 134.27C172.054 134.571 171.328 134.763 170.598 134.847ZM182.475 133.489C181.729 133.575 180.963 133.57 180.179 133.474C179.412 133.377 178.679 133.142 177.98 132.768C177.801 132.67 177.67 132.551 177.587 132.409C177.501 132.251 177.458 132.096 177.458 131.945C177.472 131.775 177.522 131.627 177.609 131.499C177.711 131.37 177.837 131.288 177.984 131.254C178.146 131.202 178.333 131.215 178.543 131.291C179.236 131.616 179.89 131.827 180.506 131.924C181.137 132.003 181.751 132.009 182.349 131.941C183.295 131.833 183.988 131.577 184.429 131.173C184.871 130.77 185.057 130.27 184.989 129.672C184.936 129.208 184.737 128.861 184.391 128.631C184.044 128.385 183.521 128.226 182.824 128.155L180.502 127.916C179.432 127.82 178.61 127.535 178.035 127.063C177.476 126.589 177.149 125.929 177.052 125.083C176.967 124.336 177.084 123.676 177.405 123.101C177.741 122.508 178.249 122.021 178.928 121.641C179.607 121.261 180.42 121.017 181.365 120.909C182.096 120.825 182.796 120.846 183.465 120.971C184.15 121.078 184.781 121.308 185.36 121.663C185.539 121.76 185.663 121.888 185.732 122.049C185.815 122.19 185.841 122.347 185.811 122.519C185.794 122.672 185.735 122.813 185.632 122.943C185.527 123.055 185.393 123.13 185.229 123.165C185.065 123.201 184.885 123.171 184.689 123.076C184.153 122.801 183.62 122.618 183.088 122.527C182.555 122.42 182.04 122.395 181.542 122.452C180.613 122.558 179.928 122.821 179.489 123.241C179.049 123.661 178.864 124.17 178.932 124.767C178.985 125.232 179.178 125.596 179.511 125.861C179.844 126.125 180.333 126.288 180.979 126.349L183.297 126.563C184.402 126.672 185.25 126.953 185.84 127.407C186.444 127.842 186.796 128.491 186.894 129.354C187.019 130.449 186.679 131.37 185.874 132.118C185.068 132.865 183.935 133.323 182.475 133.489ZM195.403 132.012C194.225 132.147 193.176 132.006 192.254 131.59C191.332 131.175 190.578 130.53 189.991 129.656C189.418 128.763 189.059 127.678 188.913 126.4C188.803 125.438 188.837 124.56 189.015 123.766C189.191 122.956 189.506 122.248 189.957 121.641C190.409 121.035 190.967 120.551 191.632 120.189C192.311 119.809 193.091 119.569 193.97 119.468C195.148 119.334 196.198 119.474 197.12 119.89C198.041 120.306 198.788 120.96 199.361 121.853C199.948 122.727 200.315 123.803 200.461 125.08C200.571 126.043 200.537 126.921 200.358 127.714C200.18 128.508 199.866 129.216 199.416 129.839C198.964 130.445 198.399 130.939 197.72 131.319C197.055 131.681 196.283 131.912 195.403 132.012ZM195.219 130.394C195.965 130.309 196.6 130.052 197.122 129.622C197.645 129.193 198.015 128.612 198.234 127.881C198.47 127.149 198.532 126.293 198.42 125.314C198.248 123.804 197.776 122.69 197.004 121.971C196.25 121.25 195.3 120.955 194.155 121.086C193.392 121.173 192.749 121.432 192.226 121.861C191.719 122.272 191.347 122.844 191.111 123.577C190.891 124.291 190.838 125.155 190.954 126.167C191.124 127.66 191.596 128.774 192.369 129.51C193.141 130.228 194.09 130.523 195.219 130.394ZM207.889 130.585C206.694 130.722 205.74 130.461 205.026 129.803C204.312 129.145 203.878 128.136 203.722 126.775L202.272 114.082C202.234 113.75 202.288 113.492 202.435 113.307C202.58 113.106 202.819 112.986 203.151 112.948C203.466 112.912 203.725 112.975 203.929 113.137C204.13 113.282 204.25 113.52 204.288 113.852L205.721 126.396C205.823 127.292 206.074 127.944 206.474 128.352C206.888 128.742 207.444 128.897 208.141 128.817C208.29 128.8 208.422 128.776 208.536 128.747C208.65 128.717 208.766 128.695 208.882 128.682C209.062 128.644 209.192 128.672 209.269 128.764C209.364 128.854 209.428 129.048 209.462 129.347C209.496 129.645 209.455 129.877 209.34 130.041C209.224 130.206 209.02 130.33 208.727 130.414C208.596 130.446 208.457 130.479 208.309 130.512C208.162 130.546 208.022 130.57 207.889 130.585ZM215.851 129.676C214.872 129.788 214.039 129.706 213.352 129.432C212.68 129.139 212.137 128.654 211.724 127.979C211.327 127.301 211.068 126.432 210.946 125.37L210.184 118.7C210.144 118.351 210.198 118.085 210.345 117.9C210.509 117.713 210.748 117.602 211.063 117.566C211.395 117.528 211.653 117.582 211.838 117.729C212.04 117.874 212.16 118.121 212.2 118.469L212.96 125.115C213.081 126.177 213.388 126.948 213.88 127.43C214.386 127.893 215.113 128.071 216.058 127.963C217.087 127.845 217.885 127.401 218.453 126.63C219.02 125.859 219.24 124.91 219.111 123.781L218.422 117.758C218.383 117.41 218.436 117.143 218.583 116.958C218.747 116.772 218.994 116.659 219.326 116.621C219.641 116.585 219.891 116.641 220.076 116.788C220.278 116.933 220.398 117.18 220.438 117.528L221.624 127.907C221.704 128.603 221.42 128.989 220.773 129.063C220.458 129.099 220.198 129.036 219.995 128.874C219.808 128.711 219.696 128.463 219.658 128.131L219.399 125.866L219.763 126.178C219.543 127.195 219.08 128.004 218.376 128.606C217.688 129.205 216.846 129.562 215.851 129.676ZM230.374 128.016C229.429 128.124 228.613 128.049 227.928 127.791C227.258 127.515 226.728 127.071 226.339 126.46C225.948 125.832 225.698 125.046 225.59 124.1L224.865 117.753L223.197 117.944C222.915 117.976 222.692 117.935 222.528 117.819C222.361 117.687 222.264 117.496 222.235 117.247C222.207 116.998 222.26 116.799 222.394 116.649C222.528 116.499 222.736 116.408 223.018 116.376L224.686 116.185L224.359 113.323C224.321 112.991 224.384 112.732 224.547 112.545C224.709 112.342 224.947 112.222 225.263 112.186C225.578 112.15 225.829 112.214 226.016 112.378C226.217 112.523 226.337 112.761 226.375 113.093L226.702 115.955L229.838 115.597C230.12 115.565 230.343 115.606 230.508 115.722C230.672 115.838 230.768 116.02 230.797 116.269C230.825 116.518 230.773 116.725 230.641 116.892C230.507 117.041 230.299 117.133 230.017 117.165L226.881 117.523L227.583 123.671C227.691 124.616 227.973 125.315 228.428 125.768C228.881 126.203 229.556 126.37 230.452 126.267C230.767 126.231 231.029 126.168 231.237 126.077C231.462 125.984 231.649 125.929 231.798 125.912C231.945 125.878 232.076 125.914 232.188 126.019C232.301 126.123 232.374 126.317 232.406 126.599C232.429 126.798 232.408 126.985 232.344 127.161C232.297 127.334 232.186 127.465 232.011 127.552C231.819 127.641 231.56 127.729 231.234 127.817C230.926 127.919 230.64 127.986 230.374 128.016ZM235.352 127.346C235.02 127.384 234.761 127.321 234.574 127.158C234.386 126.978 234.271 126.713 234.232 126.365L233.068 116.186C233.029 115.837 233.081 115.562 233.226 115.361C233.371 115.159 233.61 115.04 233.942 115.002C234.257 114.966 234.516 115.029 234.72 115.19C234.923 115.352 235.045 115.607 235.084 115.955L236.248 126.135C236.287 126.483 236.227 126.767 236.068 126.987C235.923 127.189 235.684 127.308 235.352 127.346ZM233.623 112.214C233.208 112.262 232.873 112.191 232.616 112.002C232.357 111.796 232.206 111.502 232.162 111.121C232.116 110.722 232.198 110.41 232.408 110.185C232.616 109.943 232.927 109.798 233.342 109.75C233.773 109.701 234.109 109.772 234.349 109.963C234.604 110.135 234.755 110.421 234.8 110.819C234.844 111.201 234.763 111.521 234.557 111.78C234.366 112.02 234.055 112.165 233.623 112.214ZM245.18 126.324C244.002 126.459 242.952 126.318 242.031 125.902C241.109 125.487 240.355 124.842 239.767 123.968C239.195 123.075 238.835 121.99 238.689 120.712C238.579 119.75 238.614 118.872 238.792 118.078C238.968 117.268 239.282 116.56 239.734 115.954C240.186 115.347 240.744 114.863 241.409 114.501C242.088 114.121 242.867 113.881 243.747 113.78C244.925 113.646 245.975 113.786 246.896 114.202C247.818 114.618 248.565 115.272 249.138 116.165C249.725 117.039 250.092 118.115 250.238 119.393C250.348 120.355 250.313 121.233 250.135 122.026C249.957 122.82 249.643 123.528 249.193 124.151C248.741 124.757 248.176 125.251 247.496 125.631C246.832 125.993 246.06 126.224 245.18 126.324ZM244.995 124.706C245.742 124.621 246.377 124.364 246.899 123.934C247.421 123.505 247.792 122.925 248.011 122.193C248.247 121.461 248.309 120.605 248.197 119.626C248.024 118.116 247.552 117.002 246.781 116.283C246.026 115.562 245.077 115.267 243.932 115.398C243.168 115.485 242.526 115.744 242.003 116.173C241.495 116.584 241.124 117.156 240.888 117.889C240.667 118.604 240.615 119.467 240.73 120.479C240.901 121.972 241.373 123.087 242.146 123.822C242.917 124.541 243.867 124.835 244.995 124.706ZM254.972 125.155C254.64 125.193 254.381 125.13 254.194 124.966C254.007 124.803 253.895 124.555 253.857 124.223L252.671 113.845C252.633 113.513 252.688 113.255 252.835 113.07C252.98 112.868 253.21 112.75 253.525 112.714C253.841 112.677 254.092 112.741 254.278 112.905C254.48 113.05 254.6 113.288 254.637 113.62L254.882 115.761L254.574 115.493C254.813 114.491 255.294 113.705 256.019 113.135C256.759 112.546 257.643 112.193 258.672 112.075C259.634 111.965 260.45 112.048 261.121 112.325C261.807 112.599 262.349 113.075 262.746 113.753C263.141 114.413 263.4 115.283 263.523 116.362L264.285 123.032C264.323 123.364 264.261 123.631 264.1 123.834C263.955 124.036 263.725 124.155 263.409 124.191C263.078 124.229 262.81 124.167 262.607 124.005C262.42 123.842 262.307 123.594 262.269 123.262L261.522 116.716C261.393 115.588 261.075 114.792 260.568 114.329C260.076 113.848 259.349 113.662 258.386 113.772C257.275 113.899 256.427 114.349 255.843 115.121C255.273 115.876 255.054 116.825 255.185 117.97L255.873 123.993C255.953 124.69 255.652 125.077 254.972 125.155Z" fill="white"/>
</svg>
