<svg width="153" height="55" viewBox="0 0 153 55" fill="none" xmlns="http://www.w3.org/2000/svg">
<path d="M2.10242 10.2179C1.81275 10.2179 1.58383 10.1385 1.41564 9.97961C1.25679 9.81142 1.17736 9.57315 1.17736 9.26479V1.17758C1.17736 0.869228 1.25679 0.635629 1.41564 0.476781C1.58383 0.308589 1.8221 0.224493 2.13045 0.224493H7.02202C7.26497 0.224493 7.44717 0.285229 7.56865 0.406701C7.69012 0.528173 7.75085 0.701037 7.75085 0.925292C7.75085 1.15889 7.69012 1.3411 7.56865 1.47191C7.44717 1.59339 7.26497 1.65412 7.02202 1.65412H2.97141V4.4433H6.72769C6.96129 4.4433 7.13882 4.50404 7.26029 4.62551C7.39111 4.74698 7.45652 4.91984 7.45652 5.1441C7.45652 5.3777 7.39111 5.55991 7.26029 5.69072C7.13882 5.81219 6.96129 5.87293 6.72769 5.87293H2.97141V9.26479C2.97141 9.90018 2.68174 10.2179 2.10242 10.2179ZM11.7587 10.2459C11.0485 10.2459 10.4318 10.1011 9.90855 9.81142C9.38528 9.52175 8.97882 9.11062 8.68916 8.57801C8.39949 8.03606 8.25466 7.40067 8.25466 6.67184C8.25466 6.12054 8.33409 5.62999 8.49293 5.20016C8.66112 4.761 8.8994 4.38724 9.20775 4.07889C9.5161 3.76119 9.88519 3.52292 10.315 3.36407C10.7448 3.19588 11.226 3.11178 11.7587 3.11178C12.4688 3.11178 13.0855 3.25662 13.6088 3.54628C14.132 3.83594 14.5385 4.24708 14.8282 4.77968C15.1178 5.31229 15.2626 5.94301 15.2626 6.67184C15.2626 7.22313 15.1786 7.71837 15.0104 8.15753C14.8515 8.5967 14.6179 8.97513 14.3096 9.29283C14.0012 9.60118 13.6321 9.83945 13.2023 10.0076C12.7725 10.1665 12.2913 10.2459 11.7587 10.2459ZM11.7587 8.91439C12.1044 8.91439 12.4081 8.8303 12.6697 8.66211C12.9313 8.49392 13.1322 8.2463 13.2724 7.91926C13.4219 7.58288 13.4966 7.16707 13.4966 6.67184C13.4966 5.92432 13.3378 5.36835 13.0201 5.00394C12.7024 4.63018 12.2819 4.4433 11.7587 4.4433C11.4129 4.4433 11.1092 4.5274 10.8476 4.69559C10.586 4.85444 10.3804 5.10205 10.2309 5.43843C10.0908 5.76547 10.0207 6.17661 10.0207 6.67184C10.0207 7.41001 10.1795 7.97065 10.4972 8.35376C10.8149 8.72752 11.2354 8.91439 11.7587 8.91439ZM17.6057 10.2179C17.3161 10.2179 17.0918 10.1431 16.933 9.99362C16.7835 9.83478 16.7087 9.61052 16.7087 9.32086V4.02282C16.7087 3.73316 16.7835 3.51357 16.933 3.36407C17.0825 3.21457 17.2927 3.13982 17.5637 3.13982C17.8346 3.13982 18.0449 3.21457 18.1944 3.36407C18.3439 3.51357 18.4186 3.73316 18.4186 4.02282V4.90583H18.2785C18.4093 4.34519 18.6663 3.92004 19.0494 3.63037C19.4325 3.34071 19.9417 3.16785 20.5771 3.11178C20.7733 3.0931 20.9275 3.14449 21.0396 3.26596C21.1611 3.37809 21.2312 3.55562 21.2499 3.79857C21.2686 4.03217 21.2125 4.22372 21.0817 4.37322C20.9602 4.51338 20.7733 4.59748 20.521 4.62551L20.2127 4.65354C19.6427 4.7096 19.2129 4.88714 18.9232 5.18615C18.6336 5.47581 18.4887 5.88695 18.4887 6.41955V9.32086C18.4887 9.61052 18.414 9.83478 18.2645 9.99362C18.115 10.1431 17.8954 10.2179 17.6057 10.2179ZM29.1281 10.2459C28.4179 10.2459 27.8012 10.1011 27.2779 9.81142C26.7547 9.52175 26.3482 9.11062 26.0586 8.57801C25.7689 8.03606 25.6241 7.40067 25.6241 6.67184C25.6241 6.12054 25.7035 5.62999 25.8623 5.20016C26.0305 4.761 26.2688 4.38724 26.5771 4.07889C26.8855 3.76119 27.2546 3.52292 27.6844 3.36407C28.1142 3.19588 28.5954 3.11178 29.1281 3.11178C29.8382 3.11178 30.4549 3.25662 30.9782 3.54628C31.5014 3.83594 31.9079 4.24708 32.1976 4.77968C32.4872 5.31229 32.632 5.94301 32.632 6.67184C32.632 7.22313 32.5479 7.71837 32.3798 8.15753C32.2209 8.5967 31.9873 8.97513 31.679 9.29283C31.3706 9.60118 31.0015 9.83945 30.5717 10.0076C30.1419 10.1665 29.6607 10.2459 29.1281 10.2459ZM29.1281 8.91439C29.4738 8.91439 29.7775 8.8303 30.0391 8.66211C30.3007 8.49392 30.5016 8.2463 30.6418 7.91926C30.7913 7.58288 30.866 7.16707 30.866 6.67184C30.866 5.92432 30.7072 5.36835 30.3895 5.00394C30.0718 4.63018 29.6513 4.4433 29.1281 4.4433C28.7823 4.4433 28.4786 4.5274 28.217 4.69559C27.9554 4.85444 27.7498 5.10205 27.6003 5.43843C27.4602 5.76547 27.3901 6.17661 27.3901 6.67184C27.3901 7.41001 27.5489 7.97065 27.8666 8.35376C28.1843 8.72752 28.6048 8.91439 29.1281 8.91439ZM34.9751 10.2179C34.6855 10.2179 34.4612 10.1431 34.3024 9.99362C34.1529 9.83478 34.0781 9.61052 34.0781 9.32086V4.02282C34.0781 3.73316 34.1529 3.51357 34.3024 3.36407C34.4519 3.21457 34.6621 3.13982 34.9331 3.13982C35.204 3.13982 35.4143 3.21457 35.5638 3.36407C35.7133 3.51357 35.788 3.73316 35.788 4.02282V4.90583H35.6479C35.7787 4.34519 36.0357 3.92004 36.4188 3.63037C36.8019 3.34071 37.3111 3.16785 37.9465 3.11178C38.1427 3.0931 38.2969 3.14449 38.409 3.26596C38.5305 3.37809 38.6006 3.55562 38.6193 3.79857C38.638 4.03217 38.5819 4.22372 38.4511 4.37322C38.3296 4.51338 38.1427 4.59748 37.8904 4.62551L37.5821 4.65354C37.0121 4.7096 36.5823 4.88714 36.2926 5.18615C36.003 5.47581 35.8581 5.88695 35.8581 6.41955V9.32086C35.8581 9.61052 35.7834 9.83478 35.6339 9.99362C35.4844 10.1431 35.2648 10.2179 34.9751 10.2179ZM42.6529 12.7688C42.1483 12.7688 41.6578 12.7221 41.1812 12.6286C40.714 12.5352 40.2889 12.3904 39.9058 12.1941C39.7282 12.1007 39.6068 11.9886 39.5414 11.8577C39.4853 11.7269 39.4666 11.5914 39.4853 11.4513C39.5133 11.3205 39.5694 11.2037 39.6535 11.1009C39.7469 10.9981 39.8591 10.928 39.9899 10.8906C40.1207 10.8533 40.2562 10.872 40.3963 10.9467C40.8075 11.1523 41.1953 11.2831 41.5597 11.3392C41.9334 11.4046 42.2511 11.4373 42.5128 11.4373C43.1388 11.4373 43.606 11.2831 43.9144 10.9747C44.232 10.6757 44.3909 10.2272 44.3909 9.62921V8.36777H44.517C44.3769 8.84431 44.0825 9.22742 43.634 9.51708C43.1949 9.7974 42.695 9.93756 42.1343 9.93756C41.5176 9.93756 40.9803 9.7974 40.5225 9.51708C40.0646 9.22742 39.7096 8.82563 39.4573 8.31171C39.205 7.79779 39.0788 7.19977 39.0788 6.51766C39.0788 6.00374 39.1489 5.54122 39.2891 5.13008C39.4386 4.7096 39.6442 4.34986 39.9058 4.05085C40.1768 3.75185 40.4991 3.52292 40.8729 3.36407C41.256 3.19588 41.6765 3.11178 42.1343 3.11178C42.7137 3.11178 43.2182 3.25662 43.648 3.54628C44.0872 3.8266 44.3722 4.20036 44.503 4.66756L44.3629 5.01796V4.02282C44.3629 3.73316 44.4376 3.51357 44.5871 3.36407C44.746 3.21457 44.9609 3.13982 45.2319 3.13982C45.5122 3.13982 45.7271 3.21457 45.8766 3.36407C46.0261 3.51357 46.1008 3.73316 46.1008 4.02282V9.41897C46.1008 10.5309 45.8065 11.3672 45.2178 11.9278C44.6292 12.4885 43.7742 12.7688 42.6529 12.7688ZM42.6109 8.60604C42.9753 8.60604 43.2883 8.52195 43.5499 8.35376C43.8116 8.18556 44.0125 7.94729 44.1526 7.63894C44.3021 7.32125 44.3769 6.94749 44.3769 6.51766C44.3769 5.87293 44.218 5.36835 43.9003 5.00394C43.5826 4.63018 43.1528 4.4433 42.6109 4.4433C42.2465 4.4433 41.9334 4.5274 41.6718 4.69559C41.4102 4.86378 41.2046 5.10205 41.0551 5.4104C40.9149 5.71875 40.8449 6.08784 40.8449 6.51766C40.8449 7.1624 41.0037 7.67165 41.3214 8.0454C41.6391 8.41916 42.0689 8.60604 42.6109 8.60604ZM50.1727 10.2459C49.6775 10.2459 49.2336 10.1525 48.8412 9.96559C48.4581 9.76937 48.1544 9.50774 47.9301 9.1807C47.7152 8.85366 47.6078 8.48457 47.6078 8.07344C47.6078 7.56886 47.7386 7.17174 48.0002 6.88208C48.2619 6.58307 48.687 6.36816 49.2757 6.23734C49.8643 6.10653 50.6539 6.04112 51.6444 6.04112H52.3452V7.05027H51.6584C51.0791 7.05027 50.6165 7.0783 50.2708 7.13437C49.9251 7.19043 49.6775 7.28854 49.528 7.4287C49.3878 7.55952 49.3177 7.7464 49.3177 7.98934C49.3177 8.29769 49.4252 8.54998 49.6401 8.7462C49.855 8.94243 50.154 9.04054 50.5371 9.04054C50.8455 9.04054 51.1164 8.97046 51.35 8.8303C51.593 8.6808 51.7845 8.4799 51.9247 8.22761C52.0649 7.97532 52.1349 7.68566 52.1349 7.35862V5.74679C52.1349 5.27959 52.0322 4.9432 51.8266 4.73764C51.621 4.53207 51.2753 4.42928 50.7894 4.42928C50.5184 4.42928 50.2241 4.46199 49.9064 4.5274C49.598 4.5928 49.271 4.70493 48.9253 4.86378C48.7477 4.94788 48.5889 4.97124 48.4487 4.93386C48.3179 4.89648 48.2151 4.82173 48.1404 4.7096C48.0656 4.58813 48.0283 4.45732 48.0283 4.31716C48.0283 4.177 48.0656 4.04151 48.1404 3.91069C48.2151 3.77053 48.3413 3.66775 48.5188 3.60234C48.9486 3.42481 49.3598 3.29866 49.7522 3.22391C50.154 3.14916 50.5184 3.11178 50.8455 3.11178C51.5182 3.11178 52.0695 3.21457 52.4994 3.42013C52.9385 3.6257 53.2656 3.93873 53.4805 4.3592C53.6954 4.77034 53.8028 5.30295 53.8028 5.95703V9.32086C53.8028 9.61052 53.7328 9.83478 53.5926 9.99362C53.4524 10.1431 53.2515 10.2179 52.9899 10.2179C52.7283 10.2179 52.5227 10.1431 52.3732 9.99362C52.233 9.83478 52.163 9.61052 52.163 9.32086V8.64809H52.2751C52.2097 8.97513 52.0789 9.26012 51.8826 9.50307C51.6958 9.73666 51.4575 9.91887 51.1678 10.0497C50.8782 10.1805 50.5465 10.2459 50.1727 10.2459ZM56.4501 10.2179C56.1698 10.2179 55.9549 10.1431 55.8054 9.99362C55.6559 9.83478 55.5811 9.61052 55.5811 9.32086V4.02282C55.5811 3.73316 55.6559 3.51357 55.8054 3.36407C55.9549 3.21457 56.1651 3.13982 56.4361 3.13982C56.7071 3.13982 56.9173 3.21457 57.0668 3.36407C57.2163 3.51357 57.2911 3.73316 57.2911 4.02282V4.97591L57.1369 4.62551C57.3425 4.13028 57.6601 3.75652 58.09 3.50423C58.5291 3.2426 59.0244 3.11178 59.5757 3.11178C60.127 3.11178 60.5801 3.21457 60.9352 3.42013C61.2903 3.6257 61.5566 3.93873 61.7341 4.3592C61.9117 4.77034 62.0004 5.2936 62.0004 5.92899V9.32086C62.0004 9.61052 61.9257 9.83478 61.7762 9.99362C61.6267 10.1431 61.4118 10.2179 61.1314 10.2179C60.8511 10.2179 60.6315 10.1431 60.4727 9.99362C60.3232 9.83478 60.2484 9.61052 60.2484 9.32086V6.01309C60.2484 5.48048 60.1456 5.09271 59.9401 4.84976C59.7439 4.60682 59.4355 4.48535 59.015 4.48535C58.5011 4.48535 58.09 4.64887 57.7816 4.97591C57.4826 5.2936 57.3331 5.71875 57.3331 6.25136V9.32086C57.3331 9.91887 57.0388 10.2179 56.4501 10.2179ZM64.6489 10.2039C64.3686 10.2039 64.1537 10.1198 64.0042 9.95158C63.8547 9.78338 63.7799 9.54979 63.7799 9.25078V4.10692C63.7799 3.79857 63.8547 3.56497 64.0042 3.40612C64.1537 3.23793 64.3686 3.15383 64.6489 3.15383C64.9292 3.15383 65.1441 3.23793 65.2936 3.40612C65.4525 3.56497 65.5319 3.79857 65.5319 4.10692V9.25078C65.5319 9.54979 65.4572 9.78338 65.3076 9.95158C65.1581 10.1198 64.9386 10.2039 64.6489 10.2039ZM64.6489 1.85035C64.3219 1.85035 64.0649 1.77092 63.878 1.61207C63.7005 1.44388 63.6117 1.21496 63.6117 0.925292C63.6117 0.626285 63.7005 0.397357 63.878 0.238509C64.0649 0.079662 64.3219 0.000238332 64.6489 0.000238332C64.9853 0.000238332 65.2422 0.079662 65.4198 0.238509C65.5973 0.397357 65.6861 0.626285 65.6861 0.925292C65.6861 1.21496 65.5973 1.44388 65.4198 1.61207C65.2422 1.77092 64.9853 1.85035 64.6489 1.85035ZM69.8612 10.2459C69.4594 10.2459 69.0343 10.2039 68.5857 10.1198C68.1372 10.0357 67.7354 9.89084 67.3804 9.68527C67.2309 9.59183 67.1234 9.48438 67.058 9.36291C67.0019 9.23209 66.9786 9.10595 66.9879 8.98447C67.0066 8.85366 67.0533 8.74153 67.1281 8.64809C67.2122 8.55465 67.315 8.49392 67.4364 8.46588C67.5672 8.43785 67.7074 8.46121 67.8569 8.53596C68.2307 8.7135 68.5811 8.83964 68.9081 8.91439C69.2351 8.9798 69.5575 9.01251 69.8752 9.01251C70.3237 9.01251 70.6554 8.93775 70.8703 8.78825C71.0946 8.6294 71.2067 8.42384 71.2067 8.17155C71.2067 7.95664 71.132 7.79312 70.9825 7.68099C70.8423 7.55952 70.6274 7.47075 70.3377 7.41469L68.9361 7.14838C68.3568 7.03625 67.913 6.82602 67.6046 6.51766C67.3056 6.19997 67.1561 5.79351 67.1561 5.29827C67.1561 4.84976 67.2776 4.46199 67.5205 4.13495C67.7728 3.80791 68.1185 3.55562 68.5577 3.37809C68.9969 3.20055 69.5015 3.11178 70.0714 3.11178C70.4826 3.11178 70.8657 3.1585 71.2207 3.25194C71.5852 3.33604 71.9356 3.47153 72.2719 3.65841C72.4121 3.73316 72.5055 3.83127 72.5523 3.95274C72.6083 4.07421 72.6223 4.20036 72.5943 4.33117C72.5663 4.45264 72.5102 4.56477 72.4261 4.66756C72.342 4.761 72.2346 4.82173 72.1038 4.84976C71.9823 4.86845 71.8421 4.84042 71.6833 4.76567C71.3936 4.61616 71.1133 4.50871 70.8423 4.4433C70.5807 4.37789 70.3284 4.34519 70.0855 4.34519C69.6276 4.34519 69.2865 4.42461 69.0623 4.58346C68.8474 4.74231 68.7399 4.95255 68.7399 5.21418C68.7399 5.4104 68.8053 5.57392 68.9361 5.70474C69.067 5.83555 69.2679 5.92432 69.5388 5.97104L70.9404 6.23734C71.5478 6.34947 72.0056 6.55504 72.314 6.85405C72.6317 7.15305 72.7905 7.55485 72.7905 8.05942C72.7905 8.74153 72.5242 9.27881 71.9916 9.67126C71.459 10.0544 70.7489 10.2459 69.8612 10.2459ZM76.4526 10.2459C75.9574 10.2459 75.5136 10.1525 75.1211 9.96559C74.738 9.76937 74.4343 9.50774 74.2101 9.1807C73.9952 8.85366 73.8877 8.48457 73.8877 8.07344C73.8877 7.56886 74.0185 7.17174 74.2802 6.88208C74.5418 6.58307 74.9669 6.36816 75.5556 6.23734C76.1443 6.10653 76.9339 6.04112 77.9243 6.04112H78.6251V7.05027H77.9383C77.359 7.05027 76.8965 7.0783 76.5508 7.13437C76.205 7.19043 75.9574 7.28854 75.8079 7.4287C75.6677 7.55952 75.5977 7.7464 75.5977 7.98934C75.5977 8.29769 75.7051 8.54998 75.92 8.7462C76.1349 8.94243 76.434 9.04054 76.8171 9.04054C77.1254 9.04054 77.3964 8.97046 77.63 8.8303C77.8729 8.6808 78.0645 8.4799 78.2046 8.22761C78.3448 7.97532 78.4149 7.68566 78.4149 7.35862V5.74679C78.4149 5.27959 78.3121 4.9432 78.1065 4.73764C77.901 4.53207 77.5552 4.42928 77.0693 4.42928C76.7984 4.42928 76.504 4.46199 76.1863 4.5274C75.878 4.5928 75.5509 4.70493 75.2052 4.86378C75.0277 4.94788 74.8688 4.97124 74.7287 4.93386C74.5979 4.89648 74.4951 4.82173 74.4203 4.7096C74.3456 4.58813 74.3082 4.45732 74.3082 4.31716C74.3082 4.177 74.3456 4.04151 74.4203 3.91069C74.4951 3.77053 74.6212 3.66775 74.7988 3.60234C75.2286 3.42481 75.6397 3.29866 76.0322 3.22391C76.434 3.14916 76.7984 3.11178 77.1254 3.11178C77.7982 3.11178 78.3495 3.21457 78.7793 3.42013C79.2185 3.6257 79.5455 3.93873 79.7604 4.3592C79.9753 4.77034 80.0828 5.30295 80.0828 5.95703V9.32086C80.0828 9.61052 80.0127 9.83478 79.8725 9.99362C79.7324 10.1431 79.5315 10.2179 79.2699 10.2179C79.0082 10.2179 78.8027 10.1431 78.6531 9.99362C78.513 9.83478 78.4429 9.61052 78.4429 9.32086V8.64809H78.555C78.4896 8.97513 78.3588 9.26012 78.1626 9.50307C77.9757 9.73666 77.7374 9.91887 77.4478 10.0497C77.1581 10.1805 76.8264 10.2459 76.4526 10.2459ZM85.0006 10.2459C84.3933 10.2459 83.884 10.1431 83.4729 9.93756C83.0711 9.73199 82.7721 9.43299 82.5759 9.04054C82.3796 8.63875 82.2815 8.14352 82.2815 7.55485V4.56944H81.5527C81.3284 4.56944 81.1556 4.51338 81.0341 4.40125C80.9126 4.27978 80.8519 4.11626 80.8519 3.91069C80.8519 3.69578 80.9126 3.53226 81.0341 3.42013C81.1556 3.30801 81.3284 3.25194 81.5527 3.25194H82.2815V1.97649C82.2815 1.68683 82.3563 1.46724 82.5058 1.31774C82.6646 1.16824 82.8842 1.09348 83.1645 1.09348C83.4449 1.09348 83.6598 1.16824 83.8093 1.31774C83.9588 1.46724 84.0335 1.68683 84.0335 1.97649V3.25194H85.5192C85.7435 3.25194 85.9163 3.30801 86.0378 3.42013C86.1593 3.53226 86.22 3.69578 86.22 3.91069C86.22 4.11626 86.1593 4.27978 86.0378 4.40125C85.9163 4.51338 85.7435 4.56944 85.5192 4.56944H84.0335V7.45673C84.0335 7.90524 84.1316 8.24163 84.3279 8.46588C84.5241 8.69014 84.8418 8.80227 85.281 8.80227C85.4398 8.80227 85.58 8.78825 85.7014 8.76022C85.8229 8.73219 85.9304 8.7135 86.0238 8.70416C86.1359 8.69481 86.2294 8.73219 86.3041 8.81628C86.3789 8.89103 86.4162 9.04988 86.4162 9.29283C86.4162 9.47971 86.3835 9.6479 86.3181 9.7974C86.2621 9.93756 86.1546 10.0357 85.9958 10.0917C85.8743 10.1291 85.7154 10.1618 85.5192 10.1898C85.323 10.2272 85.1501 10.2459 85.0006 10.2459ZM88.2872 10.2039C88.0068 10.2039 87.7919 10.1198 87.6424 9.95158C87.4929 9.78338 87.4182 9.54979 87.4182 9.25078V4.10692C87.4182 3.79857 87.4929 3.56497 87.6424 3.40612C87.7919 3.23793 88.0068 3.15383 88.2872 3.15383C88.5675 3.15383 88.7824 3.23793 88.9319 3.40612C89.0907 3.56497 89.1702 3.79857 89.1702 4.10692V9.25078C89.1702 9.54979 89.0954 9.78338 88.9459 9.95158C88.7964 10.1198 88.5768 10.2039 88.2872 10.2039ZM88.2872 1.85035C87.9601 1.85035 87.7032 1.77092 87.5163 1.61207C87.3387 1.44388 87.25 1.21496 87.25 0.925292C87.25 0.626285 87.3387 0.397357 87.5163 0.238509C87.7032 0.079662 87.9601 0.000238332 88.2872 0.000238332C88.6235 0.000238332 88.8805 0.079662 89.058 0.238509C89.2356 0.397357 89.3243 0.626285 89.3243 0.925292C89.3243 1.21496 89.2356 1.44388 89.058 1.61207C88.8805 1.77092 88.6235 1.85035 88.2872 1.85035ZM94.1162 10.2459C93.406 10.2459 92.7893 10.1011 92.266 9.81142C91.7428 9.52175 91.3363 9.11062 91.0467 8.57801C90.757 8.03606 90.6122 7.40067 90.6122 6.67184C90.6122 6.12054 90.6916 5.62999 90.8504 5.20016C91.0186 4.761 91.2569 4.38724 91.5653 4.07889C91.8736 3.76119 92.2427 3.52292 92.6725 3.36407C93.1023 3.19588 93.5836 3.11178 94.1162 3.11178C94.8263 3.11178 95.443 3.25662 95.9663 3.54628C96.4895 3.83594 96.896 4.24708 97.1857 4.77968C97.4753 5.31229 97.6202 5.94301 97.6202 6.67184C97.6202 7.22313 97.5361 7.71837 97.3679 8.15753C97.209 8.5967 96.9754 8.97513 96.6671 9.29283C96.3587 9.60118 95.9896 9.83945 95.5598 10.0076C95.13 10.1665 94.6488 10.2459 94.1162 10.2459ZM94.1162 8.91439C94.4619 8.91439 94.7656 8.8303 95.0272 8.66211C95.2888 8.49392 95.4897 8.2463 95.6299 7.91926C95.7794 7.58288 95.8541 7.16707 95.8541 6.67184C95.8541 5.92432 95.6953 5.36835 95.3776 5.00394C95.0599 4.63018 94.6394 4.4433 94.1162 4.4433C93.7704 4.4433 93.4668 4.5274 93.2051 4.69559C92.9435 4.85444 92.7379 5.10205 92.5884 5.43843C92.4483 5.76547 92.3782 6.17661 92.3782 6.67184C92.3782 7.41001 92.537 7.97065 92.8547 8.35376C93.1724 8.72752 93.5929 8.91439 94.1162 8.91439ZM99.9352 10.2179C99.6549 10.2179 99.44 10.1431 99.2905 9.99362C99.141 9.83478 99.0662 9.61052 99.0662 9.32086V4.02282C99.0662 3.73316 99.141 3.51357 99.2905 3.36407C99.44 3.21457 99.6502 3.13982 99.9212 3.13982C100.192 3.13982 100.402 3.21457 100.552 3.36407C100.701 3.51357 100.776 3.73316 100.776 4.02282V4.97591L100.622 4.62551C100.828 4.13028 101.145 3.75652 101.575 3.50423C102.014 3.2426 102.509 3.11178 103.061 3.11178C103.612 3.11178 104.065 3.21457 104.42 3.42013C104.775 3.6257 105.042 3.93873 105.219 4.3592C105.397 4.77034 105.486 5.2936 105.486 5.92899V9.32086C105.486 9.61052 105.411 9.83478 105.261 9.99362C105.112 10.1431 104.897 10.2179 104.617 10.2179C104.336 10.2179 104.117 10.1431 103.958 9.99362C103.808 9.83478 103.734 9.61052 103.734 9.32086V6.01309C103.734 5.48048 103.631 5.09271 103.425 4.84976C103.229 4.60682 102.921 4.48535 102.5 4.48535C101.986 4.48535 101.575 4.64887 101.267 4.97591C100.968 5.2936 100.818 5.71875 100.818 6.25136V9.32086C100.818 9.91887 100.524 10.2179 99.9352 10.2179ZM109.774 10.2459C109.372 10.2459 108.947 10.2039 108.498 10.1198C108.05 10.0357 107.648 9.89084 107.293 9.68527C107.144 9.59183 107.036 9.48438 106.971 9.36291C106.915 9.23209 106.891 9.10595 106.901 8.98447C106.919 8.85366 106.966 8.74153 107.041 8.64809C107.125 8.55465 107.228 8.49392 107.349 8.46588C107.48 8.43785 107.62 8.46121 107.77 8.53596C108.143 8.7135 108.494 8.83964 108.821 8.91439C109.148 8.9798 109.47 9.01251 109.788 9.01251C110.236 9.01251 110.568 8.93775 110.783 8.78825C111.007 8.6294 111.119 8.42384 111.119 8.17155C111.119 7.95664 111.045 7.79312 110.895 7.68099C110.755 7.55952 110.54 7.47075 110.25 7.41469L108.849 7.14838C108.269 7.03625 107.826 6.82602 107.517 6.51766C107.218 6.19997 107.069 5.79351 107.069 5.29827C107.069 4.84976 107.19 4.46199 107.433 4.13495C107.685 3.80791 108.031 3.55562 108.47 3.37809C108.91 3.20055 109.414 3.11178 109.984 3.11178C110.395 3.11178 110.778 3.1585 111.133 3.25194C111.498 3.33604 111.848 3.47153 112.185 3.65841C112.325 3.73316 112.418 3.83127 112.465 3.95274C112.521 4.07421 112.535 4.20036 112.507 4.33117C112.479 4.45264 112.423 4.56477 112.339 4.66756C112.255 4.761 112.147 4.82173 112.016 4.84976C111.895 4.86845 111.755 4.84042 111.596 4.76567C111.306 4.61616 111.026 4.50871 110.755 4.4433C110.493 4.37789 110.241 4.34519 109.998 4.34519C109.54 4.34519 109.199 4.42461 108.975 4.58346C108.76 4.74231 108.653 4.95255 108.653 5.21418C108.653 5.4104 108.718 5.57392 108.849 5.70474C108.98 5.83555 109.181 5.92432 109.451 5.97104L110.853 6.23734C111.46 6.34947 111.918 6.55504 112.227 6.85405C112.544 7.15305 112.703 7.55485 112.703 8.05942C112.703 8.74153 112.437 9.27881 111.904 9.67126C111.372 10.0544 110.662 10.2459 109.774 10.2459ZM120.17 10.2459C119.675 10.2459 119.231 10.1525 118.839 9.96559C118.456 9.76937 118.152 9.50774 117.928 9.1807C117.713 8.85366 117.605 8.48457 117.605 8.07344C117.605 7.56886 117.736 7.17174 117.998 6.88208C118.26 6.58307 118.685 6.36816 119.273 6.23734C119.862 6.10653 120.652 6.04112 121.642 6.04112H122.343V7.05027H121.656C121.077 7.05027 120.614 7.0783 120.269 7.13437C119.923 7.19043 119.675 7.28854 119.526 7.4287C119.386 7.55952 119.315 7.7464 119.315 7.98934C119.315 8.29769 119.423 8.54998 119.638 8.7462C119.853 8.94243 120.152 9.04054 120.535 9.04054C120.843 9.04054 121.114 8.97046 121.348 8.8303C121.591 8.6808 121.782 8.4799 121.922 8.22761C122.063 7.97532 122.133 7.68566 122.133 7.35862V5.74679C122.133 5.27959 122.03 4.9432 121.824 4.73764C121.619 4.53207 121.273 4.42928 120.787 4.42928C120.516 4.42928 120.222 4.46199 119.904 4.5274C119.596 4.5928 119.269 4.70493 118.923 4.86378C118.745 4.94788 118.587 4.97124 118.446 4.93386C118.316 4.89648 118.213 4.82173 118.138 4.7096C118.063 4.58813 118.026 4.45732 118.026 4.31716C118.026 4.177 118.063 4.04151 118.138 3.91069C118.213 3.77053 118.339 3.66775 118.517 3.60234C118.946 3.42481 119.357 3.29866 119.75 3.22391C120.152 3.14916 120.516 3.11178 120.843 3.11178C121.516 3.11178 122.067 3.21457 122.497 3.42013C122.936 3.6257 123.263 3.93873 123.478 4.3592C123.693 4.77034 123.801 5.30295 123.801 5.95703V9.32086C123.801 9.61052 123.73 9.83478 123.59 9.99362C123.45 10.1431 123.249 10.2179 122.988 10.2179C122.726 10.2179 122.52 10.1431 122.371 9.99362C122.231 9.83478 122.161 9.61052 122.161 9.32086V8.64809H122.273C122.207 8.97513 122.077 9.26012 121.88 9.50307C121.693 9.73666 121.455 9.91887 121.166 10.0497C120.876 10.1805 120.544 10.2459 120.17 10.2459ZM126.448 10.2179C126.168 10.2179 125.953 10.1431 125.803 9.99362C125.654 9.83478 125.579 9.61052 125.579 9.32086V4.02282C125.579 3.73316 125.654 3.51357 125.803 3.36407C125.953 3.21457 126.163 3.13982 126.434 3.13982C126.705 3.13982 126.915 3.21457 127.065 3.36407C127.214 3.51357 127.289 3.73316 127.289 4.02282V4.97591L127.135 4.62551C127.34 4.13028 127.658 3.75652 128.088 3.50423C128.527 3.2426 129.022 3.11178 129.573 3.11178C130.125 3.11178 130.578 3.21457 130.933 3.42013C131.288 3.6257 131.554 3.93873 131.732 4.3592C131.909 4.77034 131.998 5.2936 131.998 5.92899V9.32086C131.998 9.61052 131.923 9.83478 131.774 9.99362C131.624 10.1431 131.409 10.2179 131.129 10.2179C130.849 10.2179 130.629 10.1431 130.47 9.99362C130.321 9.83478 130.246 9.61052 130.246 9.32086V6.01309C130.246 5.48048 130.143 5.09271 129.938 4.84976C129.742 4.60682 129.433 4.48535 129.013 4.48535C128.499 4.48535 128.088 4.64887 127.779 4.97591C127.48 5.2936 127.331 5.71875 127.331 6.25136V9.32086C127.331 9.91887 127.036 10.2179 126.448 10.2179ZM136.413 10.2459C135.815 10.2459 135.287 10.1011 134.829 9.81142C134.38 9.52175 134.03 9.11062 133.778 8.57801C133.525 8.03606 133.399 7.40067 133.399 6.67184C133.399 5.93367 133.525 5.30295 133.778 4.77968C134.03 4.24708 134.38 3.83594 134.829 3.54628C135.287 3.25662 135.815 3.11178 136.413 3.11178C136.983 3.11178 137.478 3.25194 137.898 3.53226C138.328 3.81258 138.618 4.18167 138.767 4.63952H138.613V0.995372C138.613 0.705708 138.688 0.486125 138.837 0.336621C138.987 0.187117 139.202 0.112365 139.482 0.112365C139.762 0.112365 139.977 0.187117 140.127 0.336621C140.286 0.486125 140.365 0.705708 140.365 0.995372V9.32086C140.365 9.61052 140.29 9.83478 140.141 9.99362C139.991 10.1431 139.776 10.2179 139.496 10.2179C139.216 10.2179 139.001 10.1431 138.851 9.99362C138.702 9.83478 138.627 9.61052 138.627 9.32086V8.22761L138.781 8.64809C138.641 9.13398 138.356 9.52175 137.926 9.81142C137.497 10.1011 136.992 10.2459 136.413 10.2459ZM136.903 8.91439C137.249 8.91439 137.553 8.8303 137.814 8.66211C138.076 8.49392 138.277 8.2463 138.417 7.91926C138.566 7.58288 138.641 7.16707 138.641 6.67184C138.641 5.92432 138.482 5.36835 138.165 5.00394C137.847 4.63018 137.426 4.4433 136.903 4.4433C136.557 4.4433 136.254 4.5274 135.992 4.69559C135.731 4.85444 135.525 5.10205 135.375 5.43843C135.235 5.76547 135.165 6.17661 135.165 6.67184C135.165 7.41001 135.324 7.97065 135.642 8.35376C135.959 8.72752 136.38 8.91439 136.903 8.91439ZM4.14875 24.2619C3.54139 24.2619 3.03214 24.1591 2.62101 23.9535C2.21922 23.748 1.92021 23.449 1.72399 23.0565C1.52776 22.6547 1.42965 22.1595 1.42965 21.5708V18.5854H0.700821C0.476565 18.5854 0.303702 18.5293 0.18223 18.4172C0.0607583 18.2957 2.24835e-05 18.1322 2.24835e-05 17.9267C2.24835e-05 17.7118 0.0607583 17.5482 0.18223 17.4361C0.303702 17.324 0.476565 17.2679 0.700821 17.2679H1.42965V15.9925C1.42965 15.7028 1.5044 15.4832 1.65391 15.3337C1.81275 15.1842 2.03234 15.1095 2.31266 15.1095C2.59298 15.1095 2.80789 15.1842 2.95739 15.3337C3.1069 15.4832 3.18165 15.7028 3.18165 15.9925V17.2679H4.66734C4.8916 17.2679 5.06446 17.324 5.18593 17.4361C5.3074 17.5482 5.36814 17.7118 5.36814 17.9267C5.36814 18.1322 5.3074 18.2957 5.18593 18.4172C5.06446 18.5293 4.8916 18.5854 4.66734 18.5854H3.18165V21.4727C3.18165 21.9212 3.27976 22.2576 3.47598 22.4819C3.67221 22.7061 3.9899 22.8182 4.42907 22.8182C4.58792 22.8182 4.72808 22.8042 4.84955 22.7762C4.97102 22.7482 5.07848 22.7295 5.17192 22.7201C5.28404 22.7108 5.37748 22.7482 5.45223 22.8323C5.52699 22.907 5.56436 23.0659 5.56436 23.3088C5.56436 23.4957 5.53166 23.6639 5.46625 23.8134C5.41019 23.9535 5.30273 24.0516 5.14388 24.1077C5.02241 24.1451 4.86356 24.1778 4.66734 24.2058C4.47112 24.2432 4.29825 24.2619 4.14875 24.2619ZM9.69776 24.2619C8.92221 24.2619 8.25411 24.117 7.69348 23.8274C7.13284 23.5377 6.69834 23.1266 6.38999 22.594C6.09098 22.0614 5.94148 21.4307 5.94148 20.7018C5.94148 19.9917 6.08631 19.3703 6.37597 18.8377C6.67498 18.3051 7.08144 17.8893 7.59536 17.5903C8.11863 17.2819 8.71197 17.1278 9.37539 17.1278C9.86128 17.1278 10.2958 17.2072 10.6789 17.366C11.0713 17.5249 11.403 17.7538 11.674 18.0528C11.9543 18.3518 12.1646 18.7162 12.3047 19.1461C12.4542 19.5665 12.529 20.0431 12.529 20.5757C12.529 20.7439 12.4682 20.8747 12.3468 20.9681C12.2346 21.0522 12.0711 21.0943 11.8562 21.0943H7.35709V20.0851H11.2956L11.0713 20.2954C11.0713 19.8655 11.0059 19.5058 10.8751 19.2161C10.7536 18.9265 10.5714 18.7069 10.3285 18.5574C10.0949 18.3985 9.80054 18.3191 9.44547 18.3191C9.05302 18.3191 8.71664 18.4125 8.43632 18.5994C8.16535 18.777 7.95511 19.0339 7.8056 19.3703C7.66544 19.6973 7.59536 20.0898 7.59536 20.5476V20.6458C7.59536 21.412 7.7729 21.9866 8.12797 22.3697C8.49239 22.7435 9.02499 22.9304 9.72579 22.9304C9.96873 22.9304 10.2397 22.9023 10.5387 22.8463C10.8471 22.7809 11.1367 22.6734 11.4077 22.5239C11.6039 22.4118 11.7768 22.3651 11.9263 22.3837C12.0758 22.3931 12.1926 22.4445 12.2767 22.5379C12.3701 22.6314 12.4262 22.7482 12.4449 22.8883C12.4636 23.0191 12.4355 23.1546 12.3608 23.2948C12.2954 23.4349 12.1786 23.5564 12.0104 23.6592C11.6834 23.8648 11.3049 24.0189 10.8751 24.1217C10.4546 24.2152 10.0622 24.2619 9.69776 24.2619ZM16.173 24.2619C15.6778 24.2619 15.234 24.1684 14.8415 23.9816C14.4584 23.7853 14.1547 23.5237 13.9305 23.1967C13.7156 22.8696 13.6081 22.5005 13.6081 22.0894C13.6081 21.5848 13.7389 21.1877 14.0006 20.898C14.2622 20.599 14.6873 20.3841 15.276 20.2533C15.8647 20.1225 16.6542 20.0571 17.6447 20.0571H18.3455V21.0662H17.6587C17.0794 21.0662 16.6169 21.0943 16.2711 21.1503C15.9254 21.2064 15.6778 21.3045 15.5283 21.4447C15.3881 21.5755 15.3181 21.7624 15.3181 22.0053C15.3181 22.3137 15.4255 22.5659 15.6404 22.7622C15.8553 22.9584 16.1543 23.0565 16.5374 23.0565C16.8458 23.0565 17.1168 22.9864 17.3504 22.8463C17.5933 22.6968 17.7849 22.4959 17.925 22.2436C18.0652 21.9913 18.1353 21.7016 18.1353 21.3746V19.7628C18.1353 19.2956 18.0325 18.9592 17.8269 18.7536C17.6213 18.548 17.2756 18.4453 16.7897 18.4453C16.5188 18.4453 16.2244 18.478 15.9067 18.5434C15.5984 18.6088 15.2713 18.7209 14.9256 18.8797C14.7481 18.9638 14.5892 18.9872 14.4491 18.9498C14.3182 18.9125 14.2155 18.8377 14.1407 18.7256C14.066 18.6041 14.0286 18.4733 14.0286 18.3331C14.0286 18.193 14.066 18.0575 14.1407 17.9267C14.2155 17.7865 14.3416 17.6837 14.5191 17.6183C14.949 17.4408 15.3601 17.3146 15.7525 17.2399C16.1543 17.1651 16.5188 17.1278 16.8458 17.1278C17.5186 17.1278 18.0699 17.2305 18.4997 17.4361C18.9388 17.6417 19.2659 17.9547 19.4808 18.3752C19.6957 18.7863 19.8032 19.3189 19.8032 19.973V23.3368C19.8032 23.6265 19.7331 23.8507 19.5929 24.0096C19.4528 24.1591 19.2519 24.2338 18.9902 24.2338C18.7286 24.2338 18.523 24.1591 18.3735 24.0096C18.2334 23.8507 18.1633 23.6265 18.1633 23.3368V22.6641H18.2754C18.21 22.9911 18.0792 23.2761 17.883 23.519C17.6961 23.7526 17.4578 23.9348 17.1682 24.0657C16.8785 24.1965 16.5468 24.2619 16.173 24.2619ZM22.4785 24.2338C22.1981 24.2338 21.9832 24.1591 21.8337 24.0096C21.6842 23.8507 21.6095 23.6265 21.6095 23.3368V18.0388C21.6095 17.7491 21.6842 17.5295 21.8337 17.38C21.9832 17.2305 22.1935 17.1558 22.4644 17.1558C22.7354 17.1558 22.9457 17.2305 23.0952 17.38C23.2447 17.5295 23.3194 17.7491 23.3194 18.0388V19.062L23.1652 18.6415C23.3521 18.1743 23.6418 17.8052 24.0342 17.5342C24.4267 17.2632 24.8939 17.1278 25.4358 17.1278C25.9871 17.1278 26.4403 17.2586 26.7954 17.5202C27.1505 17.7818 27.3981 18.1836 27.5382 18.7256H27.342C27.5289 18.2303 27.8372 17.8426 28.2671 17.5622C28.6969 17.2726 29.1921 17.1278 29.7527 17.1278C30.276 17.1278 30.7058 17.2305 31.0422 17.4361C31.3879 17.6417 31.6449 17.9547 31.8131 18.3752C31.9813 18.7863 32.0654 19.3096 32.0654 19.945V23.3368C32.0654 23.6265 31.986 23.8507 31.8271 24.0096C31.6776 24.1591 31.4627 24.2338 31.1824 24.2338C30.9021 24.2338 30.6871 24.1591 30.5376 24.0096C30.3881 23.8507 30.3134 23.6265 30.3134 23.3368V20.015C30.3134 19.4918 30.2246 19.1087 30.0471 18.8657C29.8789 18.6228 29.5892 18.5013 29.1781 18.5013C28.7202 18.5013 28.3605 18.6648 28.0989 18.9919C27.8372 19.3096 27.7064 19.7534 27.7064 20.3234V23.3368C27.7064 23.6265 27.6317 23.8507 27.4822 24.0096C27.3327 24.1591 27.1177 24.2338 26.8374 24.2338C26.5571 24.2338 26.3375 24.1591 26.1787 24.0096C26.0292 23.8507 25.9544 23.6265 25.9544 23.3368V20.015C25.9544 19.4918 25.8657 19.1087 25.6881 18.8657C25.5199 18.6228 25.2349 18.5013 24.8331 18.5013C24.3753 18.5013 24.0155 18.6648 23.7539 18.9919C23.4923 19.3096 23.3615 19.7534 23.3615 20.3234V23.3368C23.3615 23.9348 23.0671 24.2338 22.4785 24.2338ZM36.3816 24.2619C35.9799 24.2619 35.5547 24.2198 35.1062 24.1357C34.6577 24.0516 34.2559 23.9068 33.9008 23.7012C33.7513 23.6078 33.6439 23.5003 33.5785 23.3789C33.5224 23.2481 33.499 23.1219 33.5084 23.0004C33.5271 22.8696 33.5738 22.7575 33.6485 22.6641C33.7326 22.5706 33.8354 22.5099 33.9569 22.4819C34.0877 22.4538 34.2279 22.4772 34.3774 22.5519C34.7511 22.7295 35.1015 22.8556 35.4286 22.9304C35.7556 22.9958 36.078 23.0285 36.3957 23.0285C36.8442 23.0285 37.1759 22.9537 37.3908 22.8042C37.6151 22.6454 37.7272 22.4398 37.7272 22.1875C37.7272 21.9726 37.6524 21.8091 37.5029 21.697C37.3628 21.5755 37.1479 21.4867 36.8582 21.4307L35.4566 21.1644C34.8773 21.0522 34.4334 20.842 34.1251 20.5336C33.8261 20.2159 33.6766 19.8095 33.6766 19.3142C33.6766 18.8657 33.798 18.478 34.041 18.1509C34.2933 17.8239 34.639 17.5716 35.0782 17.3941C35.5173 17.2165 36.0219 17.1278 36.5919 17.1278C37.003 17.1278 37.3861 17.1745 37.7412 17.2679C38.1056 17.352 38.456 17.4875 38.7924 17.6744C38.9326 17.7491 39.026 17.8472 39.0727 17.9687C39.1288 18.0902 39.1428 18.2163 39.1148 18.3471C39.0867 18.4686 39.0307 18.5807 38.9466 18.6835C38.8625 18.777 38.755 18.8377 38.6242 18.8657C38.5027 18.8844 38.3626 18.8564 38.2037 18.7816C37.9141 18.6321 37.6337 18.5247 37.3628 18.4593C37.1011 18.3939 36.8488 18.3612 36.6059 18.3612C36.148 18.3612 35.807 18.4406 35.5827 18.5994C35.3678 18.7583 35.2604 18.9685 35.2604 19.2301C35.2604 19.4264 35.3258 19.5899 35.4566 19.7207C35.5874 19.8515 35.7883 19.9403 36.0593 19.987L37.4609 20.2533C38.0682 20.3654 38.5261 20.571 38.8344 20.87C39.1521 21.169 39.311 21.5708 39.311 22.0754C39.311 22.7575 39.0447 23.2948 38.5121 23.6872C37.9795 24.0703 37.2693 24.2619 36.3816 24.2619ZM41.5575 24.1918C41.2398 24.1918 40.9828 24.0937 40.7866 23.8975C40.5997 23.7012 40.5063 23.449 40.5063 23.1406C40.5063 22.8416 40.5997 22.5987 40.7866 22.4118C40.9828 22.2155 41.2398 22.1174 41.5575 22.1174C41.8845 22.1174 42.1368 22.2155 42.3143 22.4118C42.5012 22.5987 42.5947 22.8416 42.5947 23.1406C42.5947 23.449 42.5012 23.7012 42.3143 23.8975C42.1368 24.0937 41.8845 24.1918 41.5575 24.1918ZM41.5575 19.2722C41.2398 19.2722 40.9828 19.1741 40.7866 18.9779C40.5997 18.7816 40.5063 18.534 40.5063 18.235C40.5063 17.9267 40.5997 17.679 40.7866 17.4922C40.9828 17.2959 41.2398 17.1978 41.5575 17.1978C41.8845 17.1978 42.1368 17.2959 42.3143 17.4922C42.5012 17.679 42.5947 17.9267 42.5947 18.235C42.5947 18.534 42.5012 18.7816 42.3143 18.9779C42.1368 19.1741 41.8845 19.2722 41.5575 19.2722ZM49.0775 24.1217C48.7878 24.1217 48.5636 24.0423 48.4047 23.8834C48.2459 23.7153 48.1664 23.4863 48.1664 23.1967V15.1095C48.1664 14.8104 48.2412 14.5862 48.3907 14.4367C48.5495 14.2778 48.7738 14.1984 49.0635 14.1984C49.3531 14.1984 49.5727 14.2778 49.7222 14.4367C49.8811 14.5862 49.9605 14.8104 49.9605 15.1095V22.594H54.0251C54.2774 22.594 54.469 22.6594 54.5998 22.7902C54.7399 22.921 54.81 23.1079 54.81 23.3508C54.81 23.5938 54.7399 23.7853 54.5998 23.9255C54.469 24.0563 54.2774 24.1217 54.0251 24.1217H49.0775ZM58.9257 24.2619C58.2155 24.2619 57.5988 24.117 57.0756 23.8274C56.5523 23.5377 56.1458 23.1266 55.8562 22.594C55.5665 22.052 55.4217 21.4166 55.4217 20.6878C55.4217 20.1365 55.5011 19.646 55.66 19.2161C55.8281 18.777 56.0664 18.4032 56.3748 18.0949C56.6831 17.7772 57.0522 17.5389 57.482 17.38C57.9119 17.2118 58.3931 17.1278 58.9257 17.1278C59.6358 17.1278 60.2525 17.2726 60.7758 17.5622C61.299 17.8519 61.7055 18.263 61.9952 18.7957C62.2848 19.3283 62.4297 19.959 62.4297 20.6878C62.4297 21.2391 62.3456 21.7343 62.1774 22.1735C62.0185 22.6127 61.7849 22.9911 61.4766 23.3088C61.1682 23.6171 60.7991 23.8554 60.3693 24.0236C59.9395 24.1825 59.4583 24.2619 58.9257 24.2619ZM58.9257 22.9304C59.2714 22.9304 59.5751 22.8463 59.8367 22.6781C60.0983 22.5099 60.2992 22.2623 60.4394 21.9352C60.5889 21.5988 60.6637 21.183 60.6637 20.6878C60.6637 19.9403 60.5048 19.3843 60.1871 19.0199C59.8694 18.6461 59.4489 18.4593 58.9257 18.4593C58.5799 18.4593 58.2763 18.5434 58.0146 18.7116C57.753 18.8704 57.5474 19.118 57.3979 19.4544C57.2578 19.7814 57.1877 20.1926 57.1877 20.6878C57.1877 21.426 57.3465 21.9866 57.6642 22.3697C57.9819 22.7435 58.4024 22.9304 58.9257 22.9304ZM67.0013 24.2619C66.2911 24.2619 65.6744 24.117 65.1512 23.8274C64.6279 23.5377 64.2214 23.1266 63.9318 22.594C63.6421 22.052 63.4973 21.4166 63.4973 20.6878C63.4973 20.1365 63.5767 19.646 63.7356 19.2161C63.9038 18.777 64.142 18.4032 64.4504 18.0949C64.7587 17.7772 65.1278 17.5389 65.5576 17.38C65.9875 17.2118 66.4687 17.1278 67.0013 17.1278C67.7114 17.1278 68.3281 17.2726 68.8514 17.5622C69.3747 17.8519 69.7811 18.263 70.0708 18.7957C70.3604 19.3283 70.5053 19.959 70.5053 20.6878C70.5053 21.2391 70.4212 21.7343 70.253 22.1735C70.0941 22.6127 69.8605 22.9911 69.5522 23.3088C69.2438 23.6171 68.8747 23.8554 68.4449 24.0236C68.0151 24.1825 67.5339 24.2619 67.0013 24.2619ZM67.0013 22.9304C67.347 22.9304 67.6507 22.8463 67.9123 22.6781C68.1739 22.5099 68.3748 22.2623 68.515 21.9352C68.6645 21.5988 68.7393 21.183 68.7393 20.6878C68.7393 19.9403 68.5804 19.3843 68.2627 19.0199C67.945 18.6461 67.5245 18.4593 67.0013 18.4593C66.6556 18.4593 66.3519 18.5434 66.0902 18.7116C65.8286 18.8704 65.623 19.118 65.4735 19.4544C65.3334 19.7814 65.2633 20.1926 65.2633 20.6878C65.2633 21.426 65.4221 21.9866 65.7398 22.3697C66.0575 22.7435 66.478 22.9304 67.0013 22.9304ZM72.8203 24.2338C72.54 24.2338 72.3251 24.1591 72.1756 24.0096C72.0261 23.8507 71.9513 23.6265 71.9513 23.3368V15.0113C71.9513 14.7217 72.0261 14.5021 72.1756 14.3526C72.3251 14.2031 72.54 14.1283 72.8203 14.1283C73.1006 14.1283 73.3155 14.2031 73.4651 14.3526C73.6239 14.5021 73.7033 14.7217 73.7033 15.0113V20.1832H73.7314L76.044 17.7445C76.2309 17.5576 76.3944 17.4127 76.5345 17.31C76.6747 17.2072 76.8663 17.1558 77.1092 17.1558C77.3521 17.1558 77.5344 17.2212 77.6558 17.352C77.7866 17.4735 77.852 17.623 77.852 17.8005C77.852 17.9781 77.768 18.1556 77.5998 18.3331L75.161 20.9121V20.1832L77.838 23.0705C78.0062 23.2481 78.081 23.4303 78.0623 23.6171C78.0529 23.7947 77.9782 23.9442 77.838 24.0657C77.6979 24.1778 77.5203 24.2338 77.3054 24.2338C77.0438 24.2338 76.8336 24.1825 76.6747 24.0797C76.5252 23.9769 76.357 23.8227 76.1701 23.6171L73.7314 21.0662H73.7033V23.3368C73.7033 23.9348 73.409 24.2338 72.8203 24.2338ZM80.3347 24.2198C80.0544 24.2198 79.8395 24.1357 79.69 23.9675C79.5405 23.7994 79.4657 23.5658 79.4657 23.2667V18.1229C79.4657 17.8145 79.5405 17.5809 79.69 17.4221C79.8395 17.2539 80.0544 17.1698 80.3347 17.1698C80.6151 17.1698 80.83 17.2539 80.9795 17.4221C81.1383 17.5809 81.2177 17.8145 81.2177 18.1229V23.2667C81.2177 23.5658 81.143 23.7994 80.9935 23.9675C80.844 24.1357 80.6244 24.2198 80.3347 24.2198ZM80.3347 15.8663C80.0077 15.8663 79.7507 15.7869 79.5639 15.628C79.3863 15.4599 79.2976 15.2309 79.2976 14.9413C79.2976 14.6423 79.3863 14.4133 79.5639 14.2545C79.7507 14.0956 80.0077 14.0162 80.3347 14.0162C80.6711 14.0162 80.9281 14.0956 81.1056 14.2545C81.2832 14.4133 81.3719 14.6423 81.3719 14.9413C81.3719 15.2309 81.2832 15.4599 81.1056 15.628C80.9281 15.7869 80.6711 15.8663 80.3347 15.8663ZM83.9072 24.2338C83.6268 24.2338 83.4119 24.1591 83.2624 24.0096C83.1129 23.8507 83.0382 23.6265 83.0382 23.3368V18.0388C83.0382 17.7491 83.1129 17.5295 83.2624 17.38C83.4119 17.2305 83.6222 17.1558 83.8932 17.1558C84.1641 17.1558 84.3744 17.2305 84.5239 17.38C84.6734 17.5295 84.7481 17.7491 84.7481 18.0388V18.9919L84.5939 18.6415C84.7995 18.1462 85.1172 17.7725 85.547 17.5202C85.9862 17.2586 86.4814 17.1278 87.0327 17.1278C87.584 17.1278 88.0372 17.2305 88.3923 17.4361C88.7473 17.6417 89.0137 17.9547 89.1912 18.3752C89.3687 18.7863 89.4575 19.3096 89.4575 19.945V23.3368C89.4575 23.6265 89.3827 23.8507 89.2332 24.0096C89.0837 24.1591 88.8688 24.2338 88.5885 24.2338C88.3082 24.2338 88.0886 24.1591 87.9298 24.0096C87.7802 23.8507 87.7055 23.6265 87.7055 23.3368V20.0291C87.7055 19.4965 87.6027 19.1087 87.3971 18.8657C87.2009 18.6228 86.8926 18.5013 86.4721 18.5013C85.9582 18.5013 85.547 18.6648 85.2387 18.9919C84.9397 19.3096 84.7902 19.7347 84.7902 20.2673V23.3368C84.7902 23.9348 84.4958 24.2338 83.9072 24.2338ZM94.4326 26.7848C93.928 26.7848 93.4375 26.738 92.9609 26.6446C92.4937 26.5512 92.0686 26.4063 91.6855 26.2101C91.5079 26.1167 91.3865 26.0045 91.3211 25.8737C91.265 25.7429 91.2463 25.6074 91.265 25.4673C91.293 25.3364 91.3491 25.2196 91.4332 25.1169C91.5266 25.0141 91.6388 24.944 91.7696 24.9066C91.9004 24.8692 92.0359 24.8879 92.176 24.9627C92.5872 25.1682 92.975 25.2991 93.3394 25.3551C93.7131 25.4205 94.0308 25.4532 94.2925 25.4532C94.9185 25.4532 95.3857 25.2991 95.694 24.9907C96.0117 24.6917 96.1706 24.2432 96.1706 23.6452V22.3837H96.2967C96.1566 22.8603 95.8622 23.2434 95.4137 23.533C94.9746 23.8134 94.4747 23.9535 93.914 23.9535C93.2973 23.9535 92.76 23.8134 92.3022 23.533C91.8443 23.2434 91.4893 22.8416 91.237 22.3277C90.9847 21.8138 90.8585 21.2157 90.8585 20.5336C90.8585 20.0197 90.9286 19.5572 91.0688 19.1461C91.2183 18.7256 91.4239 18.3658 91.6855 18.0668C91.9565 17.7678 92.2788 17.5389 92.6526 17.38C93.0357 17.2118 93.4562 17.1278 93.914 17.1278C94.4933 17.1278 94.9979 17.2726 95.4277 17.5622C95.8669 17.8426 96.1519 18.2163 96.2827 18.6835L96.1426 19.0339V18.0388C96.1426 17.7491 96.2173 17.5295 96.3668 17.38C96.5257 17.2305 96.7406 17.1558 97.0116 17.1558C97.2919 17.1558 97.5068 17.2305 97.6563 17.38C97.8058 17.5295 97.8805 17.7491 97.8805 18.0388V23.4349C97.8805 24.5469 97.5862 25.3832 96.9975 25.9438C96.4089 26.5044 95.5539 26.7848 94.4326 26.7848ZM94.3906 22.622C94.755 22.622 95.068 22.5379 95.3296 22.3697C95.5913 22.2015 95.7922 21.9633 95.9323 21.6549C96.0818 21.3372 96.1566 20.9635 96.1566 20.5336C96.1566 19.8889 95.9977 19.3843 95.68 19.0199C95.3623 18.6461 94.9325 18.4593 94.3906 18.4593C94.0261 18.4593 93.7131 18.5434 93.4515 18.7116C93.1899 18.8797 92.9843 19.118 92.8348 19.4264C92.6946 19.7347 92.6246 20.1038 92.6246 20.5336C92.6246 21.1784 92.7834 21.6876 93.1011 22.0614C93.4188 22.4351 93.8486 22.622 94.3906 22.622ZM106.641 24.2619C106.033 24.2619 105.524 24.1591 105.113 23.9535C104.711 23.748 104.412 23.449 104.216 23.0565C104.02 22.6547 103.921 22.1595 103.921 21.5708V18.5854H103.193C102.968 18.5854 102.795 18.5293 102.674 18.4172C102.553 18.2957 102.492 18.1322 102.492 17.9267C102.492 17.7118 102.553 17.5482 102.674 17.4361C102.795 17.324 102.968 17.2679 103.193 17.2679H103.921V15.9925C103.921 15.7028 103.996 15.4832 104.146 15.3337C104.305 15.1842 104.524 15.1095 104.804 15.1095C105.085 15.1095 105.3 15.1842 105.449 15.3337C105.599 15.4832 105.673 15.7028 105.673 15.9925V17.2679H107.159C107.383 17.2679 107.556 17.324 107.678 17.4361C107.799 17.5482 107.86 17.7118 107.86 17.9267C107.86 18.1322 107.799 18.2957 107.678 18.4172C107.556 18.5293 107.383 18.5854 107.159 18.5854H105.673V21.4727C105.673 21.9212 105.772 22.2576 105.968 22.4819C106.164 22.7061 106.482 22.8182 106.921 22.8182C107.08 22.8182 107.22 22.8042 107.341 22.7762C107.463 22.7482 107.57 22.7295 107.664 22.7201C107.776 22.7108 107.869 22.7482 107.944 22.8323C108.019 22.907 108.056 23.0659 108.056 23.3088C108.056 23.4957 108.023 23.6639 107.958 23.8134C107.902 23.9535 107.795 24.0516 107.636 24.1077C107.514 24.1451 107.355 24.1778 107.159 24.2058C106.963 24.2432 106.79 24.2619 106.641 24.2619ZM111.937 24.2619C111.227 24.2619 110.61 24.117 110.087 23.8274C109.564 23.5377 109.157 23.1266 108.868 22.594C108.578 22.052 108.433 21.4166 108.433 20.6878C108.433 20.1365 108.513 19.646 108.672 19.2161C108.84 18.777 109.078 18.4032 109.386 18.0949C109.695 17.7772 110.064 17.5389 110.494 17.38C110.923 17.2118 111.405 17.1278 111.937 17.1278C112.647 17.1278 113.264 17.2726 113.787 17.5622C114.311 17.8519 114.717 18.263 115.007 18.7957C115.296 19.3283 115.441 19.959 115.441 20.6878C115.441 21.2391 115.357 21.7343 115.189 22.1735C115.03 22.6127 114.797 22.9911 114.488 23.3088C114.18 23.6171 113.811 23.8554 113.381 24.0236C112.951 24.1825 112.47 24.2619 111.937 24.2619ZM111.937 22.9304C112.283 22.9304 112.587 22.8463 112.848 22.6781C113.11 22.5099 113.311 22.2623 113.451 21.9352C113.6 21.5988 113.675 21.183 113.675 20.6878C113.675 19.9403 113.516 19.3843 113.199 19.0199C112.881 18.6461 112.461 18.4593 111.937 18.4593C111.592 18.4593 111.288 18.5434 111.026 18.7116C110.765 18.8704 110.559 19.118 110.41 19.4544C110.269 19.7814 110.199 20.1926 110.199 20.6878C110.199 21.426 110.358 21.9866 110.676 22.3697C110.994 22.7435 111.414 22.9304 111.937 22.9304ZM124.645 24.2619C124.066 24.2619 123.556 24.117 123.117 23.8274C122.687 23.5377 122.402 23.1499 122.262 22.6641L122.416 22.3137V23.3368C122.416 23.6265 122.342 23.8507 122.192 24.0096C122.043 24.1591 121.832 24.2338 121.561 24.2338C121.281 24.2338 121.066 24.1591 120.917 24.0096C120.767 23.8507 120.692 23.6265 120.692 23.3368V15.0113C120.692 14.7217 120.767 14.5021 120.917 14.3526C121.066 14.2031 121.281 14.1283 121.561 14.1283C121.842 14.1283 122.057 14.2031 122.206 14.3526C122.365 14.5021 122.444 14.7217 122.444 15.0113V18.6555H122.276C122.426 18.1976 122.715 17.8286 123.145 17.5482C123.575 17.2679 124.075 17.1278 124.645 17.1278C125.252 17.1278 125.78 17.2726 126.229 17.5622C126.677 17.8519 127.028 18.263 127.28 18.7957C127.532 19.3189 127.658 19.9496 127.658 20.6878C127.658 21.4166 127.532 22.052 127.28 22.594C127.028 23.1266 126.673 23.5377 126.215 23.8274C125.766 24.117 125.243 24.2619 124.645 24.2619ZM124.154 22.9304C124.5 22.9304 124.804 22.8463 125.065 22.6781C125.327 22.5099 125.528 22.2623 125.668 21.9352C125.818 21.5988 125.892 21.183 125.892 20.6878C125.892 19.9403 125.733 19.3843 125.416 19.0199C125.098 18.6461 124.678 18.4593 124.154 18.4593C123.809 18.4593 123.505 18.5434 123.243 18.7116C122.982 18.8704 122.776 19.118 122.627 19.4544C122.486 19.7814 122.416 20.1926 122.416 20.6878C122.416 21.426 122.575 21.9866 122.893 22.3697C123.211 22.7435 123.631 22.9304 124.154 22.9304ZM129.994 24.2338C129.704 24.2338 129.48 24.1591 129.321 24.0096C129.171 23.8507 129.097 23.6265 129.097 23.3368V18.0388C129.097 17.7491 129.171 17.5295 129.321 17.38C129.47 17.2305 129.681 17.1558 129.951 17.1558C130.222 17.1558 130.433 17.2305 130.582 17.38C130.732 17.5295 130.806 17.7491 130.806 18.0388V18.9218H130.666C130.797 18.3612 131.054 17.936 131.437 17.6463C131.82 17.3567 132.33 17.1838 132.965 17.1278C133.161 17.1091 133.315 17.1605 133.427 17.2819C133.549 17.3941 133.619 17.5716 133.638 17.8145C133.656 18.0481 133.6 18.2397 133.469 18.3892C133.348 18.5293 133.161 18.6134 132.909 18.6415L132.601 18.6695C132.031 18.7256 131.601 18.9031 131.311 19.2021C131.021 19.4918 130.877 19.9029 130.877 20.4355V23.3368C130.877 23.6265 130.802 23.8507 130.652 24.0096C130.503 24.1591 130.283 24.2338 129.994 24.2338ZM135.454 24.2198C135.174 24.2198 134.959 24.1357 134.809 23.9675C134.66 23.7994 134.585 23.5658 134.585 23.2667V18.1229C134.585 17.8145 134.66 17.5809 134.809 17.4221C134.959 17.2539 135.174 17.1698 135.454 17.1698C135.734 17.1698 135.949 17.2539 136.099 17.4221C136.258 17.5809 136.337 17.8145 136.337 18.1229V23.2667C136.337 23.5658 136.262 23.7994 136.113 23.9675C135.963 24.1357 135.744 24.2198 135.454 24.2198ZM135.454 15.8663C135.127 15.8663 134.87 15.7869 134.683 15.628C134.506 15.4599 134.417 15.2309 134.417 14.9413C134.417 14.6423 134.506 14.4133 134.683 14.2545C134.87 14.0956 135.127 14.0162 135.454 14.0162C135.791 14.0162 136.048 14.0956 136.225 14.2545C136.403 14.4133 136.491 14.6423 136.491 14.9413C136.491 15.2309 136.403 15.4599 136.225 15.628C136.048 15.7869 135.791 15.8663 135.454 15.8663ZM139.027 24.2338C138.746 24.2338 138.531 24.1591 138.382 24.0096C138.232 23.8507 138.158 23.6265 138.158 23.3368V18.0388C138.158 17.7491 138.232 17.5295 138.382 17.38C138.531 17.2305 138.742 17.1558 139.013 17.1558C139.284 17.1558 139.494 17.2305 139.643 17.38C139.793 17.5295 139.868 17.7491 139.868 18.0388V18.9919L139.713 18.6415C139.919 18.1462 140.237 17.7725 140.666 17.5202C141.106 17.2586 141.601 17.1278 142.152 17.1278C142.703 17.1278 143.157 17.2305 143.512 17.4361C143.867 17.6417 144.133 17.9547 144.311 18.3752C144.488 18.7863 144.577 19.3096 144.577 19.945V23.3368C144.577 23.6265 144.502 23.8507 144.353 24.0096C144.203 24.1591 143.988 24.2338 143.708 24.2338C143.428 24.2338 143.208 24.1591 143.049 24.0096C142.9 23.8507 142.825 23.6265 142.825 23.3368V20.0291C142.825 19.4965 142.722 19.1087 142.517 18.8657C142.32 18.6228 142.012 18.5013 141.592 18.5013C141.078 18.5013 140.666 18.6648 140.358 18.9919C140.059 19.3096 139.91 19.7347 139.91 20.2673V23.3368C139.91 23.9348 139.615 24.2338 139.027 24.2338ZM149.552 26.7848C149.047 26.7848 148.557 26.738 148.08 26.6446C147.613 26.5512 147.188 26.4063 146.805 26.2101C146.627 26.1167 146.506 26.0045 146.441 25.8737C146.384 25.7429 146.366 25.6074 146.384 25.4673C146.412 25.3364 146.469 25.2196 146.553 25.1169C146.646 25.0141 146.758 24.944 146.889 24.9066C147.02 24.8692 147.155 24.8879 147.295 24.9627C147.707 25.1682 148.094 25.2991 148.459 25.3551C148.833 25.4205 149.15 25.4532 149.412 25.4532C150.038 25.4532 150.505 25.2991 150.813 24.9907C151.131 24.6917 151.29 24.2432 151.29 23.6452V22.3837H151.416C151.276 22.8603 150.982 23.2434 150.533 23.533C150.094 23.8134 149.594 23.9535 149.033 23.9535C148.417 23.9535 147.879 23.8134 147.422 23.533C146.964 23.2434 146.609 22.8416 146.356 22.3277C146.104 21.8138 145.978 21.2157 145.978 20.5336C145.978 20.0197 146.048 19.5572 146.188 19.1461C146.338 18.7256 146.543 18.3658 146.805 18.0668C147.076 17.7678 147.398 17.5389 147.772 17.38C148.155 17.2118 148.576 17.1278 149.033 17.1278C149.613 17.1278 150.117 17.2726 150.547 17.5622C150.986 17.8426 151.271 18.2163 151.402 18.6835L151.262 19.0339V18.0388C151.262 17.7491 151.337 17.5295 151.486 17.38C151.645 17.2305 151.86 17.1558 152.131 17.1558C152.411 17.1558 152.626 17.2305 152.776 17.38C152.925 17.5295 153 17.7491 153 18.0388V23.4349C153 24.5469 152.706 25.3832 152.117 25.9438C151.528 26.5044 150.673 26.7848 149.552 26.7848ZM149.51 22.622C149.874 22.622 150.187 22.5379 150.449 22.3697C150.711 22.2015 150.912 21.9633 151.052 21.6549C151.201 21.3372 151.276 20.9635 151.276 20.5336C151.276 19.8889 151.117 19.3843 150.799 19.0199C150.482 18.6461 150.052 18.4593 149.51 18.4593C149.146 18.4593 148.833 18.5434 148.571 18.7116C148.309 18.8797 148.104 19.118 147.954 19.4264C147.814 19.7347 147.744 20.1038 147.744 20.5336C147.744 21.1784 147.903 21.6876 148.221 22.0614C148.538 22.4351 148.968 22.622 149.51 22.622ZM5.7746 38.2778C4.74676 38.2778 3.86376 38.0723 3.12558 37.6611C2.39675 37.2407 1.83611 36.652 1.44367 35.8951C1.05122 35.1289 0.854997 34.2272 0.854997 33.1901C0.854997 32.4145 0.967124 31.7184 1.19138 31.1017C1.41564 30.4756 1.738 29.943 2.15848 29.5039C2.57896 29.0553 3.09288 28.7143 3.70024 28.4807C4.31694 28.2377 5.0084 28.1163 5.7746 28.1163C6.28852 28.1163 6.7931 28.1817 7.28833 28.3125C7.78356 28.4433 8.21805 28.6302 8.59181 28.8731C8.78804 28.9946 8.91885 29.1441 8.98426 29.3216C9.04967 29.4898 9.06368 29.658 9.02631 29.8262C8.98893 29.9851 8.90951 30.1206 8.78803 30.2327C8.67591 30.3448 8.53108 30.4102 8.35354 30.4289C8.18535 30.4383 7.99847 30.3775 7.7929 30.2467C7.50324 30.0598 7.19021 29.9243 6.85383 29.8402C6.51745 29.7561 6.17639 29.7141 5.83067 29.7141C5.16724 29.7141 4.6066 29.8496 4.14875 30.1206C3.69089 30.3915 3.34517 30.784 3.11157 31.2979C2.87797 31.8118 2.76117 32.4425 2.76117 33.1901C2.76117 33.9282 2.87797 34.5589 3.11157 35.0822C3.34517 35.6055 3.69089 36.0026 4.14875 36.2736C4.6066 36.5445 5.16724 36.68 5.83067 36.68C6.18574 36.68 6.53614 36.638 6.88186 36.5539C7.22759 36.4604 7.55463 36.3203 7.86298 36.1334C8.06855 36.0119 8.25076 35.9605 8.4096 35.9792C8.5778 35.9886 8.71796 36.0446 8.83008 36.1474C8.94221 36.2502 9.01696 36.381 9.05434 36.5399C9.09171 36.6894 9.08237 36.8482 9.02631 37.0164C8.97024 37.1753 8.85812 37.3154 8.68992 37.4369C8.31616 37.7079 7.86765 37.9181 7.34439 38.0676C6.83047 38.2078 6.30721 38.2778 5.7746 38.2778ZM12.8763 38.2778C12.1008 38.2778 11.5168 38.0583 11.1243 37.6191C10.7319 37.1706 10.5357 36.5165 10.5357 35.6569V29.0273C10.5357 28.7376 10.6104 28.5181 10.7599 28.3686C10.9094 28.2191 11.1243 28.1443 11.4046 28.1443C11.685 28.1443 11.8999 28.2191 12.0494 28.3686C12.2082 28.5181 12.2876 28.7376 12.2876 29.0273V35.5728C12.2876 36.0026 12.3764 36.3203 12.554 36.5259C12.7408 36.7314 13.0025 36.8342 13.3388 36.8342C13.4136 36.8342 13.4837 36.8342 13.5491 36.8342C13.6145 36.8249 13.6799 36.8155 13.7453 36.8062C13.8761 36.7875 13.9649 36.8249 14.0116 36.9183C14.0583 37.0024 14.0817 37.1799 14.0817 37.4509C14.0817 37.6845 14.035 37.8667 13.9415 37.9975C13.8481 38.1283 13.6939 38.2078 13.479 38.2358C13.3856 38.2451 13.2875 38.2545 13.1847 38.2638C13.0819 38.2732 12.9791 38.2778 12.8763 38.2778ZM18.3209 38.2778C17.5453 38.2778 16.8772 38.133 16.3166 37.8434C15.7559 37.5537 15.3214 37.1426 15.0131 36.6099C14.7141 36.0773 14.5646 35.4466 14.5646 34.7178C14.5646 34.0077 14.7094 33.3863 14.9991 32.8537C15.2981 32.3211 15.7046 31.9053 16.2185 31.6062C16.7417 31.2979 17.3351 31.1437 17.9985 31.1437C18.4844 31.1437 18.9189 31.2231 19.302 31.382C19.6944 31.5408 20.0261 31.7698 20.2971 32.0688C20.5774 32.3678 20.7877 32.7322 20.9278 33.162C21.0773 33.5825 21.1521 34.059 21.1521 34.5916C21.1521 34.7598 21.0914 34.8907 20.9699 34.9841C20.8578 35.0682 20.6942 35.1102 20.4793 35.1102H15.9802V34.1011H19.9187L19.6944 34.3113C19.6944 33.8815 19.629 33.5218 19.4982 33.2321C19.3767 32.9424 19.1945 32.7229 18.9516 32.5733C18.718 32.4145 18.4236 32.3351 18.0686 32.3351C17.6761 32.3351 17.3397 32.4285 17.0594 32.6154C16.7885 32.7929 16.5782 33.0499 16.4287 33.3863C16.2885 33.7133 16.2185 34.1058 16.2185 34.5636V34.6617C16.2185 35.4279 16.396 36.0026 16.7511 36.3857C17.1155 36.7595 17.6481 36.9463 18.3489 36.9463C18.5918 36.9463 18.8628 36.9183 19.1618 36.8622C19.4702 36.7968 19.7598 36.6894 20.0308 36.5399C20.227 36.4277 20.3999 36.381 20.5494 36.3997C20.6989 36.4091 20.8157 36.4604 20.8998 36.5539C20.9932 36.6473 21.0493 36.7641 21.068 36.9043C21.0867 37.0351 21.0587 37.1706 20.9839 37.3107C20.9185 37.4509 20.8017 37.5724 20.6335 37.6752C20.3065 37.8807 19.928 38.0349 19.4982 38.1377C19.0777 38.2311 18.6853 38.2778 18.3209 38.2778ZM24.7961 38.2778C24.3009 38.2778 23.8571 38.1844 23.4646 37.9975C23.0815 37.8013 22.7778 37.5397 22.5536 37.2126C22.3387 36.8856 22.2312 36.5165 22.2312 36.1054C22.2312 35.6008 22.362 35.2037 22.6237 34.914C22.8853 34.615 23.3104 34.4001 23.8991 34.2693C24.4878 34.1385 25.2773 34.0731 26.2678 34.0731H26.9686V35.0822H26.2818C25.7025 35.0822 25.24 35.1102 24.8942 35.1663C24.5485 35.2224 24.3009 35.3205 24.1514 35.4606C24.0112 35.5915 23.9412 35.7783 23.9412 36.0213C23.9412 36.3296 24.0486 36.5819 24.2635 36.7781C24.4784 36.9744 24.7774 37.0725 25.1605 37.0725C25.4689 37.0725 25.7399 37.0024 25.9735 36.8622C26.2164 36.7127 26.408 36.5118 26.5481 36.2595C26.6883 36.0073 26.7584 35.7176 26.7584 35.3906V33.7787C26.7584 33.3115 26.6556 32.9751 26.45 32.7696C26.2444 32.564 25.8987 32.4612 25.4128 32.4612C25.1419 32.4612 24.8475 32.4939 24.5298 32.5593C24.2215 32.6247 23.8944 32.7369 23.5487 32.8957C23.3712 32.9798 23.2123 33.0032 23.0722 32.9658C22.9414 32.9284 22.8386 32.8537 22.7638 32.7415C22.6891 32.6201 22.6517 32.4893 22.6517 32.3491C22.6517 32.2089 22.6891 32.0734 22.7638 31.9426C22.8386 31.8025 22.9647 31.6997 23.1422 31.6343C23.5721 31.4567 23.9832 31.3306 24.3757 31.2558C24.7774 31.1811 25.1419 31.1437 25.4689 31.1437C26.1417 31.1437 26.693 31.2465 27.1228 31.4521C27.562 31.6576 27.889 31.9707 28.1039 32.3911C28.3188 32.8023 28.4263 33.3349 28.4263 33.989V37.3528C28.4263 37.6425 28.3562 37.8667 28.216 38.0256C28.0759 38.1751 27.875 38.2498 27.6133 38.2498C27.3517 38.2498 27.1461 38.1751 26.9966 38.0256C26.8565 37.8667 26.7864 37.6425 26.7864 37.3528V36.68H26.8985C26.8331 37.0071 26.7023 37.2921 26.5061 37.535C26.3192 37.7686 26.0809 37.9508 25.7913 38.0816C25.5016 38.2124 25.1699 38.2778 24.7961 38.2778ZM31.0735 38.2498C30.7932 38.2498 30.5783 38.1751 30.4288 38.0256C30.2793 37.8667 30.2045 37.6425 30.2045 37.3528V32.0548C30.2045 31.7651 30.2793 31.5455 30.4288 31.396C30.5783 31.2465 30.7885 31.1718 31.0595 31.1718C31.3305 31.1718 31.5407 31.2465 31.6902 31.396C31.8397 31.5455 31.9145 31.7651 31.9145 32.0548V33.0078L31.7603 32.6574C31.9659 32.1622 32.2836 31.7885 32.7134 31.5362C33.1526 31.2745 33.6478 31.1437 34.1991 31.1437C34.7504 31.1437 35.2036 31.2465 35.5586 31.4521C35.9137 31.6576 36.18 31.9707 36.3576 32.3911C36.5351 32.8023 36.6239 33.3255 36.6239 33.9609V37.3528C36.6239 37.6425 36.5491 37.8667 36.3996 38.0256C36.2501 38.1751 36.0352 38.2498 35.7549 38.2498C35.4745 38.2498 35.255 38.1751 35.0961 38.0256C34.9466 37.8667 34.8719 37.6425 34.8719 37.3528V34.045C34.8719 33.5124 34.7691 33.1246 34.5635 32.8817C34.3673 32.6388 34.0589 32.5173 33.6385 32.5173C33.1245 32.5173 32.7134 32.6808 32.4051 33.0078C32.106 33.3255 31.9565 33.7507 31.9565 34.2833V37.3528C31.9565 37.9508 31.6622 38.2498 31.0735 38.2498ZM42.4748 38.2498C42.2505 38.2498 42.0683 38.1984 41.9281 38.0956C41.7973 37.9929 41.7179 37.8574 41.6899 37.6892C41.6618 37.5116 41.6945 37.3154 41.788 37.1005L45.4882 28.9012C45.6097 28.6302 45.7545 28.4386 45.9227 28.3265C46.1002 28.205 46.3011 28.1443 46.5254 28.1443C46.7403 28.1443 46.9318 28.205 47.1 28.3265C47.2776 28.4386 47.4271 28.6302 47.5485 28.9012L51.2628 37.1005C51.3656 37.3154 51.4029 37.5116 51.3749 37.6892C51.3469 37.8667 51.2674 38.0069 51.1366 38.1097C51.0058 38.2031 50.8329 38.2498 50.618 38.2498C50.3564 38.2498 50.1508 38.1891 50.0013 38.0676C49.8612 37.9368 49.735 37.7406 49.6229 37.4789L48.7119 35.3625L49.4687 35.8531H43.554L44.3109 35.3625L43.4138 37.4789C43.2924 37.7499 43.1662 37.9461 43.0354 38.0676C42.9046 38.1891 42.7177 38.2498 42.4748 38.2498ZM46.4973 30.2047L44.5351 34.872L44.1707 34.4235H48.852L48.5016 34.872L46.5254 30.2047H46.4973ZM53.5073 38.2358C53.227 38.2358 53.0121 38.1517 52.8626 37.9835C52.7131 37.8153 52.6383 37.5817 52.6383 37.2827V32.1389C52.6383 31.8305 52.7131 31.5969 52.8626 31.4381C53.0121 31.2699 53.227 31.1858 53.5073 31.1858C53.7876 31.1858 54.0025 31.2699 54.152 31.4381C54.3109 31.5969 54.3903 31.8305 54.3903 32.1389V37.2827C54.3903 37.5817 54.3156 37.8153 54.166 37.9835C54.0165 38.1517 53.797 38.2358 53.5073 38.2358ZM53.5073 29.8823C53.1803 29.8823 52.9233 29.8029 52.7364 29.644C52.5589 29.4758 52.4701 29.2469 52.4701 28.9572C52.4701 28.6582 52.5589 28.4293 52.7364 28.2704C52.9233 28.1116 53.1803 28.0322 53.5073 28.0322C53.8437 28.0322 54.1006 28.1116 54.2782 28.2704C54.4557 28.4293 54.5445 28.6582 54.5445 28.9572C54.5445 29.2469 54.4557 29.4758 54.2782 29.644C54.1006 29.8029 53.8437 29.8823 53.5073 29.8823ZM57.1078 38.2498C56.8181 38.2498 56.5938 38.1751 56.435 38.0256C56.2855 37.8667 56.2107 37.6425 56.2107 37.3528V32.0548C56.2107 31.7651 56.2855 31.5455 56.435 31.396C56.5845 31.2465 56.7947 31.1718 57.0657 31.1718C57.3367 31.1718 57.5469 31.2465 57.6964 31.396C57.8459 31.5455 57.9207 31.7651 57.9207 32.0548V32.9378H57.7805C57.9113 32.3771 58.1683 31.952 58.5514 31.6623C58.9345 31.3726 59.4438 31.1998 60.0791 31.1437C60.2754 31.125 60.4295 31.1764 60.5417 31.2979C60.6631 31.41 60.7332 31.5876 60.7519 31.8305C60.7706 32.0641 60.7145 32.2557 60.5837 32.4052C60.4622 32.5453 60.2754 32.6294 60.0231 32.6574L59.7147 32.6855C59.1447 32.7415 58.7149 32.9191 58.4253 33.2181C58.1356 33.5077 57.9908 33.9189 57.9908 34.4515V37.3528C57.9908 37.6425 57.916 37.8667 57.7665 38.0256C57.617 38.1751 57.3974 38.2498 57.1078 38.2498ZM68.6441 38.2778C68.0367 38.2778 67.5275 38.1751 67.1164 37.9695C66.7146 37.7639 66.4156 37.4649 66.2193 37.0725C66.0231 36.6707 65.925 36.1755 65.925 35.5868V32.6014H65.1962C64.9719 32.6014 64.7991 32.5453 64.6776 32.4332C64.5561 32.3117 64.4954 32.1482 64.4954 31.9426C64.4954 31.7277 64.5561 31.5642 64.6776 31.4521C64.7991 31.3399 64.9719 31.2839 65.1962 31.2839H65.925V30.0084C65.925 29.7188 65.9998 29.4992 66.1493 29.3497C66.3081 29.2002 66.5277 29.1254 66.808 29.1254C67.0883 29.1254 67.3032 29.2002 67.4527 29.3497C67.6023 29.4992 67.677 29.7188 67.677 30.0084V31.2839H69.1627C69.387 31.2839 69.5598 31.3399 69.6813 31.4521C69.8028 31.5642 69.8635 31.7277 69.8635 31.9426C69.8635 32.1482 69.8028 32.3117 69.6813 32.4332C69.5598 32.5453 69.387 32.6014 69.1627 32.6014H67.677V35.4887C67.677 35.9372 67.7751 36.2736 67.9713 36.4978C68.1676 36.7221 68.4853 36.8342 68.9244 36.8342C69.0833 36.8342 69.2234 36.8202 69.3449 36.7922C69.4664 36.7641 69.5738 36.7454 69.6673 36.7361C69.7794 36.7267 69.8728 36.7641 69.9476 36.8482C70.0223 36.923 70.0597 37.0818 70.0597 37.3248C70.0597 37.5116 70.027 37.6798 69.9616 37.8293C69.9055 37.9695 69.7981 38.0676 69.6392 38.1237C69.5178 38.161 69.3589 38.1938 69.1627 38.2218C68.9665 38.2592 68.7936 38.2778 68.6441 38.2778ZM73.9408 38.2778C73.2307 38.2778 72.614 38.133 72.0907 37.8434C71.5675 37.5537 71.161 37.1426 70.8713 36.6099C70.5817 36.068 70.4368 35.4326 70.4368 34.7038C70.4368 34.1525 70.5163 33.6619 70.6751 33.2321C70.8433 32.7929 71.0816 32.4192 71.3899 32.1108C71.6983 31.7931 72.0674 31.5549 72.4972 31.396C72.927 31.2278 73.4082 31.1437 73.9408 31.1437C74.651 31.1437 75.2677 31.2886 75.7909 31.5782C76.3142 31.8679 76.7207 32.279 77.0103 32.8116C77.3 33.3442 77.4448 33.9749 77.4448 34.7038C77.4448 35.2551 77.3607 35.7503 77.1925 36.1895C77.0337 36.6286 76.8001 37.0071 76.4917 37.3248C76.1834 37.6331 75.8143 37.8714 75.3845 38.0396C74.9546 38.1984 74.4734 38.2778 73.9408 38.2778ZM73.9408 36.9463C74.2866 36.9463 74.5902 36.8622 74.8519 36.694C75.1135 36.5259 75.3144 36.2782 75.4546 35.9512C75.6041 35.6148 75.6788 35.199 75.6788 34.7038C75.6788 33.9563 75.52 33.4003 75.2023 33.0359C74.8846 32.6621 74.4641 32.4752 73.9408 32.4752C73.5951 32.4752 73.2914 32.5593 73.0298 32.7275C72.7682 32.8864 72.5626 33.134 72.4131 33.4704C72.2729 33.7974 72.2028 34.2085 72.2028 34.7038C72.2028 35.442 72.3617 36.0026 72.6794 36.3857C72.9971 36.7595 73.4176 36.9463 73.9408 36.9463ZM84.434 40.7727C84.2284 40.7727 84.0602 40.7166 83.9294 40.6045C83.7986 40.5017 83.7192 40.3616 83.6911 40.184C83.6724 40.0065 83.7051 39.8196 83.7892 39.6234L84.7423 37.507V38.2358L82.1914 32.3351C82.1073 32.1295 82.0793 31.938 82.1073 31.7604C82.1354 31.5829 82.2194 31.4427 82.3596 31.3399C82.5091 31.2278 82.71 31.1718 82.9623 31.1718C83.1772 31.1718 83.3501 31.2231 83.4809 31.3259C83.6117 31.4194 83.7285 31.6016 83.8313 31.8726L85.7234 36.5959H85.303L87.2372 31.8585C87.3399 31.5969 87.4614 31.4194 87.6016 31.3259C87.7417 31.2231 87.9286 31.1718 88.1622 31.1718C88.3678 31.1718 88.5313 31.2278 88.6528 31.3399C88.7742 31.4427 88.849 31.5829 88.877 31.7604C88.9051 31.9286 88.8724 32.1155 88.7789 32.3211L85.373 40.0999C85.2516 40.3616 85.1208 40.5391 84.9806 40.6325C84.8404 40.726 84.6582 40.7727 84.434 40.7727ZM93.0622 38.2778C92.3521 38.2778 91.7354 38.133 91.2121 37.8434C90.6889 37.5537 90.2824 37.1426 89.9927 36.6099C89.7031 36.068 89.5582 35.4326 89.5582 34.7038C89.5582 34.1525 89.6377 33.6619 89.7965 33.2321C89.9647 32.7929 90.203 32.4192 90.5113 32.1108C90.8197 31.7931 91.1888 31.5549 91.6186 31.396C92.0484 31.2278 92.5296 31.1437 93.0622 31.1437C93.7724 31.1437 94.3891 31.2886 94.9123 31.5782C95.4356 31.8679 95.8421 32.279 96.1317 32.8116C96.4214 33.3442 96.5662 33.9749 96.5662 34.7038C96.5662 35.2551 96.4821 35.7503 96.3139 36.1895C96.1551 36.6286 95.9215 37.0071 95.6131 37.3248C95.3048 37.6331 94.9357 37.8714 94.5059 38.0396C94.076 38.1984 93.5948 38.2778 93.0622 38.2778ZM93.0622 36.9463C93.4079 36.9463 93.7116 36.8622 93.9733 36.694C94.2349 36.5259 94.4358 36.2782 94.5759 35.9512C94.7255 35.6148 94.8002 35.199 94.8002 34.7038C94.8002 33.9563 94.6414 33.4003 94.3237 33.0359C94.006 32.6621 93.5855 32.4752 93.0622 32.4752C92.7165 32.4752 92.4128 32.5593 92.1512 32.7275C91.8896 32.8864 91.684 33.134 91.5345 33.4704C91.3943 33.7974 91.3242 34.2085 91.3242 34.7038C91.3242 35.442 91.4831 36.0026 91.8008 36.3857C92.1185 36.7595 92.539 36.9463 93.0622 36.9463ZM100.493 38.2778C99.9231 38.2778 99.4512 38.1751 99.0775 37.9695C98.7037 37.7546 98.4234 37.4369 98.2365 37.0164C98.059 36.5959 97.9702 36.0727 97.9702 35.4466V32.0548C97.9702 31.7558 98.045 31.5362 98.1945 31.396C98.344 31.2465 98.5589 31.1718 98.8392 31.1718C99.1195 31.1718 99.3344 31.2465 99.4839 31.396C99.6428 31.5362 99.7222 31.7558 99.7222 32.0548V35.4747C99.7222 35.9605 99.8203 36.3203 100.017 36.5539C100.213 36.7875 100.526 36.9043 100.956 36.9043C101.423 36.9043 101.806 36.7454 102.105 36.4277C102.404 36.1007 102.553 35.6709 102.553 35.1383V32.0548C102.553 31.7558 102.628 31.5362 102.778 31.396C102.927 31.2465 103.142 31.1718 103.422 31.1718C103.703 31.1718 103.918 31.2465 104.067 31.396C104.226 31.5362 104.305 31.7558 104.305 32.0548V37.3528C104.305 37.9508 104.02 38.2498 103.45 38.2498C103.179 38.2498 102.969 38.1751 102.82 38.0256C102.67 37.8667 102.595 37.6425 102.595 37.3528V36.2876L102.792 36.7081C102.595 37.2126 102.296 37.6004 101.895 37.8714C101.502 38.1424 101.035 38.2778 100.493 38.2778ZM107.026 38.2498C106.736 38.2498 106.512 38.1751 106.353 38.0256C106.204 37.8667 106.129 37.6425 106.129 37.3528V32.0548C106.129 31.7651 106.204 31.5455 106.353 31.396C106.503 31.2465 106.713 31.1718 106.984 31.1718C107.255 31.1718 107.465 31.2465 107.615 31.396C107.764 31.5455 107.839 31.7651 107.839 32.0548V32.9378H107.699C107.83 32.3771 108.087 31.952 108.47 31.6623C108.853 31.3726 109.362 31.1998 109.997 31.1437C110.194 31.125 110.348 31.1764 110.46 31.2979C110.581 31.41 110.651 31.5876 110.67 31.8305C110.689 32.0641 110.633 32.2557 110.502 32.4052C110.38 32.5453 110.194 32.6294 109.941 32.6574L109.633 32.6855C109.063 32.7415 108.633 32.9191 108.343 33.2181C108.054 33.5077 107.909 33.9189 107.909 34.4515V37.3528C107.909 37.6425 107.834 37.8667 107.685 38.0256C107.535 38.1751 107.316 38.2498 107.026 38.2498ZM3.65819 52.2658C3.42459 52.2658 3.2237 52.2097 3.0555 52.0976C2.88731 51.9761 2.75182 51.7892 2.64904 51.537L0.616725 46.351C0.532629 46.1268 0.504597 45.9306 0.532629 45.7624C0.570005 45.5848 0.658773 45.4447 0.798933 45.3419C0.939092 45.2391 1.12597 45.1877 1.35957 45.1877C1.56514 45.1877 1.73333 45.2391 1.86415 45.3419C1.99496 45.4353 2.10709 45.6175 2.20053 45.8885L3.89646 50.5558H3.57409L5.32609 45.7764C5.40084 45.5708 5.49895 45.4213 5.62043 45.3279C5.75124 45.2344 5.91943 45.1877 6.125 45.1877C6.33057 45.1877 6.49876 45.2391 6.62958 45.3419C6.76039 45.4353 6.8585 45.5802 6.92391 45.7764L8.64788 50.5558H8.35354L10.0635 45.8465C10.1569 45.5942 10.2737 45.4213 10.4139 45.3279C10.5634 45.2344 10.7269 45.1877 10.9044 45.1877C11.1287 45.1877 11.3016 45.2438 11.423 45.3559C11.5445 45.468 11.6146 45.6129 11.6333 45.7904C11.652 45.9586 11.6193 46.1455 11.5352 46.351L9.51687 51.537C9.42343 51.7799 9.28794 51.9621 9.1104 52.0836C8.94221 52.2051 8.74132 52.2658 8.50772 52.2658C8.27412 52.2658 8.06855 52.2051 7.89101 52.0836C7.72282 51.9621 7.59201 51.7799 7.49857 51.537L5.66247 46.6734H6.46138L4.66734 51.5229C4.5739 51.7752 4.44308 51.9621 4.27489 52.0836C4.1067 52.2051 3.90113 52.2658 3.65819 52.2658ZM15.947 52.2938C15.2369 52.2938 14.6202 52.149 14.0969 51.8593C13.5736 51.5697 13.1672 51.1585 12.8775 50.6259C12.5879 50.084 12.443 49.4486 12.443 48.7197C12.443 48.1685 12.5225 47.6779 12.6813 47.2481C12.8495 46.8089 13.0878 46.4351 13.3961 46.1268C13.7045 45.8091 14.0736 45.5708 14.5034 45.412C14.9332 45.2438 15.4144 45.1597 15.947 45.1597C16.6572 45.1597 17.2739 45.3045 17.7971 45.5942C18.3204 45.8838 18.7269 46.295 19.0165 46.8276C19.3062 47.3602 19.451 47.9909 19.451 48.7197C19.451 49.271 19.3669 49.7663 19.1987 50.2054C19.0399 50.6446 18.8063 51.023 18.4979 51.3407C18.1896 51.6491 17.8205 51.8874 17.3907 52.0555C16.9608 52.2144 16.4796 52.2938 15.947 52.2938ZM15.947 50.9623C16.2927 50.9623 16.5964 50.8782 16.8581 50.71C17.1197 50.5418 17.3206 50.2942 17.4607 49.9672C17.6102 49.6308 17.685 49.215 17.685 48.7197C17.685 47.9722 17.5262 47.4163 17.2085 47.0518C16.8908 46.6781 16.4703 46.4912 15.947 46.4912C15.6013 46.4912 15.2976 46.5753 15.036 46.7435C14.7744 46.9023 14.5688 47.15 14.4193 47.4863C14.2791 47.8134 14.209 48.2245 14.209 48.7197C14.209 49.4579 14.3679 50.0186 14.6856 50.4017C15.0033 50.7754 15.4238 50.9623 15.947 50.9623ZM21.7941 52.2658C21.5044 52.2658 21.2802 52.191 21.1213 52.0415C20.9718 51.8827 20.8971 51.6584 20.8971 51.3688V46.0707C20.8971 45.7811 20.9718 45.5615 21.1213 45.412C21.2708 45.2625 21.4811 45.1877 21.752 45.1877C22.023 45.1877 22.2333 45.2625 22.3828 45.412C22.5323 45.5615 22.607 45.7811 22.607 46.0707V46.9537H22.4669C22.5977 46.3931 22.8546 45.9679 23.2377 45.6783C23.6208 45.3886 24.1301 45.2158 24.7655 45.1597C24.9617 45.141 25.1159 45.1924 25.228 45.3139C25.3495 45.426 25.4196 45.6035 25.4382 45.8465C25.4569 46.0801 25.4009 46.2716 25.27 46.4211C25.1486 46.5613 24.9617 46.6454 24.7094 46.6734L24.4011 46.7014C23.8311 46.7575 23.4013 46.935 23.1116 47.2341C22.8219 47.5237 22.6771 47.9349 22.6771 48.4675V51.3688C22.6771 51.6584 22.6023 51.8827 22.4528 52.0415C22.3033 52.191 22.0838 52.2658 21.7941 52.2658ZM27.2547 52.2658C26.9744 52.2658 26.7595 52.191 26.61 52.0415C26.4605 51.8827 26.3857 51.6584 26.3857 51.3688V43.0433C26.3857 42.7536 26.4605 42.534 26.61 42.3845C26.7595 42.235 26.9744 42.1603 27.2547 42.1603C27.5351 42.1603 27.75 42.235 27.8995 42.3845C28.0583 42.534 28.1377 42.7536 28.1377 43.0433V48.2152H28.1658L30.4784 45.7764C30.6653 45.5895 30.8288 45.4447 30.969 45.3419C31.1091 45.2391 31.3007 45.1877 31.5436 45.1877C31.7866 45.1877 31.9688 45.2531 32.0902 45.3839C32.2211 45.5054 32.2865 45.6549 32.2865 45.8325C32.2865 46.01 32.2024 46.1875 32.0342 46.3651L29.5954 48.944V48.2152L32.2724 51.1025C32.4406 51.28 32.5154 51.4622 32.4967 51.6491C32.4874 51.8266 32.4126 51.9761 32.2724 52.0976C32.1323 52.2097 31.9548 52.2658 31.7398 52.2658C31.4782 52.2658 31.268 52.2144 31.1091 52.1116C30.9596 52.0088 30.7914 51.8547 30.6045 51.6491L28.1658 49.0982H28.1377V51.3688C28.1377 51.9668 27.8434 52.2658 27.2547 52.2658ZM34.7692 54.7887C34.4888 54.7887 34.2739 54.7139 34.1244 54.5644C33.9749 54.4149 33.9002 54.1953 33.9002 53.9057V46.0707C33.9002 45.7811 33.9749 45.5615 34.1244 45.412C34.2739 45.2625 34.4842 45.1877 34.7551 45.1877C35.0355 45.1877 35.2504 45.2625 35.3999 45.412C35.5494 45.5615 35.6241 45.7811 35.6241 46.0707V47.164L35.4699 46.7435C35.6101 46.267 35.8951 45.8838 36.3249 45.5942C36.7641 45.3045 37.2733 45.1597 37.8527 45.1597C38.4507 45.1597 38.9739 45.3045 39.4225 45.5942C39.8803 45.8838 40.2354 46.295 40.4877 46.8276C40.74 47.3509 40.8661 47.9816 40.8661 48.7197C40.8661 49.4486 40.74 50.084 40.4877 50.6259C40.2354 51.1585 39.885 51.5697 39.4365 51.8593C38.988 52.149 38.46 52.2938 37.8527 52.2938C37.2827 52.2938 36.7828 52.1537 36.353 51.8733C35.9231 51.5837 35.6335 51.2099 35.484 50.7521H35.6522V53.9057C35.6522 54.1953 35.5727 54.4149 35.4139 54.5644C35.2644 54.7139 35.0495 54.7887 34.7692 54.7887ZM37.3621 50.9623C37.7078 50.9623 38.0115 50.8782 38.2731 50.71C38.5348 50.5418 38.7357 50.2942 38.8758 49.9672C39.0253 49.6308 39.1001 49.215 39.1001 48.7197C39.1001 47.9722 38.9412 47.4163 38.6235 47.0518C38.3058 46.6781 37.8854 46.4912 37.3621 46.4912C37.0164 46.4912 36.7127 46.5753 36.4511 46.7435C36.1894 46.9023 35.9839 47.15 35.8344 47.4863C35.6942 47.8134 35.6241 48.2245 35.6241 48.7197C35.6241 49.4579 35.783 50.0186 36.1007 50.4017C36.4184 50.7754 36.8388 50.9623 37.3621 50.9623ZM44.6449 52.2938C43.8694 52.2938 43.2854 52.0742 42.8929 51.6351C42.5005 51.1866 42.3043 50.5325 42.3043 49.6728V43.0433C42.3043 42.7536 42.379 42.534 42.5285 42.3845C42.678 42.235 42.8929 42.1603 43.1733 42.1603C43.4536 42.1603 43.6685 42.235 43.818 42.3845C43.9768 42.534 44.0563 42.7536 44.0563 43.0433V49.5887C44.0563 50.0186 44.145 50.3363 44.3226 50.5418C44.5094 50.7474 44.7711 50.8502 45.1075 50.8502C45.1822 50.8502 45.2523 50.8502 45.3177 50.8502C45.3831 50.8408 45.4485 50.8315 45.5139 50.8221C45.6447 50.8035 45.7335 50.8408 45.7802 50.9343C45.8269 51.0184 45.8503 51.1959 45.8503 51.4669C45.8503 51.7005 45.8036 51.8827 45.7101 52.0135C45.6167 52.1443 45.4625 52.2237 45.2476 52.2518C45.1542 52.2611 45.0561 52.2705 44.9533 52.2798C44.8505 52.2891 44.7477 52.2938 44.6449 52.2938ZM49.0366 52.2938C48.5414 52.2938 48.0976 52.2004 47.7051 52.0135C47.322 51.8173 47.0183 51.5556 46.7941 51.2286C46.5792 50.9016 46.4717 50.5325 46.4717 50.1213C46.4717 49.6168 46.6025 49.2196 46.8642 48.93C47.1258 48.631 47.5509 48.4161 48.1396 48.2853C48.7283 48.1544 49.5179 48.089 50.5083 48.089H51.2091V49.0982H50.5223C49.943 49.0982 49.4805 49.1262 49.1348 49.1823C48.789 49.2383 48.5414 49.3364 48.3919 49.4766C48.2517 49.6074 48.1817 49.7943 48.1817 50.0372C48.1817 50.3456 48.2891 50.5979 48.504 50.7941C48.7189 50.9903 49.018 51.0884 49.4011 51.0884C49.7094 51.0884 49.9804 51.0184 50.214 50.8782C50.4569 50.7287 50.6485 50.5278 50.7886 50.2755C50.9288 50.0232 50.9989 49.7336 50.9989 49.4065V47.7947C50.9989 47.3275 50.8961 46.9911 50.6905 46.7855C50.485 46.58 50.1392 46.4772 49.6533 46.4772C49.3824 46.4772 49.088 46.5099 48.7703 46.5753C48.462 46.6407 48.1349 46.7528 47.7892 46.9117C47.6117 46.9958 47.4528 47.0191 47.3127 46.9818C47.1819 46.9444 47.0791 46.8696 47.0043 46.7575C46.9296 46.636 46.8922 46.5052 46.8922 46.3651C46.8922 46.2249 46.9296 46.0894 47.0043 45.9586C47.0791 45.8184 47.2052 45.7157 47.3828 45.6502C47.8126 45.4727 48.2237 45.3466 48.6162 45.2718C49.018 45.1971 49.3824 45.1597 49.7094 45.1597C50.3822 45.1597 50.9335 45.2625 51.3633 45.468C51.8025 45.6736 52.1295 45.9866 52.3444 46.4071C52.5593 46.8182 52.6668 47.3509 52.6668 48.0049V51.3688C52.6668 51.6584 52.5967 51.8827 52.4565 52.0415C52.3164 52.191 52.1155 52.2658 51.8539 52.2658C51.5922 52.2658 51.3867 52.191 51.2371 52.0415C51.097 51.8827 51.0269 51.6584 51.0269 51.3688V50.696H51.139C51.0736 51.023 50.9428 51.308 50.7466 51.551C50.5597 51.7846 50.3214 51.9668 50.0318 52.0976C49.7421 52.2284 49.4104 52.2938 49.0366 52.2938ZM57.6127 52.2938C56.8932 52.2938 56.2671 52.149 55.7345 51.8593C55.2019 51.5603 54.7908 51.1398 54.5011 50.5979C54.2115 50.0559 54.0666 49.4205 54.0666 48.6917C54.0666 48.1404 54.146 47.6499 54.3049 47.22C54.4731 46.7809 54.7114 46.4118 55.0197 46.1128C55.3281 45.8044 55.7018 45.5708 56.141 45.412C56.5802 45.2438 57.0707 45.1597 57.6127 45.1597C57.921 45.1597 58.2527 45.2017 58.6078 45.2858C58.9722 45.3699 59.3133 45.5101 59.631 45.7063C59.7805 45.7998 59.8786 45.9119 59.9253 46.0427C59.972 46.1735 59.9814 46.309 59.9533 46.4492C59.9253 46.58 59.8646 46.6968 59.7711 46.7996C59.687 46.893 59.5796 46.9537 59.4488 46.9818C59.3179 47.0005 59.1731 46.9677 59.0143 46.8837C58.8087 46.7622 58.5985 46.6734 58.3835 46.6174C58.1686 46.5519 57.9631 46.5192 57.7668 46.5192C57.4585 46.5192 57.1875 46.5706 56.9539 46.6734C56.7203 46.7669 56.5194 46.907 56.3512 47.0939C56.1924 47.2714 56.0709 47.4957 55.9868 47.7667C55.9027 48.0376 55.8607 48.3507 55.8607 48.7057C55.8607 49.3972 56.0242 49.9438 56.3512 50.3456C56.6876 50.738 57.1595 50.9343 57.7668 50.9343C57.9631 50.9343 58.164 50.9062 58.3695 50.8502C58.5844 50.7941 58.7993 50.7053 59.0143 50.5839C59.1731 50.4998 59.3133 50.4717 59.4347 50.4998C59.5656 50.5278 59.673 50.5932 59.7571 50.696C59.8412 50.7894 59.8926 50.9062 59.9113 51.0464C59.93 51.1772 59.9113 51.308 59.8552 51.4388C59.8085 51.5697 59.7151 51.6771 59.5749 51.7612C59.2665 51.9481 58.9395 52.0836 58.5938 52.1677C58.2481 52.2518 57.921 52.2938 57.6127 52.2938ZM64.2971 52.2938C63.5215 52.2938 62.8534 52.149 62.2928 51.8593C61.7322 51.5697 61.2977 51.1585 60.9893 50.6259C60.6903 50.0933 60.5408 49.4626 60.5408 48.7338C60.5408 48.0236 60.6856 47.4022 60.9753 46.8696C61.2743 46.337 61.6808 45.9212 62.1947 45.6222C62.7179 45.3139 63.3113 45.1597 63.9747 45.1597C64.4606 45.1597 64.8951 45.2391 65.2782 45.398C65.6706 45.5568 66.0024 45.7857 66.2733 46.0847C66.5536 46.3838 66.7639 46.7482 66.904 47.178C67.0535 47.5985 67.1283 48.075 67.1283 48.6076C67.1283 48.7758 67.0676 48.9066 66.9461 49.0001C66.834 49.0842 66.6704 49.1262 66.4555 49.1262H61.9564V48.1171H65.8949L65.6706 48.3273C65.6706 47.8975 65.6052 47.5377 65.4744 47.2481C65.3529 46.9584 65.1707 46.7388 64.9278 46.5893C64.6942 46.4305 64.3999 46.351 64.0448 46.351C63.6523 46.351 63.316 46.4445 63.0356 46.6314C62.7647 46.8089 62.5544 47.0659 62.4049 47.4022C62.2648 47.7293 62.1947 48.1217 62.1947 48.5796V48.6777C62.1947 49.4439 62.3722 50.0186 62.7273 50.4017C63.0917 50.7754 63.6243 50.9623 64.3251 50.9623C64.5681 50.9623 64.839 50.9343 65.138 50.8782C65.4464 50.8128 65.736 50.7053 66.007 50.5558C66.2032 50.4437 66.3761 50.397 66.5256 50.4157C66.6751 50.425 66.7919 50.4764 66.876 50.5699C66.9695 50.6633 67.0255 50.7801 67.0442 50.9203C67.0629 51.0511 67.0349 51.1866 66.9601 51.3267C66.8947 51.4669 66.7779 51.5883 66.6097 51.6911C66.2827 51.8967 65.9042 52.0509 65.4744 52.1537C65.0539 52.2471 64.6615 52.2938 64.2971 52.2938ZM70.5934 49.2944C70.4159 49.2944 70.2757 49.2383 70.1729 49.1262C70.0795 49.0047 70.0328 48.8459 70.0328 48.6497C70.0328 48.36 70.0655 48.089 70.1309 47.8367C70.2056 47.5751 70.3224 47.3135 70.4813 47.0518C70.6401 46.7902 70.8504 46.5146 71.112 46.2249C71.3082 46.0006 71.4624 45.8044 71.5745 45.6362C71.696 45.4587 71.7801 45.2905 71.8268 45.1317C71.8829 44.9728 71.9109 44.8093 71.9109 44.6411C71.9109 44.3327 71.7988 44.0898 71.5745 43.9123C71.3503 43.7347 71.0326 43.646 70.6215 43.646C70.2477 43.646 69.9066 43.6974 69.5983 43.8001C69.2993 43.8936 68.9956 44.0291 68.6872 44.2066C68.4817 44.3281 68.2948 44.3841 68.1266 44.3748C67.9678 44.3561 67.8369 44.2954 67.7342 44.1926C67.6314 44.0898 67.566 43.9637 67.5379 43.8142C67.5099 43.6647 67.5333 43.5105 67.608 43.3516C67.6828 43.1928 67.8183 43.0479 68.0145 42.9171C68.3976 42.6648 68.8368 42.4733 69.332 42.3425C69.8272 42.2023 70.2944 42.1322 70.7336 42.1322C71.3223 42.1322 71.8362 42.2304 72.2753 42.4266C72.7238 42.6228 73.0696 42.8938 73.3125 43.2395C73.5648 43.5852 73.6909 43.9917 73.6909 44.4589C73.6909 44.7486 73.6489 45.0242 73.5648 45.2858C73.4807 45.5381 73.3452 45.7951 73.1583 46.0567C72.9715 46.309 72.7145 46.5846 72.3875 46.8837C72.0978 47.1453 71.8642 47.3836 71.6867 47.5985C71.5185 47.8134 71.3923 48.0189 71.3082 48.2152C71.2335 48.4114 71.1821 48.6216 71.1541 48.8459C71.1447 48.9767 71.0887 49.0842 70.9859 49.1683C70.8924 49.2524 70.7616 49.2944 70.5934 49.2944ZM70.5654 52.2237C70.2477 52.2237 69.9907 52.1256 69.7945 51.9294C69.6076 51.7332 69.5142 51.4809 69.5142 51.1725C69.5142 50.8735 69.6076 50.6306 69.7945 50.4437C69.9907 50.2475 70.2477 50.1494 70.5654 50.1494C70.8924 50.1494 71.1447 50.2475 71.3223 50.4437C71.5091 50.6306 71.6026 50.8735 71.6026 51.1725C71.6026 51.4809 71.5091 51.7332 71.3223 51.9294C71.1447 52.1256 70.8924 52.2237 70.5654 52.2237Z" fill="#CCB2FF"/>
</svg>
