<svg width="213" height="139" viewBox="0 0 213 139" fill="none" xmlns="http://www.w3.org/2000/svg">
<path d="M23.2393 65.8852C21.4968 66.3885 19.9285 66.4824 18.5342 66.1668C17.1554 65.8468 15.9772 65.1513 14.9996 64.0805C14.022 63.0097 13.2815 61.6031 12.7782 59.8607C12.404 58.5654 12.2373 57.3523 12.2781 56.2212C12.3343 55.0856 12.5915 54.0674 13.0496 53.1666C13.5187 52.2458 14.1756 51.4547 15.0202 50.793C15.8759 50.1115 16.9127 49.5947 18.1309 49.2428C19.1023 48.9622 20.083 48.8293 21.0729 48.844C22.0584 48.8433 22.9905 49.0335 23.869 49.4146C24.0941 49.4999 24.2543 49.6207 24.3496 49.7769C24.4449 49.9332 24.4861 50.105 24.4735 50.2924C24.4762 50.4754 24.4337 50.6464 24.346 50.8054C24.2692 50.9445 24.1406 51.0485 23.96 51.1174C23.7948 51.1818 23.6019 51.1791 23.3812 51.1092C22.6065 50.7984 21.8333 50.6375 21.0616 50.6265C20.2855 50.6001 19.4657 50.7116 18.6022 50.9611C17.3686 51.3174 16.3958 51.8825 15.6838 52.6562C14.9872 53.4254 14.5578 54.3681 14.3957 55.4841C14.2491 56.5957 14.3806 57.8608 14.7904 59.2794C15.414 61.4381 16.3918 62.9433 17.7237 63.7948C19.071 64.6418 20.7624 64.7714 22.7978 64.1834C23.5379 63.9696 24.2426 63.6908 24.9118 63.3472C25.5765 62.9881 26.1872 62.5861 26.7436 62.1414L26.6413 63.3487L24.9776 57.5895L21.6701 58.545C21.3926 58.6251 21.1644 58.6159 20.9855 58.5172C20.8066 58.4185 20.6838 58.2535 20.617 58.0222C20.5457 57.7755 20.5616 57.5704 20.6648 57.407C20.7679 57.2435 20.9583 57.1217 21.2358 57.0416L25.376 55.8455C25.6381 55.7698 25.8586 55.7813 26.0375 55.88C26.2163 55.9787 26.3436 56.1591 26.4194 56.4212L28.1633 62.458C28.2301 62.6893 28.2472 62.8932 28.2147 63.0696C28.1821 63.2461 28.0844 63.3996 27.9217 63.5302C27.3498 63.9794 26.6357 64.4279 25.7794 64.8757C24.934 65.3037 24.0873 65.6402 23.2393 65.8852ZM33.2545 62.9419C32.9461 63.031 32.6826 63.0152 32.464 62.8946C32.2608 62.7695 32.1146 62.5528 32.0255 62.2444L29.2393 52.5994C29.1502 52.2911 29.1605 52.0375 29.2701 51.8387C29.3753 51.6246 29.5744 51.4752 29.8674 51.3906C30.1604 51.3059 30.4085 51.3261 30.6116 51.4512C30.8258 51.5564 30.9774 51.7632 31.0665 52.0716L31.6077 53.9451L31.3764 54.0119C31.3603 53.0309 31.628 52.1934 32.1793 51.4995C32.7306 50.8057 33.5107 50.2963 34.5195 49.9715C34.7463 49.8892 34.947 49.8898 35.1214 49.973C35.2913 50.0409 35.4241 50.2113 35.5197 50.4844C35.6108 50.7421 35.6093 50.9681 35.5151 51.1624C35.4208 51.3567 35.2317 51.5116 34.9476 51.627L34.5909 51.7802C33.5691 52.1756 32.8576 52.7487 32.4563 53.4995C32.066 54.2303 32.0157 55.0969 32.3052 56.0992L33.9221 61.6965C34.0112 62.0049 33.9955 62.2684 33.8748 62.487C33.7697 62.7012 33.5629 62.8528 33.2545 62.9419ZM45.5389 59.4433C44.3516 59.7863 43.2593 59.8512 42.2622 59.6381C41.276 59.405 40.4192 58.9258 39.6918 58.2004C38.9797 57.4706 38.45 56.5043 38.1026 55.3015C37.764 54.1296 37.7013 53.0451 37.9145 52.048C38.1232 51.0355 38.5571 50.1667 39.2164 49.4416C39.8911 48.7121 40.7604 48.1937 41.8244 47.8863C42.5799 47.668 43.2963 47.6031 43.9734 47.6915C44.646 47.7645 45.2595 47.9799 45.8139 48.3376C46.3838 48.6909 46.8746 49.1756 47.2865 49.7917C47.7138 50.4033 48.0499 51.1332 48.2949 51.9813C48.3662 52.228 48.3502 52.4331 48.2471 52.5965C48.1395 52.7445 47.9546 52.8564 47.6925 52.9321L39.6435 55.2573L39.2894 54.0315L46.8989 51.8332L46.6157 52.2408C46.3752 51.4082 46.0492 50.7422 45.6376 50.243C45.2216 49.7283 44.7301 49.3858 44.163 49.2155C43.6113 49.0407 42.9808 49.0558 42.2715 49.2607C41.4851 49.4879 40.8678 49.8667 40.4196 50.3971C39.9824 50.9077 39.7186 51.5268 39.6281 52.2546C39.5332 52.967 39.6082 53.7473 39.8532 54.5953L39.8933 54.7341C40.3031 56.1527 40.9541 57.1341 41.8464 57.6782C42.7541 58.2179 43.8402 58.3051 45.1046 57.9399C45.6288 57.7884 46.1253 57.5698 46.5941 57.284C47.0783 56.9938 47.5203 56.6155 47.9202 56.1492C48.096 55.948 48.2709 55.8307 48.445 55.7971C48.63 55.7436 48.7921 55.7553 48.9312 55.832C49.0659 55.8934 49.1709 55.9967 49.2463 56.142C49.3326 56.2674 49.3617 56.426 49.3336 56.6179C49.321 56.8054 49.2322 56.9897 49.0674 57.171C48.6655 57.688 48.1465 58.147 47.5105 58.5479C46.8745 58.9488 46.2173 59.2473 45.5389 59.4433ZM56.3224 56.3281C55.5514 56.5509 54.8152 56.6048 54.1138 56.49C53.4233 56.3554 52.8251 56.0771 52.319 55.6553C51.8129 55.2335 51.4663 54.6988 51.2792 54.0511C51.0387 53.2185 51.0575 52.503 51.3357 51.9047C51.6294 51.302 52.233 50.7601 53.1465 50.279C54.0755 49.7935 55.388 49.3057 57.0842 48.8157L58.125 48.5151L58.4791 49.7409L57.4614 50.0349C56.2124 50.3957 55.2434 50.7425 54.5543 51.0752C53.8762 51.388 53.4308 51.7255 53.218 52.0877C53.0206 52.4455 52.9954 52.8788 53.1424 53.3876C53.325 54.0198 53.6901 54.474 54.2377 54.7502C54.8007 55.0219 55.4599 55.0486 56.2155 54.8304C56.8323 54.6522 57.3296 54.3498 57.7076 53.9232C58.101 53.4921 58.3552 52.9843 58.4704 52.3998C58.6009 51.8107 58.5704 51.1847 58.3789 50.5217L57.6172 47.8849C57.341 46.9289 56.9501 46.2984 56.4443 45.9934C55.9341 45.6731 55.2395 45.6398 54.3606 45.8937C53.8209 46.0496 53.3013 46.2749 52.8017 46.5696C52.3021 46.8643 51.7961 47.2527 51.2839 47.7348C51.0992 47.9051 50.9253 47.9971 50.7622 48.0108C50.5946 48.0091 50.4468 47.9599 50.3186 47.8633C50.1905 47.7666 50.0964 47.6435 50.0364 47.4937C49.972 47.3285 49.9561 47.1577 49.9886 46.9813C50.0366 46.8003 50.1397 46.6369 50.2981 46.4909C50.8785 45.9557 51.478 45.5152 52.0965 45.1695C52.715 44.8238 53.3249 44.564 53.9263 44.3903C54.8977 44.1097 55.7463 44.0399 56.4721 44.1811C57.1934 44.3069 57.8017 44.649 58.2972 45.2076C58.7882 45.7507 59.1785 46.5234 59.4681 47.5257L61.2788 53.7937C61.3679 54.1021 61.3598 54.3634 61.2546 54.5775C61.1648 54.7872 60.9812 54.9322 60.7036 55.0124C60.4106 55.097 60.1626 55.0768 59.9594 54.9517C59.7562 54.8266 59.61 54.6099 59.5209 54.3015L58.9998 52.4974L59.2079 52.4373C59.2538 53.0589 59.1596 53.629 58.9252 54.1478C58.7063 54.6622 58.3758 55.1085 57.9337 55.4868C57.4917 55.865 56.9546 56.1455 56.3224 56.3281ZM69.5587 52.5044C68.6798 52.7583 67.8951 52.8179 67.2047 52.6833C66.5252 52.5287 65.9521 52.1931 65.4854 51.6764C65.0142 51.1442 64.6517 50.4387 64.3978 49.5598L62.694 43.6618L61.1443 44.1094C60.8822 44.1852 60.6639 44.1814 60.4895 44.0981C60.3107 43.9994 60.1878 43.8344 60.121 43.6032C60.0542 43.3719 60.0723 43.1745 60.1755 43.011C60.2786 42.8476 60.4613 42.728 60.7234 42.6523L62.2731 42.2046L61.5047 39.5447C61.4156 39.2363 61.4336 38.9806 61.5587 38.7774C61.6793 38.5587 61.8861 38.4071 62.179 38.3225C62.472 38.2379 62.7201 38.2581 62.9233 38.3831C63.1374 38.4883 63.2891 38.6951 63.3782 39.0035L64.1465 41.6634L67.0608 40.8215C67.323 40.7458 67.5413 40.7496 67.7157 40.8328C67.8901 40.9161 68.0107 41.0734 68.0775 41.3047C68.1443 41.536 68.1284 41.7411 68.0297 41.9199C67.9266 42.0834 67.7439 42.2029 67.4818 42.2787L64.5675 43.1206L66.2178 48.8335C66.4718 49.7124 66.8506 50.3297 67.3543 50.6854C67.8535 51.0257 68.5195 51.0755 69.3521 50.835C69.6451 50.7504 69.8829 50.6483 70.0655 50.5287C70.2636 50.4046 70.432 50.3226 70.5708 50.2825C70.7051 50.227 70.8341 50.2398 70.9578 50.321C71.0815 50.4022 71.1812 50.5739 71.2569 50.836C71.3104 51.0211 71.3208 51.2018 71.2883 51.3783C71.2712 51.5503 71.1867 51.6917 71.0349 51.8023C70.8677 51.9175 70.6366 52.0427 70.3415 52.178C70.0664 52.3244 69.8054 52.4332 69.5587 52.5044ZM83.608 48.4459C82.7291 48.6998 81.9444 48.7594 81.254 48.6247C80.5745 48.4702 80.0014 48.1345 79.5347 47.6178C79.0635 47.0856 78.701 46.3801 78.4471 45.5012L76.7433 39.6032L75.1936 40.0509C74.9315 40.1266 74.7132 40.1228 74.5388 40.0396C74.3599 39.9409 74.2371 39.7759 74.1703 39.5446C74.1035 39.3133 74.1216 39.1159 74.2248 38.9525C74.3279 38.789 74.5106 38.6695 74.7727 38.5937L76.3224 38.1461L75.554 35.4862C75.4649 35.1778 75.4829 34.922 75.6079 34.7188C75.7286 34.5002 75.9354 34.3486 76.2283 34.2639C76.5213 34.1793 76.7694 34.1995 76.9726 34.3246C77.1867 34.4298 77.3384 34.6366 77.4275 34.945L78.1958 37.6048L81.1101 36.763C81.3723 36.6872 81.5905 36.691 81.765 36.7743C81.9394 36.8575 82.06 37.0148 82.1268 37.2461C82.1936 37.4774 82.1777 37.6825 82.079 37.8614C81.9758 38.0248 81.7932 38.1444 81.5311 38.2201L78.6168 39.062L80.2671 44.775C80.521 45.6539 80.8998 46.2712 81.4035 46.6269C81.9028 46.9671 82.5687 47.017 83.4014 46.7764C83.6944 46.6918 83.9322 46.5897 84.1148 46.4701C84.3129 46.3461 84.4813 46.264 84.6201 46.2239C84.7544 46.1684 84.8834 46.1813 85.0071 46.2625C85.1308 46.3437 85.2305 46.5153 85.3062 46.7775C85.3597 46.9625 85.3701 47.1433 85.3376 47.3197C85.3204 47.4917 85.236 47.6331 85.0842 47.7438C84.917 47.8589 84.6858 47.9841 84.3908 48.1195C84.1157 48.2658 83.8547 48.3746 83.608 48.4459ZM91.7432 46.0958C90.6484 46.412 89.6311 46.447 88.6912 46.2006C87.7513 45.9542 86.933 45.4639 86.2364 44.7295C85.5508 43.9753 85.0364 43.0046 84.6934 41.8173C84.4351 40.923 84.3268 40.0855 84.3686 39.3049C84.406 38.5089 84.5902 37.7875 84.9212 37.1405C85.2522 36.4936 85.7036 35.9455 86.2755 35.4963C86.8584 35.0272 87.5585 34.6746 88.3757 34.4386C89.4705 34.1223 90.4878 34.0873 91.4277 34.3337C92.3676 34.5801 93.1804 35.0804 93.8661 35.8346C94.5627 36.5689 95.0825 37.5297 95.4255 38.717C95.6838 39.6114 95.7921 40.4488 95.7503 41.2294C95.7085 42.01 95.5243 42.7314 95.1977 43.3938C94.8667 44.0407 94.4098 44.5987 93.8269 45.0678C93.255 45.517 92.5605 45.8597 91.7432 46.0958ZM91.3089 44.5923C92.0028 44.3919 92.5629 44.0463 92.9891 43.5557C93.4154 43.065 93.6738 42.4557 93.7642 41.7279C93.8701 40.9957 93.7917 40.1747 93.5289 39.2649C93.1235 37.8617 92.4978 36.8814 91.6518 36.3239C90.8212 35.7619 89.8739 35.6346 88.81 35.942C88.1007 36.1469 87.5329 36.4947 87.1066 36.9853C86.6913 37.4561 86.4307 38.0577 86.3249 38.7899C86.2299 39.5023 86.3183 40.3288 86.5901 41.2694C86.9909 42.6572 87.6166 43.6375 88.4671 44.2104C89.3131 44.7679 90.2604 44.8952 91.3089 44.5923ZM109.68 40.9143C108.986 41.1148 108.26 41.2326 107.501 41.2679C106.758 41.2988 106.026 41.1929 105.304 40.9503C105.119 40.8869 104.976 40.7947 104.874 40.6737C104.768 40.5374 104.702 40.3976 104.677 40.2543C104.664 40.0912 104.688 39.9423 104.749 39.8077C104.826 39.6686 104.931 39.5712 105.065 39.5157C105.211 39.4403 105.389 39.4222 105.601 39.4613C106.309 39.6576 106.963 39.7527 107.563 39.7465C108.174 39.7205 108.756 39.6273 109.312 39.4669C110.19 39.213 110.807 38.8596 111.16 38.4066C111.514 37.9536 111.611 37.4496 111.45 36.8945C111.326 36.4627 111.081 36.1658 110.717 36.0037C110.348 35.8262 109.828 35.7594 109.155 35.8033L106.917 35.9487C105.888 36.0289 105.063 35.8913 104.442 35.5359C103.837 35.1761 103.421 34.603 103.194 33.8167C102.993 33.1228 102.999 32.4779 103.211 31.882C103.434 31.2663 103.837 30.7238 104.42 30.2547C105.003 29.7857 105.734 29.4242 106.613 29.1703C107.291 28.9743 107.958 28.8819 108.613 28.8932C109.278 28.8847 109.914 29.0019 110.518 29.2448C110.704 29.3082 110.842 29.4103 110.933 29.5512C111.034 29.6721 111.084 29.8164 111.083 29.9839C111.092 30.1316 111.058 30.275 110.982 30.4141C110.9 30.5378 110.785 30.6297 110.635 30.6896C110.485 30.7496 110.31 30.7501 110.109 30.6912C109.558 30.5164 109.023 30.4287 108.505 30.428C107.982 30.4119 107.49 30.4706 107.027 30.6043C106.163 30.8537 105.557 31.2127 105.208 31.6811C104.859 32.1495 104.764 32.6612 104.925 33.2163C105.049 33.6481 105.291 33.9626 105.648 34.16C106.006 34.3574 106.496 34.4331 107.117 34.3872L109.349 34.2186C110.414 34.145 111.262 34.2759 111.893 34.6113C112.536 34.9269 112.973 35.4856 113.204 36.2875C113.498 37.3051 113.324 38.2327 112.68 39.0702C112.037 39.9076 111.036 40.5223 109.68 40.9143ZM122.087 37.33C120.9 37.673 119.808 37.7379 118.811 37.5248C117.824 37.2918 116.968 36.8125 116.24 36.0871C115.528 35.3573 114.998 34.391 114.651 33.1882C114.312 32.0164 114.25 30.9319 114.463 29.9347C114.671 28.9222 115.105 28.0534 115.765 27.3283C116.439 26.5988 117.309 26.0804 118.373 25.773C119.128 25.5548 119.845 25.4898 120.522 25.5782C121.194 25.6512 121.808 25.8666 122.362 26.2243C122.932 26.5776 123.423 27.0623 123.835 27.6784C124.262 28.29 124.598 29.0199 124.843 29.868C124.914 30.1147 124.899 30.3198 124.795 30.4832C124.688 30.6313 124.503 30.7431 124.241 30.8189L116.192 33.1441L115.838 31.9182L123.447 29.7199L123.164 30.1275C122.923 29.2949 122.597 28.6289 122.186 28.1297C121.77 27.615 121.278 27.2725 120.711 27.1022C120.16 26.9274 119.529 26.9425 118.82 27.1474C118.033 27.3746 117.416 27.7534 116.968 28.2838C116.531 28.7944 116.267 29.4136 116.176 30.1414C116.081 30.8537 116.157 31.634 116.401 32.482L116.442 32.6208C116.851 34.0394 117.502 35.0208 118.395 35.5649C119.302 36.1046 120.388 36.1919 121.653 35.8266C122.177 35.6751 122.674 35.4565 123.142 35.1708C123.627 34.8805 124.069 34.5022 124.468 34.0359C124.644 33.8348 124.819 33.7174 124.993 33.6838C125.178 33.6304 125.34 33.642 125.479 33.7188C125.614 33.7801 125.719 33.8834 125.795 34.0287C125.881 34.1541 125.91 34.3128 125.882 34.5047C125.869 34.6921 125.781 34.8764 125.616 35.0577C125.214 35.5748 124.695 36.0337 124.059 36.4347C123.423 36.8356 122.766 37.134 122.087 37.33ZM134.397 33.7739C133.21 34.1169 132.118 34.1818 131.121 33.9686C130.134 33.7356 129.278 33.2564 128.55 32.531C127.838 31.8011 127.308 30.8348 126.961 29.6321C126.622 28.4602 126.56 27.3757 126.773 26.3786C126.982 25.366 127.416 24.4972 128.075 23.7722C128.749 23.0427 129.619 22.5242 130.683 22.2169C131.438 21.9986 132.155 21.9337 132.832 22.0221C133.504 22.0951 134.118 22.3105 134.672 22.6682C135.242 23.0215 135.733 23.5062 136.145 24.1223C136.572 24.7339 136.908 25.4638 137.153 26.3119C137.225 26.5586 137.209 26.7636 137.105 26.9271C136.998 27.0751 136.813 27.187 136.551 27.2627L128.502 29.5879L128.148 28.3621L135.757 26.1638L135.474 26.5714C135.234 25.7387 134.908 25.0728 134.496 24.5735C134.08 24.0589 133.588 23.7164 133.021 23.5461C132.47 23.3713 131.839 23.3864 131.13 23.5913C130.344 23.8185 129.726 24.1973 129.278 24.7277C128.841 25.2382 128.577 25.8574 128.486 26.5852C128.392 27.2976 128.467 28.0778 128.712 28.9259L128.752 29.0647C129.161 30.4833 129.813 31.4647 130.705 32.0088C131.612 32.5485 132.699 32.6357 133.963 32.2705C134.487 32.119 134.984 31.9004 135.452 31.6146C135.937 31.3244 136.379 30.9461 136.779 30.4798C136.954 30.2786 137.129 30.1613 137.303 30.1277C137.488 30.0742 137.65 30.0859 137.79 30.1626C137.924 30.224 138.029 30.3273 138.105 30.4726C138.191 30.598 138.22 30.7566 138.192 30.9485C138.179 31.136 138.091 31.3203 137.926 31.5016C137.524 32.0186 137.005 32.4776 136.369 32.8785C135.733 33.2794 135.076 33.5779 134.397 33.7739ZM151.292 33.3538C151.061 33.4206 150.858 33.4124 150.684 33.3291C150.509 33.2459 150.376 33.1008 150.282 32.8938C150.209 32.6978 150.187 32.4785 150.218 32.2359L150.778 28.1898L151.012 28.9993L143.591 19.9665C143.432 19.7619 143.338 19.555 143.311 19.3456C143.284 19.1362 143.33 18.9476 143.449 18.7797C143.567 18.6118 143.765 18.4878 144.043 18.4076C144.289 18.3363 144.498 18.3346 144.668 18.4025C144.838 18.4703 145.017 18.6274 145.205 18.8738L151.684 27.076L151.06 27.2564L152.213 16.8492C152.256 16.5361 152.332 16.3055 152.439 16.1574C152.547 16.0094 152.732 15.8975 152.994 15.8218C153.24 15.7505 153.443 15.7588 153.602 15.8465C153.777 15.9297 153.901 16.0694 153.974 16.2654C154.058 16.4415 154.087 16.6586 154.062 16.9166L152.096 32.3197C152.053 32.6329 151.97 32.8657 151.847 33.0182C151.739 33.1662 151.554 33.2781 151.292 33.3538ZM164 25.2222C162.905 25.5385 161.888 25.5734 160.948 25.3271C160.008 25.0807 159.19 24.5903 158.493 23.856C157.807 23.1018 157.293 22.1311 156.95 20.9438C156.692 20.0494 156.584 19.212 156.625 18.4314C156.663 17.6354 156.847 16.9139 157.178 16.267C157.509 15.6201 157.96 15.072 158.532 14.6228C159.115 14.1537 159.815 13.8011 160.632 13.565C161.727 13.2488 162.745 13.2138 163.684 13.4602C164.624 13.7066 165.437 14.2069 166.123 14.961C166.819 15.6954 167.339 16.6562 167.682 17.8435C167.941 18.7378 168.049 19.5753 168.007 20.3559C167.965 21.1364 167.781 21.8579 167.454 22.5202C167.123 23.1672 166.667 23.7252 166.084 24.1943C165.512 24.6435 164.817 24.9861 164 25.2222ZM163.566 23.7188C164.26 23.5184 164.82 23.1728 165.246 22.6821C165.672 22.1914 165.93 21.5822 166.021 20.8544C166.127 20.1221 166.048 19.3011 165.786 18.3914C165.38 16.9882 164.755 16.0079 163.909 15.4503C163.078 14.8884 162.131 14.7611 161.067 15.0684C160.357 15.2733 159.79 15.6211 159.363 16.1118C158.948 16.5826 158.687 17.1841 158.582 17.9164C158.487 18.6288 158.575 19.4553 158.847 20.3959C159.248 21.7836 159.873 22.764 160.724 23.3369C161.57 23.8944 162.517 24.0217 163.566 23.7188ZM176.158 21.7099C175.248 21.9728 174.446 22.0291 173.751 21.879C173.067 21.7091 172.475 21.3371 171.975 20.7631C171.491 20.1847 171.106 19.4021 170.821 18.4153L169.03 12.2166C168.937 11.8928 168.945 11.6315 169.055 11.4328C169.18 11.2296 169.389 11.0856 169.682 11.001C169.99 10.9119 170.244 10.9222 170.442 11.0319C170.656 11.1371 170.81 11.3516 170.904 11.6754L172.688 17.8509C172.973 18.8378 173.387 19.52 173.931 19.8976C174.485 20.2554 175.202 20.3073 176.081 20.0534C177.037 19.7772 177.722 19.2284 178.136 18.4071C178.55 17.5857 178.606 16.6508 178.303 15.6023L176.686 10.005C176.593 9.68116 176.601 9.41988 176.71 9.22114C176.835 9.01795 177.052 8.8718 177.361 8.78272C177.654 8.69808 177.899 8.71059 178.098 8.82024C178.312 8.92544 178.466 9.13994 178.56 9.46376L181.346 19.1087C181.533 19.7563 181.326 20.167 180.724 20.3407C180.432 20.4254 180.176 20.4074 179.957 20.2867C179.754 20.1617 179.608 19.9449 179.519 19.6366L178.911 17.5318L179.305 17.7687C179.259 18.7676 178.951 19.6085 178.38 20.2914C177.824 20.9698 177.083 21.4427 176.158 21.7099ZM19.7079 101.362C18.6902 101.656 17.7355 101.648 16.8439 101.338C15.9678 101.023 15.2794 100.461 14.7788 99.6537L14.9597 99.3258L15.5744 101.454C15.6635 101.762 15.6477 102.026 15.5271 102.244C15.4219 102.458 15.2228 102.608 14.9298 102.692C14.6214 102.781 14.3657 102.763 14.1625 102.638C13.9593 102.513 13.8131 102.297 13.724 101.988L9.47453 87.2779C9.38544 86.9696 9.39572 86.716 9.50537 86.5172C9.61057 86.3031 9.81737 86.1515 10.1258 86.0624C10.4187 85.9777 10.6745 85.9957 10.8931 86.1164C11.1073 86.2215 11.2589 86.4283 11.348 86.7367L13.3391 93.6293L13.0616 93.7095C13.0743 92.7702 13.3695 91.9415 13.9472 91.2233C14.5249 90.5051 15.3226 89.999 16.3403 89.705C17.358 89.411 18.306 89.3961 19.1842 89.6603C20.058 89.9091 20.8223 90.4151 21.4771 91.1782C22.1428 91.9214 22.6495 92.8944 22.9969 94.0971C23.3399 95.2844 23.4302 96.3776 23.2677 97.3768C23.1163 98.3561 22.7318 99.1939 22.1143 99.8902C21.5123 100.582 20.7101 101.073 19.7079 101.362ZM18.8804 99.9724C19.5897 99.7675 20.1497 99.422 20.5606 98.9357C20.9868 98.445 21.2452 97.8358 21.3357 97.108C21.4416 96.3757 21.3631 95.5547 21.1003 94.645C20.6949 93.2418 20.0693 92.2615 19.2232 91.7039C18.3926 91.142 17.4454 91.0147 16.3814 91.322C15.6875 91.5225 15.1275 91.868 14.7012 92.3587C14.2705 92.834 14.0022 93.4377 13.8963 94.17C13.8014 94.8824 13.8898 95.7089 14.1615 96.6495C14.5624 98.0372 15.1881 99.0176 16.0385 99.5905C16.8845 100.148 17.8318 100.275 18.8804 99.9724ZM32.1748 97.7608C31.08 98.0771 30.0626 98.112 29.1227 97.8656C28.1828 97.6193 27.3646 97.1289 26.6679 96.3946C25.9823 95.6404 25.468 94.6696 25.125 93.4823C24.8666 92.588 24.7584 91.7505 24.8002 90.97C24.8375 90.174 25.0217 89.4525 25.3527 88.8056C25.6837 88.1587 26.1352 87.6106 26.7071 87.1614C27.2899 86.6923 27.99 86.3397 28.8072 86.1036C29.902 85.7873 30.9194 85.7524 31.8593 85.9988C32.7992 86.2451 33.612 86.7454 34.2976 87.4996C34.9942 88.2339 35.514 89.1948 35.857 90.3821C36.1154 91.2764 36.2236 92.1139 36.1818 92.8944C36.14 93.675 35.9558 94.3965 35.6293 95.0588C35.2983 95.7057 34.8413 96.2638 34.2585 96.7328C33.6866 97.1821 32.992 97.5247 32.1748 97.7608ZM31.7405 96.2574C32.4343 96.0569 32.9944 95.7114 33.4207 95.2207C33.847 94.73 34.1053 94.1208 34.1958 93.393C34.3017 92.6607 34.2232 91.8397 33.9604 90.93C33.5551 89.5268 32.9294 88.5464 32.0834 87.9889C31.2528 87.427 30.3055 87.2996 29.2415 87.607C28.5322 87.8119 27.9645 88.1597 27.5382 88.6504C27.1229 89.1212 26.8623 89.7227 26.7564 90.455C26.6615 91.1674 26.7499 91.9938 27.0216 92.9344C27.4225 94.3222 28.0482 95.3025 28.8986 95.8755C29.7447 96.433 30.6919 96.5603 31.7405 96.2574ZM44.7521 94.1275C43.8732 94.3814 43.0885 94.441 42.398 94.3063C41.7185 94.1518 41.1455 93.8161 40.6788 93.2994C40.2076 92.7672 39.8451 92.0617 39.5912 91.1828L37.8874 85.2848L36.3377 85.7325C36.0756 85.8082 35.8573 85.8044 35.6829 85.7212C35.504 85.6225 35.3812 85.4575 35.3144 85.2262C35.2476 84.9949 35.2657 84.7975 35.3689 84.6341C35.472 84.4706 35.6546 84.3511 35.9168 84.2753L37.4664 83.8277L36.698 81.1678C36.609 80.8594 36.627 80.6036 36.752 80.4004C36.8726 80.1818 37.0794 80.0302 37.3724 79.9455C37.6654 79.8609 37.9135 79.8811 38.1167 80.0062C38.3308 80.1114 38.4824 80.3182 38.5715 80.6266L39.3399 83.2864L42.2542 82.4446C42.5163 82.3688 42.7346 82.3726 42.909 82.4559C43.0834 82.5391 43.2041 82.6964 43.2709 82.9277C43.3377 83.159 43.3218 83.3641 43.2231 83.543C43.1199 83.7064 42.9373 83.826 42.6752 83.9017L39.7609 84.7436L41.4112 90.4566C41.6651 91.3355 42.0439 91.9528 42.5476 92.3085C43.0469 92.6487 43.7128 92.6986 44.5455 92.458C44.8385 92.3734 45.0763 92.2713 45.2589 92.1517C45.457 92.0277 45.6254 91.9456 45.7641 91.9055C45.8985 91.85 46.0275 91.8629 46.1512 91.9441C46.2749 92.0253 46.3746 92.1969 46.4503 92.4591C46.5038 92.6441 46.5142 92.8249 46.4817 93.0013C46.4645 93.1733 46.3801 93.3147 46.2283 93.4254C46.061 93.5405 45.8299 93.6657 45.5349 93.8011C45.2597 93.9474 44.9988 94.0562 44.7521 94.1275ZM49.3754 92.7417C49.0671 92.8308 48.8113 92.8128 48.6081 92.6878C48.4049 92.5627 48.2587 92.346 48.1696 92.0376L43.9201 77.3273C43.831 77.0189 43.8413 76.7653 43.951 76.5666C44.0562 76.3524 44.263 76.2008 44.5714 76.1117C44.8643 76.0271 45.1201 76.0451 45.3387 76.1657C45.5529 76.2709 45.7045 76.4777 45.7936 76.7861L47.7513 83.563L47.4506 83.6499C47.5161 82.662 47.8466 81.8398 48.4421 81.1832C49.0486 80.5068 49.8299 80.0306 50.7859 79.7544C51.6803 79.496 52.4672 79.4441 53.1467 79.5987C53.8416 79.7488 54.4313 80.113 54.9158 80.6914C55.3958 81.2544 55.7806 82.037 56.0702 83.0393L57.8608 89.238C57.9499 89.5464 57.9342 89.8099 57.8136 90.0285C57.7084 90.2426 57.5093 90.392 57.2163 90.4767C56.9079 90.5658 56.6444 90.55 56.4258 90.4294C56.2226 90.3043 56.0765 90.0876 55.9874 89.7792L54.2301 83.6962C53.9272 82.6476 53.4985 81.9445 52.9441 81.5868C52.4007 81.2091 51.6818 81.1495 50.7875 81.4079C49.7543 81.7063 49.0229 82.2684 48.5932 83.0942C48.1745 83.9002 48.1188 84.8351 48.4262 85.8991L50.0431 91.4964C50.2302 92.144 50.0076 92.5591 49.3754 92.7417ZM71.4448 86.3663C71.1827 86.4421 70.9314 86.4395 70.6908 86.3586C70.4503 86.2778 70.2238 86.1009 70.0113 85.8282L63.859 77.4563C63.6908 77.2209 63.5931 76.9986 63.566 76.7892C63.5544 76.5754 63.6101 76.3922 63.7331 76.2397C63.8561 76.0873 64.0333 75.9776 64.2646 75.9108C64.4958 75.844 64.6965 75.8445 64.8664 75.9123C65.0518 75.9757 65.2331 76.1406 65.4102 76.4068L71.321 84.7231L70.7659 84.8835L71.4239 74.6696C71.4516 74.3608 71.527 74.1302 71.65 73.9778C71.784 73.8054 71.9821 73.6814 72.2442 73.6056C72.4909 73.5344 72.7169 73.5359 72.9221 73.6103C73.1274 73.6846 73.3141 73.8395 73.4824 74.0749L79.4163 82.3846L78.8843 82.5382L79.4827 72.2914C79.5104 71.9827 79.588 71.7598 79.7155 71.6227C79.8385 71.4703 80.008 71.3628 80.2238 71.3005C80.4705 71.2292 80.6734 71.2374 80.8324 71.3252C81.0068 71.4084 81.1307 71.5481 81.204 71.7441C81.2773 71.9401 81.3011 72.1671 81.2754 72.4251L80.5352 82.788C80.5119 83.1122 80.4146 83.3826 80.2433 83.5991C80.0829 83.7958 79.8716 83.932 79.6095 84.0077C79.3474 84.0835 79.096 84.0809 78.8555 84C78.6105 83.9037 78.3917 83.7247 78.1991 83.4629L72.0633 75.0612L73.0578 74.7739L72.3705 85.1467C72.3472 85.4708 72.2576 85.7389 72.1017 85.951C71.9414 86.1477 71.7224 86.2862 71.4448 86.3663ZM90.333 80.96C89.5621 81.1828 88.8259 81.2367 88.1244 81.1219C87.434 80.9872 86.8357 80.709 86.3296 80.2872C85.8235 79.8654 85.4769 79.3307 85.2898 78.683C85.0493 77.8504 85.0682 77.1349 85.3464 76.5366C85.6401 75.9339 86.2436 75.392 87.1572 74.9109C88.0861 74.4254 89.3987 73.9376 91.0948 73.4476L92.1356 73.147L92.4898 74.3728L91.4721 74.6668C90.2231 75.0276 89.2541 75.3744 88.565 75.7071C87.8869 76.0199 87.4414 76.3574 87.2286 76.7196C87.0312 77.0774 87.006 77.5107 87.153 78.0195C87.3357 78.6517 87.7008 79.1059 88.2483 79.3821C88.8113 79.6538 89.4706 79.6805 90.2261 79.4623C90.8429 79.2841 91.3403 78.9817 91.7182 78.5551C92.1116 78.124 92.3659 77.6162 92.481 77.0317C92.6116 76.4426 92.5811 75.8166 92.3895 75.1536L91.6278 72.5168C91.3517 71.5608 90.9607 70.9303 90.4549 70.6253C89.9447 70.3049 89.2502 70.2717 88.3712 70.5256C87.8316 70.6815 87.3119 70.9068 86.8123 71.2015C86.3127 71.4962 85.8068 71.8846 85.2945 72.3667C85.1098 72.537 84.9359 72.629 84.7728 72.6427C84.6053 72.641 84.4574 72.5918 84.3292 72.4952C84.2011 72.3985 84.107 72.2753 84.0471 72.1256C83.9827 71.9604 83.9667 71.7896 83.9993 71.6132C84.0473 71.4322 84.1504 71.2688 84.3087 71.1228C84.8892 70.5876 85.4886 70.1471 86.1071 69.8014C86.7256 69.4556 87.3356 69.1959 87.9369 69.0222C88.9084 68.7416 89.757 68.6718 90.4827 68.813C91.204 68.9388 91.8124 69.2809 92.3079 69.8395C92.7989 70.3826 93.1892 71.1553 93.4787 72.1575L95.2894 78.4256C95.3785 78.734 95.3705 78.9953 95.2653 79.2094C95.1755 79.4191 94.9918 79.5641 94.7143 79.6443C94.4213 79.7289 94.1732 79.7087 93.97 79.5836C93.7668 79.4585 93.6207 79.2418 93.5316 78.9334L93.0104 77.1293L93.2186 77.0692C93.2645 77.6908 93.1703 78.2609 92.9359 78.7797C92.7169 79.2941 92.3864 79.7404 91.9444 80.1186C91.5024 80.4969 90.9652 80.7774 90.333 80.96ZM99.9709 78.1257C99.6626 78.2148 99.4068 78.1968 99.2036 78.0717C99.0004 77.9467 98.8542 77.7299 98.7651 77.4215L95.9789 67.7766C95.8898 67.4682 95.9001 67.2146 96.0098 67.0159C96.115 66.8017 96.314 66.6523 96.607 66.5677C96.9 66.4831 97.1481 66.5033 97.3513 66.6284C97.5654 66.7336 97.717 66.9404 97.8061 67.2487L98.3808 69.2379L98.0461 69.0338C98.1116 68.0459 98.4421 67.2237 99.0376 66.5672C99.6442 65.8908 100.425 65.4145 101.381 65.1383C102.276 64.88 103.063 64.8281 103.742 64.9826C104.437 65.1327 105.027 65.497 105.511 66.0754C105.991 66.6384 106.376 67.421 106.666 68.4233L108.456 74.6219C108.545 74.9303 108.53 75.1938 108.409 75.4125C108.304 75.6266 108.105 75.776 107.812 75.8606C107.503 75.9497 107.24 75.934 107.021 75.8133C106.818 75.6883 106.672 75.4715 106.583 75.1632L104.826 69.0801C104.523 68.0316 104.094 67.3285 103.54 66.9707C102.996 66.5931 102.277 66.5335 101.383 66.7918C100.35 67.0903 99.6184 67.6524 99.1887 68.4782C98.77 69.2841 98.7143 70.2191 99.0217 71.283L100.639 76.8803C100.826 77.528 100.603 77.9431 99.9709 78.1257ZM116.715 73.3388C115.836 73.5927 115.052 73.6523 114.361 73.5176C113.682 73.3631 113.109 73.0274 112.642 72.5107C112.171 71.9785 111.808 71.273 111.554 70.3941L109.85 64.4961L108.301 64.9438C108.039 65.0195 107.82 65.0157 107.646 64.9325C107.467 64.8338 107.344 64.6688 107.277 64.4375C107.211 64.2062 107.229 64.0088 107.332 63.8454C107.435 63.6819 107.618 63.5623 107.88 63.4866L109.43 63.039L108.661 60.3791C108.572 60.0707 108.59 59.8149 108.715 59.6117C108.836 59.3931 109.043 59.2415 109.335 59.1568C109.628 59.0722 109.877 59.0924 110.08 59.2175C110.294 59.3227 110.446 59.5295 110.535 59.8379L111.303 62.4977L114.217 61.6559C114.479 61.5801 114.698 61.5839 114.872 61.6672C115.047 61.7504 115.167 61.9077 115.234 62.139C115.301 62.3703 115.285 62.5754 115.186 62.7543C115.083 62.9177 114.9 63.0373 114.638 63.113L111.724 63.9549L113.374 69.6679C113.628 70.5468 114.007 71.1641 114.511 71.5197C115.01 71.86 115.676 71.9099 116.509 71.6693C116.802 71.5847 117.039 71.4826 117.222 71.363C117.42 71.239 117.588 71.1569 117.727 71.1168C117.862 71.0613 117.991 71.0742 118.114 71.1554C118.238 71.2366 118.338 71.4082 118.413 71.6704C118.467 71.8554 118.477 72.0362 118.445 72.2126C118.428 72.3846 118.343 72.526 118.191 72.6367C118.024 72.7518 117.793 72.877 117.498 73.0124C117.223 73.1587 116.962 73.2675 116.715 73.3388ZM130.764 69.2802C129.886 69.5341 129.101 69.5937 128.41 69.459C127.731 69.3045 127.158 68.9689 126.691 68.4521C126.22 67.92 125.857 67.2145 125.604 66.3355L123.9 60.4375L122.35 60.8852C122.088 60.9609 121.87 60.9572 121.695 60.8739C121.516 60.7752 121.394 60.6102 121.327 60.3789C121.26 60.1476 121.278 59.9503 121.381 59.7868C121.484 59.6234 121.667 59.5038 121.929 59.4281L123.479 58.9804L122.71 56.3205C122.621 56.0121 122.639 55.7563 122.764 55.5531C122.885 55.3345 123.092 55.1829 123.385 55.0983C123.678 55.0136 123.926 55.0339 124.129 55.1589C124.343 55.2641 124.495 55.4709 124.584 55.7793L125.352 58.4392L128.267 57.5973C128.529 57.5216 128.747 57.5253 128.921 57.6086C129.096 57.6919 129.216 57.8492 129.283 58.0805C129.35 58.3117 129.334 58.5168 129.235 58.6957C129.132 58.8591 128.95 58.9787 128.688 59.0545L125.773 59.8963L127.424 65.6093C127.677 66.4882 128.056 67.1055 128.56 67.4612C129.059 67.8014 129.725 67.8513 130.558 67.6108C130.851 67.5261 131.089 67.424 131.271 67.3044C131.469 67.1804 131.638 67.0983 131.777 67.0582C131.911 67.0027 132.04 67.0156 132.164 67.0968C132.287 67.178 132.387 67.3497 132.463 67.6118C132.516 67.7969 132.527 67.9776 132.494 68.1541C132.477 68.3261 132.392 68.4674 132.241 68.5781C132.073 68.6932 131.842 68.8185 131.547 68.9538C131.272 69.1001 131.011 69.2089 130.764 69.2802ZM138.9 66.9301C137.805 67.2464 136.788 67.2813 135.848 67.0349C134.908 66.7885 134.089 66.2982 133.393 65.5639C132.707 64.8097 132.193 63.8389 131.85 62.6516C131.592 61.7573 131.483 60.9198 131.525 60.1393C131.562 59.3433 131.747 58.6218 132.078 57.9749C132.409 57.3279 132.86 56.7799 133.432 56.3307C134.015 55.8616 134.715 55.509 135.532 55.2729C136.627 54.9566 137.644 54.9217 138.584 55.1681C139.524 55.4144 140.337 55.9147 141.023 56.6689C141.719 57.4032 142.239 58.364 142.582 59.5514C142.84 60.4457 142.949 61.2831 142.907 62.0637C142.865 62.8443 142.681 63.5657 142.354 64.2281C142.023 64.875 141.566 65.433 140.983 65.9021C140.411 66.3514 139.717 66.694 138.9 66.9301ZM138.465 65.4267C139.159 65.2262 139.719 64.8807 140.146 64.39C140.572 63.8993 140.83 63.2901 140.921 62.5623C141.027 61.83 140.948 61.009 140.685 60.0992C140.28 58.6961 139.654 57.7157 138.808 57.1582C137.978 56.5962 137.03 56.4689 135.966 56.7763C135.257 56.9812 134.689 57.329 134.263 57.8197C133.848 58.2905 133.587 58.892 133.481 59.6243C133.386 60.3366 133.475 61.1631 133.747 62.1037C134.147 63.4915 134.773 64.4718 135.624 65.0448C136.47 65.6023 137.417 65.7296 138.465 65.4267ZM156.915 61.6757C156.653 61.7514 156.402 61.7488 156.161 61.668C155.921 61.5871 155.694 61.4103 155.482 61.1375L149.329 52.7657C149.161 52.5303 149.063 52.3079 149.036 52.0985C149.025 51.8847 149.08 51.7016 149.203 51.5491C149.326 51.3966 149.504 51.2869 149.735 51.2201C149.966 51.1533 150.167 51.1538 150.337 51.2217C150.522 51.2851 150.703 51.4499 150.881 51.7161L156.791 60.0325L156.236 60.1928L156.894 49.9789C156.922 49.6702 156.997 49.4396 157.12 49.2871C157.254 49.1147 157.452 48.9907 157.714 48.915C157.961 48.8437 158.187 48.8452 158.392 48.9196C158.598 48.994 158.784 49.1488 158.953 49.3843L164.887 57.6939L164.355 57.8476L164.953 47.6008C164.981 47.292 165.058 47.0691 165.186 46.9321C165.309 46.7796 165.478 46.6722 165.694 46.6098C165.941 46.5385 166.144 46.5468 166.303 46.6345C166.477 46.7178 166.601 46.8574 166.674 47.0534C166.748 47.2494 166.771 47.4764 166.746 47.7344L166.005 58.0974C165.982 58.4215 165.885 58.6919 165.714 58.9084C165.553 59.1051 165.342 59.2413 165.08 59.3171C164.818 59.3928 164.566 59.3902 164.326 59.3093C164.081 59.2131 163.862 59.034 163.669 58.7722L157.534 50.3706L158.528 50.0833L157.841 60.456C157.818 60.7801 157.728 61.0483 157.572 61.2604C157.412 61.4571 157.193 61.5955 156.915 61.6757ZM177.004 55.9224C175.91 56.2387 174.892 56.2736 173.952 56.0272C173.012 55.7808 172.194 55.2905 171.498 54.5562C170.812 53.802 170.298 52.8312 169.955 51.6439C169.696 50.7496 169.588 49.9121 169.63 49.1316C169.667 48.3356 169.851 47.6141 170.182 46.9672C170.513 46.3202 170.965 45.7722 171.537 45.3229C172.12 44.8539 172.82 44.5013 173.637 44.2652C174.732 43.9489 175.749 43.914 176.689 44.1604C177.629 44.4067 178.442 44.907 179.127 45.6612C179.824 46.3955 180.344 47.3563 180.687 48.5437C180.945 49.438 181.053 50.2754 181.011 51.056C180.97 51.8366 180.785 52.558 180.459 53.2204C180.128 53.8673 179.671 54.4253 179.088 54.8944C178.516 55.3437 177.822 55.6863 177.004 55.9224ZM176.57 54.419C177.264 54.2185 177.824 53.873 178.25 53.3823C178.677 52.8916 178.935 52.2824 179.025 51.5546C179.131 50.8223 179.053 50.0013 178.79 49.0915C178.385 47.6884 177.759 46.708 176.913 46.1505C176.082 45.5885 175.135 45.4612 174.071 45.7686C173.362 45.9735 172.794 46.3213 172.368 46.812C171.953 47.2828 171.692 47.8843 171.586 48.6166C171.491 49.3289 171.58 50.1554 171.851 51.096C172.252 52.4838 172.878 53.4641 173.728 54.0371C174.574 54.5946 175.522 54.7219 176.57 54.419ZM186.119 53.2391C185.811 53.3282 185.547 53.3125 185.329 53.1918C185.126 53.0668 184.98 52.85 184.89 52.5416L182.104 42.8967C182.015 42.5883 182.025 42.3347 182.135 42.136C182.24 41.9218 182.439 41.7724 182.732 41.6878C183.025 41.6032 183.273 41.6234 183.477 41.7485C183.691 41.8537 183.842 42.0605 183.931 42.3689L184.473 44.2423L184.241 44.3091C184.225 43.3281 184.493 42.4907 185.044 41.7968C185.596 41.1029 186.376 40.5936 187.384 40.2687C187.611 40.1865 187.812 40.187 187.986 40.2703C188.156 40.3381 188.289 40.5086 188.385 40.7817C188.476 41.0394 188.474 41.2654 188.38 41.4596C188.286 41.6539 188.097 41.8088 187.813 41.9243L187.456 42.0775C186.434 42.4729 185.723 43.046 185.321 43.7967C184.931 44.5276 184.881 45.3942 185.17 46.3964L186.787 51.9938C186.876 52.3021 186.86 52.5657 186.74 52.7843C186.635 52.9984 186.428 53.15 186.119 53.2391ZM194.386 50.8511C194.077 50.9402 193.822 50.9222 193.618 50.7972C193.415 50.6721 193.269 50.4554 193.18 50.147L188.93 35.4367C188.841 35.1283 188.852 34.8747 188.961 34.676C189.067 34.4618 189.273 34.3102 189.582 34.2211C189.875 34.1365 190.13 34.1545 190.349 34.2751C190.563 34.3803 190.715 34.5871 190.804 34.8955L193.483 44.1704L193.53 44.157L196.961 38.2539C197.119 37.9911 197.26 37.7834 197.383 37.631C197.521 37.474 197.729 37.3555 198.007 37.2753C198.254 37.204 198.466 37.2177 198.645 37.3164C198.82 37.3997 198.928 37.5438 198.971 37.7487C199.024 37.9337 198.989 38.1609 198.867 38.4302L195.208 44.6746L194.914 43.6569L201.885 47.2312C202.164 47.3847 202.332 47.5617 202.39 47.7622C202.447 47.9626 202.419 48.1545 202.305 48.3378C202.207 48.5167 202.042 48.6395 201.81 48.7063C201.533 48.7865 201.294 48.7971 201.093 48.7382C200.888 48.6638 200.628 48.5467 200.315 48.3866L193.81 45.1284L193.764 45.1418L195.053 49.6058C195.241 50.2534 195.018 50.6685 194.386 50.8511ZM60.2863 124.097C59.4074 124.351 58.6227 124.41 57.9323 124.276C57.2528 124.121 56.6797 123.785 56.213 123.269C55.7419 122.737 55.3793 122.031 55.1254 121.152L53.4216 115.254L51.872 115.702C51.6098 115.778 51.3916 115.774 51.2171 115.691C51.0383 115.592 50.9154 115.427 50.8486 115.196C50.7818 114.964 50.8 114.767 50.9031 114.603C51.0062 114.44 51.1889 114.32 51.451 114.245L53.0007 113.797L52.2323 111.137C52.1432 110.829 52.1612 110.573 52.2863 110.37C52.4069 110.151 52.6137 110 52.9067 109.915C53.1996 109.83 53.4477 109.85 53.6509 109.976C53.8651 110.081 54.0167 110.288 54.1058 110.596L54.8742 113.256L57.7885 112.414C58.0506 112.338 58.2689 112.342 58.4433 112.425C58.6177 112.509 58.7383 112.666 58.8051 112.897C58.8719 113.128 58.856 113.333 58.7573 113.512C58.6542 113.676 58.4715 113.795 58.2094 113.871L55.2951 114.713L56.9455 120.426C57.1994 121.305 57.5782 121.922 58.0819 122.278C58.5811 122.618 59.2471 122.668 60.0797 122.427C60.3727 122.343 60.6105 122.241 60.7931 122.121C60.9912 121.997 61.1596 121.915 61.2984 121.875C61.4327 121.819 61.5617 121.832 61.6854 121.913C61.8091 121.995 61.9088 122.166 61.9846 122.428C62.038 122.613 62.0485 122.794 62.0159 122.971C61.9988 123.143 61.9143 123.284 61.7625 123.395C61.5953 123.51 61.3642 123.635 61.0691 123.77C60.794 123.917 60.5331 124.026 60.2863 124.097ZM64.9097 122.711C64.6013 122.8 64.3455 122.782 64.1423 122.657C63.9391 122.532 63.793 122.315 63.7039 122.007L59.4544 107.297C59.3653 106.988 59.3756 106.735 59.4852 106.536C59.5904 106.322 59.7972 106.17 60.1056 106.081C60.3986 105.996 60.6544 106.014 60.873 106.135C61.0871 106.24 61.2388 106.447 61.3279 106.755L63.2856 113.532L62.9849 113.619C63.0503 112.631 63.3808 111.809 63.9764 111.153C64.5829 110.476 65.3642 110 66.3202 109.724C67.2145 109.465 68.0014 109.413 68.6809 109.568C69.3758 109.718 69.9655 110.082 70.45 110.661C70.9301 111.224 71.3149 112.006 71.6044 113.009L73.3951 119.207C73.4842 119.516 73.4684 119.779 73.3478 119.998C73.2426 120.212 73.0435 120.361 72.7506 120.446C72.4422 120.535 72.1787 120.519 71.96 120.399C71.7568 120.274 71.6107 120.057 71.5216 119.749L69.7644 113.666C69.4615 112.617 69.0328 111.914 68.4784 111.556C67.9349 111.179 67.216 111.119 66.3217 111.377C65.2886 111.676 64.5572 112.238 64.1275 113.064C63.7088 113.87 63.6531 114.804 63.9604 115.868L65.5774 121.466C65.7645 122.113 65.5419 122.528 64.9097 122.711ZM78.0786 118.907C77.7702 118.996 77.5067 118.98 77.2881 118.86C77.0849 118.735 76.9388 118.518 76.8497 118.209L74.0635 108.564C73.9744 108.256 73.9846 108.002 74.0943 107.804C74.1995 107.59 74.3986 107.44 74.6916 107.356C74.9845 107.271 75.2326 107.291 75.4358 107.416C75.65 107.521 75.8016 107.728 75.8907 108.037L76.4319 109.91L76.2006 109.977C76.1845 108.996 76.4521 108.158 77.0035 107.465C77.5548 106.771 78.3349 106.261 79.3436 105.936C79.5705 105.854 79.7711 105.855 79.9455 105.938C80.1155 106.006 80.2483 106.176 80.3439 106.449C80.435 106.707 80.4335 106.933 80.3392 107.127C80.245 107.322 80.0558 107.477 79.7718 107.592L79.4151 107.745C78.3933 108.141 77.6817 108.714 77.2805 109.464C76.8902 110.195 76.8398 111.062 77.1293 112.064L78.7463 117.661C78.8354 117.97 78.8196 118.233 78.699 118.452C78.5938 118.666 78.387 118.818 78.0786 118.907ZM89.9698 115.522C88.875 115.838 87.8577 115.873 86.9178 115.627C85.9779 115.38 85.1596 114.89 84.463 114.156C83.7773 113.401 83.263 112.431 82.92 111.243C82.6617 110.349 82.5534 109.512 82.5952 108.731C82.6326 107.935 82.8168 107.214 83.1478 106.567C83.4788 105.92 83.9302 105.372 84.5021 104.922C85.085 104.453 85.785 104.101 86.6023 103.865C87.6971 103.548 88.7144 103.513 89.6543 103.76C90.5942 104.006 91.407 104.506 92.0927 105.261C92.7893 105.995 93.3091 106.956 93.6521 108.143C93.9104 109.037 94.0187 109.875 93.9769 110.655C93.9351 111.436 93.7509 112.158 93.4243 112.82C93.0933 113.467 92.6364 114.025 92.0535 114.494C91.4816 114.943 90.7871 115.286 89.9698 115.522ZM89.5355 114.018C90.2294 113.818 90.7895 113.472 91.2157 112.982C91.642 112.491 91.9004 111.882 91.9908 111.154C92.0967 110.422 92.0183 109.601 91.7555 108.691C91.3501 107.288 90.7244 106.307 89.8784 105.75C89.0478 105.188 88.1005 105.061 87.0366 105.368C86.3273 105.573 85.7595 105.921 85.3332 106.411C84.9179 106.882 84.6573 107.484 84.5514 108.216C84.4565 108.928 84.5449 109.755 84.8166 110.695C85.2175 112.083 85.8432 113.064 86.6937 113.637C87.5397 114.194 88.487 114.321 89.5355 114.018ZM102.128 112.01C101.218 112.272 100.416 112.329 99.7211 112.179C99.0372 112.009 98.4452 111.637 97.9453 111.063C97.4608 110.484 97.076 109.702 96.7909 108.715L95.0002 102.516C94.9067 102.192 94.9147 101.931 95.0244 101.732C95.1495 101.529 95.3585 101.385 95.6515 101.301C95.9599 101.212 96.2134 101.222 96.4122 101.331C96.6263 101.437 96.7802 101.651 96.8737 101.975L98.6577 108.151C98.9428 109.137 99.3571 109.82 99.9005 110.197C100.455 110.555 101.172 110.607 102.051 110.353C103.007 110.077 103.692 109.528 104.106 108.707C104.52 107.885 104.576 106.95 104.273 105.902L102.656 100.305C102.563 99.9808 102.571 99.7195 102.68 99.5208C102.805 99.3176 103.022 99.1714 103.33 99.0823C103.623 98.9977 103.869 99.0102 104.068 99.1199C104.282 99.2251 104.436 99.4396 104.53 99.7634L107.316 109.408C107.503 110.056 107.296 110.467 106.694 110.64C106.401 110.725 106.146 110.707 105.927 110.586C105.724 110.461 105.578 110.245 105.489 109.936L104.881 107.831L105.275 108.068C105.229 109.067 104.921 109.908 104.35 110.591C103.794 111.269 103.053 111.742 102.128 112.01ZM117.29 112.14C116.473 112.376 115.642 112.508 114.798 112.534C113.974 112.572 113.185 112.474 112.433 112.24C112.217 112.186 112.055 112.09 111.949 111.954C111.858 111.813 111.806 111.661 111.792 111.498C111.783 111.35 111.815 111.199 111.887 111.045C111.964 110.906 112.067 110.801 112.197 110.73C112.342 110.654 112.503 110.633 112.68 110.666C113.478 110.886 114.208 110.984 114.87 110.96C115.531 110.936 116.162 110.837 116.764 110.664C117.858 110.347 118.599 109.816 118.985 109.07C119.386 108.319 119.426 107.388 119.105 106.278L118.35 103.665L118.582 103.598C118.609 104.559 118.32 105.411 117.716 106.153C117.127 106.891 116.332 107.405 115.33 107.695C114.297 107.993 113.335 108.02 112.446 107.776C111.553 107.516 110.775 107.022 110.114 106.295C109.468 105.562 108.985 104.641 108.664 103.531C108.423 102.698 108.321 101.909 108.356 101.164C108.387 100.403 108.549 99.7216 108.843 99.1188C109.147 98.4962 109.57 97.9648 110.111 97.5245C110.663 97.0643 111.325 96.7228 112.096 96.5001C113.113 96.2061 114.068 96.2143 114.96 96.5248C115.847 96.8198 116.525 97.3756 116.995 98.1922L116.844 98.5365L116.223 96.3855C116.133 96.0771 116.144 95.8236 116.253 95.6248C116.374 95.4062 116.581 95.2546 116.874 95.1699C117.182 95.0809 117.438 95.0988 117.641 95.2239C117.84 95.3336 117.984 95.5426 118.073 95.851L120.859 105.496C121.354 107.208 121.294 108.62 120.68 109.733C120.086 110.857 118.956 111.659 117.29 112.14ZM115.236 106.068C115.96 105.859 116.538 105.516 116.969 105.041C117.395 104.55 117.658 103.957 117.757 103.26C117.872 102.558 117.809 101.791 117.569 100.958C117.208 99.7095 116.607 98.8139 115.765 98.2718C114.919 97.7143 113.956 97.5915 112.877 97.9033C112.168 98.1082 111.6 98.456 111.174 98.9467C110.743 99.4219 110.47 100.01 110.355 100.712C110.252 101.393 110.32 102.15 110.56 102.983C110.921 104.232 111.525 105.135 112.371 105.693C113.217 106.25 114.172 106.375 115.236 106.068ZM125.579 105.185C125.271 105.274 125.015 105.256 124.812 105.131C124.609 105.006 124.462 104.789 124.373 104.481L120.124 89.7705C120.035 89.4621 120.045 89.2085 120.155 89.0098C120.26 88.7956 120.467 88.644 120.775 88.5549C121.068 88.4703 121.324 88.4882 121.542 88.6089C121.757 88.7141 121.908 88.9209 121.997 89.2293L123.955 96.0062L123.654 96.093C123.72 95.1051 124.05 94.2829 124.646 93.6264C125.252 92.95 126.034 92.4737 126.99 92.1976C127.884 91.9392 128.671 91.8873 129.35 92.0418C130.045 92.1919 130.635 92.5562 131.119 93.1346C131.6 93.6976 131.984 94.4802 132.274 95.4825L134.065 101.681C134.154 101.99 134.138 102.253 134.017 102.472C133.912 102.686 133.713 102.835 133.42 102.92C133.112 103.009 132.848 102.993 132.629 102.873C132.426 102.747 132.28 102.531 132.191 102.222L130.434 96.1393C130.131 95.0908 129.702 94.3877 129.148 94.0299C128.604 93.6523 127.885 93.5927 126.991 93.851C125.958 94.1495 125.227 94.7116 124.797 95.5374C124.378 96.3433 124.322 97.2783 124.63 98.3422L126.247 103.94C126.434 104.587 126.211 105.002 125.579 105.185ZM148.286 98.6754C147.407 98.9293 146.623 98.9889 145.932 98.8542C145.253 98.6997 144.68 98.364 144.213 97.8473C143.742 97.3151 143.379 96.6096 143.125 95.7307L141.422 89.8327L139.872 90.2804C139.61 90.3561 139.392 90.3523 139.217 90.2691C139.038 90.1704 138.915 90.0054 138.849 89.7741C138.782 89.5428 138.8 89.3454 138.903 89.182C139.006 89.0185 139.189 88.8989 139.451 88.8232L141.001 88.3756L140.232 85.7157C140.143 85.4073 140.161 85.1515 140.286 84.9483C140.407 84.7297 140.614 84.5781 140.907 84.4934C141.2 84.4088 141.448 84.429 141.651 84.5541C141.865 84.6593 142.017 84.8661 142.106 85.1745L142.874 87.8343L145.789 86.9925C146.051 86.9167 146.269 86.9205 146.443 87.0038C146.618 87.087 146.738 87.2443 146.805 87.4756C146.872 87.7069 146.856 87.912 146.757 88.0909C146.654 88.2543 146.472 88.3739 146.209 88.4496L143.295 89.2915L144.946 95.0044C145.199 95.8834 145.578 96.5007 146.082 96.8563C146.581 97.1966 147.247 97.2465 148.08 97.0059C148.373 96.9213 148.611 96.8192 148.793 96.6996C148.991 96.5756 149.16 96.4935 149.298 96.4534C149.433 96.3979 149.562 96.4107 149.685 96.492C149.809 96.5732 149.909 96.7448 149.985 97.007C150.038 97.192 150.049 97.3728 150.016 97.5492C149.999 97.7212 149.914 97.8626 149.763 97.9733C149.595 98.0884 149.364 98.2136 149.069 98.349C148.794 98.4953 148.533 98.6041 148.286 98.6754ZM152.91 97.2896C152.601 97.3787 152.346 97.3607 152.142 97.2357C151.939 97.1106 151.793 96.8939 151.704 96.5855L147.454 81.8752C147.365 81.5668 147.376 81.3132 147.485 81.1145C147.59 80.9003 147.797 80.7487 148.106 80.6596C148.399 80.575 148.654 80.593 148.873 80.7136C149.087 80.8188 149.239 81.0256 149.328 81.334L151.286 88.1109L150.985 88.1977C151.05 87.2099 151.381 86.3877 151.976 85.7311C152.583 85.0547 153.364 84.5785 154.32 84.3023C155.215 84.0439 156.001 83.992 156.681 84.1466C157.376 84.2967 157.966 84.6609 158.45 85.2393C158.93 85.8023 159.315 86.5849 159.604 87.5872L161.395 93.7859C161.484 94.0943 161.468 94.3578 161.348 94.5764C161.243 94.7905 161.044 94.9399 160.751 95.0246C160.442 95.1137 160.179 95.0979 159.96 94.9773C159.757 94.8522 159.611 94.6355 159.522 94.3271L157.764 88.2441C157.462 87.1955 157.033 86.4924 156.478 86.1347C155.935 85.757 155.216 85.6974 154.322 85.9558C153.289 86.2542 152.557 86.8163 152.128 87.6421C151.709 88.4481 151.653 89.383 151.96 90.447L153.577 96.0443C153.765 96.6919 153.542 97.107 152.91 97.2896ZM166.042 93.4458C165.734 93.5349 165.478 93.5169 165.275 93.3918C165.067 93.2514 164.917 93.0192 164.823 92.6954L162.09 83.2355C161.997 82.9117 162.003 82.6427 162.108 82.4285C162.213 82.2144 162.42 82.0627 162.728 81.9737C163.021 81.889 163.277 81.907 163.495 82.0276C163.714 82.1482 163.87 82.3705 163.964 82.6943L166.696 92.1542C166.79 92.478 166.779 92.7569 166.663 92.991C166.557 93.2051 166.351 93.3567 166.042 93.4458ZM161.98 79.3832C161.594 79.4945 161.265 79.4812 160.991 79.3431C160.713 79.1895 160.522 78.9355 160.42 78.5808C160.313 78.2107 160.341 77.902 160.503 77.6546C160.661 77.3918 160.933 77.2047 161.318 77.0934C161.719 76.9775 162.049 76.9909 162.307 77.1335C162.577 77.2561 162.765 77.5025 162.872 77.8726C162.974 78.2272 162.948 78.5437 162.795 78.8219C162.652 79.0803 162.381 79.2673 161.98 79.3832ZM174.313 91.1569C173.619 91.3573 172.893 91.4752 172.134 91.5105C171.392 91.5413 170.659 91.4354 169.938 91.1928C169.752 91.1294 169.609 91.0372 169.507 90.9163C169.401 90.7799 169.335 90.6401 169.311 90.4969C169.297 90.3338 169.321 90.1849 169.382 90.0502C169.459 89.9111 169.564 89.8138 169.699 89.7583C169.844 89.6829 170.022 89.6647 170.234 89.7038C170.943 89.9001 171.596 89.9952 172.196 89.9891C172.807 89.963 173.39 89.8698 173.945 89.7095C174.824 89.4556 175.44 89.1021 175.794 88.6491C176.147 88.1962 176.244 87.6921 176.083 87.137C175.959 86.7053 175.714 86.4083 175.35 86.2463C174.981 86.0688 174.461 86.0019 173.788 86.0458L171.55 86.1912C170.521 86.2714 169.696 86.1338 169.075 85.7785C168.47 85.4187 168.054 84.8456 167.827 84.0592C167.626 83.3653 167.632 82.7204 167.844 82.1246C168.067 81.5088 168.47 80.9664 169.053 80.4973C169.636 80.0282 170.367 79.6667 171.246 79.4128C171.924 79.2168 172.591 79.1245 173.246 79.1358C173.912 79.1272 174.547 79.2444 175.152 79.4874C175.337 79.5508 175.475 79.6529 175.566 79.7937C175.668 79.9147 175.718 80.0589 175.716 80.2265C175.725 80.3742 175.691 80.5176 175.615 80.6567C175.534 80.7804 175.418 80.8722 175.268 80.9322C175.119 80.9921 174.943 80.9926 174.742 80.9337C174.191 80.7589 173.656 80.6712 173.138 80.6705C172.615 80.6544 172.123 80.7132 171.66 80.8468C170.797 81.0963 170.19 81.4552 169.841 81.9236C169.492 82.392 169.398 82.9038 169.558 83.4589C169.683 83.8906 169.924 84.2052 170.282 84.4026C170.639 84.5999 171.129 84.6757 171.751 84.6297L173.982 84.4612C175.047 84.3875 175.895 84.5184 176.527 84.8539C177.169 85.1695 177.606 85.7282 177.838 86.53C178.132 87.5477 177.957 88.4753 177.313 89.3127C176.67 90.1502 175.67 90.7649 174.313 91.1569Z" fill="#9CDAD5"/>
</svg>
