<svg width="38" height="22" viewBox="0 0 38 22" fill="none" xmlns="http://www.w3.org/2000/svg">
<path d="M7.21394 7.3755C6.8943 7.3755 6.58147 7.3483 6.27544 7.2939C5.96941 7.23949 5.68378 7.16128 5.41855 7.05927C5.16012 6.95726 4.9255 6.82805 4.71468 6.67163C4.63307 6.61043 4.57526 6.54242 4.54126 6.46761C4.51406 6.386 4.50726 6.30779 4.52086 6.23299C4.54126 6.15138 4.57526 6.08337 4.62287 6.02896C4.67727 5.97456 4.74188 5.94396 4.81669 5.93716C4.8915 5.93035 4.9731 5.95416 5.06151 6.00856C5.36754 6.22619 5.69398 6.386 6.04081 6.48801C6.38765 6.58322 6.77869 6.63083 7.21394 6.63083C7.826 6.63083 8.27825 6.51862 8.57068 6.29419C8.86991 6.06297 9.01952 5.76034 9.01952 5.3863C9.01952 5.08027 8.91071 4.84224 8.69309 4.67222C8.48227 4.49541 8.12523 4.35599 7.62198 4.25398L6.56107 4.03976C5.9218 3.90374 5.44235 3.68272 5.12272 3.37669C4.80989 3.06386 4.65347 2.64901 4.65347 2.13216C4.65347 1.81253 4.71808 1.5235 4.84729 1.26507C4.9765 0.999843 5.15672 0.77542 5.38795 0.591801C5.61917 0.401381 5.8946 0.255166 6.21423 0.153155C6.53387 0.0511442 6.8875 0.000138996 7.27514 0.000138996C7.70359 0.000138996 8.10143 0.0613454 8.46867 0.183758C8.84271 0.29937 9.17934 0.476189 9.47857 0.714213C9.55338 0.775419 9.60438 0.846827 9.63159 0.928435C9.65879 1.00324 9.66219 1.07805 9.64179 1.15286C9.62139 1.22087 9.58398 1.27867 9.52958 1.32628C9.48197 1.37388 9.41737 1.40108 9.33576 1.40789C9.26095 1.41469 9.17594 1.38748 9.08073 1.32628C8.8087 1.12226 8.52647 0.97604 8.23404 0.887631C7.94161 0.792421 7.61858 0.744816 7.26494 0.744816C6.9045 0.744816 6.59167 0.799222 6.32644 0.908034C6.06802 1.01684 5.864 1.17666 5.71438 1.38748C5.57157 1.5915 5.50016 1.82953 5.50016 2.10156C5.50016 2.42799 5.59877 2.68642 5.79599 2.87684C6.00001 3.06726 6.32984 3.20667 6.78549 3.29508L7.8464 3.5195C8.53327 3.66232 9.03993 3.87994 9.36636 4.17237C9.69959 4.458 9.86621 4.84904 9.86621 5.34549C9.86621 5.64472 9.80501 5.92015 9.68259 6.17178C9.56018 6.42341 9.38336 6.64103 9.15214 6.82465C8.92091 7.00147 8.64208 7.13748 8.31565 7.23269C7.98922 7.3279 7.62198 7.3755 7.21394 7.3755ZM13.1125 7.3755C12.6297 7.3755 12.2114 7.27009 11.8578 7.05927C11.5042 6.84845 11.2287 6.55262 11.0315 6.17178C10.8411 5.78414 10.7459 5.32849 10.7459 4.80484C10.7459 4.4104 10.8003 4.05676 10.9091 3.74393C11.0179 3.42429 11.1777 3.15227 11.3886 2.92784C11.5994 2.70342 11.8476 2.5334 12.1332 2.41779C12.4257 2.29538 12.7521 2.23417 13.1125 2.23417C13.5954 2.23417 14.0136 2.33958 14.3673 2.5504C14.7209 2.76123 14.9929 3.06046 15.1834 3.4481C15.3806 3.82894 15.4792 4.28118 15.4792 4.80484C15.4792 5.19928 15.4248 5.55292 15.316 5.86575C15.2072 6.17858 15.0473 6.45061 14.8365 6.68183C14.6257 6.90626 14.3741 7.07967 14.0816 7.20209C13.796 7.3177 13.473 7.3755 13.1125 7.3755ZM13.1125 6.71244C13.4186 6.71244 13.6872 6.63763 13.9184 6.48801C14.1496 6.3384 14.3265 6.12077 14.4489 5.83514C14.5781 5.54951 14.6427 5.20608 14.6427 4.80484C14.6427 4.18597 14.5033 3.71332 14.2245 3.38689C13.9524 3.06046 13.5818 2.89724 13.1125 2.89724C12.7997 2.89724 12.5277 2.97205 12.2965 3.12166C12.072 3.26448 11.8952 3.4787 11.766 3.76433C11.6436 4.04316 11.5824 4.38999 11.5824 4.80484C11.5824 5.4169 11.7218 5.88955 12.0006 6.22278C12.2795 6.54922 12.6501 6.71244 13.1125 6.71244ZM18.8217 7.3755C18.3253 7.3755 17.8968 7.26669 17.5364 7.04907C17.1759 6.83145 16.8971 6.52882 16.6999 6.14118C16.5095 5.74674 16.4143 5.29109 16.4143 4.77423C16.4143 4.37979 16.4687 4.02616 16.5775 3.71332C16.6863 3.40049 16.8461 3.13526 17.0569 2.91764C17.2677 2.69322 17.5194 2.5232 17.8118 2.40759C18.111 2.29198 18.4477 2.23417 18.8217 2.23417C19.0665 2.23417 19.3216 2.27157 19.5868 2.34638C19.852 2.42119 20.0934 2.5504 20.3111 2.73402C20.3791 2.78163 20.4233 2.83943 20.4437 2.90744C20.4641 2.97545 20.4641 3.04345 20.4437 3.11146C20.4233 3.17267 20.3893 3.22707 20.3417 3.27468C20.2941 3.31548 20.2329 3.33929 20.158 3.34609C20.09 3.35289 20.0186 3.32908 19.9438 3.27468C19.767 3.13866 19.5868 3.04345 19.4032 2.98905C19.2195 2.93464 19.0427 2.90744 18.8727 2.90744C18.6075 2.90744 18.3763 2.95165 18.179 3.04005C17.9818 3.12166 17.8152 3.24068 17.6792 3.39709C17.5432 3.55351 17.4378 3.74733 17.363 3.97855C17.2949 4.20978 17.2609 4.4784 17.2609 4.78444C17.2609 5.3761 17.4004 5.84535 17.6792 6.19218C17.958 6.53222 18.3559 6.70223 18.8727 6.70223C19.0427 6.70223 19.2161 6.67503 19.393 6.62063C19.5766 6.56622 19.7602 6.47101 19.9438 6.335C20.0186 6.28059 20.09 6.25679 20.158 6.26359C20.2261 6.27039 20.2839 6.29759 20.3315 6.3452C20.3791 6.386 20.4097 6.44041 20.4233 6.50841C20.4437 6.57642 20.4437 6.64443 20.4233 6.71244C20.4029 6.77364 20.3587 6.82805 20.2907 6.87565C20.073 7.05247 19.835 7.18168 19.5766 7.26329C19.3182 7.3381 19.0665 7.3755 18.8217 7.3755ZM21.8503 7.3347C21.7143 7.3347 21.6123 7.2973 21.5443 7.22249C21.4763 7.14088 21.4423 7.02867 21.4423 6.88585V2.71362C21.4423 2.57081 21.4763 2.46199 21.5443 2.38719C21.6123 2.31238 21.7143 2.27498 21.8503 2.27498C21.9795 2.27498 22.0815 2.31238 22.1563 2.38719C22.2311 2.46199 22.2685 2.57081 22.2685 2.71362V6.88585C22.2685 7.02867 22.2311 7.14088 22.1563 7.22249C22.0883 7.2973 21.9863 7.3347 21.8503 7.3347ZM21.8503 1.13246C21.6803 1.13246 21.5477 1.08825 21.4525 0.999843C21.3573 0.904633 21.3096 0.77882 21.3096 0.622403C21.3096 0.459187 21.3573 0.336774 21.4525 0.255166C21.5477 0.166757 21.6803 0.122552 21.8503 0.122552C22.0271 0.122552 22.1597 0.166757 22.2481 0.255166C22.3434 0.336774 22.391 0.459187 22.391 0.622403C22.391 0.77882 22.3434 0.904633 22.2481 0.999843C22.1597 1.08825 22.0271 1.13246 21.8503 1.13246ZM25.374 7.3755C25.0339 7.3755 24.7279 7.3109 24.4559 7.18168C24.1906 7.04567 23.9798 6.86205 23.8234 6.63083C23.667 6.3996 23.5888 6.14118 23.5888 5.85555C23.5888 5.48831 23.6806 5.19928 23.8642 4.98846C24.0546 4.77763 24.3641 4.62802 24.7925 4.53961C25.2278 4.4512 25.8194 4.407 26.5675 4.407H27.0265V4.94765H26.5777C26.0268 4.94765 25.5916 4.97486 25.272 5.02926C24.9591 5.07687 24.7381 5.16187 24.6089 5.28429C24.4865 5.4067 24.4253 5.58012 24.4253 5.80454C24.4253 6.08337 24.5205 6.31119 24.7109 6.48801C24.9081 6.66483 25.1734 6.75324 25.5066 6.75324C25.7786 6.75324 26.0166 6.68863 26.2207 6.55942C26.4315 6.43021 26.5947 6.25339 26.7103 6.02896C26.8327 5.80454 26.8939 5.54611 26.8939 5.25368V4.09076C26.8939 3.66912 26.8089 3.36649 26.6389 3.18287C26.4689 2.99245 26.1901 2.89724 25.8024 2.89724C25.5644 2.89724 25.3264 2.92784 25.0883 2.98905C24.8503 3.05026 24.5987 3.14887 24.3335 3.28488C24.2383 3.33248 24.1566 3.34949 24.0886 3.33589C24.0206 3.31548 23.9662 3.27808 23.9254 3.22367C23.8846 3.16927 23.8608 3.10806 23.854 3.04005C23.8472 2.96525 23.8608 2.89384 23.8948 2.82583C23.9356 2.75783 23.9968 2.70342 24.0784 2.66262C24.3777 2.513 24.6735 2.40419 24.9659 2.33618C25.2584 2.26817 25.5372 2.23417 25.8024 2.23417C26.2309 2.23417 26.5845 2.30558 26.8633 2.44839C27.1422 2.58441 27.3496 2.79523 27.4856 3.08086C27.6216 3.35969 27.6896 3.72013 27.6896 4.16217V6.92666C27.6896 7.06267 27.6556 7.16808 27.5876 7.24289C27.5264 7.3177 27.4346 7.3551 27.3122 7.3551C27.183 7.3551 27.0843 7.3177 27.0163 7.24289C26.9483 7.16808 26.9143 7.06267 26.9143 6.92666V6.13098H27.0061C26.9517 6.3894 26.8463 6.61043 26.6899 6.79404C26.5403 6.97766 26.3533 7.12048 26.1288 7.22249C25.9044 7.3245 25.6528 7.3755 25.374 7.3755ZM30.7323 7.3755C30.2427 7.3755 29.8686 7.22589 29.6102 6.92666C29.3518 6.62743 29.2226 6.19898 29.2226 5.64132V0.438785C29.2226 0.302771 29.2566 0.20076 29.3246 0.132753C29.3926 0.0579453 29.4946 0.0205415 29.6306 0.0205415C29.7598 0.0205415 29.8618 0.0579453 29.9366 0.132753C30.0114 0.20076 30.0488 0.302771 30.0488 0.438785V5.58012C30.0488 5.94736 30.1203 6.22278 30.2631 6.4064C30.4127 6.58322 30.6303 6.67163 30.9159 6.67163C30.9771 6.67163 31.0315 6.66823 31.0792 6.66143C31.1268 6.65463 31.1744 6.65123 31.222 6.65123C31.2968 6.64443 31.3478 6.66143 31.375 6.70223C31.409 6.74304 31.426 6.82465 31.426 6.94706C31.426 7.06947 31.3988 7.16128 31.3444 7.22249C31.29 7.28369 31.2016 7.3245 31.0792 7.3449C31.0247 7.3517 30.9669 7.3585 30.9057 7.3653C30.8445 7.3721 30.7867 7.3755 30.7323 7.3755ZM2.80529 21.6366C2.68287 21.6366 2.58426 21.606 2.50946 21.5448C2.43465 21.4768 2.37344 21.3782 2.32584 21.2489L0.0714024 14.8121C0.0237975 14.6693 0.0339986 14.5502 0.102006 14.455C0.176813 14.353 0.292425 14.302 0.448842 14.302C0.564454 14.302 0.656263 14.3326 0.72427 14.3938C0.792277 14.4482 0.850083 14.5366 0.897688 14.6591L3.00931 20.8511H2.65227L4.80469 14.6897C4.8523 14.5604 4.9101 14.4652 4.97811 14.404C5.04612 14.336 5.13793 14.302 5.25354 14.302C5.36235 14.302 5.44736 14.336 5.50857 14.404C5.57657 14.4652 5.63438 14.5604 5.68198 14.6897L7.8038 20.8511H7.48757L9.61959 14.6591C9.6536 14.5434 9.7046 14.455 9.77261 14.3938C9.84742 14.3326 9.94263 14.302 10.0582 14.302C10.2011 14.302 10.3065 14.3496 10.3745 14.4448C10.4425 14.54 10.4493 14.6625 10.3949 14.8121L8.13024 21.2489C8.08263 21.3782 8.02143 21.4768 7.94662 21.5448C7.87861 21.606 7.78 21.6366 7.65079 21.6366C7.52838 21.6366 7.42977 21.606 7.35496 21.5448C7.28695 21.4768 7.22574 21.3782 7.17134 21.2489L5.12093 15.3425H5.34535L3.27453 21.2489C3.22693 21.3782 3.16912 21.4768 3.10112 21.5448C3.03311 21.606 2.9345 21.6366 2.80529 21.6366ZM13.0777 21.657C12.5948 21.657 12.1766 21.5516 11.8229 21.3408C11.4693 21.1299 11.1939 20.8341 10.9967 20.4533C10.8062 20.0656 10.711 19.61 10.711 19.0863C10.711 18.6919 10.7654 18.3382 10.8742 18.0254C10.9831 17.7058 11.1429 17.4337 11.3537 17.2093C11.5645 16.9849 11.8127 16.8149 12.0984 16.6993C12.3908 16.5769 12.7172 16.5157 13.0777 16.5157C13.5605 16.5157 13.9788 16.6211 14.3324 16.8319C14.686 17.0427 14.9581 17.3419 15.1485 17.7296C15.3457 18.1104 15.4443 18.5627 15.4443 19.0863C15.4443 19.4808 15.3899 19.8344 15.2811 20.1472C15.1723 20.4601 15.0125 20.7321 14.8017 20.9633C14.5908 21.1877 14.3392 21.3612 14.0468 21.4836C13.7611 21.5992 13.4381 21.657 13.0777 21.657ZM13.0777 20.9939C13.3837 20.9939 13.6523 20.9191 13.8836 20.7695C14.1148 20.6199 14.2916 20.4023 14.414 20.1166C14.5432 19.831 14.6078 19.4876 14.6078 19.0863C14.6078 18.4675 14.4684 17.9948 14.1896 17.6684C13.9176 17.3419 13.5469 17.1787 13.0777 17.1787C12.7648 17.1787 12.4928 17.2535 12.2616 17.4031C12.0372 17.546 11.8603 17.7602 11.7311 18.0458C11.6087 18.3246 11.5475 18.6715 11.5475 19.0863C11.5475 19.6984 11.6869 20.171 11.9658 20.5043C12.2446 20.8307 12.6152 20.9939 13.0777 20.9939ZM17.1037 21.6366C16.9676 21.6366 16.8622 21.5992 16.7874 21.5244C16.7194 21.4496 16.6854 21.3442 16.6854 21.2081V16.9543C16.6854 16.8183 16.7194 16.7163 16.7874 16.6483C16.8554 16.5735 16.954 16.5361 17.0833 16.5361C17.2125 16.5361 17.3111 16.5735 17.3791 16.6483C17.4539 16.7163 17.4913 16.8183 17.4913 16.9543V17.7806H17.3893C17.4981 17.3793 17.7055 17.0699 18.0116 16.8523C18.3176 16.6347 18.695 16.5191 19.1439 16.5055C19.2459 16.4987 19.3275 16.5225 19.3887 16.5769C19.4499 16.6245 19.4839 16.7095 19.4907 16.8319C19.4975 16.9475 19.4703 17.0393 19.4091 17.1073C19.3479 17.1753 19.2527 17.2161 19.1235 17.2297L18.9603 17.2501C18.4978 17.2909 18.1408 17.4405 17.8891 17.699C17.6443 17.9506 17.5219 18.2974 17.5219 18.7395V21.2081C17.5219 21.3442 17.4845 21.4496 17.4097 21.5244C17.3417 21.5992 17.2397 21.6366 17.1037 21.6366ZM20.7495 21.6366C20.6135 21.6366 20.5115 21.5992 20.4435 21.5244C20.3755 21.4496 20.3415 21.3442 20.3415 21.2081V14.7203C20.3415 14.5843 20.3755 14.4822 20.4435 14.4142C20.5115 14.3394 20.6135 14.302 20.7495 14.302C20.8787 14.302 20.9807 14.3394 21.0555 14.4142C21.1303 14.4822 21.1677 14.5843 21.1677 14.7203V18.8109H21.1882L23.2794 16.8115C23.3746 16.7231 23.4562 16.6551 23.5242 16.6075C23.599 16.5599 23.6976 16.5361 23.82 16.5361C23.9288 16.5361 24.0138 16.5667 24.0751 16.6279C24.1363 16.6823 24.1635 16.7537 24.1567 16.8421C24.1567 16.9237 24.1159 17.0121 24.0342 17.1073L21.8104 19.2189V18.7701L24.2281 21.0449C24.3233 21.1401 24.3709 21.2319 24.3709 21.3204C24.3709 21.4088 24.3369 21.4836 24.2689 21.5448C24.2077 21.606 24.1261 21.6366 24.024 21.6366C23.9016 21.6366 23.803 21.6128 23.7282 21.5652C23.6534 21.5108 23.5616 21.4326 23.4528 21.3306L21.1882 19.2393H21.1677V21.2081C21.1677 21.4938 21.0283 21.6366 20.7495 21.6366ZM27.5465 21.657C27.0229 21.657 26.5706 21.555 26.1898 21.351C25.8157 21.1401 25.5233 20.8443 25.3125 20.4635C25.1085 20.0826 25.0065 19.627 25.0065 19.0965C25.0065 18.5797 25.1085 18.1308 25.3125 17.75C25.5165 17.3623 25.7953 17.0597 26.149 16.8421C26.5094 16.6245 26.9243 16.5157 27.3935 16.5157C27.7267 16.5157 28.026 16.5735 28.2912 16.6891C28.5564 16.7979 28.7808 16.9577 28.9645 17.1685C29.1549 17.3793 29.2977 17.6344 29.3929 17.9336C29.4949 18.2328 29.5459 18.5695 29.5459 18.9435C29.5459 19.0523 29.5153 19.1339 29.4541 19.1883C29.3929 19.2359 29.3045 19.2597 29.1889 19.2597H25.6389V18.7191H28.9951L28.8319 18.8517C28.8319 18.4845 28.7774 18.175 28.6686 17.9234C28.5598 17.665 28.4 17.4678 28.1892 17.3317C27.9852 17.1957 27.7267 17.1277 27.4139 17.1277C27.0671 17.1277 26.7712 17.2093 26.5264 17.3725C26.2884 17.529 26.1082 17.75 25.9858 18.0356C25.8633 18.3144 25.8021 18.6409 25.8021 19.0149V19.0761C25.8021 19.7018 25.9518 20.1778 26.251 20.5043C26.557 20.8307 26.9889 20.9939 27.5465 20.9939C27.7777 20.9939 28.0056 20.9633 28.23 20.9021C28.4612 20.8409 28.6856 20.7389 28.9033 20.5961C28.9985 20.5349 29.0835 20.5077 29.1583 20.5145C29.2399 20.5145 29.3045 20.5383 29.3521 20.5859C29.3997 20.6267 29.4303 20.6811 29.4439 20.7491C29.4643 20.8103 29.4575 20.8783 29.4235 20.9531C29.3963 21.0279 29.3385 21.0925 29.2501 21.1469C29.0257 21.3101 28.7604 21.436 28.4544 21.5244C28.1484 21.6128 27.8457 21.657 27.5465 21.657ZM31.16 21.6366C31.024 21.6366 30.9186 21.5992 30.8438 21.5244C30.7758 21.4496 30.7418 21.3442 30.7418 21.2081V16.9543C30.7418 16.8183 30.7758 16.7163 30.8438 16.6483C30.9118 16.5735 31.0104 16.5361 31.1396 16.5361C31.2688 16.5361 31.3674 16.5735 31.4354 16.6483C31.5102 16.7163 31.5476 16.8183 31.5476 16.9543V17.7806H31.4456C31.5544 17.3793 31.7619 17.0699 32.0679 16.8523C32.3739 16.6347 32.7514 16.5191 33.2002 16.5055C33.3022 16.4987 33.3838 16.5225 33.445 16.5769C33.5062 16.6245 33.5403 16.7095 33.5471 16.8319C33.5539 16.9475 33.5266 17.0393 33.4654 17.1073C33.4042 17.1753 33.309 17.2161 33.1798 17.2297L33.0166 17.2501C32.5541 17.2909 32.1971 17.4405 31.9455 17.699C31.7007 17.9506 31.5782 18.2974 31.5782 18.7395V21.2081C31.5782 21.3442 31.5408 21.4496 31.466 21.5244C31.398 21.5992 31.296 21.6366 31.16 21.6366ZM36.021 21.657C35.7149 21.657 35.4055 21.6196 35.0927 21.5448C34.7866 21.47 34.501 21.3408 34.2358 21.1571C34.1678 21.1095 34.1202 21.0551 34.093 20.9939C34.0658 20.9259 34.0556 20.8613 34.0624 20.8001C34.076 20.7321 34.1032 20.6743 34.144 20.6267C34.1916 20.5791 34.246 20.5519 34.3072 20.5451C34.3752 20.5315 34.45 20.5451 34.5316 20.5859C34.7968 20.7491 35.0519 20.8647 35.2967 20.9327C35.5483 20.9939 35.7965 21.0245 36.0414 21.0245C36.429 21.0245 36.7214 20.9531 36.9187 20.8103C37.1159 20.6675 37.2145 20.4737 37.2145 20.2288C37.2145 20.0384 37.1499 19.8888 37.0207 19.78C36.8915 19.6644 36.6874 19.576 36.4086 19.5148L35.4803 19.3107C35.0519 19.2223 34.7322 19.0693 34.5214 18.8517C34.3174 18.6341 34.2154 18.3518 34.2154 18.005C34.2154 17.699 34.2936 17.4371 34.45 17.2195C34.6132 16.9951 34.841 16.8217 35.1335 16.6993C35.4259 16.5769 35.7659 16.5157 36.1536 16.5157C36.4528 16.5157 36.735 16.5565 37.0003 16.6381C37.2723 16.7129 37.5171 16.8353 37.7347 17.0053C37.8028 17.0529 37.847 17.1107 37.8674 17.1787C37.8946 17.2399 37.898 17.3045 37.8776 17.3725C37.864 17.4337 37.8334 17.4882 37.7858 17.5358C37.7381 17.5766 37.6803 17.6004 37.6123 17.6072C37.5443 17.614 37.4729 17.5936 37.3981 17.546C37.1941 17.4099 36.9867 17.3113 36.7758 17.2501C36.565 17.1821 36.3576 17.1481 36.1536 17.1481C35.7727 17.1481 35.4837 17.2229 35.2865 17.3725C35.0893 17.5222 34.9907 17.7194 34.9907 17.9642C34.9907 18.1546 35.0519 18.311 35.1743 18.4335C35.2967 18.5559 35.4871 18.6443 35.7455 18.6987L36.6738 18.8925C37.1159 18.9877 37.4457 19.1407 37.6633 19.3515C37.8878 19.5556 38 19.8344 38 20.188C38 20.6369 37.8198 20.9939 37.4593 21.2591C37.0989 21.5244 36.6194 21.657 36.021 21.657Z" fill="#A1A1A1"/>
</svg>
